<svg xmlns="http://www.w3.org/2000/svg" viewBox="0 0 3000 3000" xmlns:xlink="http://www.w3.org/1999/xlink"><g id="tail"></g><g id="bodyFur"><clipPath id="furClipPath"><path d="M1211.5 866.4a240.2 240.2 0 0 1 129.5-37.8h158.2A240.5 240.5 0 0 1 1607 854c24.5-19.2 89.4-68.2 129.3-66.3a15 15 0 0 1 12.1 22.9L1684 914.8a240.5 240.5 0 0 1 47.2 89.2l295.1 960.1a248.1 248.1 0 0 1-6.4 155.9l.8.3c47.5 13.8 136.8 46.1 179.8 75.5 26.1 17.8 10.1 55.9-23.2 55.3l-261.6-5a246.8 246.8 0 0 1-65.3 28c2.8 13.3 12.3 21 28.1 21.9 18.2 1 23.7 18.6 24.5 25.5 2.3 21.2-5.8 34.7-27.9 36.9l-91.8 3a53.5 53.5 0 0 1-22.3-4 71.6 71.6 0 0 1-43.1-54.3l-3.5-20.7h-533.5l-5 26.6a71.4 71.4 0 0 1-8.8 23.9c-13.4 22.8-38.9 35.7-65.3 34.1l-84.3-5c-21.4-1.6-31.9-18.9-27.2-40.4 2.5-11.1 15.1-20.3 30.6-21.1 23.3-1.2 30.3-20.2 29.9-43.6v-3.3q-7.1-3.7-13.9-7.9L770 2251c-33.3.6-49.7-38.2-23.2-55.3 54-34.9 146.4-69.2 184.5-78.3l.6-.2a248.9 248.9 0 0 1-12.6-117.6l182.9-961.4a240.3 240.3 0 0 1 33-93.8l-60.5-108.1a15 15 0 0 1 .9-16c24.9-34.9 89.3 8.5 130.8 42.6z" fill="none"></path></clipPath><g clip-path="url(#furClipPath)"><path fill="#d0ead2" d="M724.1 562.8h1509.4v1824.09H724.1z"></path><path fill="#fff09f" d="M1181.5 2294.7c-5.6-14.6 3.2-56.8 20.7-141.2 10.5-50.5 18.8-83.4 24-105 38.8-161.9 16.1-179.6 50-276 23.1-65.9 47.1-131.2 111-162 7.6-3.7 65.9-30.7 125-7s81.2 80.6 105.3 141.9c29.1 74.1 20 99.7 53 285.3 6.9 38.6 13.7 77.2 20.6 115.8 4.1 22.7 8 45.3 12 68 9.4 53.2 9.6 54.1 9.4 56.2-9.7 78.5-486.6 140.6-531 24z"></path></g></g><g id="shadow" style="mix-blend-mode:multiply"><defs><clipPath id="shadowClipPath"><path d="M1211.5 866.4a240.2 240.2 0 0 1 129.5-37.8h158.2A240.5 240.5 0 0 1 1607 854c24.5-19.2 89.4-68.2 129.3-66.3a15 15 0 0 1 12.1 22.9L1684 914.8a240.5 240.5 0 0 1 47.2 89.2l295.1 960.1a248.1 248.1 0 0 1-6.4 155.9l.8.3c47.5 13.8 136.8 46.1 179.8 75.5 26.1 17.8 10.1 55.9-23.2 55.3l-261.6-5a246.8 246.8 0 0 1-65.3 28c2.8 13.3 12.3 21 28.1 21.9 18.2 1 23.7 18.6 24.5 25.5 2.3 21.2-5.8 34.7-27.9 36.9l-91.8 3a53.5 53.5 0 0 1-22.3-4 71.6 71.6 0 0 1-43.1-54.3l-3.5-20.7h-533.5l-5 26.6a71.4 71.4 0 0 1-8.8 23.9c-13.4 22.8-38.9 35.7-65.3 34.1l-84.3-5c-21.4-1.6-31.9-18.9-27.2-40.4 2.5-11.1 15.1-20.3 30.6-21.1 23.3-1.2 30.3-20.2 29.9-43.6v-3.3q-7.1-3.7-13.9-7.9L770 2251c-33.3.6-49.7-38.2-23.2-55.3 54-34.9 146.4-69.2 184.5-78.3l.6-.2a248.9 248.9 0 0 1-12.6-117.6l182.9-961.4a240.3 240.3 0 0 1 33-93.8l-60.5-108.1a15 15 0 0 1 .9-16c24.9-34.9 89.3 8.5 130.8 42.6z" fill="none"></path></clipPath><linearGradient id="shadowGradient" x1="1180.91" y1="2153.98" x2="1714.46" y2="2153.98" gradientUnits="userSpaceOnUse"><stop offset="0" stop-color="gray"></stop><stop offset=".27" stop-color="#7d7d7d"></stop><stop offset=".46" stop-color="#747474"></stop><stop offset=".64" stop-color="#646464"></stop><stop offset=".8" stop-color="#4d4d4d"></stop><stop offset=".95" stop-color="#303030"></stop><stop offset="1" stop-color="#242424"></stop></linearGradient><linearGradient id="shadowGradient2" x1="1713.27" y1="794.55" x2="1713.27" y2="927.94" gradientUnits="userSpaceOnUse"><stop offset="0" stop-color="gray"></stop><stop offset=".14" stop-color="#797979"></stop><stop offset=".35" stop-color="#646464"></stop><stop offset=".6" stop-color="#434343"></stop><stop offset=".89" stop-color="#141414"></stop><stop offset="1"></stop></linearGradient><linearGradient id="shadowGradient3" x1="1028.58" y1="855.47" x2="1028.58" y2="2254.41" href="#shadowGradient" xlink:href="#shadowGradient"></linearGradient><linearGradient id="shadowGradient4" x1="1971.82" y1="1970.17" x2="1971.82" y2="2305.13" href="#shadowGradient" xlink:href="#shadowGradient"></linearGradient><linearGradient id="shadowGradient5" x1="1041.15" y1="888.73" x2="1175.15" y2="888.73" href="#shadowGradient2" xlink:href="#shadowGradient2"></linearGradient></defs><g clip-path="url(#shadowClipPath)"><path d="M1213.2 2110.7c-22.2 91.8 60.8 117.5 83.2 119.2 41.2 3.1 203.6 5.6 287.7-7.9 43.8-7 109.2-65.4 87.3-196.3l43 256.8h-533.5z" opacity=".2" fill="url(#shadowGradient)"></path><path d="M1233.2 855.5c-66 66-73.4 124.2-101.7 248-48.7 214.1-107.5 671.9-126.3 823.4a910.2 910.2 0 0 0-6.8 98.4v3.4c23.5 26 47.6 88.8 52.6 176.8l1.3 49s-31.3-.8-81-.8c-62 0-110.8-111.7-79.2-278.2 28.4-149.5-68-915.5-68-915.5l282.1-44.3s16-102.2 127-160.2z" opacity=".2" fill="url(#shadowGradient3)"></path><path d="M1854.3 2157.4s29.9-91.4 66.3-124.9c-39.4 75 14.1 92.7 28.1 87.7 53.7-19.2 75-66.7 79.2-150l65.3 116.3s-55 256-204 214l-38.7-18.1z" opacity=".2" fill="url(#shadowGradient4)"></path><path d="M1781.2 799.5s-38-26-102 41.5l-33.7 40.5 56.1 46.5z" opacity=".4" fill="url(#shadowGradient2)" style="mix-blend-mode:multiply"></path><path d="M1041.2 839.5s27.5-18.9 71.6-.8a122.7 122.7 0 0 1 47.5 35.2l14.9 17.9-37.7 54.9z" opacity=".4" fill="url(#shadowGradient5)" style="mix-blend-mode:multiply"></path></g></g><g id="highlight" style="mix-blend-mode:overlay"><defs><clipPath id="highlightClipPath"><path d="M1211.5 866.4a240.2 240.2 0 0 1 129.5-37.8h158.2A240.5 240.5 0 0 1 1607 854c24.5-19.2 89.4-68.2 129.3-66.3a15 15 0 0 1 12.1 22.9L1684 914.8a240.5 240.5 0 0 1 47.2 89.2l295.1 960.1a248.1 248.1 0 0 1-6.4 155.9l.8.3c47.5 13.8 136.8 46.1 179.8 75.5 26.1 17.8 10.1 55.9-23.2 55.3l-261.6-5a246.8 246.8 0 0 1-65.3 28c2.8 13.3 12.3 21 28.1 21.9 18.2 1 23.7 18.6 24.5 25.5 2.3 21.2-5.8 34.7-27.9 36.9l-91.8 3a53.5 53.5 0 0 1-22.3-4 71.6 71.6 0 0 1-43.1-54.3l-3.5-20.7h-533.5l-5 26.6a71.4 71.4 0 0 1-8.8 23.9c-13.4 22.8-38.9 35.7-65.3 34.1l-84.3-5c-21.4-1.6-31.9-18.9-27.2-40.4 2.5-11.1 15.1-20.3 30.6-21.1 23.3-1.2 30.3-20.2 29.9-43.6v-3.3q-7.1-3.7-13.9-7.9L770 2251c-33.3.6-49.7-38.2-23.2-55.3 54-34.9 146.4-69.2 184.5-78.3l.6-.2a248.9 248.9 0 0 1-12.6-117.6l182.9-961.4a240.3 240.3 0 0 1 33-93.8l-60.5-108.1a15 15 0 0 1 .9-16c24.9-34.9 89.3 8.5 130.8 42.6z" fill="none"></path></clipPath><linearGradient id="highlightGradient" x1="1844.99" y1="2256.39" x2="1844.99" y2="835.98" gradientUnits="userSpaceOnUse"><stop offset="0" stop-color="#fff" stop-opacity="0"></stop><stop offset=".72" stop-color="#fff"></stop></linearGradient><linearGradient id="highlightGradient2" x1="2116.32" y1="2248.97" x2="2116.32" y2="2113.28" href="#highlightGradient" xlink:href="#highlightGradient"></linearGradient><linearGradient id="highlightGradient3" x1="1044.74" y1="2253.08" x2="1044.74" y2="2117.39" gradientTransform="matrix(-1 0 0 1 1878.82 0)" href="#highlightGradient" xlink:href="#highlightGradient"></linearGradient><linearGradient id="highlightGradient4" x1="916.62" y1="1544.97" x2="1280" y2="1544.97" href="#highlightGradient" xlink:href="#highlightGradient"></linearGradient></defs><g clip-path="url(#highlightClipPath)" opacity=".3"><path d="M1547.8 836.6s70.1 33.5 92.1 64.8 44.1 86.3 65.6 181c58.9 258.7 229.4 683.2 275.5 888s-92.3 286-92.3 286l61.1-35.5s63-74.8 72.5-107.6c20.8-71.9 139-33 117.2-147.7-31.7-166.5-305.7-970.5-305.7-970.5s-123.4-29.9-151.2-79.3c-20.7-36.8-73.2-64.7-124.1-79.9z" fill="url(#highlightGradient)"></path><path d="M1999.2 2162.4s113.2 21.1 98.4 83.6l92.6 3 43.3-6.5-4.3-68.5-206.8-60.7z" fill="url(#highlightGradient2)"></path><path d="M951.2 2166.5s-113.2 21.1-98.4 83.6l-92.6 3-43.3-6.5 4.3-68.5 206.8-60.7z" opacity=".7" fill="url(#highlightGradient3)"></path><path d="M1124.3 1019.4l-176.1 935.1s-53.5 175 102.2 279l.3 20.2s-124.5-57.2-133.5-215.2 100-604 100-604l81.8-433s88.4-169.6 181-165c0-.1-140.8 103.5-155.7 182.9z" fill="url(#highlightGradient4)" style="mix-blend-mode:overlay"></path></g></g><g id="bodyMask"><path d="M1211.5 866.4a240.2 240.2 0 0 1 129.5-37.8h158.2A240.5 240.5 0 0 1 1607 854c24.5-19.2 89.4-68.2 129.3-66.3a15 15 0 0 1 12.1 22.9L1684 914.8a240.5 240.5 0 0 1 47.2 89.2l295.1 960.1a248.1 248.1 0 0 1-6.4 155.9l.8.3c47.5 13.8 136.8 46.1 179.8 75.5 26.1 17.8 10.1 55.9-23.2 55.3l-261.6-5a246.8 246.8 0 0 1-65.3 28c2.8 13.3 12.3 21 28.1 21.9 18.2 1 23.7 18.6 24.5 25.5 2.3 21.2-5.8 34.7-27.9 36.9l-91.8 3a53.5 53.5 0 0 1-22.3-4 71.6 71.6 0 0 1-43.1-54.3l-3.5-20.7h-533.5l-5 26.6a71.4 71.4 0 0 1-8.8 23.9c-13.4 22.8-38.9 35.7-65.3 34.1l-84.3-5c-21.4-1.6-31.9-18.9-27.2-40.4 2.5-11.1 15.1-20.3 30.6-21.1 23.3-1.2 30.3-20.2 29.9-43.6v-3.3q-7.1-3.7-13.9-7.9L770 2251c-33.3.6-49.7-38.2-23.2-55.3 54-34.9 146.4-69.2 184.5-78.3l.6-.2a248.9 248.9 0 0 1-12.6-117.6l182.9-961.4a240.3 240.3 0 0 1 33-93.8l-60.5-108.1a15 15 0 0 1 .9-16c24.9-34.9 89.3 8.5 130.8 42.6z" fill="none"></path></g><g id="body"><path fill="none" stroke="#31323D" stroke-width="12.5" stroke-miterlimit="10" d="M1714.5 2282.4h-533.6m-130.2-28.7c-89.2-47.1-145.7-146.2-131.5-254.1l182.9-961.4c15.8-119.9 118-209.6 238.9-209.6h158.2c107.8 0 202.5 71.6 231.9 175.4l295.1 960.1c39 137.9-45.2 275-175.8 309.9" stroke-linecap="round"></path><path fill="#31323D" d="M1228.6 2040.8c-1.7 15.3-3.8 30.4-6 45.6l-3.5 22.7-3.8 22.6c-2.6 15.1-5.4 30.1-8.1 45.2l-8.3 45.1-16.6 90.3c-.8 4.1-2 8.2-3.5 12.1-1.5 3.9-3.3 7.8-5.4 11.4-4.2 7.3-9.6 13.9-16 19.4-12.9 11.1-29 17.6-45.9 18.8l-6.3.2h-6.1l-11.5-.7-22.9-1.3-45.8-2.8h-4.7l-1.8-.3c-2.3-.4-4.5-1-6.7-1.7-4.6-1.6-8.7-4.1-12.3-7.3-3.6-3.3-6.4-7.3-8.3-11.7-1.8-4.3-2.9-8.9-3.1-13.5-.2-4.4.1-8.9 1-13.2l.2-.8v-1.7l.3-1.1c.4-1.2.9-2.4 1.5-3.6 1.1-2.2 2.5-4.3 4.1-6.2 3.1-3.6 6.8-6.6 11-8.8 4-2.1 8.3-3.6 12.7-4.5 2.2-.4 4.4-.8 6.6-.9l2.7-.2 2.1-.3c1.5-.3 2.9-.7 4.3-1.2 1.3-.5 2.6-1.1 3.8-1.9 4.6-3 7.7-8.4 9.4-14.8 1.6-6.8 2.2-13.8 1.8-20.8l-.9-22.9-1.9-45.9c-.6-15.3-1.3-30.6-1.8-45.9v.5c-.6-5-1.3-9.9-2-14.9-.4-2.5-.8-4.9-1.2-7.4s-.9-4.9-1.4-7.3-1-4.9-1.6-7.3l-1.8-7.2c-1.3-4.8-2.7-9.5-4.4-14.2-.8-2.3-1.7-4.6-2.6-6.9s-1.8-4.6-2.9-6.8l-1.5-3.4-1.6-3.3-1.7-3.3-1.8-3.3-1.8-3.2-1.9-3.2-4-6.3c-1.4-2.1-2.8-4.1-4.3-6.2l-2.2-3-2.3-3c-.8-.9-.7-2.3.2-3.2s2.3-.7 3.2.2l5.4 5.6c1.7 1.9 3.4 3.9 5.1 5.9 1.7 2 3.3 4 4.8 6.1l2.3 3.2 2.2 3.2c1.5 2.2 2.9 4.3 4.2 6.6l2 3.4 1.9 3.4c1.3 2.3 2.4 4.6 3.5 7 1.1 2.4 2.2 4.7 3.2 7.2 2 4.8 3.8 9.7 5.4 14.7 1.6 5 3 10 4.2 15 .6 2.5 1.2 5.1 1.7 7.6s1.1 5.1 1.5 7.6c.9 5.1 1.7 10.2 2.4 15.3v.5c.9 15.3 1.6 30.6 2.4 45.8l2.3 45.8 1.1 22.9c.2 4.1.2 8.2-.1 12.3-.3 4.2-.9 8.4-1.9 12.5-.5 2.1-1.2 4.2-2 6.3-.9 2.1-1.9 4.2-3.1 6.2-2.5 4.1-5.8 7.7-9.8 10.4-4 2.6-8.5 4.5-13.2 5.3l-3.5.5-3 .2c-1.6.1-3.1.3-4.7.6-3.1.6-6 1.7-8.8 3.2-2.6 1.4-5 3.3-6.9 5.5-.9 1-1.6 2.1-2.2 3.3-.6 1.2-1 2.4-1.2 3.7-.7 3.2-.9 6.4-.7 9.6.2 3 .8 5.9 2 8.7 1.1 2.6 2.8 5 4.9 6.9 2.1 1.9 4.6 3.4 7.3 4.3 1.4.5 2.9.8 4.4 1.1l1 .2h3.9l45.8 2.7 22.9 1.4 11.5.7h10.5c13.8-.9 27-6.2 37.6-15.2 5.2-4.5 9.6-9.8 13.1-15.7 3.5-6 6-12.4 7.4-19.2l17.4-90.1 8.7-45.1c2.9-15 5.8-30 8.8-45l4.7-22.5 5-22.4c3.4-14.9 7-29.8 11-44.6.2-1.4 1.4-2.3 2.7-2.2s2.4 1.5 2.2 2.9z"></path><path fill="#31323D" d="M1095.2 2319.6h-.5l-1.7.2c-2 .3-4 1-5.8 2-2.6 1.4-4.8 3.2-6.7 5.5-1.1 1.3-2 2.6-2.9 4-.9 1.5-1.7 3-2.4 4.6l-.5 1.2-.5 1.2-.5 1.2-.4 1.3c-.5 1.7-.9 3.4-1.3 5l-.5 2.4c-.2.8-.3 1.6-.4 2.4s-.4 3-.6 4.4-.2 2.6-.3 3.7-.1 2.1-.2 2.9v2.7c.2 3.5-2.4 6.5-5.9 6.7-3.5.2-6.5-2.4-6.7-5.9 0-.5 0-1 .1-1.5 0-.3.1-.5.1-.8l.5-2.7c.2-.9.3-1.9.6-3.1s.5-2.6.9-4.1.8-3.1 1.3-4.8l.8-2.6.9-2.7c.7-1.8 1.4-3.7 2.3-5.5l.6-1.4.7-1.4.7-1.4.8-1.4c1.1-1.8 2.3-3.5 3.6-5.2 1.3-1.6 2.7-3.1 4.2-4.5 2.7-2.5 5.9-4.5 9.4-5.8 2.5-.9 5.1-1.4 7.7-1.5h3.1c1.3.1 2.3 1.3 2.2 2.7-.2 1.4-1.4 2.3-2.7 2.2zm-42.5-4.7h-.6l-1.6.4-2.5.9-.7.3-.8.4-1.6.9-1.7 1.1-1.7 1.3-.9.7-.8.8-1.6 1.7-1.5 2-.7 1-.6 1.1-1.3 2.2-1.1 2.4c-.3.8-.7 1.6-1 2.4l-.8 2.5-.8 2.4-.6 2.5c-.4 1.5-.8 3.1-1 4.7l-.6 4.3c-.2 1.2-.3 2.5-.3 3.7l-.2 2.8-.2 2.5v.4c.2 3.5-2.5 6.4-6 6.6-3.5.2-6.4-2.5-6.6-6 0-.5 0-.9.1-1.4 0-.3.1-.5.1-.8l.5-2.7.6-3.1c.3-1.2.4-2.5.9-4l1.3-4.7c.5-1.8 1.1-3.5 1.8-5.2l1-2.7 1.3-2.7 1.3-2.7c.5-.9 1.1-1.8 1.6-2.7l1.7-2.6 1.9-2.4.9-1.2 1.1-1.1 2.1-2.1 2.2-1.8 1.1-.9 1.2-.7 2.2-1.4 2.2-1.1 2.1-.8 1-.4 1-.3c1.1-.3 2.1-.5 3.2-.7l2.2-.2h.8c1.2-.1 2.3.8 2.4 2 .1 1.2-.8 2.3-2 2.4zm621-289.7l2.2 9.4c1.4 6.1 3.4 15.1 5.8 26.6 1.2 5.7 2.5 12.1 3.9 19l4.4 22.5 4.8 25.6 5 28.4 23.3 135.3c1.1 6.1 2 12.8 3.6 17.8 1.7 5.5 4.1 10.8 7.2 15.7 6.3 10 15.3 18.1 25.9 23.4l4.1 1.9 1.1.4 1 .4 2 .7c2.7.8 5.6 1.4 8.4 1.7l4.3.3h4.6l10-.3 40.1-1.4 39.4-1.2 2.5-.3 1.2-.2.9-.2 1.9-.4 1.9-.6c2.4-.8 4.5-2 6.5-3.5 1.8-1.5 3.3-3.3 4.3-5.4.2-.6.6-1.1.7-1.7l.6-1.8c.4-1.3.6-2.6.8-3.9.2-1.4.3-2.7.4-4.1v-2.1s0-1.4-.1-2.2l-.2-2.2v-.3c0 .2-.2.3-.3.2-.2 0-.3-.2-.2-.3 0-.2.2-.3.3-.2.1 0 .2.1.2.2v-1.6l-.2-.8-.2-.9c-.1-.6-.4-1.3-.6-1.9-1.7-5-4.7-9.3-8.4-11.7-2-1.2-4.1-2-6.4-2.3l-1.8-.2-2.6-.2h-1.2l-1.5-.2-2.9-.5c-3.8-.9-7.5-2.3-10.9-4.2-3.5-2-6.6-4.7-9.1-8-2.4-3.1-4.1-6.7-5.3-10.4-1-3.5-1.7-7.1-1.9-10.7-.1-.9-.1-1.7-.1-2.6v-7.2l.2-9.1.8-35.4.2-8.6v-4.6l.3-4.2.3-4.2c.1-1.4.2-2.7.4-4.2l1-8.4c1.5-10.6 3.6-21.1 6.4-31.5 2.5-9.5 5.6-18.8 9.1-28l2.7-6.4c.9-2.1 1.7-4.2 2.7-6.2l2.8-5.9c.9-1.9 1.8-3.9 2.8-5.7l2.9-5.4 1.4-2.6 1.5-2.5 2.9-4.9c.9-1.6 1.8-3.2 2.8-4.7l5.6-8.7 5.4-7.7 2.6-3.5 2.5-3.2c1.6-2.1 3.1-4.1 4.6-5.8l4.1-4.9 3.5-4 6.6-7.1c.8-.9 2.2-1.1 3.1-.3.9.8 1.1 2.2.3 3.1l-5.6 7.8c-3.6 5.1-8.8 12.6-14.9 22.5l-4.7 7.8-4.8 8.8c-.9 1.5-1.7 3.1-2.5 4.7l-2.5 4.9-1.3 2.5-1.2 2.6-2.5 5.4c-7.4 16.3-13.4 33.2-17.7 50.6l-.9 3.6-.4 1.8-.4 1.8-1.5 7.4-.4 1.9-.3 1.9-.6 3.8-.6 3.9-.3 1.9-.2 1.9-.9 7.8c-.2 1.3-.2 2.7-.3 4.1l-.3 4.2-.3 4.2v12.5l-.5 35.4v15.8s0 1.4.1 2c.2 2.5.7 5.1 1.4 7.5.7 2.2 1.8 4.3 3.2 6.2 2.7 3.6 6.9 5.8 12 6.9l1.8.3.9.2h1.2l2.2.2 3 .3c4.1.6 8.1 2 11.7 4.2 3.5 2.2 6.6 5.1 9 8.5 2.3 3.2 4.1 6.8 5.4 10.5.3.9.6 1.8.8 2.8l.4 1.4.3 1.6v2.9l.2 2.7c.1.9.1 1.8.1 2.8s.1 1.8 0 2.8c-.1 1.9-.2 3.8-.5 5.7-.3 2-.7 3.9-1.2 5.8l-1 2.9c-.3 1-.8 1.9-1.3 2.9-1.9 3.9-4.6 7.3-7.9 10.1-3.3 2.6-6.9 4.7-10.9 6l-2.8.9-3 .7-1.5.3-1.3.2-2.5.3h-5.7l-5 .2-10 .4-20.1.7-40.1 1.3-10 .3h-5.4l-5.6-.4c-3.7-.4-7.4-1.2-11-2.3l-2.7-.9-1.4-.5-1.2-.5-4.9-2.3c-12.9-6.5-23.7-16.4-31.4-28.6-3.8-6-6.7-12.4-8.7-19.2l-.7-2.6-.3-1.3c-.1-.4-.2-.9-.3-1.3l-.5-2.3-.2-1.2v-1.4l-1.5-9.3-22-135.6-4.5-28.5-3.8-25.7-3.2-22.7c-1-7-1.8-13.4-2.5-19.3-1.5-11.6-2.5-20.8-3.2-27.1l-1-9.6c.4-1.1 1.7-1.7 2.8-1.3.4.1.7.4 1 .7z"></path><path fill="#31323D" d="M1783.2 2307.4h3.2c2.7.3 5.4.8 8 1.7 1.8.6 3.5 1.3 5.1 2.1 1.9.9 3.6 2 5.3 3.3 1.8 1.3 3.5 2.9 5 4.5.7.9 1.5 1.7 2.2 2.7l1 1.4 1 1.5c1.2 1.9 2.4 4 3.3 6.1.9 2 1.7 4.1 2.4 6.2.4 1 .6 2 .9 3s.5 2 .7 2.9l.6 2.8.4 2.6c.3 1.7.4 3.2.6 4.6s.3 2.5.3 3.5l.2 3.1c-.2 3.5-3.1 6.2-6.6 6-3-.1-5.4-2.3-5.9-5.2v-1l.2-2.7c.1-.9.1-1.9.1-3.1s.1-2.6 0-4v-2.3l-.2-2.4c-.1-.8-.2-1.7-.3-2.5s-.2-1.8-.4-2.6c-.3-1.8-.8-3.6-1.3-5.3-.6-1.8-1.3-3.5-2.1-5.2l-.6-1.3-.7-1.2c-.4-.8-1-1.6-1.5-2.3-1-1.5-2.2-2.8-3.5-4.1-2.3-2.3-5-4.1-8-5.5-2.1-1-4.3-1.7-6.6-2.2l-1.9-.3h-.7c-1.3.1-2.4-1-2.5-2.3s1-2.4 2.3-2.5zm50.6-3.2h3.2c2.7.3 5.4.8 8 1.7 1.8.6 3.5 1.3 5.1 2.1 1.9.9 3.6 2 5.3 3.3 1.8 1.3 3.5 2.9 5 4.5.7.9 1.5 1.7 2.2 2.7l1 1.4 1 1.5c1.2 1.9 2.4 4 3.3 6.1.9 2 1.7 4.1 2.4 6.2.4 1 .6 2 .9 3s.5 2 .7 2.9l.6 2.8.4 2.6c.3 1.7.4 3.2.6 4.6s.3 2.5.3 3.5l.2 3.1c.5 3.4-2 6.6-5.4 7.1-3.4.5-6.6-2-7.1-5.4-.1-.5-.1-1.1 0-1.6v-.3l.2-2.7c.1-.9.1-1.9.1-3.1s.1-2.6 0-4v-2.3l-.2-2.4c-.1-.8-.2-1.7-.3-2.5s-.2-1.8-.4-2.6c-.3-1.8-.8-3.6-1.3-5.3-.6-1.8-1.3-3.5-2.1-5.2l-.6-1.3-.7-1.2c-.4-.8-1-1.6-1.5-2.3-1-1.5-2.2-2.8-3.5-4.1-2.3-2.3-5-4.1-8-5.5-2.1-1-4.3-1.7-6.6-2.2l-1.9-.3h-.7c-1.3.1-2.4-1-2.5-2.3s1-2.4 2.3-2.5z"></path><path fill="none" stroke="#31323D" stroke-width="12.5" stroke-miterlimit="10" d="M1206.2 862.9c-41.5-34.1-105.9-77.5-130.8-42.6-3.4 4.7-3.7 10.9-.9 16l60.5 108.1m472-90.4c24.5-19.2 89.4-68.2 129.3-66.3 8.3.4 14.7 7.4 14.3 15.6-.1 2.6-.9 5.1-2.2 7.3L1684 914.8M931.3 2117.4c-38.1 9.1-130.4 43.4-184.5 78.3-26.5 17.1-10.1 55.9 23.2 55.3l280.4-5.5" stroke-linecap="round"></path><path fill="#31323D" d="M840.5 2200.1l-.7.2-2 .6-3.1 1-4 1.5-4.5 2.1c-1.6.8-3.2 1.8-4.7 2.8-1.6 1.1-3 2.2-4.4 3.5-1.4 1.3-2.6 2.7-3.7 4.2l-.8 1.1-.7 1.2c-.4.8-.8 1.6-1.1 2.4-.2.4-.3.8-.4 1.2l-.3 1.2c-.2.8-.3 1.6-.4 2.4v3.6c0 .4.1.8.1 1.2 0 .7.1 1.5.3 2.2.2.7.3 1.4.5 2.1.3 1.2.7 2.4 1.2 3.6.4 1 .8 1.9 1.2 2.8l1.2 2.4.2.3c1.3 3.2-.3 6.9-3.5 8.2-2.9 1.2-6.2 0-7.8-2.7l-.3-.7-1.1-3.1c-.4-1-.7-2.2-1.1-3.7-.4-1.6-.8-3.3-1-4.9-.1-.9-.2-1.9-.3-2.9-.1-1.1-.1-2.1-.1-3.2v-1.7l.2-1.7c.1-.6.1-1.2.2-1.7l.4-1.8c.3-1.2.6-2.4 1-3.5.2-.6.4-1.1.7-1.7l.8-1.7c.6-1.1 1.3-2.2 2-3.2l1.1-1.5 1.2-1.4c1.6-1.8 3.4-3.5 5.4-4.9 1.8-1.4 3.8-2.6 5.8-3.6 1.9-1 3.8-1.8 5.7-2.6l5.2-1.8 4.4-1.2 3.5-.7 2.3-.3h.8c1.2-.2 2.4.6 2.6 1.8.2 1.2-.6 2.4-1.8 2.6h-.2zm-47.5 2h-.6l-1.7.5c-2 .7-4 1.5-5.9 2.5-1.2.7-2.4 1.4-3.6 2.2-1.2.9-2.4 1.8-3.5 2.9-1.1 1.1-2.1 2.4-2.9 3.7-.8 1.3-1.5 2.7-2 4.2-.2.7-.4 1.5-.6 2.2-.1.8-.3 1.5-.3 2.3-.1 1.5-.1 3.1.1 4.6.2 1.4.4 2.9.8 4.3s.7 2.7 1.2 3.9l.6 1.7.7 1.5.6 1.3.6 1.1 1.1 2.1v.2c1.2 3.3-.5 6.9-3.7 8.1-2.8 1-5.9 0-7.5-2.5l-.3-.8-.9-2.7-.5-1.4-.5-1.7-.5-1.9c-.2-.7-.3-1.4-.5-2.2s-.6-3.3-.8-5.1c-.2-2-.3-3.9-.2-5.9.1-2.1.3-4.2.8-6.3.2-1.1.6-2.1.9-3.2.4-1.1.8-2.1 1.3-3.1 1-2 2.2-3.9 3.6-5.6 1.4-1.6 2.9-3 4.5-4.3 1.5-1.1 3.1-2.1 4.8-3 1.5-.8 3-1.4 4.6-2 2.3-.9 4.7-1.5 7.1-2l2-.3h.8c1.2-.2 2.4.6 2.6 1.8.2 1.2-.6 2.4-1.8 2.6h-.4v.3z"></path><path fill="none" stroke="#31323D" stroke-width="12.5" stroke-miterlimit="10" d="M2020.7 2120.2c47.5 13.8 136.8 46.1 179.8 75.5 26.1 17.8 10.1 55.9-23.2 55.3l-261.6-5.1" stroke-linecap="round"></path><path fill="#31323D" d="M2107.6 2193.7h.8l2.3.4 3.5.8 4.5 1.4 5.2 2c1.9.8 3.8 1.8 5.6 2.8 2 1.1 3.9 2.4 5.7 3.8 1.9 1.5 3.7 3.2 5.3 5.1l1.2 1.5 1.1 1.6c.7 1.1 1.3 2.2 1.9 3.3.3.6.5 1.2.8 1.7s.5 1.2.7 1.8l.6 1.8.3.9.2.9c.3 1.2.5 2.3.6 3.5.1 1.1.2 2.3.2 3.4 0 2.1-.1 4.1-.4 6.2-.2 1.7-.6 3.4-1 5-.4 1.5-.7 2.8-1.1 3.7l-1.1 3.2c-1.6 3.1-5.3 4.4-8.5 2.8-2.5-1.3-3.9-4.1-3.3-6.9l.3-.7.2-.3 1.2-2.4c.4-.8.7-1.7 1.2-2.8s.8-2.3 1.2-3.7c.4-1.4.6-2.9.8-4.4.1-.8.1-1.6.1-2.4 0-.8 0-1.7-.1-2.5v-1.2l-.2-1.3c-.1-.4-.2-.8-.4-1.3-.1-.4-.2-.9-.4-1.3-.3-.9-.7-1.7-1.1-2.5l-.7-1.2-.8-1.2c-1.1-1.6-2.3-3.1-3.7-4.4-1.4-1.4-2.8-2.6-4.4-3.8-1.5-1.1-3.1-2.1-4.7-3l-4.5-2.3c-2.3-1.1-4.7-2.1-7.1-2.9l-2-.6-.7-.2h-.1c-1.2-.4-1.8-1.6-1.5-2.7.3-1 1.3-1.7 2.3-1.6zm47.5 2h.8l2.1.4c2.4.6 4.8 1.4 7.1 2.4 1.5.7 3 1.4 4.5 2.3 1.6 1 3.2 2.1 4.7 3.3 1.6 1.4 3.1 2.9 4.4 4.5 2.1 2.6 3.7 5.6 4.8 8.8.4 1.1.6 2.2.9 3.2s.4 2.2.6 3.3.3 2.2.2 3.2.1 2.1 0 3.1l-.2 2.9c-.3 1.8-.5 3.6-.8 5.2l-.5 2.3-.6 2-.5 1.8-.5 1.4-.9 2.7c-1.6 3.1-5.3 4.4-8.5 2.8-2.5-1.3-3.9-4.1-3.3-6.9l.3-.7v-.3l1.1-2.2.6-1.2.6-1.4.7-1.6.6-1.7c.5-1.2.8-2.6 1.2-4l.4-2.2c.2-.7.2-1.5.3-2.3s.1-1.5.1-2.3-.1-1.6-.1-2.4-.2-1.6-.3-2.4c-.2-.8-.4-1.5-.6-2.3-.5-1.5-1.2-3-2-4.4-.8-1.4-1.8-2.7-2.9-3.9-1.1-1.2-2.3-2.2-3.5-3.2-1.1-.9-2.4-1.7-3.6-2.4-1.9-1.1-3.9-2.1-5.9-2.9l-1.7-.6-.6-.2h-.1c-1-.6-1.4-2-.8-3 .4-.7 1.1-1.1 1.9-1.1z"></path></g><g id="eye"><circle fill="#FFF" cx="1702.8" cy="1118" r="129.7"></circle><clipPath id="eyeClipPath"><circle cx="1702.8" cy="1118" r="129.7"></circle></clipPath><g clip-path="url(#eyeClipPath)"><circle fill="#a56429" cx="1673.8" cy="1125.5" r="100.1"></circle><circle fill="#31323D" cx="1670.8" cy="1127.4" r="83"></circle><ellipse transform="rotate(-7.499 1710.423 1057.792)" fill="#FFF" cx="1710.1" cy="1057.6" rx="44.2" ry="44.2"></ellipse></g><circle fill="none" stroke="#31323D" stroke-width="10" stroke-linecap="round" stroke-miterlimit="10" cx="1702.8" cy="1118" r="129.7"></circle><circle fill="#FFF" cx="1161.5" cy="1129.3" r="129.7"></circle><clipPath id="eyeClipPath2"><circle cx="1161.5" cy="1129.3" r="129.7"></circle></clipPath><g clip-path="url(#eyeClipPath2)"><circle fill="#a56429" cx="1192.7" cy="1131.4" r="100.1"></circle><circle fill="#31323D" cx="1189.6" cy="1133.3" r="83"></circle><ellipse transform="rotate(-7.499 1229.138 1063.542)" fill="#FFF" cx="1228.9" cy="1063.3" rx="44.2" ry="44.2"></ellipse></g><circle fill="none" stroke="#31323D" stroke-width="10" stroke-linecap="round" stroke-miterlimit="10" cx="1161.5" cy="1129.3" r="129.7"></circle></g><g id="mouth"><path d="M1608.1,1318.4c21.8,70.2,0,124.5,0,124.5-26.6,79.8-121.2,120.2-211.2,90.2-38.1-12.7-69.2-35.9-90.5-64.6,0,0-38.3-46.9-8.3-99.4" fill="#d0ead2"></path><path d="M1427.1,1274.9l-10.1,99.2c-1.7,16.7-24.5,20.1-31,4.6l-13.8-33.1,29.1-24Z" fill="#fff" stroke="#31323d" stroke-linecap="round" stroke-miterlimit="10" stroke-width="7"></path><path d="M1443.5,1266.7l21.6,94.4c6.5,23.2,39.3,23.5,46.2.4l13.8-46.1" fill="#fff" stroke="#31323d" stroke-linecap="round" stroke-miterlimit="10" stroke-width="7"></path><path d="M1308.5,1471.3s23.7,133.7,171.7,123.7c126.5-8.5,126.4-147.7,126.4-147.7s-33.9,95.7-163.1,97.7C1361.7,1539.5,1308.5,1471.3,1308.5,1471.3Z" fill="#595959" opacity=".2" style="mix-blend-mode:multiply"></path><path d="M1371.7,1227a15,15,0,0,1,2.6-16.1c8.4-9.3,26.7-23.4,62.2-25.9s53.2,8.7,61.8,17a14.9,14.9,0,0,1,3.5,15.9h0a20.8,20.8,0,0,1-17.4,13.5c-10,1-23.7,4.9-31.6,17.9a13.2,13.2,0,0,1-1.7,2.3l-0.3.3a17.7,17.7,0,0,1-25.3.2h0s-8.1-12-35-12.4a20.7,20.7,0,0,1-18.5-12.3V1227Z" fill="#31323d"></path><path d="M1446.8,1255.9l0.4,0.6,0.5,0.6,0.7,0.9c1.1,1.4,2.9,3.5,5.3,6s5.4,5.6,9,8.9,7.9,6.8,12.7,10.5c2.5,1.8,5,3.7,7.7,5.4l4.2,2.7,4.4,2.7a168.1,168.1,0,0,0,19.5,9.9c3.4,1.6,7.1,2.8,10.7,4.2l5.6,1.8c1.9,0.6,3.8,1.2,5.7,1.7l5.8,1.5c1.9,0.5,3.9.8,5.9,1.2l3,0.6,1.5,0.3,1.5,0.2,6,0.8,3,0.4,3,0.2,6.1,0.5h12.1l6-.3h3l3-.2,5.9-.6,2.9-.3,2.9-.4,11.2-1.9,10.6-2.5c1.7-.4,3.4-0.9,5.1-1.4l4.9-1.4,4.7-1.4,4.5-1.6,8.4-3,3.8-1.5,3.6-1.5,6.5-2.8,2.9-1.3,2.6-1.3,10.3-5h0.1a1.5,1.5,0,0,1,1.4,2.7l-10.1,5.5-2.6,1.4-2.8,1.5-6.5,3.1-3.6,1.7c-1.2.6-2.5,1.2-3.8,1.7l-8.4,3.4-4.5,1.8-4.8,1.6-4.9,1.7c-1.7.6-3.4,1.2-5.1,1.6l-10.8,3-11.4,2.5-2.9.5-3,.5-6,.9-3.1.4-3.1.3-6.2.6-6.3.2-6.4.2-6.4-.2h-3.2l-3.2-.2-6.4-.6H1548l-1.6-.2-3.2-.5c-2.1-.3-4.2-0.6-6.3-1l-6.2-1.3c-2.1-.4-4.1-1-6.1-1.5l-6-1.6c-3.9-1.3-7.9-2.4-11.6-4a179.9,179.9,0,0,1-21.3-9.6l-4.8-2.6-4.6-2.7c-3-1.8-5.8-3.7-8.5-5.5-5.3-3.7-10.1-7.3-14.1-10.7s-7.5-6.5-10.2-9.2-4.8-4.9-6.2-6.5l-0.9-1-0.7-.8-0.5-.6a7.5,7.5,0,1,1,11.5-9.6l0.2,0.2h0.1Z" fill="#31323d"></path><path d="M1177.3,1333.3l3.2,1.8c2.1,1.1,5.2,2.8,9.2,4.8a284.9,284.9,0,0,0,34.3,14c7.3,2.4,15.2,4.7,23.7,6.7a216.2,216.2,0,0,0,27,4.5,175.2,175.2,0,0,0,29.1.6,140.6,140.6,0,0,0,29.3-5.1,126.6,126.6,0,0,0,14-4.9c2.2-1,4.5-1.9,6.7-3.1l3.3-1.6,3.2-1.8a122.3,122.3,0,0,0,22.9-16.9,146.9,146.9,0,0,0,17.8-19.9c1.2-1.7,2.5-3.4,3.7-5.1l3.4-5.1c2.1-3.4,4.2-6.7,5.9-10,3.7-6.5,6.6-12.8,9.1-18.3s4.4-10.5,5.9-14.7,2.6-7.4,3.3-9.6l1.1-3.4v-0.2a7.5,7.5,0,0,1,14.2,4.7v0.3l-1.3,3.5c-0.9,2.3-2.1,5.7-3.9,10s-4,9.4-6.8,15.2-6.1,12.3-10.3,19.1c-2,3.4-4.3,6.9-6.7,10.5l-3.8,5.3c-1.3,1.8-2.8,3.5-4.2,5.4a158.7,158.7,0,0,1-20,20.8,133,133,0,0,1-25.5,17.4l-3.5,1.8-3.6,1.7c-2.4,1.2-4.9,2.1-7.3,3.1a135.9,135.9,0,0,1-15.2,4.7,149.1,149.1,0,0,1-31.3,4.3,182.5,182.5,0,0,1-30.3-1.7,222.5,222.5,0,0,1-27.6-5.6c-8.6-2.3-16.7-5-24-7.7a289,289,0,0,1-34.2-15.5c-4-2.1-7.1-3.9-9.2-5.2l-3.2-2h0A1.5,1.5,0,0,1,1177.3,1333.3Z" fill="#31323d"></path><path d="M1542.4,1260.3l7.4-1.2c4.9-.8,11.9-1.9,21-3.1a703.9,703.9,0,0,1,75.4-5.9,689,689,0,0,1,106.6,5.7c19.4,2.6,39.3,6.1,59.3,10.6s40.1,10.1,59.9,16.6,39.2,14,58,22.3l13.9,6.3,13.6,6.7,6.7,3.4,6.6,3.5c4.4,2.3,8.8,4.6,13,7l12.6,7.2,12.1,7.4,3,1.8,2.9,1.9,5.8,3.8,5.7,3.7,5.6,3.8c14.8,10,28.3,20.2,40.4,29.9s22.9,19.1,32.3,27.6c4.6,4.3,9,8.3,12.9,12.1l5.7,5.5,5.1,5.1c3.2,3.2,6,6.1,8.5,8.7l3.4,3.5,2.8,3,5.1,5.5-5.1-5.4-2.8-2.9-3.4-3.5c-2.5-2.5-5.3-5.4-8.6-8.5l-5.1-5-5.7-5.4c-4-3.8-8.4-7.7-13.1-11.9-9.5-8.3-20.3-17.6-32.7-27.1s-25.9-19.5-40.8-29.2l-5.6-3.7-5.8-3.6-5.8-3.7-2.9-1.8-3-1.8-12.2-7.2-12.6-7c-4.2-2.4-8.6-4.5-13-6.8l-6.6-3.4-6.7-3.2-13.6-6.4-13.9-6.1c-18.7-7.9-38.2-15.1-57.9-21.3s-39.7-11.4-59.6-15.6-39.6-7.4-58.9-9.6a681.3,681.3,0,0,0-105.5-4,694.9,694.9,0,0,0-74.3,6.9c-8.9,1.3-15.9,2.5-20.6,3.4l-7.3,1.4h0a5,5,0,0,1-1.8-9.8h0.1Z" fill="#31323D"></path><path d="M1342,1293.3l-4.6-.9c-3-.5-7.4-1.3-13.1-2.1a355.2,355.2,0,0,0-47.4-3.1,343.7,343.7,0,0,0-66.9,6.4,312.1,312.1,0,0,0-36.7,9.7A298.7,298.7,0,0,0,1137,1318a277.7,277.7,0,0,0-34,19.6c-5.4,3.5-10.5,7.5-15.7,11.2s-10,7.9-14.5,12.1l-3.5,3-3.3,3.1-6.5,6.3-6.1,6.4c-2,2.1-3.9,4.3-5.8,6.4a289.4,289.4,0,0,0-19.9,25.1c-5.7,8.1-10.6,15.8-14.7,22.8l-2.9,5.1-2.6,4.8c-1.6,3.1-3.1,5.9-4.4,8.5-2.6,5.2-4.5,9.3-5.7,12.2l-1.9,4.4,1.8-4.4c1.2-2.9,3-7.1,5.5-12.3,1.2-2.7,2.7-5.5,4.2-8.7l2.5-4.8c0.9-1.7,1.8-3.4,2.8-5.2,3.9-7.1,8.6-14.9,14.2-23.2a291.4,291.4,0,0,1,19.4-25.7c1.9-2.2,3.7-4.4,5.7-6.6l6-6.6,6.4-6.5,3.3-3.3,3.4-3.2c4.6-4.4,9.4-8.3,14.3-12.5s10.2-8,15.6-11.7a282.2,282.2,0,0,1,34.1-20.7,304.1,304.1,0,0,1,36.7-15.8,318.4,318.4,0,0,1,37.2-10.7,351.3,351.3,0,0,1,68.2-8.2,364.3,364.3,0,0,1,48.6,2.1c5.9,0.7,10.4,1.3,13.6,1.8l4.8,0.8a5,5,0,1,1-1.6,9.9H1342Z" fill="#31323D"></path><path d="M714.1,1421l5.5-4.7c3.6-3,8.9-7.4,15.7-12.9,13.7-10.9,33.6-26,58.8-42.4a739.6,739.6,0,0,1,89.6-49.8c17-8,34.9-15.5,53.4-22.4s37.5-13.2,56.9-18.6,38.8-10,58.3-13.7l14.5-2.6,3.7-.6,3.6-.5,7.2-1.1,7.1-1.1,7.2-.9,7.1-.9,3.5-.4,3.5-.4,13.9-1.4,13.7-1c4.5-.4,9-0.5,13.4-0.8l6.6-.3,6.5-.2,12.8-.3h12.4l12,0.2h5.8l5.7,0.2,11.1,0.5,10.5,0.6,10,0.8,9.4,0.8,8.8,0.9,8.2,1,14.5,1.9,11.6,1.7,8.6,1.4,7.1,1.2a5,5,0,1,1-1.7,9.9h-0.2l-7-1.3-8.4-1.5-11.4-1.9-14.2-2.1-8.1-1.1-8.7-1-9.3-1-9.9-.9-10.4-.8-10.9-.7-5.6-.3-5.8-.2-11.8-.4-12.2-.2h-19.1l-6.5.2c-4.4.2-8.8,0.2-13.3,0.5l-13.6.8-13.8,1.1-3.5.3-3.5.4-7,.8-7.1.8-7.1,1-7.2,1-3.6.5-3.6.6-14.4,2.3c-19.3,3.3-38.8,7.6-58,12.7s-38.3,11-56.8,17.6-36.4,13.8-53.4,21.5a737.3,737.3,0,0,0-90,48.3c-25.4,15.9-45.5,30.7-59.3,41.4-6.9,5.3-12.3,9.7-15.9,12.6Z" fill="#31323D"></path><path d="M1567.1,1232.8l321.4-34.7h1.1l0.8,0.7,65.5,54-2-.2,85.6-41.8,0.8-.4,0.5,0.6,40.4,45.9h-0.9l51.1-61.9-50.2,62.6-0.5.6-0.5-.5-41.2-45.3,1.3,0.3-85,43.1-1,.5-0.9-.7-66.3-52.9,1.9,0.5-320.8,39.7a5,5,0,1,1-1.2-9.9h0.1Z" fill="#31323D"></path><path d="M1326.7,1314.5l-0.6-.2-1.7-.5c-1.6-.4-3.8-1-6.8-1.6a118.2,118.2,0,0,0-25-2.2,106.7,106.7,0,0,0-16.7,1.7,93.4,93.4,0,0,0-18,5.2,86.7,86.7,0,0,0-17.7,9.5l-2.2,1.5-2,1.6-4,3.3a96.2,96.2,0,0,0-7.5,7.4,98.4,98.4,0,0,0-12.4,17,106.3,106.3,0,0,0-8.5,18.6,110.3,110.3,0,0,0-4.7,18.7,119.5,119.5,0,0,0-1.5,17.2,117.9,117.9,0,0,0,.7,14.7c0.4,4.4,1.1,8.1,1.7,11.2s1.2,5.5,1.6,7.1l0.7,2.5-0.8-2.5c-0.5-1.6-1.2-4-2-7.1s-1.6-6.8-2.2-11.2a119,119,0,0,1-1.3-14.8,121.5,121.5,0,0,1,.8-17.6,113,113,0,0,1,4-19.3,109.9,109.9,0,0,1,7.9-19.6,102.9,102.9,0,0,1,12.2-18.3,101.4,101.4,0,0,1,7.6-8.1c1.4-1.2,2.7-2.5,4.1-3.7l2.2-1.8,2.1-1.6a93.1,93.1,0,0,1,18.5-11,100.6,100.6,0,0,1,19.1-6.4,114.8,114.8,0,0,1,17.9-2.6,127.2,127.2,0,0,1,27,1.2c3.2,0.5,5.8,1,7.5,1.4l2,0.5,0.6,0.2a5,5,0,1,1-2.4,9.7h-0.2Z" fill="#31323D"></path><path d="M1556,1281.8l2.7-.3,7.9-.7,5.7-.2h6.7a128.8,128.8,0,0,1,15.9,1.6,121.4,121.4,0,0,1,37.5,12.7,115.4,115.4,0,0,1,18.5,12.5,106.4,106.4,0,0,1,16,16.5,102.8,102.8,0,0,1,6.6,9.5c1,1.7,2,3.3,2.8,5l1.3,2.6,1.2,2.5c0.8,1.6,1.5,3.5,2.3,5.2s1.3,3.5,1.9,5.2a103.3,103.3,0,0,1,2.9,10.5,102.2,102.2,0,0,1,2.3,20.4,114.4,114.4,0,0,1-1.2,18.3,128.8,128.8,0,0,1-6.7,26.5c-1.1,3.1-2.2,5.5-2.9,7.1l-1.2,2.4,1-2.5c0.7-1.6,1.6-4,2.6-7.2a127.8,127.8,0,0,0,5.6-26.5,112.5,112.5,0,0,0,.4-18,100.1,100.1,0,0,0-6.3-29.8c-0.7-1.6-1.3-3.3-2.1-4.9s-1.4-3.2-2.4-4.9a95.2,95.2,0,0,0-12.2-18.2,100.9,100.9,0,0,0-15.8-15,109.1,109.1,0,0,0-17.9-11,113.8,113.8,0,0,0-35.6-10.4,120.1,120.1,0,0,0-14.8-.9h-6.2l-5.2.4-7.3,1-2.7.4a5,5,0,1,1-1.6-9.9h0.2Z" fill="#31323D"></path><path d="M1610.5,1443.7l-1.1,4-0.6,2.2c-0.2.8-.5,1.7-0.8,2.6l-2.4,6.5c-1,2.4-2.1,5-3.5,7.8l-2.2,4.3-1.2,2.3-1.4,2.3c-0.9,1.5-1.8,3.2-2.9,4.8l-3.3,4.9c-0.5.9-1.2,1.7-1.8,2.5l-1.9,2.5-2,2.6-2.2,2.5-2.2,2.6-2.4,2.5c-1.6,1.7-3.2,3.5-5,5.1l-2.7,2.5-2.8,2.5-2.9,2.4-3,2.4c-2.1,1.5-4.1,3.2-6.3,4.7s-4.4,3-6.7,4.5l-3.5,2.1-3.6,2.1-3.7,2-3.7,1.9a168,168,0,0,1-32.5,11.9,178.4,178.4,0,0,1-35.3,5.3c-6,.3-12,0.3-17.9,0s-11.8-.9-17.7-1.7a190,190,0,0,1-33.5-7.9l-2-.6-1-.3-0.6-.2-0.5-.2-3.7-1.4c-2.4-.9-5-2-7.5-3.1s-4.9-2.2-7.3-3.3-4.6-2.3-6.9-3.5a181.6,181.6,0,0,1-42.5-31.2c-2.5-2.6-4.9-4.9-6.9-7.3l-2.9-3.4-2.6-3.1c-1.7-2-3-3.8-4.2-5.4s-2.2-3-2.9-4.1l-2.3-3.5a2.5,2.5,0,0,1,3.9-3.1h0.1l2.7,3,3.3,3.6c1.3,1.4,2.8,3,4.6,4.7l2.8,2.7,3.1,2.9c2.2,2,4.6,4.1,7.2,6.3a211,211,0,0,0,18.5,13.5,201.2,201.2,0,0,0,23.6,13.1c2.2,1,4.4,2.1,6.6,2.9s4.6,1.9,6.9,2.7l3.5,1.3,3.7,1.3,3.8,1.3,0.5,0.2c0.1,0.1-.1,0,0,0h0.3l0.9,0.3,1.9,0.5a196.7,196.7,0,0,0,31.3,6.5c5.4,0.7,10.9,1.1,16.4,1.3s11,0.2,16.5-.1a180.5,180.5,0,0,0,32.5-4.7,169.9,169.9,0,0,0,30.1-10.2l3.5-1.6,3.4-1.7c2.3-1.1,4.4-2.4,6.6-3.6s4.2-2.5,6.3-3.8,4-2.7,6-4l2.8-2.1,2.8-2.1,2.7-2.1,2.6-2.2c1.8-1.4,3.3-2.9,4.9-4.4l2.3-2.2,2.2-2.2,2.2-2.2,2-2.2c1.3-1.5,2.6-2.9,3.8-4.4l3.5-4.3c1.1-1.4,2.1-2.9,3.1-4.2s3.6-5.5,5.3-7.9,2.8-4.9,4.1-7l2.9-5.8c0.4-.8.8-1.7,1.1-2.4l0.9-2.1,1.7-3.8A2.5,2.5,0,0,1,1610.5,1443.7Z" fill="#31323d"></path></g></svg>