<?xml version="1.0" encoding="UTF-8" standalone="no"?>
<!DOCTYPE svg PUBLIC "-//W3C//DTD SVG 1.1//EN" "http://www.w3.org/Graphics/SVG/1.1/DTD/svg11.dtd">
<svg width="100%" height="100%" viewBox="0 0 418 227" version="1.1" xmlns="http://www.w3.org/2000/svg" xmlns:xlink="http://www.w3.org/1999/xlink" xml:space="preserve" xmlns:serif="http://www.serif.com/" style="fill-rule:evenodd;clip-rule:evenodd;stroke-linecap:round;stroke-linejoin:round;stroke-miterlimit:1.5;">
    <g transform="matrix(1,0,0,1,-517.253,-276.55)">
        <g>
            <g transform="matrix(0.955844,0,0,0.969614,45.6501,8.4739)">
                <path d="M512.959,312.25C705.846,305.371 830.112,375.609 897.959,509.25" style="fill:none;stroke:white;stroke-width:1.71px;stroke-dasharray:6.84,6.84,3.42,0;"/>
            </g>
            <g transform="matrix(0.738706,-0.210116,0.210116,0.738706,319.168,175.294)">
                <path d="M606.209,525.397C608.914,519.986 607.452,519.437 610.709,514.397C613.232,510.492 616.526,507.111 618.959,503.147C620.758,500.216 618.785,499.344 621.263,497.086C627.535,491.372 632.343,510.046 632.534,510.914C634.126,518.161 633.52,524.908 632.459,532.147C631.88,536.093 631.181,540.03 630.209,543.897C630.178,544.018 627.58,547.486 628.459,547.897C629.75,548.503 631.385,546.866 632.709,547.397C633.791,547.832 631.672,551.433 632.709,550.897C641.013,546.607 648.604,539.246 657.959,536.897C663.142,535.596 668.396,534.477 673.709,533.897C675.039,533.752 679.708,535.251 679.709,537.397C679.709,538.854 678.31,540.02 677.226,540.993C672.606,545.136 667.362,548.542 662.709,552.647C659.803,555.212 655.035,563.23 649.959,563.397C647.753,563.47 645.341,560.997 643.459,562.147C641.411,563.399 642.499,567.058 640.959,568.897C637.098,573.509 626.871,581.051 619.835,580.084C617.847,579.811 617.04,577.11 617.47,575.57C618.811,570.769 621.563,567.488 623.722,563.098C624.121,562.285 624.768,560.188 622.973,559.889C618.645,559.17 616.774,565.242 614.95,567.52C614.092,568.591 612.14,570.168 610.905,568.129C608.784,564.629 616.902,560.423 618.408,558.337C618.818,557.77 619.888,556.562 619.209,556.397C610.513,554.287 591.857,564.011 589.209,549.897C588.716,547.271 588.348,544.545 588.709,541.897C589.111,538.947 589.978,535.981 591.459,533.397C593.89,529.157 598.175,527.578 602.459,526.147C603.668,525.744 605.639,526.538 606.209,525.397" style="fill:url(#_Linear1);stroke:white;stroke-width:1.3px;"/>
            </g>
            <g transform="matrix(0.982209,-0.507683,0.507683,0.982209,-174.058,361.266)">
                <path d="M637.571,329.25C640.988,329.384 645.602,333.827 648.571,334.85C653.29,336.475 665.649,337.439 669.571,337.05C671.879,336.821 682.055,331.048 685.371,332.85C690.596,335.689 688.54,338.106 693.835,340.597C701.13,344.028 701.7,342.399 708.771,346.45C712.176,348.4 709.548,355.264 709.171,357.45C708.989,358.509 707.696,360.661 708.771,360.65C717.978,360.556 719.431,348.494 716.571,342.65C715.145,339.735 712.411,338.966 711.571,335.65C711.275,334.48 712.088,333.252 711.971,332.05C711.858,330.887 711.141,329.855 710.896,328.713C710.738,327.974 710.049,326.23 710.771,326.45C712.411,326.949 721.057,333.974 722.571,334.65C727.476,336.838 728.051,334.963 732.571,333.85C733.415,333.642 734.852,334.459 735.171,333.65C736.078,331.352 735.051,328.665 735.571,326.25C735.999,324.265 737.608,322.648 737.971,320.65C738.405,318.269 736.345,313.694 737.971,311.25C738.329,310.713 746.146,306.429 746.571,306.05C747.239,305.454 748.583,304.027 747.771,303.65C747.174,303.373 734.987,304.795 734.771,301.65C734.62,299.439 738.787,295.307 736.571,295.25C726.535,294.99 726.798,296.613 716.771,297.65C714.567,297.878 712.387,296.88 710.171,296.85C707.497,296.813 704.833,297.712 702.171,297.45C700.01,297.237 698.138,295.603 695.971,295.45C685.062,294.681 685.419,298.336 674.571,297.65C670.602,297.399 666.911,295.4 662.971,294.85C649.413,292.957 649.323,295.525 636.171,292.45C626.568,290.205 627.374,287.755 617.371,286.85C609.897,286.174 593.813,287.189 586.371,285.45C580.862,284.163 575.784,281.45 570.571,279.25C568.511,278.381 566.651,277.072 564.571,276.25C563.756,275.928 561.955,274.973 561.971,275.85C562.007,277.794 567.091,282.45 568.371,283.25C580.532,290.846 583.969,292.554 598.171,295.05C601.985,295.72 610.093,293.319 612.304,298.671C614.383,303.704 608.068,310.89 605.171,313.45C600.436,317.635 592.967,315.184 587.571,316.85C584.806,317.704 582.092,322.075 579.971,323.65C578.189,324.974 562.483,334.536 560.771,336.05C558.908,337.698 555.712,343.997 560.971,344.45C562.784,344.606 564.671,343.002 566.371,343.65C567.207,343.968 565.149,345.156 565.171,346.05C565.361,353.83 573.745,347.94 576.371,346.05C580.127,343.346 584.208,337.833 588.971,336.45C593.665,335.087 600.763,337.397 605.371,337.45C612.416,337.531 621.486,336.328 628.171,334.05C630.957,333.101 634.238,329.119 637.571,329.25" style="fill:white;stroke:white;stroke-width:1.17px;"/>
            </g>
        </g>
    </g>
    <defs>
        <linearGradient id="_Linear1" x1="0" y1="0" x2="1" y2="0" gradientUnits="userSpaceOnUse" gradientTransform="matrix(-49.25,37,-37,-49.25,641.459,538.897)"><stop offset="0" style="stop-color:rgb(209,127,48);stop-opacity:1"/><stop offset="1" style="stop-color:rgb(202,19,189);stop-opacity:1"/></linearGradient>
    </defs>
</svg>
