<?xml version="1.0" encoding="UTF-8" standalone="no"?>
<!DOCTYPE svg PUBLIC "-//W3C//DTD SVG 1.1//EN" "http://www.w3.org/Graphics/SVG/1.1/DTD/svg11.dtd">
<svg width="100%" height="100%" viewBox="0 0 55 52" version="1.1" xmlns="http://www.w3.org/2000/svg" xmlns:xlink="http://www.w3.org/1999/xlink" xml:space="preserve" xmlns:serif="http://www.serif.com/" style="fill-rule:evenodd;clip-rule:evenodd;stroke-linecap:round;stroke-linejoin:round;stroke-miterlimit:10;">
    <g transform="matrix(1,0,0,1,-848.914,-9043.13)">
        <g transform="matrix(0.581396,0,0,0.581396,212.254,7600.82)">
            <g>
                <path d="M1142.21,2484.93C1165.95,2484.93 1185.21,2502.85 1185.21,2524.93C1185.21,2547 1165.95,2564.93 1142.21,2564.93C1118.48,2564.93 1099.21,2547 1099.21,2524.93C1099.21,2502.85 1118.48,2484.93 1142.21,2484.93Z" style="fill:white;fill-opacity:0.592157;stroke:rgb(40,168,42);stroke-width:8.32px;"/>
                <path d="M1142.21,2497.93C1158.22,2497.93 1171.21,2510.47 1171.21,2525.93C1171.21,2541.38 1158.22,2553.93 1142.21,2553.93C1126.21,2553.93 1113.21,2541.38 1113.21,2525.93C1113.21,2510.47 1126.21,2497.93 1142.21,2497.93Z" style="fill:white;fill-opacity:0.6;stroke:rgb(40,168,42);stroke-width:8.32px;"/>
                <path d="M1142.75,2510.93C1151.33,2510.93 1158.29,2517.65 1158.29,2525.93C1158.29,2534.21 1151.33,2540.93 1142.75,2540.93C1134.18,2540.93 1127.21,2534.21 1127.21,2525.93C1127.21,2517.65 1134.18,2510.93 1142.75,2510.93Z" style="fill:white;fill-opacity:0.6;stroke:rgb(40,168,42);stroke-width:8.32px;"/>
            </g>
        </g>
    </g>
</svg>
