<?xml version="1.0" encoding="UTF-8" standalone="no"?>
<!DOCTYPE svg PUBLIC "-//W3C//DTD SVG 1.1//EN" "http://www.w3.org/Graphics/SVG/1.1/DTD/svg11.dtd">
<svg width="100%" height="100%" viewBox="0 0 948 386" version="1.1" xmlns="http://www.w3.org/2000/svg" xmlns:xlink="http://www.w3.org/1999/xlink" xml:space="preserve" xmlns:serif="http://www.serif.com/" style="fill-rule:evenodd;clip-rule:evenodd;stroke-linecap:round;stroke-linejoin:round;stroke-miterlimit:1.5;">
    <g transform="matrix(1,0,0,1,-38.3428,-4801.34)">
        <g transform="matrix(1,0,0,1,-2.37499,2019.56)">
            <g>
                <g transform="matrix(0.0149648,0,0,0.0566667,968.575,3141.51)">
                    <rect x="61.789" y="131.75" width="1136" height="300" style="fill:white;stroke:rgb(162,67,63);stroke-width:73.95px;"/>
                </g>
                <g transform="matrix(0.0149648,0,0,0.0566667,968.575,2775.85)">
                    <rect x="61.789" y="131.75" width="1136" height="300" style="fill:white;stroke:rgb(162,67,63);stroke-width:73.95px;"/>
                </g>
                <g transform="matrix(0.0149648,0,0,0.0566667,41.5753,3141.51)">
                    <rect x="61.789" y="131.75" width="1136" height="300" style="fill:white;stroke:rgb(162,67,63);stroke-width:73.95px;"/>
                </g>
                <g transform="matrix(0.0149648,0,0,0.0566667,41.3253,2776.35)">
                    <rect x="61.789" y="131.75" width="1136" height="300" style="fill:white;stroke:rgb(162,67,63);stroke-width:73.95px;"/>
                </g>
                <g transform="matrix(0.801056,0,0,1.16222,9.83657,2647.34)">
                    <rect x="61.789" y="131.75" width="1136" height="300" style="fill:white;stroke:rgb(162,67,63);stroke-width:3.07px;"/>
                </g>
                <g transform="matrix(11.7263,0,0,0.75,-775.559,1594.13)">
                    <rect x="71.333" y="1608.67" width="77.333" height="76" style="fill:rgb(162,67,63);stroke:rgb(162,67,63);stroke-width:0.37px;"/>
                </g>
            </g>
        </g>
    </g>
</svg>
