<?xml version="1.0" encoding="UTF-8" standalone="no"?>
<!DOCTYPE svg PUBLIC "-//W3C//DTD SVG 1.1//EN" "http://www.w3.org/Graphics/SVG/1.1/DTD/svg11.dtd">
<svg width="100%" height="100%" viewBox="0 0 622 479" version="1.1" xmlns="http://www.w3.org/2000/svg" xmlns:xlink="http://www.w3.org/1999/xlink" xml:space="preserve" xmlns:serif="http://www.serif.com/" style="fill-rule:evenodd;clip-rule:evenodd;stroke-linecap:round;stroke-linejoin:round;stroke-miterlimit:1.5;">
    <g transform="matrix(1,0,0,1,0.00113366,0.00104762)">
        <g transform="matrix(1,0,0,1,-557.488,-230.808)">
            <g transform="matrix(0.889983,-0.0481403,0.0417178,0.654205,-76.0647,165.023)">
                <path d="M994.58,179.341L1130.99,350.201L1246.43,273.372L1212.72,400.878L1384.81,446.542L1248.96,535.401L1373.81,636.008L1222.64,673.629L1313.87,794.765L1134.69,758.288L1120.35,909.393L996.467,749.101L835.654,883.789L877.403,660.932L714.978,692.485L869.776,562.109L697.101,402.849L886.14,416.413L833.758,278.137L966.748,339.831L994.58,179.341Z" style="fill:rgb(146,100,51);stroke:rgb(87,65,62);stroke-width:9.32px;"/>
            </g>
            <g transform="matrix(0.813757,-0.0401747,0.0348875,0.590896,8.09649,188.366)">
                <path d="M994.58,179.341L1130.99,350.201L1246.43,273.372L1212.72,400.878L1384.81,446.542L1248.96,535.401L1373.81,636.008L1222.64,673.629L1313.87,794.765L1134.69,758.288L1120.35,909.393L996.467,749.101L835.654,883.789L877.403,660.932L714.978,692.485L869.776,562.109L697.101,402.849L886.14,416.413L833.758,278.137L966.748,339.831L994.58,179.341Z" style="fill:rgb(253,251,217);stroke:rgb(146,100,51);stroke-width:8.25px;"/>
            </g>
            <g transform="matrix(3.72755,-0.108028,0.088417,4.03542,682.182,637.338)">
                <path d="M57.046,-59.611C57.251,-59.063 57.08,-58.516 56.533,-57.969L54.994,-56.84L53.557,-55.199L52.429,-53.455L42.271,-38.578C41.108,-36.868 40.527,-35.329 40.527,-33.961C40.527,-32.387 42.032,-29.48 45.041,-25.24L52.018,-15.493C54.481,-12.757 57.08,-9.644 59.816,-6.156C60.295,-4.856 58.687,-3.42 54.994,-1.847C51.3,-0.274 47.606,0.513 43.913,0.513C42.34,0.513 41.382,0.068 41.04,-0.821L40.835,-2.052L40.63,-2.565C40.493,-2.975 39.74,-4.241 38.372,-6.361L36.628,-8.926L24.829,-25.65L25.342,-7.152C25.342,-5.925 25.547,-4.119 25.958,-1.735C26.505,-0.099 26.129,0.718 24.829,0.718C22.914,0.718 19.323,-0.205 14.056,-2.052C8.379,-3.967 5.335,-5.54 4.925,-6.772C4.925,-6.703 4.993,-7.456 5.13,-9.029L5.438,-11.594L5.951,-21.136L5.643,-63.92C5.643,-64.809 5.575,-65.527 5.438,-66.074L5.13,-67.819C4.925,-68.776 5.506,-69.255 6.874,-69.255C8.721,-69.255 13.099,-68.053 20.007,-65.65C24.795,-64 26.881,-62.42 26.266,-60.909L25.65,-59.364C25.582,-59.227 25.53,-58.901 25.496,-58.386C25.462,-57.871 25.411,-57.476 25.342,-57.201L25.137,-54.522L24.727,-44.631L31.909,-56.43L33.961,-60.329L35.807,-64.022C36.218,-64.98 36.423,-65.63 36.423,-65.972L36.32,-67.716C36.252,-68.468 36.662,-68.845 37.552,-68.845C39.535,-68.845 43.229,-67.545 48.632,-64.946C53.831,-62.483 56.635,-60.705 57.046,-59.611Z" style="fill:rgb(87,65,62);fill-rule:nonzero;"/>
            </g>
            <g transform="matrix(3.30507,-0.0957844,0.0828934,3.78332,702.287,627.96)">
                <path d="M57.046,-59.611C57.251,-59.063 57.08,-58.516 56.533,-57.969L54.994,-56.84L53.557,-55.199L52.429,-53.455L42.271,-38.578C41.108,-36.868 40.527,-35.329 40.527,-33.961C40.527,-32.387 42.032,-29.48 45.041,-25.24L52.018,-15.493C54.481,-12.757 57.08,-9.644 59.816,-6.156C60.295,-4.856 58.687,-3.42 54.994,-1.847C51.3,-0.274 47.606,0.513 43.913,0.513C42.34,0.513 41.382,0.068 41.04,-0.821L40.835,-2.052L40.63,-2.565C40.493,-2.975 39.74,-4.241 38.372,-6.361L36.628,-8.926L24.829,-25.65L25.342,-7.152C25.342,-5.925 25.547,-4.119 25.958,-1.735C26.505,-0.099 26.129,0.718 24.829,0.718C22.914,0.718 19.323,-0.205 14.056,-2.052C8.379,-3.967 5.335,-5.54 4.925,-6.772C4.925,-6.703 4.993,-7.456 5.13,-9.029L5.438,-11.594L5.951,-21.136L5.643,-63.92C5.643,-64.809 5.575,-65.527 5.438,-66.074L5.13,-67.819C4.925,-68.776 5.506,-69.255 6.874,-69.255C8.721,-69.255 13.099,-68.053 20.007,-65.65C24.795,-64 26.881,-62.42 26.266,-60.909L25.65,-59.364C25.582,-59.227 25.53,-58.901 25.496,-58.386C25.462,-57.871 25.411,-57.476 25.342,-57.201L25.137,-54.522L24.727,-44.631L31.909,-56.43L33.961,-60.329L35.807,-64.022C36.218,-64.98 36.423,-65.63 36.423,-65.972L36.32,-67.716C36.252,-68.468 36.662,-68.845 37.552,-68.845C39.535,-68.845 43.229,-67.545 48.632,-64.946C53.831,-62.483 56.635,-60.705 57.046,-59.611Z" style="fill:rgb(162,67,63);fill-rule:nonzero;"/>
            </g>
            <g transform="matrix(3.72849,-0.046332,0.0340833,4.03654,875.718,602.131)">
                <path d="M49.761,-44.939C49.761,-40.356 46.204,-36.526 39.091,-33.448C41.485,-33.448 43.571,-32.866 45.349,-31.703C48.769,-29.446 51.334,-26.06 53.044,-21.546C53.797,-19.631 54.173,-17.887 54.173,-16.313C54.173,-11.32 50.103,-7.011 41.963,-3.386C35.876,-0.65 30.506,0.718 25.855,0.718C23.53,0.718 21.307,0 19.186,-1.436L12.517,-5.848C7.524,-9.2 4.822,-11.423 4.412,-12.517C4.343,-12.722 4.412,-13.201 4.617,-13.954L4.925,-15.698L5.438,-19.699C5.78,-21.956 5.951,-24.658 5.951,-27.805L6.259,-53.455C4.891,-54.823 3.249,-56.806 1.334,-59.405L-2.052,-64.125L-2.668,-65.254C-2.941,-65.869 -2.804,-66.177 -2.257,-66.177L-1.026,-65.972C6.772,-67.545 14.261,-68.332 21.443,-68.332C27.394,-68.332 33.174,-66.006 38.783,-61.355C46.102,-55.336 49.761,-49.864 49.761,-44.939ZM30.472,-53.762C28.147,-53.762 26.095,-53.42 24.316,-52.736L24.214,-42.476C26.266,-43.434 28.215,-44.597 30.062,-45.965C32.661,-47.948 33.961,-49.727 33.961,-51.3C33.961,-52.942 32.798,-53.762 30.472,-53.762ZM31.601,-27.702C29.412,-27.702 26.847,-26.95 23.906,-25.445L23.598,-16.211C26.129,-16.758 28.557,-17.647 30.883,-18.878C34.029,-20.588 35.602,-22.435 35.602,-24.419C35.602,-26.608 34.268,-27.702 31.601,-27.702Z" style="fill:rgb(87,65,62);fill-rule:nonzero;"/>
            </g>
            <g transform="matrix(3.35517,-0.041693,0.0306707,3.63238,879.979,588.452)">
                <path d="M49.761,-44.939C49.761,-40.356 46.204,-36.526 39.091,-33.448C41.485,-33.448 43.571,-32.866 45.349,-31.703C48.769,-29.446 51.334,-26.06 53.044,-21.546C53.797,-19.631 54.173,-17.887 54.173,-16.313C54.173,-11.32 50.103,-7.011 41.963,-3.386C35.876,-0.65 30.506,0.718 25.855,0.718C23.53,0.718 21.307,0 19.186,-1.436L12.517,-5.848C7.524,-9.2 4.822,-11.423 4.412,-12.517C4.343,-12.722 4.412,-13.201 4.617,-13.954L4.925,-15.698L5.438,-19.699C5.78,-21.956 5.951,-24.658 5.951,-27.805L6.259,-53.455C4.891,-54.823 3.249,-56.806 1.334,-59.405L-2.052,-64.125L-2.668,-65.254C-2.941,-65.869 -2.804,-66.177 -2.257,-66.177L-1.026,-65.972C6.772,-67.545 14.261,-68.332 21.443,-68.332C27.394,-68.332 33.174,-66.006 38.783,-61.355C46.102,-55.336 49.761,-49.864 49.761,-44.939ZM30.472,-53.762C28.147,-53.762 26.095,-53.42 24.316,-52.736L24.214,-42.476C26.266,-43.434 28.215,-44.597 30.062,-45.965C32.661,-47.948 33.961,-49.727 33.961,-51.3C33.961,-52.942 32.798,-53.762 30.472,-53.762ZM31.601,-27.702C29.412,-27.702 26.847,-26.95 23.906,-25.445L23.598,-16.211C26.129,-16.758 28.557,-17.647 30.883,-18.878C34.029,-20.588 35.602,-22.435 35.602,-24.419C35.602,-26.608 34.268,-27.702 31.601,-27.702Z" style="fill:rgb(162,67,63);fill-rule:nonzero;"/>
            </g>
        </g>
    </g>
</svg>
