<svg xmlns="http://www.w3.org/2000/svg" viewBox="0 0 3000 3000" xmlns:xlink="http://www.w3.org/1999/xlink"><g id="tailFur"><clipPath id="tailFurClipPath"><path d="M2843.8 1635s-3.6 27-26.7 75.5c-31.4-98.7-91-197.3-168.6-256-1.8-1.3-4.6-3.2-8.3-5.6-161.3-100.9-374.7-31.8-447.1 144.2l-6.7 16c40.7-31.8 96.3-51.8 96.3-51.8s-19.9 27.2-35.1 47.6c-47.1 63-78 149.5-54.1 228.9 7.5 24.9 26.4 49 50.3 71-121.3 19.7-207.2 143.9-207.2 143.9l-116 136.8 169.4 35.3 96.5 3.5c51.6 15.5 117.1 26.6 199.1 26.6 242.5 0 413.1-159 449.1-329.9 2.8-13.4 5.7-26.8 8.8-40.1 11.3-49.6 34.4-173.2.3-245.9z" fill="none"></path></clipPath><g clip-path="url(#tailFurClipPath)"><path fill="#f8f8e0" d="M1904 1357.2h998.2v888.74H1904z"></path><path d="M2642.1 2429.5c-49.2-114-74.8-191.8-106.6-218.1-7.2-5.9-36-28.8-45.8-66.7-2.2-8.5-10.1-39.1 4.3-57.2 27.6-34.5 118.2.4 128.7 4.5 13.7 5.4 173.6 68.5 161.1 179.8-6.4 58.1-74.8 133.8-141.7 157.7zm-114.4-433.2c-36.3 2.8-44.4-105.9-122.2-132.3-34.4-11.7-66-1.7-71-16.3s17.4-34.3 36.7-44.5c29.2-15.4 59.4-9.5 71.6-6.9 56.5 11.9 127.4 63.6 124.3 129.7-1.3 29.8-18 68.6-39.4 70.3z" fill="#ea5f5a"></path><path d="M2426.6 1939.4c-10.2 4.9-7.4 23-6.8 92.9.3 28.9-.1 37.6 4.3 39.2 8.7 3.2 28.9-22.7 37.2-49.9 1.9-6.2 15.6-53.5-10.1-74.6-1.4-1.2-14.9-12.2-24.6-7.6zM2598 1384c-13.7 18.5 9.1 44 40.7 132.3 19.3 54 21.3 73.7 30.7 74.1 16 .6 35.5-55.5 34.3-107.1-.5-22.7-2-87.6-44.6-106.4-19.3-8.6-49.4-8.5-61.1 7.1zm149.4 365c7.9-11.3 26.6-3.1 82.6-1.8 34.2.8 45.8-1.8 47.7 3.5 3.3 9-24.8 30.6-54.2 39.6-12.9 4-50 15.3-68.7-5.3-8.4-9.4-14-26.4-7.4-36zm-106.7 196.7c-7.2 14.6 55.3 33.5 80 94.6 19.7 49-3 89 13 93.7 12.6 3.7 31.2-18 39.3-35.9 12.2-27.2 3.8-53.9-1.8-71.6-5.1-16-15.6-47.8-46.8-68.8s-77.3-24.7-83.7-12zm-64.6 58.8a38.6 38.6 0 0 1 48-26.1c20.4 6 48.6 42.2 42.5 62.6s-43.9 17.4-64.4 11.4a38.6 38.6 0 0 1-26.1-47.9zm-163.2 251.1a15.2 15.2 0 0 1 17 13.2c1.1 8.3-7.7 25.4-16 26.4s-13.1-14.3-14.2-22.6a15.2 15.2 0 0 1 13.2-17zm35.3-152.5c9.3 9 11 22.3 3.9 29.7s-32.6 9.7-41.9.7 1.1-25.9 8.2-33.3 20.5-6.2 29.8 2.9zm301.3-180.4a16.3 16.3 0 0 1 4.1 32.3c-8.9 1.1-23.5-10.4-24.6-19.3s11.6-11.8 20.5-13zm87.1-55.8a16.3 16.3 0 1 1-24.7-21.3c5.9-6.8 24.4-7.9 31.2-2.1s-.7 16.6-6.5 23.4zm-627.4 305.2a11.8 11.8 0 0 1 3 23.5c-6.5.8-17-7.5-17.9-14s8.4-8.7 14.9-9.5zm318.4-130.5c-.3 7-7.3 12.5-15.6 12.1s-14.8-6.3-14.5-13.4 13-16.7 21.3-16.3 9.1 10.5 8.8 17.6zm82.5-179a11.8 11.8 0 1 1-13.9 19.2c-5.3-3.8-7.3-17.2-3.4-22.5s12-.5 17.3 3.3zm115.5-71.1a11.8 11.8 0 0 1-13.9 19.2c-5.3-3.8-7.3-17.2-3.4-22.5s12-.5 17.3 3.3zm-139.9-92.8c25.1-3.2 49.6 34.4 52.8 59.5a45.8 45.8 0 0 1-90.8 11.6c-3.2-25.1 13-67.9 38-71.1zm95.3 125.6a25.2 25.2 0 0 1 28.2 21.8c1.8 13.8-20.7 41.9-34.6 43.7s-13.7-23.5-15.5-37.3a25.2 25.2 0 0 1 21.9-28.2zm-9.6-123c12.6-1.6 31.9-.6 33.5 12s-15.1 32-27.7 33.6a23 23 0 0 1-5.8-45.6zM2325 1995.6c17.9-2.3 45.3-.9 47.6 17s-21.4 45.5-39.3 47.7a32.6 32.6 0 1 1-8.3-64.7zm483.9-91.9c-34.1 5.2-28 56.5 6.4 53.2a97.9 97.9 0 0 0 24.8-6.1c69.3-26 111.6 6.4 124.6-6.6l13-13s-81.6-40.9-168.8-27.5z" fill="#ea5f5a"></path><path d="M2282.7 1557.4s-19.9 27.2-35.1 47.6c-47.1 63-78 149.5-54.1 228.9 19.3 64.1 114.8 123.2 174.2 153q9.4 1.1 19.1 1.5a5 5 0 0 0-.4-1.4c-9.7-21.4 6.3-60.3 19-78 15.9-22.3 42.2-34.2 66.2-47.4s48.6-30.9 55.7-57.3l-5 57.7c37.9-18.6 69.3-49.7 89.3-86.9a198.4 198.4 0 0 0 18.5-49.1c-17.9-126-127-217.2-252.6-205.4-44.4 4.2-83.5 20.3-115.2 45.1 12.3-5.4 20.4-8.3 20.4-8.3z" fill="#f8f8e0"></path><path d="M2363 1331c24.2-23.7 99.3 3.2 143.2 49.8s58.4 112.6 44 122.2c-11.1 7.4-30.2-26.5-92.4-53.4-46.5-20.1-66.5-14.4-85.2-36.7-20-24-26.2-65.6-9.6-81.9zm196 246.8a16.3 16.3 0 0 1 4.1 32.3c-8.9 1.1-23.5-10.4-24.6-19.3s11.6-11.9 20.5-13zm207.3 291.4c9.3-23.9-23.7-40.8-30.4-12.8-1.7 7-4.1 24.5 2.4 29.8 10.1 8.3 24.6-8.4 28-17zm-64.3-371.6a210.6 210.6 0 0 1 33.1 141.1c-1 7.8-2.4 15.6-1.3 23.4s5.3 15.6 12.5 18.7 14.9 1 20.9-3.3 10.2-10.6 13.9-17.1c31.3-55.2 25-129.4-15-178.6m0 223.5c-4.9 4.9-3.6 14.2 2.2 17.8s14.6.7 17.5-5.5-.5-14.5-6.8-17.3-14.5.1-17.9 6m102.6-41.8a53.4 53.4 0 0 0-25.5 29c-1.8 5.1-2.9 10.7-1.1 15.8 2.8 8 11.7 12.3 20.1 13.1 5.6.6 11.5-.1 16.4-2.7s8.8-7.6 9.4-13.2m-658.4 196.7c-13.5-3.7-21.1-18-25.1-31.5-14.4-48.8 0-105.1 36-141 3.5-3.5 9.2-6.8 12.8-3.5 2.1 1.9 2.2 5.2 2.1 8-1.6 36.2-9.6 72-9.8 108.2s8.8 74.8 35.3 99.5m24.4-56.2c2 3.3 4.8 6.5 8.6 7s7-2 8.9-5a20.5 20.5 0 0 0 2.5-7c.2-1.1.4-2.2.5-3.3.8-5.5 1.3-11.1.3-16.5-5.5-31.9-33.7 4-20.8 24.8zm-9.8-441.4c9.1 7.7 18.5 15.5 29.7 19.5s24.9 3.3 33.7-4.7c5.5-5.1 8.5-12.5 9.1-20 1-12.9-5.7-26.7-17.5-32.1a28 28 0 0 0-23.4.2" fill="#ea5f5a"></path><path d="M2454.3 1523.2c7.8 1.2 15 4.9 22.1 8.4s14.5 6.9 22.4 7.3 16.5-2.8 20.3-9.7c5-9.1.2-20.6-6.4-28.7-13.5-16.3-46.1-34.3-67.8-24.4-9.3 4.3-18.9 16.5-19.8 26.8-1.6 18.7 15.9 18.3 29.2 20.3zm132.5 166.2c-1.8 7.6-2.9 16.9 3 22 3.7 3.2 9.2 3.6 13.9 2.1s8.6-4.5 12.4-7.7c12.5-10.6 23.7-23.4 29.9-38.6s6.4-75-23.4-62c-23 10.1-30.9 63.4-35.8 84.2zm-412.7-54.4c14.9-14.6 35.6-21.1 54.4-30.3s37.5-23.6 40.8-44.2c2.3-14.3-3.5-28.8-11.1-41.2-9.6-15.7-23-30.1-40.4-36.3s-39.1-2.4-50.3 12.3m223.4 434.3c-17.6-57.3-35.5-116.8-27.4-176.2 1.3-9.3 3.3-18.8 7.9-27s12.4-15.1 21.7-16.7c16.1-2.9 30.7 10 39.8 23.6 17.5 26.4 24.6 58.3 27.4 89.9 1.1 13 1.4 26.8-4.8 38.2-11.1 20.4-38.6 26.3-52.2 45.2m-113.5-118.2c-1.6 4.9-2.4 10.9 1 14.8s12.8 3.3 19 .3a85.6 85.6 0 0 0 19.1-12.9c5.4-4.8 10.2-10.5 12.7-17.2s2.3-14.8-1.8-20.7c-16.5-23.6-45.5 21.8-50 35.7z" fill="#ea5f5a"></path><path d="M2186.5 1676.3c47.2-65.3 141.1-92 215.5-61.3s122.3 115.9 109.7 195.4c-2.8 18-9.9 54.1 8 50.9 21-3.7 28-10.4 39-22.3 18.5-20.1 28.1-37.6 24.6-64.7s-15-52.4-27.2-76.9c-19.3-38.8-41.2-77.4-74.1-105.5-39-33.3-92.5-49.1-143.3-42.5s-98.4 35.8-127.5 78m232.1 642c-62.3-15.6-126.8-32.3-176.3-73.2-41.3-34.2-68.9-83.5-81.2-135.7s-10-107.2 1.7-159.5c-27.6-3.7-55.1 13.3-70 36.8s-19 52.4-18.7 80.3c1.4 102.1 63 201.1 153.9 247.4 12.4 6.3 25.7 11.8 39.7 12.1s28.7-5.8 35.6-17.9M2060.8 1966a736.9 736.9 0 0 0 77.7 316.3c-31.7 10.3-63.9 20.6-97.2 22s-68.4-7.4-92.2-30.7c-28.1-27.5-35.6-69.2-40.1-108.2-5.2-44.3-8.3-90 3.8-132.9s42-83.2 84.6-96.6" fill="#ea5f5a"></path><defs><clipPath id="tailShadowClipPath"><path d="M2843.8 1635s-3.6 27-26.7 75.5c-31.4-98.7-91-197.3-168.6-256-1.8-1.3-4.6-3.2-8.3-5.6-161.3-100.9-374.7-31.8-447.1 144.2l-6.7 16c40.7-31.8 96.3-51.8 96.3-51.8s-19.9 27.2-35.1 47.6c-47.1 63-78 149.5-54.1 228.9 7.5 24.9 26.4 49 50.3 71-121.3 19.7-207.2 143.9-207.2 143.9l-116 136.8 169.4 35.3 96.5 3.5c51.6 15.5 117.1 26.6 199.1 26.6 242.5 0 413.1-159 449.1-329.9 2.8-13.4 5.7-26.8 8.8-40.1 11.3-49.6 34.4-173.2.3-245.9z" fill="none"></path></clipPath><linearGradient id="tailShadowGradient" x1="2539.72" y1="1739.67" x2="2539.72" y2="1283.42" gradientUnits="userSpaceOnUse"><stop offset="0" stop-color="#fff" stop-opacity="0"></stop><stop offset=".72" stop-color="#fff"></stop></linearGradient><linearGradient id="tailShadowGradient2" x1="2371.12" y1="1885.86" x2="2523.5" y2="1885.86" href="#tailShadowGradient" xlink:href="#tailShadowGradient"></linearGradient><linearGradient id="tailShadowGradient3" x1="2703.65" y1="1891.5" x2="2893.32" y2="1891.5" href="#tailShadowGradient" xlink:href="#tailShadowGradient"></linearGradient><linearGradient id="tailShadowGradient4" x1="2524.03" y1="1787.87" x2="2627.37" y2="1787.87" href="#tailShadowGradient" xlink:href="#tailShadowGradient"></linearGradient></defs><g clip-path="url(#tailShadowClipPath)"><path fill="none" d="M2841.2 2267.2l-937.3-21.3 265.6-916 742.4 60-70.7 877.3z"></path></g><g clip-path="url(#tailShadowClipPath)" style="mix-blend-mode:multiply"><path d="M2010.4 2076.9s112.9-156 137.5-146.1c-100.8 117.4-26.2 185.8 23 200.3 199.6 59 530.9 111 665.9-164.6l-219 299.4-649.5-3z" fill="#7f7f7f" opacity=".25" style="mix-blend-mode:multiply"></path><path d="M2238 1890.9c-25.5 5.8-25 6.1-25 6.1 3.6 3.7 35.6 103.9 139.1 118.9a6.9 6.9 0 0 0 7.3-9.5c-2.3-5.3-4.4-13-5.7-24.1" fill="#7f7f7f" opacity=".3" style="mix-blend-mode:multiply"></path><path d="M2628.8 1731.1s-19.6 101.4-52.6 138.4a114.9 114.9 0 0 1-69.7 37.5 3.6 3.6 0 0 1-4-4.3c2.3-13-2.2-28.3-2.2-28.3s-121.7 64.6-113.7 115.6c0 0-16-71.9 67.7-119.2s69.7-65.3 69.7-65.3l-1.7 54.7c56.8-11.1 106.5-129.1 106.5-129.1z" fill="#7f7f7f" opacity=".25" style="mix-blend-mode:multiply"></path><path d="M2195.3 1591.4c1-5.3 4.5-9.8 8-13.8a191.2 191.2 0 0 1 106.3-60.8 3.6 3.6 0 0 1 2.9 6.4 173.3 173.3 0 0 0-31.4 31.3c-6.1 7.8-11.5 16.3-18.9 22.9-13.2 11.9-31.1 16.9-48.3 21.6" fill="#7f7f7f" opacity=".25" style="mix-blend-mode:multiply"></path></g><g clip-path="url(#tailShadowClipPath)" style="mix-blend-mode:overlay"><path d="M2262.3 1500s151.6-146.4 378 7.5c93 66.9 162 232.2 162 232.2l14.7-29.2-59.7-377.6-233.3-49.5-150.6 20.2z" opacity=".3" fill="url(#tailShadowGradient)" style="mix-blend-mode:overlay"></path><path d="M2374.2 1931.5c4.8-27.9 20.8-44.5 43-62s47.5-30.9 70-48c16-12.1 28.1-22.6 34.1-39.4a1.2 1.2 0 0 1 2.3.5l-.7 14.7a75.2 75.2 0 0 1-1 13.8 49.5 49.5 0 0 1-8.9 19.2c-24.8 34-74.1 40.5-103.1 71-18.7 19.7-26.5 47.5-26.4 74.2 0 4 2.9 16.3-2.6 14.8-3.7-1-8-8.8-8.7-14.2-2.1-14.8-.6-29.9 2-44.6z" opacity=".3" fill="url(#tailShadowGradient2)" style="mix-blend-mode:overlay"></path><path d="M2842.4 1647.5c5.9 118.9-1.6 137.7-27.2 261.3-20 96.7-86.2 192.2-111.5 226.7 40.5-19.6 59.6-30.7 86.7-66.6s47.7-76.5 65.6-117.8c13.7-31.6 26.1-64.1 32.6-97.9 3.9-20.2 5.7-40.9 4.2-61.4s-6.8-42.4-12-63.3l-12.9-51.9" opacity=".3" fill="url(#tailShadowGradient3)" style="mix-blend-mode:overlay"></path><path d="M2616.4 1728.1c2.5-3.2 6.3-6.7 10-5 3.4 12.3-2.5 25.1-8.3 36.4-10.6 20.5-21.6 41.3-37.9 57.6a149.8 149.8 0 0 1-30.6 23.5c-2.2 1.3-23.3 16.1-25.4 11.4-1.1-2.6 21.2-20.7 23-22.9 17.8-20.8 34.4-37.4 48.5-59.3 8-12.3 11.6-29.9 20.7-41.7z" opacity=".3" fill="url(#tailShadowGradient4)" style="mix-blend-mode:overlay"></path></g></g></g><g id="tail"><g fill="none" stroke="#31323d" stroke-linecap="round" stroke-width="12.5"><path d="M2817.2 1710.6c-31.3-98.7-91-197.4-168.7-256.1-1.8-1.3-4.6-3.2-8.3-5.6-161.3-100.9-374.7-31.8-447.1 144.2l-6.7 16c40.7-31.8 96.3-51.8 96.3-51.8s-19.9 27.2-35.1 47.6c-47.1 63-78 149.5-54.1 228.9 20.6 68.7 128.7 131.6 186.3 158.8 4.1 2 8.5-1.6 6.6-5.7-9.7-21.4 6.3-60.3 19-78 15.9-22.3 42.2-34.2 66.2-47.4s48.6-30.9 55.7-57.3l-5 57.7c37.9-18.6 69.3-49.7 89.3-86.9a198.2 198.2 0 0 0 18.9-50.6" stroke-linejoin="round"></path><path d="M2036.6 2048.8s85.9-124.2 207.2-143.9" stroke-miterlimit="10"></path><path d="M2186.4 2224.4c51.6 15.5 117.1 26.6 199.1 26.6 242.5 0 413.1-159 449.1-329.9 2.8-13.4 5.7-26.8 8.8-40.1 11.5-49.7 34.6-173.3.4-246 0 0-4.8 35.4-37.9 97.8" stroke-linejoin="round"></path></g></g><g id="bodyFur" style="isolation:isolate"><clipPath id="furClipPath"><path d="M2200.5 2195.7c-43-29.4-132.4-61.7-179.8-75.5l-.8-.3a248.1 248.1 0 0 0 6.4-155.9l-134.5-437.7a121.2 121.2 0 0 0 41.2-22.3c-16.2 7.6-39.1-8.1-54.9-21.9l-2.2-7.2c54.7 26.7 104.5-45.6 104.5-45.6-45.4 5.5-101.9-31.2-136.4-58.1l-3.7-12.1c36.3 6.8 73.8-24.6 73.8-24.6-21.6.7-45-17.8-65.7-40.9a298 298 0 0 1-62.5-111.5l-54.8-178.1a240.5 240.5 0 0 0-47.2-89.2l64.4-104.2a15 15 0 0 0-12.1-22.9c-40-2-104.9 47-129.3 66.3a240.4 240.4 0 0 0-57.8-20.2 371.6 371.6 0 0 1 21.9-38.4 10.2 10.2 0 0 0-11.2-15.4c-26.7 7.1-55.7 28.1-64.7 34.9a1.2 1.2 0 0 1-1.9-1.3c4.1-16.7 21.1-88.9 7.5-95.5s-36.2 52.6-44.6 74.7a1.2 1.2 0 0 1-2.4-.5c1.7-24.4 4.8-91.4-13-88-19.7 3.7-56.2 87.7-63.1 104.1a1.2 1.2 0 0 1-2.2 0c-4.6-11.7-22.9-55.8-29.2-40.3s.6 43.4 3.4 54.3a1.2 1.2 0 0 1-2 1.2c-19-17-51.5-17.4-73.9-15.2a10.2 10.2 0 0 0-6.3 17.4 106.3 106.3 0 0 1 9.7 11.3 240.3 240.3 0 0 0-65.7 29.2l-5.2-3.5c-41.5-34.1-105.9-77.5-130.8-42.6a15 15 0 0 0-.9 16l60.5 108.1a240.3 240.3 0 0 0-33 93.8l-30.5 160.3a272.3 272.3 0 0 1-49.4 112.8c-17.8 23.7-38.8 43.5-60.1 45.7 0 0 41.5 26.2 76.6 14.4l-2.4 12.7c-30.6 31.2-81.6 75-127.2 75.7 0 0 56.6 62.3 106.5 33.2l-1.8 9.7c-13.6 14.7-32 29.7-47.6 24.8a121.7 121.7 0 0 0 39.9 15.9l-86.8 456.2a248.9 248.9 0 0 0 12.6 117.6l-.6.2c-38.1 9.1-130.4 43.4-184.5 78.3-26.5 17.1-10.1 55.9 23.2 55.3l266.9-5.2q6.8 4.2 13.9 7.9v3.3c.4 23.3-6.7 42.4-29.9 43.6-15.6.8-28.2 9.9-30.6 21.1-4.7 21.5 5.8 38.9 27.2 40.4l84.3 5c26.4 1.6 51.9-11.3 65.3-34.1a71.4 71.4 0 0 0 8.8-23.9l5-26.6h533.6l3.5 20.7a71.6 71.6 0 0 0 43.1 54.3 53.5 53.5 0 0 0 22.3 4l91.8-3c22-2.2 30.1-15.7 27.9-36.9-.7-6.9-6.2-24.5-24.5-25.5-15.8-.9-25.2-8.6-28.1-21.9a246.8 246.8 0 0 0 65.3-28l261.6 5c33.3.5 49.3-37.6 23.2-55.4z" fill="none"></path></clipPath><g clip-path="url(#furClipPath)"><defs><linearGradient id="furLinearGradient" x1="1713.27" y1="794.55" x2="1713.27" y2="927.94" gradientUnits="userSpaceOnUse"><stop offset="0" stop-color="gray"></stop><stop offset=".14" stop-color="#797979"></stop><stop offset=".35" stop-color="#646464"></stop><stop offset=".6" stop-color="#434343"></stop><stop offset=".89" stop-color="#141414"></stop><stop offset="1"></stop></linearGradient><linearGradient id="furLinearGradient2" x1="1041.15" y1="888.73" x2="1175.15" y2="888.73" href="#furLinearGradient" xlink:href="#furLinearGradient"></linearGradient></defs><g style="isolation:isolate"><path fill="#f8f8e0" d="M724.1 562.8h1509.4v1824.09H724.1z"></path><path d="M1781.2 799.5s-38-26-102 41.5l-33.7 40.5 56.1 46.5z" opacity=".4" fill="url(#furLinearGradient)" style="mix-blend-mode:multiply"></path><path d="M1041.2 839.5s27.5-18.9 71.6-.8a122.7 122.7 0 0 1 47.5 35.2l14.9 17.9-37.7 54.9z" opacity=".4" fill="url(#furLinearGradient2)" style="mix-blend-mode:multiply"></path><path d="M1181.5 2294.7c-5.6-14.6 3.2-56.8 20.7-141.2 10.5-50.5 18.8-83.4 24-105 38.8-161.9 16.1-179.6 50-276 23.1-65.9 47.1-131.2 111-162 7.6-3.7 65.9-30.7 125-7s81.2 80.6 105.3 141.9c29.1 74.1 20 99.7 53 285.3 6.9 38.6 13.7 77.2 20.6 115.8 4.1 22.7 8 45.3 12 68 9.4 53.2 9.6 54.1 9.4 56.2-9.7 78.5-486.6 140.6-531 24z" fill="#b1aeb9"></path><path d="M1961.8 1478.2s-63.5 117.2-161.6 129.2c-55.1 6.8-53.6 31.2-41.8 51.3a75.5 75.5 0 0 0 48.6 34.9c44.6 10 139.1 22.8 173.1-38.3 45.3-80.9-18.3-177.1-18.3-177.1zM881.1 1516.9c45.9-14.3 88.2 123 196 134 47.6 4.9 85.3-17.2 96 0s-12.2 49.3-34 68c-33 28.4-73.5 29.7-90 30-76 1.3-182.5-44.2-198-130-7.1-38.8 3-93.7 30-102zM1868.5 1758c7.8-14.8 34.4-9.4 137.3-4 42.6 2.2 55.4 2.2 57.4 8.9 4.1 13-35.3 41.2-75.9 51.6-9.3 2.4-79.9 19.5-109.2-19.7-1.6-2.2-17-22.8-9.6-36.8zM1271.8 837.6a34.2 34.2 0 0 1 13.7 11.7c-1.1 21.7-.1 47.7 13.5 73.3 4.8 9.1 16 27 9.2 36.8-4.5 6.5-14.7 6.5-17 6.5-26.1 0-45.6-32.3-52.4-43.7-11.1-18.4-18-39.3-20.2-58.2.3-5.9 22-18.6 22-18.6s26.3-10.8 31.2-7.8zM1848.6 1846.8c2-10.8-13.9-18.9-69.3-58-22.9-16.2-29.5-21.4-33.3-18.8-7.4 5.1 1.5 35.7 18.2 57.6 3.8 5 33.3 42.6 64.4 34.4 1.7-.6 18.1-5 20-15.2zM1157.5 1894.7c-9.9-9.5.9-26.8 10.7-81.9 6-33.7 5.1-45.5 10.7-46.7 9.4-1.9 26.5 29.1 30.9 59.6 2 13.4 7.6 51.7-15.6 67.1-10.6 7-28.3 10-36.7 1.9zM1772.9 1428c-2.7 13.5-23.1 13.6-74.9 34.9-31.7 13-41.2 20-45.1 16-6.7-6.9 10.4-37.9 33.8-58 10.3-8.8 39.6-34.1 65-22.8 11.5 5.1 23.5 18.5 21.2 29.9zM1554.2 823.8c-13.5 6.1-9.9 15.2-20.6 78.8-4.6 27.5-6.8 34-2.2 38.2 11.6 10.5 37.3-6.8 56.7-37.3 10.7-16.8 20.5-46.8 6.7-67.3-7.1-10.6-18.6-15.8-22-17.3-6.4-3-7.1-.3-18.6 4.9zM1896.4 2209.1c10.8 2 18.9-13.9 58-69.3 16.2-22.9 21.4-29.5 18.8-33.3-5.1-7.4-35.7 1.5-57.6 18.2-5 3.8-42.6 33.3-34.4 64.4.6 1.8 5 18.2 15.2 20zM1151.2 1477.7c8.7-32.7-51.8-84.8-114-100a197.2 197.2 0 0 0-64.2-4.4c-55.9 9.6-63 15.4-63.8 26.4-1 13.4 38 13.2 92 54 40.4 30.5 45.3 50.8 74 56 30.7 5.6 70-9.5 76-32zM1118.8 1833.1c-15.5-12.2-45.8 35.4-114 48-78.3 14.5-128-31.7-146-10-15.7 18.9 5.7 73.8 44 98 36 22.7 77 12.1 108 4 19.9-5.2 49.1-12.8 74-38 33.9-34.3 49.1-90.1 34-102zM2044.2 1845.5c-17.2-15.4-63 49.4-156 60-74.6 8.5-124.5-24.1-137-4-9.8 15.9 12.8 49.6 34.3 67.4 32.7 27.1 72.4 25.6 98.7 24.6 23.9-.9 71.3-3.2 112-38s63-96.5 48-110zM1126.2 1563.5c1.1-23.9 35.6-39.7 62-38 5.2.3 27.4 1.7 32 14 7.6 20.2-32.8 69-66 60-15.3-4.2-28.8-20.5-28-36zM875 1307.9c12.2-20.5 50-18.3 72.6-4.4 4.4 2.7 23.4 14.4 21.7 27.4-2.8 21.4-61.4 45.5-86.5 21.9-11.6-10.8-15.8-31.6-7.8-44.9z" fill="#ea5f5a"></path><path d="M1052.8 1596c-20.2 12.8-52.9-6.4-66.7-29.1-2.7-4.4-19.2-38.6-6.9-34.2 37.4 13.1 50.9 13.1 75.7 4.4a35.3 35.3 0 0 1 11.3 15.4c5.4 14.8-.3 35.2-13.4 43.5zM1897.2 1460.3c-20.2 12.8-52.9-6.4-66.7-29.1-2.7-4.4-14.3-23.5-6.9-34.2 12.2-17.8 75.4-12.7 87 19.7 5.4 14.9-.2 35.3-13.4 43.6zM1344.2 820.8c8.1 27.8-24.1 47.1-20.7 95.3 1 13.7 4.4 23.3 8.7 35.3 6.2 17.4 26.7 75.1 59.3 79.3 34.2 4.5 68.6-51.7 82.7-87.3s6.5-47.9 16-105.3c14.3-86.4 37.4-93.8 32.7-131.3-8.3-65.5-91.9-147.8-166.7-124-77.8 24.7-99.8 149.8-64.7 194.7 17.8 22.7 45.6 19 52.7 43.3zM1832.7 1517.9a36.6 36.6 0 0 1-36.6 36.6c-20.2 0-55.6-25.4-55.6-45.6s35.3-27.7 55.6-27.7a36.6 36.6 0 0 1 36.6 36.7zM1701.9 1578.2a15.2 15.2 0 0 1-15.2 15.2c-8.4 0-24.2-10.8-24.2-19.2s15.8-11.2 24.2-11.2a15.2 15.2 0 0 1 15.2 15.2zM1115.2 1793.4a15.2 15.2 0 0 1-15.2 15.2c-8.4 0-24.2-10.8-24.2-19.2s15.8-11.2 24.2-11.2a15.2 15.2 0 0 1 15.2 15.2zM1326 1020.6a15.2 15.2 0 1 1-30.4 0c0-8.4-.7-21.4 7.7-21.4s22.7 13 22.7 21.4z" fill="#ea5f5a"></path><circle cx="1714.9" cy="1704.5" r="27" fill="#ea5f5a"></circle><path d="M1228.7 1444.4a16.3 16.3 0 0 1-32.6 0c0-9 13.3-22 22.3-22s10.3 13 10.3 22zM1033.2 1810.5c0 25.3-40.4 44.8-65.7 44.8a45.8 45.8 0 1 1 0-91.5c25.3 0 65.7 21.4 65.7 46.7zM1145.4 2023a25.2 25.2 0 0 1-25.2 25.2c-13.9 0-39-25.9-39-39.8s25-10.7 39-10.7a25.2 25.2 0 0 1 25.2 25.3zM1588.9 971.4c0 12.7-3.4 31.7-16.1 31.7s-29.9-19-29.9-31.7a23 23 0 0 1 46 0zM1855.3 859.2c0 74.1-109.7 176.7-183.8 176.7s-65.4-88.3-59.3-162.1S1647 725 1721.1 725a134.2 134.2 0 0 1 134.2 134.2zM1206.3 875.9c20.1 119.5-63 174.1-140.7 174.1S925 972.1 925 875.9s63-174.1 140.7-174.1 124.6 79.3 140.6 174.1z" fill="#ea5f5a"></path><path d="M1147.2 1164.5c0 95.3 56 165-39.4 165s-184.3-78-184.3-173.3-13.7-156.7 81.7-156.7 142 69.6 142 165zM2027.5 1976.5s-61.4-1.1-44.4 70.9-20.5 109.9-9.3 124.5l11.3 14.5s69.8-103.8 42.4-209.9zM917.1 2023s46.7-39.6 70.4 23.4 20.9 96.9 57.3 130l5.6 77S921 2203.6 917.1 2023zM1945.4 1140.5c87.5 13.7 167.2 76.5 195.3 160.5 8.9 26.5 12.3 57.2-2.4 81-11.1 18-31.3 29.1-52.1 33.3s-42.3 2.2-63.3-1c-52.2-8-102.9-23.6-153.4-39.1l-155.1-47.7c-16.1-5-33.7-10.9-42.6-25.3-27-43.1 26.3-78.4 54.1-100.5 39-30.8 85.4-52.1 134.4-60.5a264.6 264.6 0 0 1 85.1-.7zM1603.3 850.4l50.8 36.4 49.3 52.7 49.3 76.7 38.9 63.3c5.2-8.1 1193.7-742.5 1192.4-747.9-2-8.7 0-319.9 0-319.9H1959.8z" fill="#ea5f5a"></path><path fill="#ea5f5a" d="M1222.2 859.5L818 11.6H18.2v903.2l1046 176.5 38.8-90 28.2-56.9 24.8-29.6 38.3-35.3 27.9-20z"></path></g></g></g><g id="shadow" style="mix-blend-mode:multiply"><defs><clipPath id="shadowClipPath"><path d="M2200.5 2195.7c-43-29.4-132.4-61.7-179.8-75.5l-.8-.3a248.1 248.1 0 0 0 6.4-155.9l-134.5-437.7a121.2 121.2 0 0 0 41.2-22.3c-16.2 7.6-39.1-8.1-54.9-21.9l-2.2-7.2c54.7 26.7 104.5-45.6 104.5-45.6-45.4 5.5-101.9-31.2-136.4-58.1l-3.7-12.1c36.3 6.8 73.8-24.6 73.8-24.6-43.1 1.4-93.7-74.1-115-109.3l-68-221.2a240.5 240.5 0 0 0-47.2-89.2l73.3-118.6c-32.4-31.9-120.8 34.6-150.3 57.8a240.4 240.4 0 0 0-57.8-20.2 371.4 371.4 0 0 1 21.9-38.3c5.1-7.8-2.2-17.9-11.2-15.5-26.7 7.1-55.7 28.1-64.7 34.9a1.2 1.2 0 0 1-1.9-1.3c4.1-16.7 21-88.9 7.5-95.5s-36.2 52.6-44.6 74.7a1.2 1.2 0 0 1-2.4-.5c1.7-24.4 4.8-91.4-13-88-19.7 3.7-56.1 87.7-63.1 104.1a1.2 1.2 0 0 1-2.3 0c-4.7-11.7-22.9-55.7-29.2-40.3s.6 43.3 3.4 54.3a1.2 1.2 0 0 1-2 1.2c-19-17-51.5-17.4-73.9-15.2a10.2 10.2 0 0 0-6.3 17.4 106.3 106.3 0 0 1 9.7 11.3 240.3 240.3 0 0 0-65.7 29.2l-5.2-3.5c-44.5-36.6-115.4-83.9-135.6-33.6l64.5 115.2a240.3 240.3 0 0 0-33 93.8l-38.8 204c-17.3 35.5-58.5 110.3-101.2 114.7 0 0 41.5 26.2 76.6 14.4l-2.4 12.7c-30.6 31.2-81.6 75-127.2 75.7 0 0 56.6 62.3 106.5 33.2l-1.8 9.7c-13.6 14.7-32 29.7-47.6 24.8a121.7 121.7 0 0 0 39.9 15.9l-86.8 456.2a248.9 248.9 0 0 0 12.6 117.6l-.6.2c-38.1 9.1-130.4 43.4-184.5 78.3-26.5 17.1-10.1 55.9 23.2 55.3l266.9-5.2q6.8 4.2 13.9 7.9v3.3c.4 23.3-6.7 42.4-29.9 43.6-15.6.8-28.2 9.9-30.6 21.1-4.7 21.5 5.8 38.9 27.2 40.4l84.3 5c26.4 1.6 51.9-11.3 65.3-34.1a71.4 71.4 0 0 0 8.8-23.9l5-26.6h533.6l3.5 20.7a71.6 71.6 0 0 0 43.1 54.3 53.5 53.5 0 0 0 22.3 4l91.8-3c22-2.2 30.1-15.7 27.9-36.9-.7-6.9-6.2-24.5-24.5-25.5-15.8-.9-25.2-8.6-28.1-21.9a246.8 246.8 0 0 0 65.3-28l261.6 5c33.3.5 49.3-37.6 23.2-55.4z" fill="none"></path></clipPath><linearGradient id="shadowGradient" x1="1713.27" y1="794.55" x2="1713.27" y2="927.94" gradientUnits="userSpaceOnUse"><stop offset="0" stop-color="gray"></stop><stop offset=".14" stop-color="#797979"></stop><stop offset=".35" stop-color="#646464"></stop><stop offset=".6" stop-color="#434343"></stop><stop offset=".89" stop-color="#141414"></stop><stop offset="1"></stop></linearGradient><linearGradient id="shadowGradient2" x1="1041.15" y1="888.73" x2="1175.15" y2="888.73" href="#shadowGradient" xlink:href="#shadowGradient"></linearGradient></defs><g clip-path="url(#shadowClipPath)"><path d="M1066.8 1533.3c-21.1 33.1-27.3 41.8-33.7 78.2-20.4 117.1-20.8 257.1-28 315.4a910.2 910.2 0 0 0-6.8 98.4v3.4c23.5 26 47.6 88.8 52.6 176.8l1.3 49s-31.3-.8-81-.8c-62 0-110.8-111.7-79.2-278.2 17.8-93.4 67.3-328.4 114-432.1 41.5 2.5 60.8-10.1 60.8-10.1zM1226.5 2040.4c-24.3 147.7 54.3 178.3 68.5 181.6 86.5 15.5 223.8 8.8 268.5-7 41.8-14.8 129.9-58.5 108-189.5l43 256.8h-533.6zM1854.3 2157.4s29.9-91.4 66.3-124.9c-39.4 75 14.1 92.7 28.1 87.7 53.7-19.2 75-66.7 79.2-150l65.3 116.3s-55 256-204 214l-38.7-18.1z" fill="#7f7f7f" opacity=".2"></path><path d="M1781.2 799.5s-38-26-102 41.5l-33.7 40.5 56.1 46.5z" opacity=".4" fill="url(#shadowGradient)" style="mix-blend-mode:multiply"></path><path d="M1041.2 839.5s27.5-18.9 71.6-.8a122.7 122.7 0 0 1 47.5 35.2l14.9 17.9-37.7 54.9z" opacity=".4" fill="url(#shadowGradient2)" style="mix-blend-mode:multiply"></path><path d="M1047.6 1520.5c14.1-5.3 28.5-11.5 40.2-20.8a2.5 2.5 0 0 1 3.8 3.2c-3.7 7.1-7.9 13.9-13.5 19.5-9.2 9.4-21.6 15.2-34.3 18.4-7.2 1.8-63.7 5.5-59.5-5.6 2.5-6.6 22.8-3.9 28.1-4.7 12-1.8 23.7-5.7 35.2-10zM912 1457.7c14.9 9.3 33.6 10.5 51.1 8.8a188.3 188.3 0 0 0 105.1-45 2.5 2.5 0 0 1 3.9 3.1c-12.2 22.8-28 43.6-47.7 60.3-16.8 14.3-37.4 25.7-59.5 26.3s-45.5-12-52.2-33.1M968.2 1355.4c48.8.1 96.6-25.6 124.5-65.5a2.5 2.5 0 0 1 4.4 2.3c-8.9 24.9-23.8 47.7-41.3 67.6-10.1 11.5-22.2 22.7-37.3 24.6-7.1.9-14.3-.3-21.4-1.6l-24.1-4.3M1293.2 863.8c-81.5 23.6-133.7 93.8-162 217.6-15.3 136.6-101.3 213.1-101.3 213.1 54.3-91.1 76.3-278.9 76.3-278.9s23.5-135.7 171-178.5z" fill="#7f7f7f" opacity=".2"></path><path d="M1308.9 846.5c11.3 12.8 19.7 27.6 27.4 42.9a3.2 3.2 0 0 1-4.8 3.9c-19.8-15.4-39.2-31.5-54.7-51.1a58.9 58.9 0 0 0-5.7-6.6c-3.1-2.9-6.9-5-9.3-8.5-1.2-1.7-2.6-3.7-3.8-5.8a3.2 3.2 0 0 1 3.1-4.8c18.2 2.2 36.5 17.2 47.8 30zM1441.1 703.4c-10 55.7-32.8 109-39 165a3.2 3.2 0 0 1-6.2.7l-8.5-25.3c-2.9-8.6-5.8-17.3-7.3-26.3-3.4-20.3.8-41.1 7.5-60.6a234.1 234.1 0 0 1 28.2-56M1498.1 722.5c-8.6 28.1-17.2 56.2-24.9 84.6a285 285 0 0 0-6.8 30.3 3.2 3.2 0 0 1-6.3 0c-5.4-32.9-.1-67.4 5.4-100.7M1564.4 782.2c-15.8 13.8-27.3 31.7-38.7 49.3-6.9 10.8-13.9 21.6-19.2 33.2a3.2 3.2 0 0 1-6-.7c-3.2-15.2-5.6-30.7-3.1-46a74.4 74.4 0 0 1 34.1-50.7M1340.4 818.6a281.8 281.8 0 0 0 20.9 39.4 3.2 3.2 0 0 0 5.7-2.6 425.6 425.6 0 0 1-15.7-70.3c-.4-2.7-.7-5.4-2-7.8a8.9 8.9 0 0 0-1.8-2.3 3.2 3.2 0 0 0-5.2 1.9" fill="#7f7f7f" opacity=".2"></path></g></g><g id="highlight" style="isolation:isolate"><defs><clipPath id="highlightClipPath"><path d="M2201.8 2194.3c-43.1-29.3-132.5-61.4-180-75.1l-.8-.3a248.1 248.1 0 0 0 6-155.9l-135.4-437.4a121.2 121.2 0 0 0 41.2-22.5c-16.2 7.7-39.2-8-54.9-21.8l-2.2-7.2c54.8 26.6 104.4-45.8 104.4-45.8-45.4 5.6-101.9-31-136.5-57.8l-3.7-12.1c36.3 6.8 73.7-24.7 73.7-24.7-43.1 1.4-93.9-73.9-115.2-109.1l-68.4-221.1a240.5 240.5 0 0 0-47.4-89.1l73.1-118.8c-32.5-31.8-120.7 34.9-150.2 58.1a240.4 240.4 0 0 0-57.8-20.1 371.4 371.4 0 0 1 21.8-38.4c5-7.8-2.2-17.8-11.2-15.4-26.7 7.1-55.6 28.2-64.6 35a1.2 1.2 0 0 1-1.9-1.3c4.1-16.7 20.9-88.9 7.3-95.5s-36.1 52.7-44.5 74.8a1.2 1.2 0 0 1-2.4-.5c1.7-24.4 4.6-91.4-13.2-87.9-19.6 3.8-56 87.8-62.9 104.2a1.2 1.2 0 0 1-2.3 0c-4.7-11.7-23-55.7-29.3-40.3s.7 43.3 3.5 54.3a1.2 1.2 0 0 1-2 1.2c-19-16.9-51.5-17.3-74-15a10.2 10.2 0 0 0-6.2 17.4 106.3 106.3 0 0 1 9.8 11.3 240.3 240.3 0 0 0-65.6 29.3l-5.2-3.5c-44.6-36.5-115.6-83.7-135.7-33.4l64.7 115.1a240.3 240.3 0 0 0-32.8 93.8l-38.3 204.2c-17.2 35.5-58.3 110.4-101 114.9 0 0 41.5 26.1 76.6 14.2l-2.3 12.9c-30.6 31.3-81.4 75.2-127 75.9 0 0 56.7 62.2 106.6 33l-1.8 9.7c-13.5 14.7-32 29.8-47.6 24.9a121.7 121.7 0 0 0 39.9 15.9l-85.9 456.3a248.9 248.9 0 0 0 12.8 117.5l-.6.2c-38.1 9.2-130.4 43.7-184.3 78.7-26.5 17.2-10 55.9 23.3 55.2l266.9-5.7q6.8 4.1 13.9 7.9v3.3c.4 23.3-6.6 42.4-29.8 43.6-15.6.8-28.2 10-30.6 21.1-4.7 21.5 5.9 38.9 27.3 40.4l84.3 4.8c26.4 1.5 51.9-11.4 65.3-34.2a71.4 71.4 0 0 0 8.8-23.9l5-26.6 533.5-1.1 3.5 20.7a71.6 71.6 0 0 0 43.3 54.2 53.5 53.5 0 0 0 22.3 3.9l91.8-3.2c22-2.2 30.1-15.8 27.8-37-.8-6.9-6.3-24.5-24.5-25.5-15.8-.8-25.3-8.6-28.1-21.9a246.8 246.8 0 0 0 65.2-28.1l261.6 4.5c33.1.6 49-37.5 22.9-55.2z" fill="none"></path></clipPath><linearGradient id="highlightGradient" x1="1937.21" y1="2255.56" x2="1937.21" y2="1522.67" gradientUnits="userSpaceOnUse"><stop offset="0" stop-color="#fff" stop-opacity="0"></stop><stop offset=".72" stop-color="#fff"></stop></linearGradient><linearGradient id="highlightGradient2" x1="2116.32" y1="2248.97" x2="2116.32" y2="2113.28" href="#highlightGradient" xlink:href="#highlightGradient"></linearGradient><linearGradient id="highlightGradient3" x1="1044.74" y1="2253.08" x2="1044.74" y2="2117.39" gradientTransform="matrix(-1 0 0 1 1878.82 0)" href="#highlightGradient" xlink:href="#highlightGradient"></linearGradient><linearGradient id="highlightGradient4" x1="984.56" y1="2254.49" x2="984.56" y2="1542.14" href="#highlightGradient" xlink:href="#highlightGradient"></linearGradient><linearGradient id="highlightGradient5" x1="1875.41" y1="1443.95" x2="1875.41" y2="1512.52" href="#highlightGradient" xlink:href="#highlightGradient"></linearGradient><linearGradient id="highlightGradient6" x1="1889.74" y1="1331.47" x2="1889.74" y2="1433.59" href="#highlightGradient" xlink:href="#highlightGradient"></linearGradient><linearGradient id="highlightGradient7" x1="1750.79" y1="1277.61" x2="1750.79" y2="835.81" href="#highlightGradient" xlink:href="#highlightGradient"></linearGradient><linearGradient id="highlightGradient8" x1="1859.63" y1="1268.58" x2="1859.63" y2="1352.94" href="#highlightGradient" xlink:href="#highlightGradient"></linearGradient></defs><g clip-path="url(#highlightClipPath)" opacity=".3"><path d="M1834.6 1522.7c60.7 163.8 89.7 242.1 136.2 446.7s-80.7 286.2-80.7 286.2l61-35.6s62.9-74.9 72.3-107.8c20.6-71.9 22.7-66.1.7-180.7-32-166.4-122.5-394.8-132.5-405.9-20.9 10.1-57-2.9-57-2.9z" fill="url(#highlightGradient)" style="mix-blend-mode:overlay"></path><path d="M1999.2 2162.4s113.2 21.1 98.4 83.6l92.6 3 43.3-6.5-4.3-68.5-206.8-60.7z" fill="url(#highlightGradient2)"></path><path d="M951.2 2166.5s-113.2 21.1-98.4 83.6l-92.6 3-43.3-6.5 4.3-68.5 206.8-60.7z" fill="url(#highlightGradient3)"></path><path d="M983.9 1542.1l43 2.6s-111.5 487.6-73.8 555.7c47.6 85.9 95 122.5 95 122.5l4 31.6s-139.2-70-135.1-209 66.9-503.4 66.9-503.4z" fill="url(#highlightGradient4)"></path><path d="M1943.3 1501c-15.2 4.7-30.6 9.5-46.5 11s-32.5-.3-46.4-8.1-26-23.4-34.7-38.7c-3.3-5.8-6.5-11.9-8-18.4a2.4 2.4 0 0 1 3.5-2.7l57 31.1c8.1 4.5 16.4 9 25.3 11.4s18.8 2.7 27.3-1.1l2.1 3.1" fill="url(#highlightGradient5)" style="mix-blend-mode:overlay"></path><path d="M2000.2 1418.3a166.8 166.8 0 0 1-131.9 3.3c-39.3-16-71.8-47.9-88.8-86.8a2.4 2.4 0 0 1 3.6-2.9c36.3 24.5 81.2 33.3 122.7 48.2" fill="url(#highlightGradient6)" style="mix-blend-mode:overlay"></path><path d="M1546.4 836.5s59.1 33.4 81.1 64.7 67.7 70.3 87.6 165.3c60.2 287 240 198.1 240 198.1l-211-222.1s-22.8-75.2-62.7-127c-25.8-33.4-73.3-64.5-124.3-79.7z" fill="url(#highlightGradient7)" style="mix-blend-mode:overlay"></path><path d="M1905.7 1339.4c.5-.7 1.6.5 1 1.2s-1.6.5-2.4.3l-29-6.9c-11.1-2.7-22.3-5.3-32.8-9.8a104.5 104.5 0 0 1-55.1-55.6c37.3 17.6 75.4 35.4 116.2 40.8 5.9.8 12 1.3 17.5 3.8s10.3 7.3 10.7 13.3-2.6 10.3-6.6 13.7-9 5.4-13.9 7.3l5.4 5.5" fill="url(#highlightGradient8)" style="mix-blend-mode:overlay"></path></g></g><g id="bodyMask"><path d="M2200.5 2195.7c-43-29.4-132.4-61.7-179.8-75.5l-.8-.3a248.1 248.1 0 0 0 6.4-155.9l-134.5-437.7a121.2 121.2 0 0 0 41.2-22.3c-16.2 7.6-39.1-8.1-54.9-21.9l-2.2-7.2c54.7 26.7 104.5-45.6 104.5-45.6-45.4 5.5-101.9-31.2-136.4-58.1l-3.7-12.1c36.3 6.8 73.8-24.6 73.8-24.6-21.6.7-45-17.8-65.7-40.9a298 298 0 0 1-62.5-111.5l-54.8-178.1a240.5 240.5 0 0 0-47.2-89.2l64.4-104.2a15 15 0 0 0-12.1-22.9c-40-2-104.9 47-129.3 66.3a240.4 240.4 0 0 0-57.8-20.2 371.6 371.6 0 0 1 21.9-38.4 10.2 10.2 0 0 0-11.2-15.4c-26.7 7.1-55.7 28.1-64.7 34.9a1.2 1.2 0 0 1-1.9-1.3c4.1-16.7 21.1-88.9 7.5-95.5s-36.2 52.6-44.6 74.7a1.2 1.2 0 0 1-2.4-.5c1.7-24.4 4.8-91.4-13-88-19.7 3.7-56.2 87.7-63.1 104.1a1.2 1.2 0 0 1-2.2 0c-4.6-11.7-22.9-55.8-29.2-40.3s.6 43.4 3.4 54.3a1.2 1.2 0 0 1-2 1.2c-19-17-51.5-17.4-73.9-15.2a10.2 10.2 0 0 0-6.3 17.4 106.3 106.3 0 0 1 9.7 11.3 240.3 240.3 0 0 0-65.7 29.2l-5.2-3.5c-41.5-34.1-105.9-77.5-130.8-42.6a15 15 0 0 0-.9 16l60.5 108.1a240.3 240.3 0 0 0-33 93.8l-30.5 160.3a272.3 272.3 0 0 1-49.4 112.8c-17.8 23.7-38.8 43.5-60.1 45.7 0 0 41.5 26.2 76.6 14.4l-2.4 12.7c-30.6 31.2-81.6 75-127.2 75.7 0 0 56.6 62.3 106.5 33.2l-1.8 9.7c-13.6 14.7-32 29.7-47.6 24.8a121.7 121.7 0 0 0 39.9 15.9l-86.8 456.2a248.9 248.9 0 0 0 12.6 117.6l-.6.2c-38.1 9.1-130.4 43.4-184.5 78.3-26.5 17.1-10.1 55.9 23.2 55.3l266.9-5.2q6.8 4.2 13.9 7.9v3.3c.4 23.3-6.7 42.4-29.9 43.6-15.6.8-28.2 9.9-30.6 21.1-4.7 21.5 5.8 38.9 27.2 40.4l84.3 5c26.4 1.6 51.9-11.3 65.3-34.1a71.4 71.4 0 0 0 8.8-23.9l5-26.6h533.6l3.5 20.7a71.6 71.6 0 0 0 43.1 54.3 53.5 53.5 0 0 0 22.3 4l91.8-3c22-2.2 30.1-15.7 27.9-36.9-.7-6.9-6.2-24.5-24.5-25.5-15.8-.9-25.2-8.6-28.1-21.9a246.8 246.8 0 0 0 65.3-28l261.6 5c33.3.5 49.3-37.6 23.2-55.4z" fill="none"></path></g><g id="body"><path fill="none" stroke="#31323d" stroke-width="12.5" stroke-miterlimit="10" d="M1714.5 2282.4h-533.6m711.7-753.2l133.7 434.9c39 137.9-45.2 275-175.8 309.9m-799.8-20.3c-89.2-47.1-145.7-146.2-131.5-254.1l86.3-453.7" stroke-linecap="round"></path><path fill="#31323d" d="M1228.6 2040.8c-1.7 15.3-3.8 30.4-6 45.6l-3.5 22.7-3.8 22.6c-2.6 15.1-5.4 30.1-8.1 45.2l-8.3 45.1-16.6 90.3a76.3 76.3 0 0 1-3.5 12.1 77.5 77.5 0 0 1-5.4 11.4 75.5 75.5 0 0 1-16 19.4 78.7 78.7 0 0 1-45.9 18.8l-6.3.2h-6.1l-11.5-.7-22.9-1.3-45.8-2.8h-4.7l-1.8-.3a44.1 44.1 0 0 1-6.7-1.7 35.7 35.7 0 0 1-12.3-7.3 34.7 34.7 0 0 1-8.3-11.7 40.4 40.4 0 0 1-3.1-13.5 50.7 50.7 0 0 1 1-13.2l.2-.8v-1.7l.3-1.1a26.9 26.9 0 0 1 1.5-3.6 30.2 30.2 0 0 1 4.1-6.2 37.9 37.9 0 0 1 11-8.8 45.9 45.9 0 0 1 12.7-4.5 49 49 0 0 1 6.6-.9l2.7-.2 2.1-.3a22 22 0 0 0 4.3-1.2 18.5 18.5 0 0 0 3.8-1.9c4.6-3 7.7-8.4 9.4-14.8a70.5 70.5 0 0 0 1.8-20.8l-.9-22.9-1.9-45.9c-.6-15.3-1.3-30.6-1.8-45.9v.5c-.6-5-1.3-9.9-2-14.9-.4-2.5-.8-4.9-1.2-7.4s-.9-4.9-1.4-7.3-1-4.9-1.6-7.3l-1.8-7.2q-1.9-7.2-4.4-14.2c-.8-2.3-1.7-4.6-2.6-6.9s-1.8-4.6-2.9-6.8l-1.5-3.4-1.6-3.3-1.7-3.3-1.8-3.3-1.8-3.2-1.9-3.2-4-6.3c-1.4-2.1-2.8-4.1-4.3-6.2l-2.2-3-2.3-3a2.2 2.2 0 0 1 3.4-2.9l5.4 5.6q2.6 2.9 5.1 5.9c1.7 2 3.3 4 4.8 6.1l2.3 3.2 2.2 3.2c1.5 2.2 2.9 4.3 4.2 6.6l2 3.4 1.9 3.4q1.9 3.4 3.5 7c1.1 2.4 2.2 4.7 3.2 7.2q3 7.2 5.4 14.7c1.6 5 3 10 4.2 15q.9 3.8 1.7 7.6c.5 2.5 1.1 5.1 1.5 7.6.9 5.1 1.7 10.2 2.4 15.3v.5c.9 15.3 1.6 30.6 2.4 45.8l2.3 45.8 1.1 22.9a94.4 94.4 0 0 1-.1 12.3 71.8 71.8 0 0 1-1.9 12.5 54.5 54.5 0 0 1-2 6.3 42.8 42.8 0 0 1-3.1 6.2 33.3 33.3 0 0 1-9.8 10.4 35.1 35.1 0 0 1-13.2 5.3l-3.5.5-3 .2a35 35 0 0 0-4.7.6 31.9 31.9 0 0 0-8.8 3.2 23.9 23.9 0 0 0-6.9 5.5 16.1 16.1 0 0 0-2.2 3.3 13 13 0 0 0-1.2 3.7 36.6 36.6 0 0 0-.7 9.6 26.2 26.2 0 0 0 2 8.7 20.4 20.4 0 0 0 4.9 6.9 21.4 21.4 0 0 0 7.3 4.3 30.1 30.1 0 0 0 4.4 1.1l1 .2h3.9l45.8 2.7 22.9 1.4 11.5.7h10.5a64.5 64.5 0 0 0 37.6-15.2 61.4 61.4 0 0 0 13.1-15.7 65 65 0 0 0 7.4-19.2l17.4-90.1 8.7-45.1c2.9-15 5.8-30 8.8-45l4.7-22.5 5-22.4c3.4-14.9 7-29.8 11-44.6a2.2 2.2 0 0 1 4.9.6z"></path><path fill="#31323d" d="M1095.2 2319.6h-.5l-1.7.2a18.6 18.6 0 0 0-5.8 2 22.5 22.5 0 0 0-6.7 5.5 30.2 30.2 0 0 0-2.9 4 38.9 38.9 0 0 0-2.4 4.6l-.5 1.2-.5 1.2-.5 1.2-.4 1.3c-.5 1.7-.9 3.4-1.3 5l-.5 2.4c-.2.8-.3 1.6-.4 2.4s-.4 3-.6 4.4-.2 2.6-.3 3.7-.1 2.1-.2 2.9v2.7a6.3 6.3 0 1 1-12.5-.6 6.9 6.9 0 0 1 .1-.8l.5-2.7c.2-.9.3-1.9.6-3.1s.5-2.6.9-4.1.8-3.1 1.3-4.8l.8-2.6.9-2.7c.7-1.8 1.4-3.7 2.3-5.5l.6-1.4.7-1.4.7-1.4.8-1.4a46.9 46.9 0 0 1 3.6-5.2 37.5 37.5 0 0 1 4.2-4.5 28.8 28.8 0 0 1 9.4-5.8 23.9 23.9 0 0 1 7.7-1.5h3.1a2.2 2.2 0 1 1-.5 4.8zm-42.5-4.7h-.6l-1.6.4-2.5.9-.7.3-.8.4-1.6.9-1.7 1.1-1.7 1.3-.9.7-.8.8-1.6 1.7-1.5 2-.7 1-.6 1.1-1.3 2.2-1.1 2.4c-.3.8-.7 1.6-1 2.4l-.8 2.5-.8 2.4-.6 2.5a42.3 42.3 0 0 0-1 4.7l-.6 4.3a35.4 35.4 0 0 0-.3 3.7l-.2 2.8-.2 2.5v.4a6.3 6.3 0 1 1-12.5-.8 6.9 6.9 0 0 1 .1-.8l.5-2.7.6-3.1c.3-1.2.4-2.5.9-4l1.3-4.7a51.3 51.3 0 0 1 1.8-5.2l1-2.7 1.3-2.7 1.3-2.7c.5-.9 1.1-1.8 1.6-2.7l1.7-2.6 1.9-2.4.9-1.2 1.1-1.1 2.1-2.1 2.2-1.8 1.1-.9 1.2-.7 2.2-1.4 2.2-1.1 2.1-.8 1-.4 1-.3a26.5 26.5 0 0 1 3.2-.7l2.2-.2h.8a2.2 2.2 0 1 1 .4 4.4zm621-289.7l2.2 9.4c1.4 6.1 3.4 15.1 5.8 26.6 1.2 5.7 2.5 12.1 3.9 19l4.4 22.5 4.8 25.6 5 28.4 23.3 135.3c1.1 6.1 2 12.8 3.6 17.8a63.3 63.3 0 0 0 7.2 15.7 65.1 65.1 0 0 0 25.9 23.4l4.1 1.9 1.1.4 1 .4 2 .7a45.4 45.4 0 0 0 8.4 1.7l4.3.3h4.6l10-.3 40.1-1.4 39.4-1.2 2.5-.3 1.2-.2.9-.2 1.9-.4 1.9-.6a21.7 21.7 0 0 0 6.5-3.5 17 17 0 0 0 4.3-5.4c.2-.6.6-1.1.7-1.7l.6-1.8a30.4 30.4 0 0 0 .8-3.9 37.8 37.8 0 0 0 .4-4.1v-2.1s0-1.4-.1-2.2l-.2-2.2v-.3a.3.3 0 1 1 0-.1v-1.6l-.2-.8-.2-.9c-.1-.6-.4-1.3-.6-1.9-1.7-5-4.7-9.3-8.4-11.7a17.3 17.3 0 0 0-6.4-2.3l-1.8-.2-2.6-.2h-1.2l-1.5-.2-2.9-.5a39.5 39.5 0 0 1-10.9-4.2 30.1 30.1 0 0 1-9.1-8 34 34 0 0 1-5.3-10.4 47.2 47.2 0 0 1-1.9-10.7c-.1-.9-.1-1.7-.1-2.6v-7.2l.2-9.1.8-35.4.2-8.6v-4.6l.3-4.2.3-4.2c.1-1.4.2-2.7.4-4.2l1-8.4a250.4 250.4 0 0 1 6.4-31.5 277 277 0 0 1 9.1-28l2.7-6.4c.9-2.1 1.7-4.2 2.7-6.2l2.8-5.9c.9-1.9 1.8-3.9 2.8-5.7l2.9-5.4 1.4-2.6 1.5-2.5 2.9-4.9c.9-1.6 1.8-3.2 2.8-4.7l5.6-8.7 5.4-7.7 2.6-3.5 2.5-3.2c1.6-2.1 3.1-4.1 4.6-5.8l4.1-4.9 3.5-4 6.6-7.1a2.2 2.2 0 0 1 3.4 2.8l-5.6 7.8c-3.6 5.1-8.8 12.6-14.9 22.5l-4.7 7.8-4.8 8.8c-.9 1.5-1.7 3.1-2.5 4.7l-2.5 4.9-1.3 2.5-1.2 2.6-2.5 5.4a290.9 290.9 0 0 0-17.7 50.6l-.9 3.6-.4 1.8-.4 1.8-1.5 7.4-.4 1.9-.3 1.9-.6 3.8-.6 3.9-.3 1.9-.2 1.9-.9 7.8c-.2 1.3-.2 2.7-.3 4.1l-.3 4.2-.3 4.2v12.5l-.5 35.4v15.8s0 1.4.1 2a33.7 33.7 0 0 0 1.4 7.5 20.3 20.3 0 0 0 3.2 6.2c2.7 3.6 6.9 5.8 12 6.9l1.8.3.9.2h1.2l2.2.2 3 .3a31.3 31.3 0 0 1 11.7 4.2 31.8 31.8 0 0 1 9 8.5 40.3 40.3 0 0 1 5.4 10.5c.3.9.6 1.8.8 2.8l.4 1.4.3 1.6v2.9l.2 2.7c.1.9.1 1.8.1 2.8s.1 1.8 0 2.8a52 52 0 0 1-.5 5.7 44.4 44.4 0 0 1-1.2 5.8l-1 2.9c-.3 1-.8 1.9-1.3 2.9a31.3 31.3 0 0 1-7.9 10.1 35.8 35.8 0 0 1-10.9 6l-2.8.9-3 .7-1.5.3-1.3.2-2.5.3h-5.7l-5 .2-10 .4-20.1.7-40.1 1.3-10 .3h-5.4l-5.6-.4a59.7 59.7 0 0 1-11-2.3l-2.7-.9-1.4-.5-1.2-.5-4.9-2.3a79.2 79.2 0 0 1-31.4-28.6 77.2 77.2 0 0 1-8.7-19.2l-.7-2.6-.3-1.3c-.1-.4-.2-.9-.3-1.3l-.5-2.3-.2-1.2v-1.4l-1.5-9.3-22-135.6-4.5-28.5-3.8-25.7-3.2-22.7c-1-7-1.8-13.4-2.5-19.3-1.5-11.6-2.5-20.8-3.2-27.1l-1-9.6a2.2 2.2 0 0 1 3.8-.6z"></path><path fill="#31323d" d="M1783.2 2307.4h3.2a34.8 34.8 0 0 1 8 1.7 33.5 33.5 0 0 1 5.1 2.1 34.2 34.2 0 0 1 5.3 3.3 37.9 37.9 0 0 1 5 4.5c.7.9 1.5 1.7 2.2 2.7l1 1.4 1 1.5a46.8 46.8 0 0 1 3.3 6.1 56.5 56.5 0 0 1 2.4 6.2c.4 1 .6 2 .9 3s.5 2 .7 2.9l.6 2.8.4 2.6c.3 1.7.4 3.2.6 4.6s.3 2.5.3 3.5l.2 3.1a6.3 6.3 0 0 1-12.5.8 6.4 6.4 0 0 1 0-.7v-.3l.2-2.7c.1-.9.1-1.9.1-3.1s.1-2.6 0-4v-2.3l-.2-2.4c-.1-.8-.2-1.7-.3-2.5s-.2-1.8-.4-2.6a47.1 47.1 0 0 0-1.3-5.3 38.1 38.1 0 0 0-2.1-5.2l-.6-1.3-.7-1.2c-.4-.8-1-1.6-1.5-2.3a30.5 30.5 0 0 0-3.5-4.1 29.3 29.3 0 0 0-8-5.5 29.5 29.5 0 0 0-6.6-2.2l-1.9-.3h-.7a2.2 2.2 0 0 1-.2-4.8zm50.6-3.2h3.2a34.8 34.8 0 0 1 8 1.7 33.5 33.5 0 0 1 5.1 2.1 34.2 34.2 0 0 1 5.3 3.3 37.9 37.9 0 0 1 5 4.5c.7.9 1.5 1.7 2.2 2.7l1 1.4 1 1.5a46.8 46.8 0 0 1 3.3 6.1 56.6 56.6 0 0 1 2.4 6.2c.4 1 .6 2 .9 3s.5 2 .7 2.9l.6 2.8.4 2.6c.3 1.7.4 3.2.6 4.6s.3 2.5.3 3.5l.2 3.1a6.3 6.3 0 1 1-12.5.1v-.3l.2-2.7c.1-.9.1-1.9.1-3.1s.1-2.6 0-4v-2.3l-.2-2.4c-.1-.8-.2-1.7-.3-2.5s-.2-1.8-.4-2.6a47.1 47.1 0 0 0-1.3-5.3 38 38 0 0 0-2.1-5.2l-.6-1.3-.7-1.2c-.4-.8-1-1.6-1.5-2.3a30.5 30.5 0 0 0-3.5-4.1 29.3 29.3 0 0 0-8-5.5 29.5 29.5 0 0 0-6.6-2.2l-1.9-.3h-.7a2.2 2.2 0 0 1-.2-4.8z"></path><path fill="none" stroke="#31323d" stroke-width="12" stroke-miterlimit="10" d="M1206.2 862.9c-41.5-34.1-105.9-77.5-130.8-42.6a15 15 0 0 0-.9 16l60.5 108.1m472-90.4c24.5-19.2 89.4-68.2 129.3-66.3a15 15 0 0 1 12.1 22.9L1684 914.8" stroke-linecap="round"></path><path fill="#31323d" d="M1067.4 1534.9l-2.7 1.9-1.4.9-1.5.9-3 1.8-3.1 1.5-1.5.8-1.6.7-3.2 1.3c-2.2.7-4.4 1.5-6.6 2.1s-4.5 1.1-6.8 1.6-4.6.7-6.9.9-4.6.3-6.9.4h-3.5l-3.5-.2-3.5-.3-3.4-.4-3.4-.5-3.4-.6-6.8-1.5-6.7-1.9-6.5-2.3-6.4-2.6-6.3-2.9-3.1-1.6-1.6-.9-1.7-1a6.6 6.6 0 0 1 4.9-12l.8.2 1.8.4 1.9.2h1.9l2-.3 2.1-.5 2.1-.7 2.1-.8 2.1-1c1.4-.7 2.8-1.5 4.2-2.4l2.1-1.3 2-1.5 2-1.5 2-1.6 3.9-3.4a162.3 162.3 0 0 0 14.4-15.1q3.4-4 6.6-8.2l3.1-4.2 3-4.2 10.4 8a92.3 92.3 0 0 1-6.8 6.8 74.5 74.5 0 0 1-7.7 6 68.2 68.2 0 0 1-8.5 5 62.7 62.7 0 0 1-9.3 3.7 63.4 63.4 0 0 1-19.6 2.7 77.4 77.4 0 0 1-19.2-2.9 103.2 103.2 0 0 1-17.8-6.8 138.8 138.8 0 0 1-16.2-9.4 171.9 171.9 0 0 1-14.8-11.2c-2.4-2-4.7-4-6.9-6.1l-3.4-3.2-1.7-1.7-1.7-1.8a6.5 6.5 0 0 1 4.4-10.9h.4l5.5-.3 5.5-.7 1.4-.2 1.4-.3 2.7-.6 2.7-.6 2.7-.8 2.7-.8 2.7-.9 2.7-1 2.7-1 5.3-2.2 5.2-2.5 1.3-.6 1.3-.7 2.6-1.4 2.6-1.4 2.5-1.5 5-3 4.9-3.1c3.2-2.2 6.5-4.3 9.7-6.7s6.3-4.7 9.4-7.1 6.2-4.9 9.2-7.5 6-5.1 9-7.7l4.4-4 4.3-4.1 8.5-8.3 4.2-4.2 4.1-4.3 8.1-8.7 7.9-8.9c2.6-3 5.2-6 7.6-9l.2-.2a6.5 6.5 0 1 1 10.1 8.1v.2l-2.5 2.9-1.3 1.5-1.4 1.4-2.8 2.7-3 2.5a34 34 0 0 1-3.2 2.3 35.7 35.7 0 0 1-3.3 2.1l-3.4 1.9-3.6 1.6-.9.4-.9.3-1.8.6-1.9.6-1.9.5-1.9.5-1.9.4-3.8.7-3.8.4-3.8.2h-7.6l-3.8-.3-3.7-.4c-2.5-.4-4.9-.8-7.3-1.3l-3.6-.8-3.6-.9-7-2.2a143.6 143.6 0 0 1-13.6-5.4l-6.6-3.2-3.2-1.7-1.6-.9-1.7-1a6.4 6.4 0 0 1 2.7-11.8h.1a40.4 40.4 0 0 0 16.2-5.8 81.9 81.9 0 0 0 14.6-11.4c9.1-8.8 17.1-19.2 24.4-30q2.7-4.1 5.3-8.3l1.3-2.1 1.2-2 2.6-4.3c1.8-2.9 3.2-5.7 4.9-8.6l4.6-8.7a371.5 371.5 0 0 0 16-36 376 376 0 0 0 12.1-37.6c.9-3.2 1.6-6.4 2.4-9.6s1.5-6.4 2.1-9.6c1.3-6.4 2.6-13 3.8-19.6l15-78.9 7.5-39.4.2-1.2v-1.4l.4-2.5.7-5c.6-3.4 1.3-6.8 1.9-10.2s1.5-6.7 2.3-10l1.3-5 .7-2.5.7-2.5a249.6 249.6 0 0 1 15-38.3 242.3 242.3 0 0 1 21.2-35.3A248.6 248.6 0 0 1 1167 894a253.3 253.3 0 0 1 31.5-26.4 241.8 241.8 0 0 1 35.5-20.9 250.4 250.4 0 0 1 38.4-14.7 6.2 6.2 0 1 1 3.5 12 237.9 237.9 0 0 0-36.5 14 229.3 229.3 0 0 0-33.7 19.8 240.8 240.8 0 0 0-29.9 25.1 236 236 0 0 0-25.3 29.7 228.7 228.7 0 0 0-20.1 33.5 237 237 0 0 0-14.2 36.4l-.7 2.3-.6 2.4-1.3 4.7c-.8 3.2-1.5 6.3-2.2 9.5s-1.2 6.3-1.8 9.5l-.7 5-.4 2.5v1.5l-.2 1.2-7.5 39.4-15 78.9c-1.3 6.6-2.5 13.1-3.8 19.8-.7 3.3-1.5 6.6-2.2 10s-1.6 6.6-2.5 9.9a388.7 388.7 0 0 1-12.5 38.9 384.3 384.3 0 0 1-16.6 37.3l-4.8 9c-1.7 3-3.3 6.1-5 8.9l-2.5 4.3-1.4 2.2-1.3 2.2q-2.7 4.3-5.6 8.6c-7.6 11.3-16 22.3-26.2 32.1a94.5 94.5 0 0 1-17 13.2 53.2 53.2 0 0 1-21.4 7.5l2.8-11.8 1.3.8 1.4.8 2.9 1.6 6 2.9a130.8 130.8 0 0 0 12.4 4.9l6.3 2 3.2.8 3.2.7 6.4 1.1 3.2.4 3.2.2h6.4l3.2-.2 3.1-.3 3.1-.6 1.5-.3 1.5-.4 1.5-.4 1.5-.5 1.5-.5.7-.3.7-.3 2.8-1.2 2.7-1.5a25.1 25.1 0 0 0 2.6-1.6 23.8 23.8 0 0 0 2.5-1.8l2.4-1.9 2.2-2.2 1.1-1.1 1-1.2 2-2.4 10.1 8c-2.7 3.3-5.3 6.3-7.9 9.4l-8.1 9.1-8.3 8.9-4.3 4.4-4.3 4.3-8.8 8.5-4.5 4.2-4.5 4.1c-3.1 2.7-6.1 5.4-9.3 8s-6.3 5.2-9.5 7.7-6.5 5-9.9 7.4-6.7 4.7-10.2 7l-5.2 3.3-5.3 3.2-2.7 1.6-2.7 1.5-2.7 1.5-1.4.7-1.4.7-5.6 2.7-5.8 2.5-2.9 1.1-3 1.1-3 1-3.1.9-3.1.9-3.1.7-3.1.7-1.6.3-1.6.2c-2.1.3-4.3.7-6.4.9l-6.5.4 4.7-10.9 1.4 1.4 1.5 1.5 3.1 3c2.1 1.9 4.2 3.8 6.4 5.7a158.8 158.8 0 0 0 13.7 10.3 125.7 125.7 0 0 0 14.7 8.5 90.2 90.2 0 0 0 15.5 6 64.3 64.3 0 0 0 15.9 2.4 50.2 50.2 0 0 0 15.6-2.2 49.5 49.5 0 0 0 7.3-2.9 55.1 55.1 0 0 0 6.9-4 61.4 61.4 0 0 0 6.3-5 79.3 79.3 0 0 0 5.8-5.8h.1a6.6 6.6 0 0 1 10.3 8.2l-3.3 4.7-3.3 4.5q-3.4 4.5-7 8.7a175.3 175.3 0 0 1-15.6 16.4l-4.3 3.8-2.3 1.8-2.3 1.8-2.4 1.7-2.5 1.6c-1.7 1-3.4 2.1-5.3 3l-2.8 1.3-2.9 1.2-3.1 1-3.2.7-3.4.4h-3.5l-3.5-.4-3.5-.8 5.7-11.8 1.1.8 1.3.8 2.6 1.6 5.5 3.1 5.7 2.8 5.8 2.5 5.9 2.2 6 1.9 3.1.8 3.1.7 3.1.6 3.1.5 3.1.4 3.1.3c2.1.1 4.2.2 6.3.1l6.3-.3s4.2-.5 6.2-.9 4.1-.9 6.1-1.4l3-1 1.5-.5 1.5-.6 2.9-1.2 2.8-1.4 1.4-.7 1.4-.8 2.9-1.6a2.5 2.5 0 0 1 2.3 4.5zm488.4-706l4.9 1.2 2.5.6 2.5.7 5.1 1.5 5 1.6c6.6 2.1 13.1 4.6 19.6 7.3a250.6 250.6 0 0 1 36.9 19.4 246.7 246.7 0 0 1 33.1 25.3l3.8 3.5 3.7 3.6c2.5 2.4 4.9 5 7.3 7.5 4.7 5.1 9.3 10.4 13.5 15.9s8.3 11.2 12.2 16.9 7.4 11.8 10.7 17.9 6.3 12.4 9.2 18.8 5.3 12.9 7.5 19.5c.5 1.7 1.1 3.3 1.6 5l1.5 5 2.9 9.7 5.8 19.5 11.7 39 23.3 78 5.8 19.4 1.5 4.9.8 2.4.8 2.3 1.6 4.7 1.7 4.7c2.2 6.3 4.8 12.4 7.4 18.6s5.5 12.2 8.5 18.1a328.1 328.1 0 0 0 44.2 66.2c8.7 10 18 19.4 28.3 27.1a81.3 81.3 0 0 0 16.2 9.5 40.5 40.5 0 0 0 17 3.6 6.6 6.6 0 0 1 4.5 11.8l-1.5 1.2-1.5 1.1-3 2.2-6.1 4.1a143.9 143.9 0 0 1-12.7 7.2l-6.7 3.1-3.4 1.4-3.5 1.3c-2.3.9-4.7 1.6-7.1 2.3l-3.6.9-3.7.8-3.7.6-1.9.3-1.9.2-3.8.3h-3.9l-3.9-.2-1.9-.2-1.9-.2-1.9-.2-1.9-.4-1.9-.4-1-.2-.9-.3-3.8-1.1-3.7-1.4a35.9 35.9 0 0 1-3.6-1.6 34.2 34.2 0 0 1-3.5-1.9l-3.4-2.1-3.2-2.3-1.6-1.2-1.5-1.3-2.9-2.6a6.7 6.7 0 0 1 8.9-10.1h.1l.3.2c2.8 2.6 5.8 5.3 8.7 7.9l9 7.7 9.2 7.5 4.7 3.7 4.7 3.6 9.6 7 4.8 3.4 4.9 3.3c3.3 2.2 6.6 4.4 9.9 6.5s6.7 4.1 10.1 6.2 6.8 3.9 10.3 5.7 7 3.6 10.5 5.3l5.3 2.4 5.4 2.3 2.7 1.1 2.7 1 2.7 1 1.4.5 1.4.4 5.5 1.8 5.5 1.5 2.8.7 2.8.6 2.8.6 2.8.4 2.8.4 2.8.3 2.8.2h8.3l5.5-.4h.4a6.6 6.6 0 0 1 5.9 10.4l-1.4 2-1.4 1.9-2.9 3.6c-2 2.4-4 4.7-6.1 7a172 172 0 0 1-13.2 13 138.7 138.7 0 0 1-14.9 12.4 103.2 103.2 0 0 1-16.7 9.1 77.3 77.3 0 0 1-18.7 5.4 63.2 63.2 0 0 1-19.8-.1 62.4 62.4 0 0 1-9.6-2.4 68 68 0 0 1-9.1-3.8 74.2 74.2 0 0 1-8.4-5 92.1 92.1 0 0 1-7.6-5.8l8.8-8.9 3.5 3.8 3.7 3.8q3.7 3.7 7.6 7.3a163.8 163.8 0 0 0 16.2 13.2l4.3 2.9 2.2 1.3 2.2 1.3 2.2 1.2 2.2 1.1c1.5.7 3 1.4 4.5 1.9l2.3.8 2.2.6 2.2.4 2.2.2h2.1l2-.2 1.9-.4 1.8-.7.7-.2a5.6 5.6 0 0 1 5.4 9.5l-2.8 2.3-2.8 2.1c-1.9 1.4-3.8 2.6-5.7 3.8l-5.9 3.5-6.1 3.2-6.3 2.9-6.4 2.5-3.3 1.1-3.3 1-3.4.9-3.4.8-3.4.7-3.4.5c-2.3.3-4.6.5-6.9.6s-4.6.1-7 .1-4.6-.2-6.9-.6-4.6-.8-6.8-1.2l-3.4-.9-1.7-.4-1.6-.6-3.3-1.1-3.2-1.3-1.6-.7-1.5-.8-3.1-1.6a2.5 2.5 0 0 1 2-4.6h.2l3 1.2 1.5.6 1.5.5 3 1 3.1.8 1.5.4 1.6.3 3.1.6c2.1.2 4.2.5 6.3.6s4.2.1 6.3.1 4.2-.2 6.3-.5 4.2-.6 6.2-.9l3.1-.7 3.1-.8 3-.9 3-1 3-1.1 2.9-1.2 2.9-1.3 2.9-1.3 5.6-2.9 5.5-3.2 5.3-3.5 5.1-3.7 2.5-1.9 2.3-1.9 6.1 9.3-3.2 1.3-3.3.9-3.4.4h-3.3l-3.2-.3-3.1-.5-3-.7-2.9-.9a57.6 57.6 0 0 1-5.6-2.2l-2.7-1.3-2.6-1.4-2.5-1.4-2.5-1.5-4.8-3.1a174.2 174.2 0 0 1-17.7-14q-4.2-3.7-8.1-7.7l-3.9-4-3.9-4.2a6.3 6.3 0 0 1 8.7-9.1h.1a79.4 79.4 0 0 0 6.6 5 61.6 61.6 0 0 0 7 4.1 55.3 55.3 0 0 0 7.4 3.1 49.7 49.7 0 0 0 7.7 1.9 50.4 50.4 0 0 0 15.8 0 64.5 64.5 0 0 0 15.5-4.6 90.3 90.3 0 0 0 14.5-8 125.8 125.8 0 0 0 13.4-10.4 158.9 158.9 0 0 0 12.1-12.1c1.9-2.1 3.8-4.3 5.6-6.5l2.6-3.3 1.3-1.7 1.2-1.6 6.3 10.3-6.5.5h-9.7l-3.2-.3-3.2-.3-3.2-.5-3.2-.5-3.1-.6-3.1-.7-3.1-.7-6.1-1.6-6-1.9-1.5-.5-1.5-.5-2.9-1.1-2.9-1.1-2.9-1.2-5.7-2.4-5.6-2.6c-3.7-1.8-7.4-3.6-11-5.6l-10.8-6s-7-4.2-10.5-6.4-6.9-4.4-10.3-6.7l-5.1-3.5-5-3.5-9.8-7.3-4.9-3.7-4.8-3.8-9.5-7.7-9.3-7.9c-3.1-2.7-6.1-5.4-9.1-8.3l9.3-9.7 2.3 2.1 1.2 1 1.2.9 2.5 1.8 2.6 1.6a23.5 23.5 0 0 0 2.7 1.4 24.9 24.9 0 0 0 2.8 1.3l2.8 1.1 2.9.8.7.2.7.2 1.5.3 1.5.3 1.5.2 1.5.2h7.8l3.1-.2h1.6l1.6-.2 3.1-.5 3.1-.7 3.1-.8 6.2-2 3.1-1.2 3-1.2 6-2.8a130.5 130.5 0 0 0 11.6-6.5l5.5-3.7 2.7-1.9 1.3-1 1.2-.9 4.5 11.8a53.7 53.7 0 0 1-22.6-4.7 94.3 94.3 0 0 1-18.8-11.1c-11.5-8.6-21.3-18.6-30.4-29.1a341.4 341.4 0 0 1-45.8-69c-3.1-6.2-6-12.5-8.8-18.8s-5.3-12.8-7.6-19.3l-1.8-4.9-1.7-5-.8-2.5-.8-2.4-1.5-4.9-5.2-19.4-23.2-78-11.6-39-5.8-19.5-2.9-9.8-1.4-4.7c-.5-1.6-1-3.1-1.6-4.7-2.1-6.3-4.5-12.4-7.1-18.5s-5.5-12-8.7-17.8-6.6-11.5-10.1-17-7.5-10.9-11.6-16.1-8.4-10.2-12.9-15.1c-2.3-2.4-4.5-4.8-6.9-7.1l-3.5-3.5-3.7-3.4a234.2 234.2 0 0 0-31.5-24.1 238.1 238.1 0 0 0-35.1-18.4c-6.1-2.5-12.3-4.9-18.6-6.9l-4.7-1.5-4.7-1.4-2.4-.7-2.5-.6-4.9-1.2a6.2 6.2 0 0 1 3.2-12.1z"></path><path fill="#31323d" d="M1291 865l-5.4-7.8c-1.7-2.5-3.9-5.5-6.6-9s-5.7-7.4-9.4-11.5c-1.8-2-3.8-4.1-6-6.2l-.4-.4-.7-.8-.4-.4-.2-.2h-.1l-.2-.2-1.3-1.9c-.4-.6-.6-1.2-.9-1.8a16.1 16.1 0 0 1-1.1-8.1 16.7 16.7 0 0 1 3.1-7.8 16.3 16.3 0 0 1 7-5.4l2.2-.7 2.2-.4 3-.3 6.1-.5a163.1 163.1 0 0 1 26.7.5 116.9 116.9 0 0 1 14.5 2.5 85.7 85.7 0 0 1 14.9 5.2l3.7 1.9a34.8 34.8 0 0 1 3.6 2.2 34.2 34.2 0 0 1 3.5 2.5l1.7 1.4.9.7.4.3-.2-.2a5.5 5.5 0 0 0-1.1-.7 5.4 5.4 0 0 0-7.1 2.9 5.5 5.5 0 0 0-.4 2.2 5.4 5.4 0 0 0 .1 1l-.2-.9-.9-3.9c-.6-2.6-1.2-5.3-1.7-8-1.1-5.4-1.9-11-2.5-16.7q-.4-4.3-.6-8.8v-4.6s.1-3.1.3-4.7a43.5 43.5 0 0 1 .8-4.9c.2-.8.3-1.7.6-2.5l.9-2.6v-.3l.2-.5.2-.5.2-.5.3-.5.6-1 .3-.5.4-.5.4-.5.5-.5.6-.5.7-.5 1.6-.9a9.4 9.4 0 0 1 3.8-.8h1.8l1.5.4a13.2 13.2 0 0 1 3.9 2.1 25.6 25.6 0 0 1 4.2 4.2c1.1 1.4 2.1 2.7 3 4.1s3.4 5.4 4.9 8.2c3 5.5 5.6 11.1 8.1 16.7q1.9 4.3 3.7 8.6l.9 2.2.4 1.1-.3-.6a6 6 0 0 0-1.1-1.4 5.8 5.8 0 0 0-9.3 1.8v-.3l.9-2.2q7.4-17.2 15.7-34.6c5.6-11.6 11.5-23.2 18.2-34.7 3.3-5.7 6.9-11.5 10.9-17.1a105.1 105.1 0 0 1 6.5-8.3 46.1 46.1 0 0 1 8.6-7.9 20.1 20.1 0 0 1 7.1-3.1h3.8l1.4.2a13.7 13.7 0 0 1 4.9 2 18 18 0 0 1 5.5 6.1 32.7 32.7 0 0 1 2.6 5.8 67 67 0 0 1 2.6 10.8c.6 3.5 1 7 1.3 10.4a336.2 336.2 0 0 1 .6 40.4q-.4 10-1.1 19.9v-.3s.1.4-.1-.8a5.9 5.9 0 0 0-.6-1.8 6 6 0 0 0-.9-1.3 5.8 5.8 0 0 0-5.2-1.8 6 6 0 0 0-2.8 1.2 5.9 5.9 0 0 0-1.8 2.3l.3-.9 1.8-4.6 3.7-9.2c5-12.2 10.3-24.1 16.4-35.7a139.7 139.7 0 0 1 10.4-17.1c1-1.4 2.1-2.8 3.4-4.2a33.1 33.1 0 0 1 4.3-4.1 19.3 19.3 0 0 1 3.1-2 13.6 13.6 0 0 1 4.5-1.4 11.5 11.5 0 0 1 5.9.8l1.1.5h.3l.8.5 1.3 1.1.9.9a15.4 15.4 0 0 1 2.3 3.5 21.9 21.9 0 0 1 1.3 3.2 35.2 35.2 0 0 1 1.2 5.7 72.1 72.1 0 0 1 .5 10.1 174.6 174.6 0 0 1-1.5 18.8c-1.5 12.1-3.7 23.7-6.1 35q-1.8 8.4-3.7 16.5l-1 4-.5 2-.2 1v.2c-.1.3 0 0 .1-.8a5.1 5.1 0 0 0-.2-1.3 5.3 5.3 0 0 0-.4-1.1 5.4 5.4 0 0 0-5.5-2.9 5.5 5.5 0 0 0-2.1.7l-.3.2.2-.2.8-.6 3.3-2.4a286.8 286.8 0 0 1 26.6-17.1c4.5-2.5 8.9-4.8 13.3-6.9l6.7-3 3.4-1.3 3.4-1.3 3.4-1.2 3.4-1 1.7-.5.8-.2h5.1l1.3.2a16.2 16.2 0 0 1 9.1 4.4 16.8 16.8 0 0 1 4.7 8.4 15.8 15.8 0 0 1-.8 9.4 12.7 12.7 0 0 1-1 2.1l-.5.9-.4.6-1.6 2.4-5.8 9c-3.7 5.8-7 11.2-9.9 16-5.8 9.8-9.9 17.7-12.6 23.2l-1.7 3.6-1.2 2.7-1 2.2a2.5 2.5 0 0 1-4.7-1.6l.5-2.4c.3-1.6.9-4 1.8-7 .5-1.5.9-3.2 1.6-5l1-2.9 1.2-3.1c1.7-4.3 3.7-9.1 6.2-14.4s5.5-11.1 9-17.2c1.7-3.1 3.6-6.2 5.6-9.5l1.5-2.4.4-.6v-.3a2.1 2.1 0 0 0 .2-.6 3.8 3.8 0 0 0 .1-2.2 4.3 4.3 0 0 0-1.3-2.1 3.8 3.8 0 0 0-2.1-1h-1.6l-.7.2-1.5.4-3 .9-3 1.1-3 1.2-3 1.2-6.1 2.8c-4.1 1.9-8.3 4.2-12.5 6.6a273.9 273.9 0 0 0-25.2 16.5l-3.1 2.3-.8.6-.2.2-.7.5a7.8 7.8 0 0 1-11.1-3.2 7.9 7.9 0 0 1-.6-1.6 7.7 7.7 0 0 1-.2-1.8 7.8 7.8 0 0 1 .1-1.3l.2-.8v-.5l.2-1 .5-2 .9-4q1.8-8 3.5-16.2c2.2-11 4.3-22.4 5.6-33.9a161.5 161.5 0 0 0 1.2-17.3 58.8 58.8 0 0 0-.4-8.1 21.6 21.6 0 0 0-.7-3.4 5.5 5.5 0 0 0-.7-1.5h.1l.4.3h-.4l.6.3a2.7 2.7 0 0 0 1.3.2c.6-.1-.1 0-.8.6a29.7 29.7 0 0 0-4.9 5.5 126.8 126.8 0 0 0-9.2 15.4c-5.7 11-10.8 22.7-15.7 34.6l-3.6 9-1.7 4.5-.2.6v.3l-.2.5a8.4 8.4 0 0 1-13.8 2.4 8.3 8.3 0 0 1-1.3-1.8 8.2 8.2 0 0 1-.8-2.4 6.9 6.9 0 0 1-.1-1.4 6.7 6.7 0 0 1 0-1q.7-9.7 1-19.4a322.8 322.8 0 0 0-.7-38.6c-.3-3.1-.7-6.3-1.2-9.3a55.3 55.3 0 0 0-2-8.4 18.6 18.6 0 0 0-1.4-3.2 5 5 0 0 0-1-1.3h.9c.8-.1-1 .1-.2 0a6.7 6.7 0 0 0-1.9.9 32.7 32.7 0 0 0-5.8 5.4 91 91 0 0 0-5.6 7.2c-3.6 5-7 10.4-10.2 15.9-6.4 11-12.2 22.3-17.8 33.7s-10.7 22.7-15.6 34l-.9 2.1-.3.7a8.3 8.3 0 0 1-13.2 2.5 8.1 8.1 0 0 1-1.5-1.9l-.5-1.1-.4-1-.8-2.1-3.5-8.3c-2.4-5.5-4.8-10.8-7.5-15.8-1.3-2.5-2.7-4.9-4.2-7.1s-1.5-2.1-2.2-3a13 13 0 0 0-1.9-2c-.2-.2-.3-.2.2 0h1.1a4.4 4.4 0 0 0 1.7-.4l.6-.4.2-.2h.2l.2-.2h.1l-.2.5c-.1.1.1-.2 0 0v.2l-.5 1.5a15.4 15.4 0 0 0-.4 1.6 30.1 30.1 0 0 0-.6 3.5c-.2 1.2-.2 2.5-.3 3.7s-.1 2.6 0 3.8.2 5.2.4 7.8c.5 5.2 1.3 10.4 2.2 15.5.5 2.5 1 5.1 1.5 7.6l.9 3.7.2.9v-.7a7.8 7.8 0 0 1-.4 4.6 7.8 7.8 0 0 1-10.4 4.2 10.5 10.5 0 0 1-1.6-.9l-.6-.5-.3-.3-.6-.5-1.3-1a23.4 23.4 0 0 0-2.7-1.9 24.3 24.3 0 0 0-2.8-1.7l-2.9-1.6a72.9 72.9 0 0 0-12.5-4.4 104.1 104.1 0 0 0-12.8-2.3 150.5 150.5 0 0 0-24.5-.6l-5.7.4-2.7.2h-.6l-.5.2a4.1 4.1 0 0 0-2.5 3.2 4.3 4.3 0 0 0 .1 2l.2.4a.1.1 0 0 1 0 .2h.1l.2.2.4.5.2.2h.1l-.2-.2.4.5a87.6 87.6 0 0 1 6.2 7.4 114.8 114.8 0 0 1 13.7 24.1c1.2 2.9 2.1 5.2 2.6 6.8l.8 2.3a2.5 2.5 0 0 1-4.5 2.5z"></path><path fill="none" d="M1313.1 1432.7s-18.7 17.7-10.7 47.6c13.5-24.7 42-27.5 42-27.5s-43.9 66.7.9 112c-4.2-25.7 28-44.8 28-44.8s-13.4 65.6 42.5 91c41.1 18.7 15.9 74.2 15.9 74.2s148.4-101.7 112-168.9c0 0 45.7 11.7 44.3 48.5 0 0 59.7-79.8 13.1-146"></path><path fill="none" stroke="#31323d" stroke-width="12.5" stroke-miterlimit="10" d="M931.3 2117.4c-38.1 9.1-130.4 43.4-184.5 78.3-26.5 17.1-10.1 55.9 23.2 55.3l280.4-5.5" stroke-linecap="round"></path><path fill="#31323d" d="M840.5 2200.1l-.7.2-2 .6-3.1 1-4 1.5-4.5 2.1a49.4 49.4 0 0 0-4.7 2.8 36 36 0 0 0-4.4 3.5 26.3 26.3 0 0 0-3.7 4.2l-.8 1.1-.7 1.2a21.4 21.4 0 0 0-1.1 2.4c-.2.4-.3.8-.4 1.2a8.9 8.9 0 0 0-.3 1.2 18.1 18.1 0 0 0-.4 2.4v3.6c0 .4.1.8.1 1.2a15.6 15.6 0 0 0 .3 2.2c.2.7.3 1.4.5 2.1a36.6 36.6 0 0 0 1.2 3.6 29.8 29.8 0 0 0 1.2 2.8l1.2 2.4.2.3a6.3 6.3 0 0 1-11.3 5.5l-.3-.7-1.1-3.1c-.4-1-.7-2.2-1.1-3.7a48 48 0 0 1-1-4.9c-.1-.9-.2-1.9-.3-2.9a24.9 24.9 0 0 1-.1-3.2v-1.7l.2-1.7c.1-.6.1-1.2.2-1.7l.4-1.8a27.7 27.7 0 0 1 1-3.5 16.1 16.1 0 0 1 .7-1.7l.8-1.7a30.5 30.5 0 0 1 2-3.2l1.1-1.5 1.2-1.4a34.5 34.5 0 0 1 5.4-4.9 43.4 43.4 0 0 1 5.8-3.6 56.1 56.1 0 0 1 5.7-2.6l5.2-1.8 4.4-1.2 3.5-.7 2.3-.3h.8a2.2 2.2 0 0 1 .8 4.4h-.1zm-47.5 2h-.6l-1.7.5a38.1 38.1 0 0 0-5.9 2.5 32.6 32.6 0 0 0-3.6 2.2 29.2 29.2 0 0 0-3.5 2.9 23.5 23.5 0 0 0-2.9 3.7 18.7 18.7 0 0 0-2 4.2 21.2 21.2 0 0 0-.6 2.2c-.1.8-.3 1.5-.3 2.3a24.7 24.7 0 0 0 .1 4.6 34.5 34.5 0 0 0 .8 4.3c.4 1.4.7 2.7 1.2 3.9l.6 1.7.7 1.5.6 1.3.6 1.1 1.1 2.1v.2a6.3 6.3 0 0 1-11.2 5.6l-.3-.8-.9-2.7-.5-1.4-.5-1.7-.5-1.9c-.2-.7-.3-1.4-.5-2.2s-.6-3.3-.8-5.1a44.7 44.7 0 0 1-.2-5.9 34.2 34.2 0 0 1 .8-6.3c.2-1.1.6-2.1.9-3.2a29.7 29.7 0 0 1 1.3-3.1 26.9 26.9 0 0 1 3.6-5.6 31 31 0 0 1 4.5-4.3 35.8 35.8 0 0 1 4.8-3 38.6 38.6 0 0 1 4.6-2 43.3 43.3 0 0 1 7.1-2l2-.3h.8a2.2 2.2 0 0 1 .8 4.4h-.4z"></path><path fill="none" stroke="#31323d" stroke-width="12.5" stroke-miterlimit="10" d="M2020.7 2120.2c47.5 13.8 136.8 46.1 179.8 75.5 26.1 17.8 10.1 55.9-23.2 55.3l-261.6-5.1" stroke-linecap="round"></path><path fill="#31323d" d="M2107.6 2193.7h.8l2.3.4 3.5.8 4.5 1.4 5.2 2a58.4 58.4 0 0 1 5.6 2.8 45.8 45.8 0 0 1 5.7 3.8 36.7 36.7 0 0 1 5.3 5.1l1.2 1.5 1.1 1.6a31 31 0 0 1 1.9 3.3c.3.6.5 1.2.8 1.7s.5 1.2.7 1.8l.6 1.8.3.9.2.9a26.4 26.4 0 0 1 .6 3.5 25.1 25.1 0 0 1 .2 3.4 42.1 42.1 0 0 1-.4 6.2 50.3 50.3 0 0 1-1 5c-.4 1.5-.7 2.8-1.1 3.7l-1.1 3.2a6.3 6.3 0 0 1-11.8-4.1l.3-.7.2-.3 1.2-2.4c.4-.8.7-1.7 1.2-2.8s.8-2.3 1.2-3.7a31.5 31.5 0 0 0 .8-4.4 15.7 15.7 0 0 0 .1-2.4 16.7 16.7 0 0 0-.1-2.5v-1.2l-.2-1.3c-.1-.4-.2-.8-.4-1.3a12.8 12.8 0 0 0-.4-1.3 21.8 21.8 0 0 0-1.1-2.5l-.7-1.2-.8-1.2a28.5 28.5 0 0 0-3.7-4.4 38.4 38.4 0 0 0-4.4-3.8 51.5 51.5 0 0 0-4.7-3l-4.5-2.3a66.6 66.6 0 0 0-7.1-2.9l-2-.6-.7-.2h-.1a2.2 2.2 0 0 1 .8-4.3zm47.5 2h.8l2.1.4a44.7 44.7 0 0 1 7.1 2.4 40.4 40.4 0 0 1 4.5 2.3 38.2 38.2 0 0 1 4.7 3.3 33.1 33.1 0 0 1 4.4 4.5 30 30 0 0 1 4.8 8.8c.4 1.1.6 2.2.9 3.2s.4 2.2.6 3.3.3 2.2.2 3.2.1 2.1 0 3.1l-.2 2.9c-.3 1.8-.5 3.6-.8 5.2l-.5 2.3-.6 2-.5 1.8-.5 1.4-.9 2.7a6.3 6.3 0 0 1-11.8-4.1l.3-.7v-.3l1.1-2.2.6-1.2.6-1.4.7-1.6.6-1.7c.5-1.2.8-2.6 1.2-4l.4-2.2c.2-.7.2-1.5.3-2.3s.1-1.5.1-2.3-.1-1.6-.1-2.4-.2-1.6-.3-2.4a20.2 20.2 0 0 0-.6-2.3 20.6 20.6 0 0 0-2-4.4 25.7 25.7 0 0 0-2.9-3.9 31.5 31.5 0 0 0-3.5-3.2 34.4 34.4 0 0 0-3.6-2.4 39.4 39.4 0 0 0-5.9-2.9l-1.7-.6-.6-.2h-.1a2.2 2.2 0 0 1 1.1-4.1z"></path></g><g id="eye"><defs><clipPath id="eyeClipPath"><circle cx="1696" cy="1101.3" r="129.7" fill="#fff" stroke="#31323d" stroke-width="10" stroke-miterlimit="10" transform="translate(381.9 2638.3) rotate(-82.5)" stroke-linecap="round"></circle></clipPath><clipPath id="eyeClipPath2"><circle cx="1168.9" cy="1127" r="129.7" fill="#fff" stroke="#31323d" stroke-width="10" stroke-miterlimit="10" transform="translate(-137.7 163) rotate(-7.5)" stroke-linecap="round"></circle></clipPath></defs><circle cx="1696" cy="1101.3" r="129.7" fill="#fff" transform="translate(381.9 2638.3) rotate(-82.5)"></circle><g clip-path="url(#eyeClipPath)"><circle cx="1653.5" cy="1132.4" r="87.6" fill="#7c40ff" transform="translate(-134.2 226.5) rotate(-7.5)"></circle><circle cx="1657.1" cy="1133.7" r="64.7" fill="#31323d" transform="translate(-134.3 227) rotate(-7.5)"></circle><circle cx="1679.1" cy="1078.3" r="35.2" fill="#fff" transform="translate(-126.9 229.4) rotate(-7.5)"></circle></g><circle cx="1696" cy="1101.3" r="129.7" fill="none" stroke="#31323d" stroke-width="10" stroke-miterlimit="10" transform="translate(381.9 2638.3) rotate(-82.5)" stroke-linecap="round"></circle><path fill="none" stroke="#31323d" stroke-width="30" stroke-miterlimit="10" d="M1828.1 1011.3c-65.3 5.4-115.7-35.5-151.7-66.9" stroke-linecap="round"></path><circle cx="1168.9" cy="1127" r="129.7" fill="#fff" transform="translate(-137.7 163) rotate(-7.5)"></circle><g clip-path="url(#eyeClipPath2)"><circle cx="1211.4" cy="1158.2" r="87.6" fill="#7c40ff" transform="translate(-141.4 168.8) rotate(-7.5)"></circle><circle cx="1215" cy="1159.4" r="64.7" fill="#31323d" transform="translate(-141.5 169.3) rotate(-7.5)"></circle><circle cx="1237.1" cy="1104" r="35.2" fill="#fff" transform="translate(-134 171.7) rotate(-7.5)"></circle></g><circle cx="1168.9" cy="1127" r="129.7" fill="none" stroke="#31323d" stroke-width="10" stroke-miterlimit="10" transform="translate(-137.7 163) rotate(-7.5)" stroke-linecap="round"></circle><path fill="none" stroke="#31323d" stroke-width="30" stroke-miterlimit="10" d="M1036.8 1037c65.3 5.4 115.7-35.5 151.7-66.9" stroke-linecap="round"></path></g><g id="mouth"><path d="M1448.8,1255.7v1.5c0.1,1,.3,2.5.7,4.5a145.5,145.5,0,0,0,3.6,16.1,119.1,119.1,0,0,0,8.4,21.7,83.9,83.9,0,0,0,6.7,11,62.4,62.4,0,0,0,8.8,9.8,49.7,49.7,0,0,0,10.8,7.4,48,48,0,0,0,12,4.1,54,54,0,0,0,12.1,1,72.5,72.5,0,0,0,11-1.2l2.5-.5,2.4-.6,4.4-1.2,7-2.4,4.4-1.7,1.6-.6h0.1a1.8,1.8,0,0,1,1.5,3.2l-1.6.8-4.4,2.1-7.1,3-4.5,1.6-2.5.8-2.6.7a78.2,78.2,0,0,1-11.8,2.2,60.6,60.6,0,0,1-13.6-.1,55.7,55.7,0,0,1-14.3-3.7,58.5,58.5,0,0,1-13.3-7.7,72.2,72.2,0,0,1-11-10.5,94.7,94.7,0,0,1-8.5-11.9,131.2,131.2,0,0,1-11-23.1,159.3,159.3,0,0,1-5.3-17.3c-0.5-2.1-.9-3.8-1.1-5l-0.3-1.4v-0.5h0a7.5,7.5,0,0,1,14.8-2.5v0.6Z" fill="#31323d"></path><path d="M1373.6,1236.1a15,15,0,0,1,2.7-16.1c8.5-9.2,27-23.1,62.5-25.2s53.1,9.4,61.6,17.7a14.9,14.9,0,0,1,3.4,15.9h0a20.8,20.8,0,0,1-17.6,13.3c-10,.9-23.7,4.6-31.8,17.6a13.2,13.2,0,0,1-1.7,2.3l-0.3.3a17.7,17.7,0,0,1-25.3-.1h0s-7.9-12.1-34.9-12.8a20.7,20.7,0,0,1-18.4-12.6v-0.3Z" fill="#31323d"></path><path d="M1520.1,1438.4l-0.4,1.8c-0.1.6-.2,1.3-0.5,2.2l-0.9,3.1c-0.4,1.1-.8,2.3-1.4,3.6s-1.2,2.7-2,4.2a56.1,56.1,0,0,1-6.1,9.3,63,63,0,0,1-9.3,9.4l-2.9,2.2-3,2.1c-2.1,1.3-4.3,2.6-6.6,3.8s-4.7,2.2-7.2,3.1l-3.8,1.3-3.9,1.1a77.5,77.5,0,0,1-16.2,2.3,81.8,81.8,0,0,1-16.2-1,83.6,83.6,0,0,1-15.1-4l-0.9-.3-0.4-.2h-0.5l-1.6-.7-3.4-1.5c-2.3-1.1-4.3-2.2-6.3-3.4a76.6,76.6,0,0,1-10.6-7.5,75.2,75.2,0,0,1-7.8-7.6,71.2,71.2,0,0,1-5.1-6.6c-0.7-.9-1.2-1.8-1.7-2.6l-1.2-2-0.9-1.7a2.5,2.5,0,0,1,4-3h0.1l1.3,1.2,3.6,3.3c1.5,1.4,3.6,3,5.9,4.8s5,3.6,8,5.4a91.1,91.1,0,0,0,10.1,5.2l2.8,1.2,2.9,1.1,3,1,1.7,0.5,1.5,0.4a85.9,85.9,0,0,0,13,2.6,81.6,81.6,0,0,0,13.6.5,80.5,80.5,0,0,0,13.4-1.8l3.2-.8,3.2-.9c2.1-.6,4.1-1.4,6.1-2.2s3.9-1.7,5.7-2.6l2.7-1.4,2.5-1.5a65.7,65.7,0,0,0,8.8-6.6,60.7,60.7,0,0,0,6.6-6.8,72.3,72.3,0,0,0,4.5-5.9l1.5-2.3c0.4-.6.8-1.4,1.1-1.9l0.9-1.6A2.5,2.5,0,0,1,1520.1,1438.4Z" fill="#31323d"></path><path d="M1387.6,1449.1s7.9,72.2,68.5,66.4c58.7-5.7,61.4-73.9,61.4-73.9s-19.4,31.4-57.4,34.1S1387.6,1449.1,1387.6,1449.1Z" fill="#595959" opacity=".2" style="mix-blend-mode:multiply"></path><path d="M832.2,1221l-0.5.8-0.4.9a10.8,10.8,0,0,0-.5,1.2,10.4,10.4,0,0,0-.3,3.8,10.2,10.2,0,0,0,1.8,4.8,9.5,9.5,0,0,0,2.2,2.2l0.3,0.2h0.3l0.8,0.5,0.9,0.5,0.8,0.4a21.2,21.2,0,0,0,8.2,2,20.9,20.9,0,0,0,9.6-1.8l1.2-.6,1.2-.7a22.1,22.1,0,0,0,2.3-1.6,21.5,21.5,0,0,0,3.9-4.2l0.4-.6h0.1V1229l0.2-.3,0.8-1.4a25.1,25.1,0,0,0,1.6-2.8l1.3-2.9,1.1-3.2a45.1,45.1,0,0,0,2.1-13.9,43.9,43.9,0,0,0-11.5-28.9c-0.5-.5-0.9-1.1-1.5-1.6l-1.6-1.4-1.6-1.4-1.8-1.3-1.8-1.3-2-1.2-2-1.2-2-1.1a86,86,0,0,0-37-10.7,84.5,84.5,0,0,0-20.7,1.3,86.4,86.4,0,0,0-48.1,26.1c-1.4,1.4-2.6,2.9-3.9,4.4l-1.8,2.3-1.8,2.4-1.7,2.4-0.2.3-0.2.3-0.4.6-0.8,1.3-3.2,5.2-2.9,5.3-1.5,2.7-1.4,2.8L718,1217l-2.5,5.7c-0.9,1.9-1.5,3.9-2.3,5.8s-1.5,3.9-2.1,5.9l-1.9,6c-0.6,2-1.1,4.1-1.6,6.1s-0.6,2.1-.8,3.1l-0.6,3.1-0.7,3.1-0.3,1.6-0.3,1.6a173.9,173.9,0,0,0-1,52.3c0.5,4.4,1.4,8.8,2.2,13.2l1.5,6.6c0.2,1.1.5,2.2,0.9,3.3l0.9,3.3a174.2,174.2,0,0,0,9.6,25.4,181.5,181.5,0,0,0,13.7,23.8l4,5.6,4.3,5.5,2.2,2.7,2.3,2.6,2.3,2.6,2.4,2.5c3.2,3.4,6.6,6.5,10,9.7l5.3,4.5c1.8,1.5,3.7,2.9,5.5,4.3l2.8,2.1,2.9,2,2.9,2,0.7,0.5,0.3,0.2,0.4,0.2,1.5,1,12.2,7.7a409,409,0,0,0,50.8,26,314.3,314.3,0,0,0,54,17.5,245.4,245.4,0,0,0,55.6,6.1,225.6,225.6,0,0,0,54.2-6.9l3.3-.9,3.2-1,6.5-1.9,6.3-2.2,3.2-1.1,3.1-1.2,6.2-2.5c2-.8,4.1-1.7,6.1-2.7l6-2.8,3-1.4,2.9-1.6a270.9,270.9,0,0,0,43.1-28.5,334.8,334.8,0,0,0,36.2-34c5.4-6,10.8-12,15.7-18.2l7.6-9.3,1.9-2.3,1.9-2.3,4.1-4.7,2-2.3,2.1-2.2,4.1-4.4c2.7-2.9,5.6-5.6,8.3-8.4s5.6-5.4,8.5-7.9l4.3-3.8,4.3-3.7a325.6,325.6,0,0,1,34.9-25.6,313.3,313.3,0,0,1,34.3-18.8l8.3-3.8,8.1-3.4,0.5-.2h0.6l1-.4,1.9-.7,3.8-1.4,7.9-2.8a225.6,225.6,0,0,1,28.9-7.7c18-3.5,33.2-3.5,43.7-2l3.7,0.5,3.2,0.6,2.8,0.5,2.3,0.6,4.1,1.1a15,15,0,1,1-7.8,29h-0.5l-1-.3-2.7-.8-1.5-.5-1.9-.4-2.2-.5-2.6-.5a84.1,84.1,0,0,0-14.3-1.2,124.4,124.4,0,0,0-20.3,1.6,198.1,198.1,0,0,0-25.5,5.9l-7,2.2-3.8,1.3-1.9.7-1,.3-0.8.3-7.5,2.8-7.7,3.2a287.2,287.2,0,0,0-65.2,38.8l-4.1,3.3-4.1,3.4-8.1,7.1-8,7.6-3.9,4-2,2-1.9,2-3.8,4.1-1.9,2.2-2,2.2-7.9,9.1c-5.4,6.3-11.2,12.4-17,18.6a354.3,354.3,0,0,1-39.4,34.8,289.7,289.7,0,0,1-46.8,29.1l-3.1,1.6-3.2,1.4-6.5,2.9c-2.1,1-4.4,1.8-6.6,2.7l-6.7,2.6-3.4,1.2-3.4,1.1-6.8,2.2-7,1.9-3.5.9-3.5.9a240.8,240.8,0,0,1-58,6,259.2,259.2,0,0,1-58.5-7.8,326.7,326.7,0,0,1-55.7-19.6l-6.7-3.1c-2.2-1-4.5-2.1-6.6-3.2l-6.5-3.4c-2.2-1.1-4.4-2.2-6.5-3.4l-12.8-7.3-12.6-7.7-12.1-8-1.5-1-0.4-.2-0.4-.3-0.8-.5-3-2.2-3-2.2-2.9-2.3c-1.9-1.6-3.9-3-5.7-4.7l-5.5-4.9c-3.5-3.4-7.1-6.8-10.3-10.4l-2.5-2.7-2.4-2.8-2.3-2.8-2.3-2.8-4.4-5.8-4.1-6a189.7,189.7,0,0,1-13.9-25.2,186,186,0,0,1-9.6-26.8l-0.9-3.4c-0.3-1.1-.6-2.3-0.8-3.4l-1.5-6.9c-0.8-4.6-1.6-9.2-2.1-13.8A179.9,179.9,0,0,1,716,1209.1l1.4-2.8,1.6-2.8,3.1-5.5,3.3-5.2,0.8-1.3,0.4-.6,0.2-.3,0.3-.4,1.8-2.5,1.9-2.5,1.9-2.4c1.4-1.5,2.7-3.1,4.1-4.6a93.1,93.1,0,0,1,9-8.2,92,92,0,0,1,42-18.7,88.5,88.5,0,0,1,21.7-1.1,90.6,90.6,0,0,1,20.4,3.8,94.1,94.1,0,0,1,18.1,7.8l2.1,1.2,2,1.2,1.9,1.2,1.9,1.4,1.9,1.4,1.8,1.6,1.7,1.6c0.6,0.5,1,1.1,1.6,1.7a47.2,47.2,0,0,1,12.2,31.2,48.3,48.3,0,0,1-2.3,14.9c-0.4,1.1-.8,2.3-1.2,3.4l-1.5,3.2a27,27,0,0,1-1.6,2.9l-0.8,1.4-0.2.3v0.2l-0.2.2-0.5.7a24.5,24.5,0,0,1-4.5,4.8,25.2,25.2,0,0,1-2.6,1.8l-1.3.8-1.4.6a24.3,24.3,0,0,1-11,2.1,24.1,24.1,0,0,1-9.4-2.4l-1-.5-0.9-.5-0.8-.5h-0.5l-0.4-.3a12.5,12.5,0,0,1-2.8-2.9,13.2,13.2,0,0,1-2.3-6.3,13.4,13.4,0,0,1,.5-4.9,13.7,13.7,0,0,1,.6-1.7l0.6-1.1,0.5-.8a1.5,1.5,0,1,1,2.6,1.5h0Z" fill="#31323D"></path><path d="M2051.5,1201.8l0.5,0.8,0.6,1.1a13.7,13.7,0,0,1,.7,1.6,13.4,13.4,0,0,1,.6,4.9,13.2,13.2,0,0,1-2.2,6.3,12.5,12.5,0,0,1-2.8,3l-0.4.3h-0.5l-0.8.5-0.9.5-1,.5a24.1,24.1,0,0,1-9.3,2.6,24.3,24.3,0,0,1-11-1.8l-1.4-.6-1.4-.7a25.2,25.2,0,0,1-2.6-1.7,24.5,24.5,0,0,1-4.6-4.6l-0.5-.7-0.2-.2v-0.2l-0.2-.3-0.9-1.4a27,27,0,0,1-1.7-2.9l-1.6-3.2-1.3-3.4a48.3,48.3,0,0,1-2.7-14.9,47.2,47.2,0,0,1,11.5-31.5c0.5-.6,1-1.2,1.5-1.7l1.7-1.6,1.7-1.6,1.9-1.5,1.9-1.5,1.9-1.3,1.9-1.3,2.1-1.2a94.1,94.1,0,0,1,17.9-8.2,90.6,90.6,0,0,1,20.3-4.3,88.5,88.5,0,0,1,21.7.6,92,92,0,0,1,42.4,17.7,93.1,93.1,0,0,1,9.2,8c1.5,1.4,2.8,3,4.2,4.5l2,2.4,1.9,2.4,1.9,2.5,0.3,0.4,0.2,0.3,0.4,0.6,0.9,1.3,3.4,5.1,3.3,5.4,1.6,2.7,1.5,2.8a179.9,179.9,0,0,1,21.3,102.7c-0.3,4.6-1.1,9.2-1.7,13.8l-1.3,6.9c-0.2,1.2-.5,2.3-0.8,3.4l-0.8,3.4a186.1,186.1,0,0,1-8.9,27,189.7,189.7,0,0,1-13.3,25.6l-3.9,6.1-4.2,5.9-2.2,2.9-2.3,2.9-2.3,2.8-2.4,2.7c-3.2,3.7-6.6,7.2-10.1,10.7l-5.4,5c-1.8,1.7-3.7,3.2-5.6,4.8l-2.9,2.3-2.9,2.2-3,2.2-0.7.6-0.4.3-0.4.3-1.5,1-11.9,8.2-12.4,8-12.6,7.6c-2.1,1.3-4.3,2.4-6.4,3.6l-6.5,3.5c-2.1,1.2-4.3,2.3-6.5,3.4l-6.6,3.3a326.6,326.6,0,0,1-55.2,20.9,259.2,259.2,0,0,1-58.3,9.2,240.7,240.7,0,0,1-58.2-4.6l-3.5-.8-3.5-.8-7-1.7-6.9-2.1-3.4-1-3.4-1.1-6.7-2.4c-2.2-.8-4.5-1.6-6.6-2.5l-6.5-2.7-3.3-1.4-3.2-1.5a289.7,289.7,0,0,1-47.5-27.9,354.3,354.3,0,0,1-40.2-33.9c-6-6-12-12-17.5-18.2l-8.1-8.9-2-2.2-2-2.1-3.9-4-1.9-2-2-2-4-3.9-8.2-7.4-8.3-7-4.2-3.3-4.2-3.2a287.2,287.2,0,0,0-66.1-37.2l-7.8-3-7.6-2.6-0.8-.3-1-.3-1.9-.6-3.8-1.2-7-2a198.1,198.1,0,0,0-25.7-5.3,124.4,124.4,0,0,0-20.3-1.1,84.1,84.1,0,0,0-14.3,1.5l-2.6.5-2.2.6-1.9.5-1.5.5-2.7.9-0.9.3a15,15,0,0,1-9.5-28.5l0.5-.2,4.1-1.2,2.3-.6,2.7-.6,3.2-.7,3.7-.6c10.4-1.7,25.6-2.1,43.7,1a225.5,225.5,0,0,1,29,7l7.9,2.6,3.8,1.4,1.9,0.7,1,0.3h0.6l0.5,0.2,8.2,3.2,8.4,3.6a313.3,313.3,0,0,1,34.8,18,325.6,325.6,0,0,1,35.5,24.7l4.4,3.6,4.4,3.7c2.9,2.5,5.8,5.1,8.7,7.7s5.7,5.4,8.5,8.2l4.2,4.3,2.1,2.2,2.1,2.3,4.2,4.6,2,2.3,1.9,2.3,7.8,9.1c5.1,6.1,10.5,11.9,16.1,17.8a334.8,334.8,0,0,0,37,33.2,271,271,0,0,0,43.7,27.5l2.9,1.5,3,1.4,6,2.7c2,0.9,4.1,1.7,6.1,2.5l6.2,2.4,3.1,1.1,3.2,1,6.4,2.1,6.5,1.7,3.3,0.9,3.3,0.8a225.6,225.6,0,0,0,54.3,5.7,245.4,245.4,0,0,0,55.4-7.4,314.3,314.3,0,0,0,53.6-18.8,409,409,0,0,0,50.2-27.2l12.1-8,1.5-1,0.4-.2,0.3-.2,0.7-.5,2.8-2.1,2.8-2.1,2.7-2.2c1.8-1.5,3.7-2.9,5.4-4.4l5.2-4.7c3.3-3.2,6.7-6.5,9.8-9.9l2.4-2.6,2.2-2.7,2.2-2.7,2.2-2.7,4.2-5.6,3.9-5.7a181.6,181.6,0,0,0,13.2-24.1,174.2,174.2,0,0,0,9-25.7l0.8-3.3c0.3-1.1.6-2.2,0.8-3.3l1.4-6.6c0.7-4.4,1.5-8.8,1.9-13.3a173.9,173.9,0,0,0-2.3-52.2l-0.3-1.6-0.4-1.6-0.7-3.1-0.7-3.1c-0.3-1-.6-2-0.9-3.1s-1.1-4.1-1.8-6.1l-2-6c-0.6-2-1.5-3.9-2.2-5.9s-1.5-3.9-2.4-5.8l-2.6-5.6-2.8-5.5-1.4-2.7-1.5-2.6-3.1-5.2-3.4-5.1-0.8-1.3-0.4-.6-0.2-.3-0.2-.2-1.7-2.4-1.8-2.3-1.9-2.3c-1.3-1.4-2.6-2.9-4-4.3a86.4,86.4,0,0,0-48.7-25,84.5,84.5,0,0,0-20.8-.8,86,86,0,0,0-36.7,11.6l-2,1.2-1.9,1.3-1.9,1.3-1.7,1.3-1.7,1.3-1.6,1.5-1.6,1.5c-0.5.5-.9,1.1-1.4,1.6a43.9,43.9,0,0,0-10.8,29.2,45.1,45.1,0,0,0,2.4,13.9l1.2,3.1,1.4,2.9a25.2,25.2,0,0,0,1.6,2.8l0.9,1.4,0.2,0.3v0.2h0.1l0.5,0.6a21.5,21.5,0,0,0,4,4.1,22.2,22.2,0,0,0,2.3,1.5l1.2,0.7,1.2,0.5a20.9,20.9,0,0,0,9.7,1.6,21.2,21.2,0,0,0,8.1-2.2l0.8-.4,0.9-.5,0.8-.5h0.3l0.3-.3a9.5,9.5,0,0,0,2.1-2.3,10.2,10.2,0,0,0,1.7-4.9,10.4,10.4,0,0,0-.4-3.7,10.9,10.9,0,0,0-.5-1.2l-0.4-.8-0.5-.8a1.5,1.5,0,1,1,2.5-1.6h0Z" fill="#31323D"></path><path d="M1448.3,1257.6v0.5l-0.3,1.4c-0.2,1.2-.6,2.9-1.1,5a159.4,159.4,0,0,1-5.3,17.3,131.2,131.2,0,0,1-11,23.1,94.7,94.7,0,0,1-8.5,11.9,72.2,72.2,0,0,1-11,10.5,58.5,58.5,0,0,1-13.3,7.7,55.7,55.7,0,0,1-14.3,3.7,60.6,60.6,0,0,1-13.6.1,78.2,78.2,0,0,1-11.8-2.2l-2.6-.7-2.5-.8-4.5-1.6-7.1-3-4.4-2.1-1.6-.8a1.8,1.8,0,0,1,1.4-3.2h0.1l1.6,0.6,4.4,1.7,7,2.4,4.4,1.2,2.4,0.6,2.5,0.5a72.5,72.5,0,0,0,11,1.2,54,54,0,0,0,12.1-1,48,48,0,0,0,12-4.1,49.7,49.7,0,0,0,10.8-7.4,62.4,62.4,0,0,0,8.8-9.8,83.9,83.9,0,0,0,6.7-11,119.1,119.1,0,0,0,8.4-21.7,145.5,145.5,0,0,0,3.6-16.1c0.3-2,.5-3.5.7-4.5v-1.5a7.5,7.5,0,0,1,14.9,1.4v0.6h0Z" fill="#31323d"></path></g></svg>