<svg xmlns="http://www.w3.org/2000/svg" viewBox="0 0 3000 3000" xmlns:xlink="http://www.w3.org/1999/xlink"><g clip-path="url(#kittyClipPath)"><g id="tailFur"><clipPath id="tailFurClipPath"><path fill="none" d="M2518.1 1775.9c67.6-29 132.5 39.9 146.6 73.7 48 115.1-49.4 194.9-49.4 194.9-36.6 34.8-88.5 67.7-157.3 88.8-175.3 53.8-339.2-38.4-422.2-99l-34.7-24.9-36.1 140.1 220.6 76.5a852.5 852.5 0 0 0 229 11.7c98.1-8.4 186.9-29.1 266-104.6 93.6-89.2 148.9-239.5 82.8-373.6-44.5-90.3-152-191.5-273.6-171.9-89 14.4-190.9 94.4-182.7 186.5 5.8 64 64.6 132.1 133.1 133.9 48.3 1.2 112.1-30.2 112.1-73.4-.1-34.5-40.8-73.1-100.9-79.4"></path></clipPath><g clip-path="url(#tailFurClipPath)"><path fill="#afb4d5" d="M1904 1437.5h939v808.41h-939z"></path><path fill="#756650" d="M2275 2008s130.2 50.7 154.5 146.4c13.7 53.8 37.8 49.3 56.2 34.9a75.5 75.5 0 0 0 28.5-52.6c4.3-45.5 5-140.8-59.9-166.9-86-34.6-179.3 38.2-179.3 38.2zm-406.4 58.5c87.7 87.9 150.5 140.4 163.2 179.8 2.8 8.9 13.5 44.1 45 67.2 7 5.2 32.6 23.9 54.7 17.1 42.2-12.9 43.4-109.9 43.4-121.2.1-14.8.6-186.7-107.4-216.2-56.3-15.5-151.9 20.1-198.9 73.3zm675.5-148.9c-33.6 14.1-75.4-86.5-157.6-87.2-36.3-.3-63.2 19.1-72.5 6.9s5.7-38.1 20.8-53.8c22.9-23.8 53.4-27.7 65.8-29.1 57.3-6.5 141 20.3 158.8 84 8.1 28.8 4.4 71-15.3 79.2z"></path><path fill="#756650" d="M2570.3 2067.6c-15.7-5.9-13.7-32.9-21.3-135.7-3.2-42.5-4.8-55.2 1.6-58.1 12.4-5.7 45.3 29.9 60.8 68.8 3.5 8.9 29.5 76.7-5.7 110.8-2.1 1.9-20.6 19.8-35.4 14.2zm85 6.5c-11 .4-15.4 17.7-41.7 80.2-10.9 25.9-14.5 33.4-11.2 36.6 6.5 6.2 34.5-9.1 52.3-30.2 4.1-4.8 34.5-41.7 19.6-70.3-.8-1.6-8.6-16.7-19-16.3zm88.3-399.3c-8.1 11.1-26.7 2.5-82.6-.2-34.2-1.7-45.8.7-47.6-4.7-3.1-9.1 25.5-29.9 55.2-38.2 13-3.6 50.4-14.1 68.5 7 8.2 9.5 13.4 26.7 6.5 36.1zm-488.7 529.3c13.7 1 16.4 21.2 44 69.9 16.9 29.8 25.1 38.3 21.6 42.7-6 7.5-38.9-5.5-61.8-26.2-10.1-9.1-38.9-35-30.8-61.6 3.7-12 15.4-25.6 27-24.8zm126.5 57c7.8 12.6 16.3 7.9 80.8 10.5 27.9 1.1 34.6 2.4 38.2-2.7 8.9-12.8-11.5-36.1-44.2-51.5-18-8.5-49-14.4-67.6 1.9-9.6 8.4-13.3 20.4-14.4 24-2.2 6.7.6 7.1 7.2 17.8zm136.3-629.2c.6-11-16.2-17-76-48.8-24.8-13.2-32-17.5-35.4-14.5-6.7 6 6 35.2 25.3 54.8 4.4 4.5 38.4 38.1 68.2 25.9 1.7-.6 17.4-7 17.9-17.4z"></path><path fill="#756650" d="M2619 1869.1c-33.8-1.9-72.5 67.9-74.8 131.9s30.4 123.1 47.5 120.9c13.3-1.8 5.2-39.9 34.2-101 21.7-45.8 40.5-54.7 39.8-83.8-.7-31.4-23.4-66.7-46.7-68z"></path><path fill="#756650" d="M2619.5 1923.8c-7.2 14.6 45.3 33.5 70 94.6 19.7 49 7 89 23 93.7 12.6 3.7 31.2-18 39.3-35.9 12.2-27.2 3.8-53.9-1.8-71.6-5.1-16-15.6-47.8-46.8-68.8s-77.3-24.8-83.7-12zm-200.9-243.4c-4.6 44.2-70.2 69.9-119.1 64-9.6-1.2-78.5-16.3-57.9-29.3 62.2-39.5 77.7-59.3 93.4-105.6 12-2.7 24.1-2.6 35.4 1.2 27.9 9.3 51.1 41.1 48.2 69.7zm-147.3 396.3c15.2 18.4.3 53.3-20.4 69.8-4 3.2-21.5 17.1-33.1 11.1-19.2-9.9-22.1-73.2 8.6-88.8 14.1-7.1 35-4 44.9 7.9zm65.3 56.8a36.6 36.6 0 0 1 41 31.7c2.6 20.1-18.1 58.3-38.2 60.9s-31.9-31.5-34.5-51.6a36.6 36.6 0 0 1 31.7-41zm76.3 122.1a15.2 15.2 0 0 1 17 13.2c1.1 8.3-7.7 25.4-16 26.4s-13.1-14.3-14.2-22.6a15.2 15.2 0 0 1 13.2-17zm145.1-628.7a26.2 26.2 0 0 1 29.3 22.6c1.8 14.3-13.2 43.7-27.5 45.5s-22.6-24.6-24.4-38.9a26.2 26.2 0 0 1 22.6-29.2z"></path><circle cx="2536.6" cy="2226.7" r="27" fill="#756650" transform="rotate(-7.3 2524.17 2216.666)"></circle><path fill="#756650" d="M2749.5 1922.7a16.3 16.3 0 0 1 4.1 32.3c-8.9 1.1-23.5-10.4-24.6-19.3s11.6-11.8 20.5-13zM2559 1577.8a16.3 16.3 0 0 1 4.1 32.3c-8.9 1.1-23.5-10.4-24.6-19.3s11.6-11.9 20.5-13zm-349.8 594.3a11.8 11.8 0 0 1 3 23.5c-6.5.8-17-7.5-17.9-14s8.4-8.7 14.9-9.5zm217.8 2.9a11.8 11.8 0 1 1-13.9 19.2c-5.3-3.8-7.3-17.2-3.4-22.5s12-.6 17.3 3.3zm158.7-476.3c25.1-3.2 49.6 34.4 52.8 59.5a45.8 45.8 0 0 1-90.8 11.6c-3.2-25.1 13-67.9 38-71.1zm95.3 125.6a25.2 25.2 0 0 1 28.2 21.8c1.8 13.8-20.7 41.9-34.6 43.7s-13.7-23.5-15.5-37.3a25.2 25.2 0 0 1 21.9-28.2zm-208.7-143.1a25.2 25.2 0 0 1 28.2 21.8c1.8 13.8-20.7 41.9-34.6 43.7s-13.7-23.5-15.5-37.3a25.2 25.2 0 0 1 21.9-28.2zm75.1 452.1c12.6-1.6 31.9-.6 33.5 12s-15.1 32-27.7 33.6a23 23 0 0 1-5.8-45.6zm233-285.1c-34.1 5.2-28 56.5 6.4 53.2a97.9 97.9 0 0 0 24.8-6.1c69.3-26 111.6 6.4 124.6-6.6l13-13s-81.6-40.9-168.8-27.5zm-67.8-33.9s-45.2-41.4 14.3-72.8 93.5-33 121.7-73.3l75.7-15.3s-33.1 134.7-211.7 161.4z"></path><defs><linearGradient id="tailShadowGradient" x1="2364.15" y1="2291.47" x2="2364.15" y2="2013.47" gradientUnits="userSpaceOnUse"><stop offset="0" stop-color="gray"></stop><stop offset=".27" stop-color="#7d7d7d"></stop><stop offset=".46" stop-color="#747474"></stop><stop offset=".64" stop-color="#646464"></stop><stop offset=".8" stop-color="#4d4d4d"></stop><stop offset=".95" stop-color="#303030"></stop><stop offset="1" stop-color="#242424"></stop></linearGradient><linearGradient id="tailShadowGradient2" x1="2579.15" y1="1935.2" x2="2579.15" y2="1441.6" gradientUnits="userSpaceOnUse"><stop offset="0" stop-color="#fff" stop-opacity="0"></stop><stop offset=".72" stop-color="#fff"></stop></linearGradient><linearGradient id="tailShadowGradient3" x1="2583.8" y1="2124.84" x2="2583.8" y2="1726.66" href="#tailShadowGradient" xlink:href="#tailShadowGradient"></linearGradient></defs><g clip-path="url(#tailShadowClipPath)" style="mix-blend-mode:overlay"><path d="M2307.1 1774.1s77.1-188.9 277.1-114.6 203.7 275.7 203.7 275.7l134.3-263.7-234-212.5-344-17.4-108 123.9z" opacity=".35" fill="url(#tailShadowGradient2)" style="mix-blend-mode:overlay"></path></g><g clip-path="url(#tailShadowClipPath)" style="mix-blend-mode:multiply"><path d="M2135.9 2084.1c107 52 71.6 104 199.2 113.8 208.3 32.6 329.5-41.9 390.8-121l100.2-44.4-96 259-828-9.1 54-268.9s122.5 42.7 179.8 70.6z" opacity=".25" fill="url(#tailShadowGradient)" style="mix-blend-mode:multiply"></path><path d="M2519.6 1734.3c8.4-2.3 109.1-43.4 164.5 92.2 57.5 140.6-26.3 224.4-201.1 298.4l96.1-317.4s-20.1-11.2-61-31.6-52.7-18.9-52.7-18.9 20.5-10.4 54.2-22.7z" opacity=".25" fill="url(#tailShadowGradient3)" style="mix-blend-mode:multiply"></path></g></g></g><g id="tail"><path d="M2515.9 1770l5.8-2.2 1.6-.5 1.6-.5 3.3-1 3.3-.8 3.2-.7 3.3-.6 3.3-.5a92.5 92.5 0 0 1 26.4.8 110 110 0 0 1 25 7.6 138.2 138.2 0 0 1 22.6 12.5 169 169 0 0 1 20 16 181.2 181.2 0 0 1 17.5 18.7 139.6 139.6 0 0 1 14.5 21.4l1.5 3 1.4 3.1.3.8v.9l.6 1.4 1.1 2.9 2.2 5.8 2 6.2 1 3.1c.3 1 .7 2.1.9 3.1l1.5 6.2.8 3.1.6 3.2 1.1 6.3c.4 2.1.5 4.2.8 6.4l.4 3.2.2 1.6v1.6l.3 6.4v6.4a154.3 154.3 0 0 1-2.3 25.6l-1.2 6.3c-.5 2.1-1 4.2-1.5 6.2s-.5 2.1-.8 3.1l-.9 3.1-.9 3.1-.5 1.5-.5 1.5-2.1 6-2.4 5.9c-.8 2-1.7 3.9-2.6 5.8l-1.3 2.9-1.4 2.9a193.8 193.8 0 0 1-12.9 22 213.5 213.5 0 0 1-15.5 20.2c-2.8 3.2-5.6 6.3-8.6 9.4l-4.6 4.5-2.4 2.2-2.6 2.2.3-.3a366.6 366.6 0 0 1-68.8 51 404.9 404.9 0 0 1-38.1 19.4q-19.5 8.7-39.8 15.6l-10.2 3.3-2.5.8h-.8l-.6.2-1.3.4-5.1 1.4-10.2 2.8-10.5 2.5-5.3 1.2-5.3 1-10.5 2-10.6 1.5-5.3.7-5.3.6-10.7 1-10.7.6c-7.1.5-14.3.4-21.4.5l-10.7-.3-5.4-.2-5.3-.3-10.7-.7-10.6-1.1-5.3-.6-5.3-.7-10.6-1.5c-7-1.3-14.1-2.4-21-4-14-2.8-27.7-6.5-41.4-10.6l-10.2-3.2-10.1-3.4c-3.4-1.1-6.7-2.4-10-3.6s-6.7-2.4-10-3.8l-9.9-4-9.8-4.2-9.7-4.4-9.7-4.5c-12.8-6.1-25.4-12.7-37.8-19.6s-24.5-14.3-36.5-21.9-23.6-15.7-35-24l-34.2-24.6 9.7-3.5-35.8 140.3-4-7.5 220.6 76.5-.9-.2a866.3 866.3 0 0 0 126.3 14q31.8 1.1 63.6-.1c21.2-.8 42.3-2.5 63.4-4.9a628.3 628.3 0 0 0 62.5-10 412.3 412.3 0 0 0 60.4-18 344.9 344.9 0 0 0 56.3-27.9 331.7 331.7 0 0 0 50.1-37.9l5.8-5.3.7-.7.4-.3.3-.3 1.4-1.4 2.8-2.8c3.9-3.7 7.4-7.5 11-11.3l1.3-1.4 1.3-1.5 2.6-2.9c1.7-2 3.5-3.9 5.2-5.9 3.3-4.1 6.8-8 9.9-12.2l4.8-6.2 4.6-6.4 2.3-3.2 2.2-3.3 4.4-6.5c5.6-8.9 11.1-17.8 16-27.1 2.5-4.6 4.8-9.3 7.1-14 1.2-2.3 2.2-4.8 3.3-7.1s2.2-4.8 3.2-7.2l3-7.3 1.5-3.6 1.4-3.7 2.7-7.4 2.4-7.5c1.7-5 3-10 4.5-15.1.4-1.3.7-2.5 1-3.8l.9-3.8c.6-2.5 1.3-5.1 1.8-7.6l1.6-7.7c.2-1.3.6-2.6.7-3.9l.6-3.9 1.2-7.7.9-7.8a282.3 282.3 0 0 0 .3-62.5l-.4-3.9c-.1-1.3-.4-2.6-.5-3.9l-1.1-7.7-.3-1.9-.4-1.9-.8-3.8c-.5-2.6-.9-5.1-1.5-7.7l-1.9-7.6-.9-3.8-1.1-3.8-2.2-7.5c-.3-1.3-.8-2.5-1.2-3.7l-1.3-3.7c-13.7-39.4-36.7-75.5-64.5-106.9-7-7.8-14.4-15.3-22-22.5s-15.7-13.9-23.9-20.4-16.9-12.3-25.8-17.8l-6.7-4-3.4-2-3.5-1.8c-2.3-1.2-4.6-2.5-6.9-3.6l-7-3.4-3.6-1.6-3.6-1.5-3.6-1.5-3.6-1.4-7.3-2.7-7.4-2.4c-2.5-.8-5-1.4-7.5-2.1s-5-1.4-7.5-1.9l-7.6-1.6-7.7-1.2a183.9 183.9 0 0 0-30.9-1.9h-3.9l-3.9.3-7.7.6-7.7 1-1.9.3h-.8l-1 .2-3.9.7-3.9.7-3.7.9-3.7.8-3.8 1c-2.5.7-5 1.3-7.5 2.1s-5 1.5-7.4 2.4a238.4 238.4 0 0 0-28.8 12 265.3 265.3 0 0 0-27.2 15.4l-6.5 4.3-6.4 4.5-6.2 4.8c-2.1 1.6-4 3.3-6 5a224.5 224.5 0 0 0-22.3 21.7 177.5 177.5 0 0 0-18.6 24.7c-10.9 17.4-18.4 36.9-20.4 57.1-.2 2.5-.6 5-.5 7.6v7.6l.2 3.8v3.7l.5 4c.2 1.3.4 2.5.6 3.7s1 4.9 1.5 7.4.6 2.5.9 3.7.6 2.5 1 3.7 1.5 4.9 2.4 7.3l1.3 3.6 1.5 3.6a154.6 154.6 0 0 0 14.6 27 157 157 0 0 0 19.6 23.7c3.6 3.7 7.4 7 11.4 10.3a147.3 147.3 0 0 0 12.4 9 140.1 140.1 0 0 0 13.2 7.6 124 124 0 0 0 14 5.9 116.7 116.7 0 0 0 14.5 4 105 105 0 0 0 14.9 1.9h11.3l3.8-.3a138.1 138.1 0 0 0 15.1-2.2 144.7 144.7 0 0 0 14.8-3.8 136.8 136.8 0 0 0 14.4-5.3 118.7 118.7 0 0 0 26.2-15.3c7.9-6.1 14.7-13.6 19-22.1a42.5 42.5 0 0 0 4.2-13.3v-7.1a7.8 7.8 0 0 0-.1-.9v-.8c-.1-.6-.1-1.1-.2-1.7s-.3-2.3-.6-3.5a55 55 0 0 0-5.1-13.6 71.7 71.7 0 0 0-8.3-12.4 102 102 0 0 0-22.9-20.1 132.7 132.7 0 0 0-27.8-13.7q-7.4-2.6-15-4.5c-5.1-1.2-10.2-2.2-15.4-3a2.5 2.5 0 0 1 .6-5c21.6 1.5 43.2 7.6 62.3 18.9a106.8 106.8 0 0 1 25.9 21 81.9 81.9 0 0 1 10 13.8 65.5 65.5 0 0 1 6.5 16.1c.4 1.4.6 2.9.9 4.3s.4 3.2.6 4.6v8.8a52.1 52.1 0 0 1-4.9 17.2 68.6 68.6 0 0 1-9.6 14.7 89.8 89.8 0 0 1-12.3 11.9 128.7 128.7 0 0 1-28.7 17.4 154.4 154.4 0 0 1-31.7 10.3 151.2 151.2 0 0 1-16.6 2.5l-4.2.3-4.3.2h-8.4a118.3 118.3 0 0 1-16.8-2.1 124 124 0 0 1-16.3-4.6 137.3 137.3 0 0 1-15.5-6.6 147.7 147.7 0 0 1-14.5-8.4 160.3 160.3 0 0 1-13.4-9.9c-4.2-3.6-8.4-7.3-12.3-11.3a171.7 171.7 0 0 1-21-25.7 167.3 167.3 0 0 1-15.7-29.3l-1.6-3.9-1.4-3.9c-1-2.6-1.7-5.3-2.6-7.9s-.7-2.7-1.1-4-.7-2.7-1-4.1-1.2-5.4-1.6-8.3-.5-2.9-.7-4.2l-.5-4v-4.5l-.2-4.2v-8.4c0-2.8.3-5.6.6-8.4a135 135 0 0 1 7.6-32.6 161.5 161.5 0 0 1 14.7-29.9 190 190 0 0 1 19.9-26.4 236.9 236.9 0 0 1 23.6-22.9c2.1-1.7 4.2-3.5 6.3-5.2l6.5-5 6.7-4.8 6.8-4.6a277.8 277.8 0 0 1 28.5-16.2 250.9 250.9 0 0 1 30.3-12.6c2.6-1 5.2-1.7 7.8-2.5s5.3-1.5 7.9-2.3l4-1.1 4.1-.9 4.1-.9 4-.7 3.9-.7 1-.2h1.2l2-.3 8.2-1.1 8.2-.6 4.1-.3h4.1a196.3 196.3 0 0 1 32.9 2l8.2 1.3 8.1 1.7c2.7.5 5.3 1.3 8 2s5.3 1.3 7.9 2.2l7.8 2.5 7.7 2.8 3.8 1.5 3.8 1.6 3.8 1.6 3.7 1.7 7.4 3.5c2.5 1.2 4.8 2.5 7.3 3.8l3.6 1.9 3.5 2.1 7.1 4.1c9.3 5.7 18.2 12 26.9 18.6s16.9 13.7 24.8 21.2 15.5 15.2 22.7 23.3 14.1 16.5 20.6 25.2 12.6 17.7 18.3 27c2.8 4.7 5.6 9.3 8.2 14.2l2 3.6 1.8 3.6 1.8 3.6.5.9.3.5.2.5.9 1.9 3.4 7.4c.6 1.2 1.2 2.5 1.7 3.7l1.5 3.8 3.1 7.6c1 2.5 1.8 5.1 2.7 7.7l1.4 3.9c.5 1.3.9 2.6 1.3 3.9l2.3 7.8 1.2 3.9 1 4 1.9 8c.6 2.7 1.1 5.4 1.6 8l.8 4 .4 2 .3 2 1.2 8.1c.2 1.4.4 2.7.6 4.1l.4 4.1a294.8 294.8 0 0 1-.3 65.3l-1 8.1-1.3 8.1-.6 4c-.2 1.3-.5 2.7-.8 4l-1.6 8c-.5 2.7-1.3 5.3-1.9 7.9l-1 4c-.3 1.3-.6 2.6-1 3.9-1.5 5.2-2.9 10.5-4.6 15.6l-2.5 7.7-2.8 7.7-1.4 3.8-1.5 3.8-3.1 7.5c-1.1 2.5-2.2 5-3.3 7.4s-2.2 5-3.4 7.4c-2.4 4.9-4.7 9.8-7.4 14.5-5 9.6-10.7 18.9-16.5 28.1l-4.5 6.8-2.3 3.4-2.4 3.3-4.8 6.6-5 6.5c-3.3 4.3-6.8 8.5-10.2 12.7-1.7 2.1-3.6 4.1-5.4 6.1l-2.7 3-1.4 1.5-1.4 1.5c-3.8 4-7.5 8-11.3 11.7l-2.8 2.8-1.4 1.4-.4.4-.4.3-.8.7-6 5.5a344.1 344.1 0 0 1-51.9 39.3 357.4 357.4 0 0 1-58.3 28.9 424.8 424.8 0 0 1-62.2 18.6 640.4 640.4 0 0 1-63.9 10.3c-21.3 2.4-42.8 4.1-64.3 5s-43 .9-64.5.1a878.7 878.7 0 0 1-128.1-14.2h-.5l-.4-.2-220.6-76.5-5.4-1.9 1.4-5.6 36.2-140.2 2.3-8.8 7.4 5.3 34.2 24.6c11.3 8.3 22.8 16.1 34.5 23.7s23.7 14.7 35.8 21.5 24.5 13.3 37 19.3l9.5 4.4 9.5 4.3 9.6 4.1 9.7 3.9c3.2 1.3 6.5 2.5 9.7 3.7s6.5 2.5 9.8 3.5l9.9 3.4 9.9 3.1c13.3 4 26.7 7.6 40.3 10.4 6.8 1.5 13.6 2.6 20.4 3.9l10.3 1.5 5.1.7 5.2.5 10.3 1.1 10.4.7 5.2.3 5.2.2 10.4.3c6.9-.1 13.8 0 20.7-.5l10.4-.6 10.3-1 5.2-.5 5.1-.7 10.3-1.5 10.2-1.9 5.1-.9 5-1.2 10-2.3 10.1-2.8 5.1-1.4 1.3-.4.6-.2h.5l2.5-.8 9.9-3.2q19.7-6.7 38.7-15.2a392.4 392.4 0 0 0 37-18.8 354.1 354.1 0 0 0 65.7-49.9h.1l.2-.2 2.1-1.8 2.2-2 4.2-4.2c2.8-2.8 5.5-5.8 8.1-8.8a201 201 0 0 0 14.5-19 181.3 181.3 0 0 0 12.1-20.6l1.3-2.7 1.2-2.7c.8-1.8 1.7-3.6 2.4-5.5l2.2-5.5 2-5.6.5-1.4.4-1.4.9-2.8.9-2.8c.3-.9.5-1.9.7-2.9s1-3.8 1.4-5.8l1.1-5.8a141.8 141.8 0 0 0 2.1-23.6v-6l-.3-5.9v-1.5l-.2-1.5-.3-2.9c-.2-2-.4-3.9-.7-5.9l-1-5.8-.5-2.9-.7-2.9-1.4-5.8c-.2-1-.5-1.9-.8-2.8l-.9-2.8-1.7-5.6-2.2-5.8-1.1-2.9-.6-1.4v-.7l-.3-.6-1.2-2.6-1.3-2.5a127.3 127.3 0 0 0-13.2-19.4 164.1 164.1 0 0 0-34.8-32.2c-13-8.8-27.6-15.5-42.7-18.1a79.9 79.9 0 0 0-22.8-.7l-2.8.4-2.8.5-2.8.6-2.7.7-2.6.8-1.3.4-1.4.5-5.8 2.2a6.3 6.3 0 0 1-4.8-11.8z" fill="#31323d"></path></g></g><g id="wild"><defs><clipPath id="wildClipPath"><path d="M1784.3 1235.9l148.5-102.3c11.9-8.2 24-16.6 32.6-28.2s13.2-27.2 8.1-40.8c263.3 156 505.6 348.2 676.9 613.9-63.4-54.8-127.4-102.2-209-101.4s-159.3 24-191.6 97.6c-26.7-35.3-82-67.7-124.3-63.1s-88.3 48.9-92.8 91.2c-22.1-64.1-82.6-113.3-149.9-121.8z" fill="none" stroke="#31323d" stroke-linecap="round" stroke-miterlimit="10" stroke-width="12.5"></path></clipPath><clipPath id="wildClipPath2"><path d="M1084.6 1261.6l-156.8-89c-12.6-7.1-25.4-14.5-34.9-25.3s-15.5-26-11.7-39.9c-248.7 178.3-473.3 390.9-620.9 670.6 58.4-60.1 118-112.9 199.4-119.2s160.8 10 199.4 80.6c23.5-37.5 75.8-74.6 118.3-73.7s92.3 41 100.4 82.7c16.4-65.8 72.4-120 138.7-134.4z" fill="none" stroke="#31323d" stroke-linecap="round" stroke-miterlimit="10" stroke-width="12.5"></path></clipPath><linearGradient id="wildLinearGradient" x1="2510.5" y1="1184.82" x2="2755.4" y2="1184.82" gradientTransform="matrix(-1 .07 .07 1 4371.91 -159.76)" gradientUnits="userSpaceOnUse"><stop offset="0" stop-color="gray"></stop><stop offset=".14" stop-color="#797979"></stop><stop offset=".35" stop-color="#646464"></stop><stop offset=".6" stop-color="#434343"></stop><stop offset=".89" stop-color="#141414"></stop><stop offset="1"></stop></linearGradient><linearGradient id="wildLinearGradient2" x1="2445.56" y1="1469.7" x2="2462.22" y2="1469.7" gradientTransform="matrix(-1 .07 .07 1 4371.91 -159.76)" gradientUnits="userSpaceOnUse"><stop offset="0" stop-color="#fff" stop-opacity="0"></stop><stop offset=".72" stop-color="#fff"></stop></linearGradient><linearGradient id="wildLinearGradient3" x1="2519.61" y1="1463.75" x2="2758.02" y2="1463.75" href="#wildLinearGradient" xlink:href="#wildLinearGradient"></linearGradient><linearGradient id="wildLinearGradient4" x1="2314.81" y1="1625.02" x2="2314.81" y2="1144.26" href="#wildLinearGradient" xlink:href="#wildLinearGradient"></linearGradient><linearGradient id="wildLinearGradient5" x1="2225.93" y1="1053.8" x2="2253.05" y2="1053.8" gradientTransform="matrix(-.95 .32 .32 .95 3973.27 -254.72)" href="#wildLinearGradient2" xlink:href="#wildLinearGradient2"></linearGradient><linearGradient id="wildLinearGradient6" x1="2496.83" y1="1250.57" x2="2741.73" y2="1250.57" gradientTransform="rotate(-1.2 664.513 76526.292)" href="#wildLinearGradient" xlink:href="#wildLinearGradient"></linearGradient><linearGradient id="wildLinearGradient7" x1="2505.93" y1="1529.51" x2="2744.35" y2="1529.51" gradientTransform="rotate(-1.2 664.513 76526.292)" href="#wildLinearGradient" xlink:href="#wildLinearGradient"></linearGradient><linearGradient id="wildLinearGradient8" x1="2301.14" y1="1690.78" x2="2301.14" y2="1210.01" gradientTransform="rotate(-1.2 664.513 76526.292)" href="#wildLinearGradient" xlink:href="#wildLinearGradient"></linearGradient><linearGradient id="wildLinearGradient9" x1="2431.89" y1="1535.46" x2="2448.54" y2="1535.46" gradientTransform="rotate(-1.2 664.513 76526.292)" href="#wildLinearGradient2" xlink:href="#wildLinearGradient2"></linearGradient><linearGradient id="wildLinearGradient10" x1="2229.47" y1="1120.86" x2="2256.59" y2="1120.86" gradientTransform="rotate(13.6 -192.988 -5138.547)" href="#wildLinearGradient2" xlink:href="#wildLinearGradient2"></linearGradient></defs><g style="isolation:isolate"><g><g clip-path="url(#wildClipPath)"><path d="M1784.3 1235.9l148.5-102.3c11.9-8.2 24-16.6 32.6-28.2s13.2-27.2 8.1-40.8c263.3 156 505.6 348.2 676.9 613.9-63.4-54.8-127.4-102.2-209-101.4s-159.3 24-191.6 97.6c-26.7-35.3-82-67.7-124.3-63.1s-88.3 48.9-92.8 91.2c-22.1-64.1-82.6-113.3-149.9-121.8z" fill="#afb4d5"></path><path d="M1807 1270.5c132.2-52.6 192.3-105.4 211.7-125.2a15.1 15.1 0 0 1 18-2.7c52.5 28.1 290.9 164.1 480.1 408.2l76.3 116.7-658.2 219.7-165.5-603.8z" fill="#dad6e1"></path><path d="M1723.2 1300.2l-21.4-87.6 237.5-119s-11.7 50.4-20.5 124.7" opacity=".4" fill="url(#wildLinearGradient)" style="mix-blend-mode:multiply"></path><path d="M1901.3 1227.5c-16 135.7-22.3 351 70.1 483.8l-175.6-33.4-90.1-368.5" opacity=".4" fill="url(#wildLinearGradient3)" style="mix-blend-mode:multiply"></path><path d="M2516.8 1550.7s-184.7-178.2-332.2-289.9c-20.7-15.6-48.4 6.7-37.6 30.2 40.6 88 73.6 181.7 94.1 319.7-1-60.1-71.5-243.8-136.3-351-26.1-15.3-57.8 5-56.4 35.2 4.9 105.9 10.8 291.9-19.8 330 14.9-43.5 3.7-244.1-3.5-349a48.3 48.3 0 0 0-64.3-42.3c-55.6 19.6-134.4 44.6-164.3 40.5 0 0 155.9-62.6 231.3-131l46.4 20.5s291.3 174.1 442.6 387.1z" opacity=".4" fill="url(#wildLinearGradient4)" style="mix-blend-mode:multiply"></path><path d="M2028.7 1626.9a5 5 0 0 1-5.8-4.8l-9.3-306.3c1.8-4 4.7-4.2 4.8-2.3 6.8 90.4 21 271 10.3 313.4z" opacity=".2" fill="url(#wildLinearGradient2)" style="mix-blend-mode:overlay"></path><path d="M2241.9 1612.4c-2.8 1.2-6-.3-1.3-4l-118.5-298.6c-1.9-7.4 2.9-3.9 3.7-2.2 42.8 81.5 124.4 258.3 116.1 304.8z" opacity=".2" fill="url(#wildLinearGradient5)" style="mix-blend-mode:overlay"></path></g><path d="M1784.3 1235.9l148.5-102.3c11.9-8.2 24-16.6 32.6-28.2s13.2-27.2 8.1-40.8c263.3 156 505.6 348.2 676.9 613.9-63.4-54.8-127.4-102.2-209-101.4s-159.3 24-191.6 97.6c-26.7-35.3-82-67.7-124.3-63.1s-88.3 48.9-92.8 91.2c-22.1-64.1-82.6-113.3-149.9-121.8z" fill="none" stroke="#31323d" stroke-linecap="round" stroke-miterlimit="10" stroke-width="12.5"></path><path d="M1804.8 1265l10-4.2 12.1-5 16-7.1 9.5-4.2 10.3-4.9 5.5-2.6 5.7-2.7 11.9-5.9c16.3-8.3 34.5-18.1 53.6-30l7.2-4.6c2.4-1.5 4.9-3 7.3-4.7 4.8-3.3 9.8-6.5 14.7-10.1 9.9-6.9 19.8-14.5 29.5-22.8 2.5-2 4.8-4.2 7.2-6.4s4.8-4.4 7-6.7l1.7-1.7.6-.6.5-.4.5-.4.8-.6.8-.6.7-.5 1.5-.9a20.1 20.1 0 0 1 3.2-1.4 21.2 21.2 0 0 1 14 0l1.7.7 1.6.8 2.3 1.2 4.5 2.5 9.1 5.1 18.3 10.6q18.4 10.9 37 22.7t37.2 24.4c24.8 16.7 49.5 34.4 73.7 52.7s47.9 37.3 70.7 56.6 44.8 38.9 65.5 58.4 40.2 38.9 58.3 57.7 34.5 37.2 49.5 54.3l10.8 12.7c3.5 4.2 7 8.2 10.2 12.2l9.6 11.7 4.6 5.6 4.3 5.5 8.3 10.6 3.9 5 1 1.2.5.6.5.7 1.8 2.4 12.9 17.7 24.5 33.6a2.5 2.5 0 0 1-4 3l-24.9-33.3-13.1-17.6-1.8-2.4-.4-.6-.5-.6-1-1.2-4-4.9-8.4-10.4-4.4-5.5-4.6-5.5-9.7-11.6c-3.3-4-6.8-8-10.3-12l-10.9-12.5c-15.2-16.8-31.6-35-49.8-53.5s-37.6-37.8-58.5-56.9-42.8-38.5-65.7-57.4-46.6-37.6-70.8-55.6-48.9-35.4-73.7-51.7q-18.6-12.3-37.1-23.8t-36.9-22.2l-18.2-10.4-9-5-4.5-2.4-2.3-1.2-.7-.4-.7-.3a9.1 9.1 0 0 0-6 0l-1.4.6-.6.4-.3.2-.2.2h-.2l-.4.4-.5.4-.2.2-1.8 1.8c-2.4 2.5-4.9 4.7-7.4 7.1s-5 4.5-7.5 6.6c-10 8.6-20.2 16.5-30.3 23.6-5 3.7-10.1 7-15 10.4s-9.9 6.4-14.8 9.5c-19.5 12.1-38 22-54.5 30.5l-12.1 6-5.8 2.8-5.6 2.6-10.5 4.9-9.7 4.3-16.4 7.1-12.1 4.9-10.1 4.1a6 6 0 0 1-4.8-10.9z" fill="#31323d"></path><path d="M2041.9 1139.3l3 5 8.4 14c7.2 12.1 17.2 29.5 29 50.6 5.8 10.6 12.1 22 18.6 34.2s13.3 25.1 20.2 38.5l10.4 20.5c3.4 7 6.9 14 10.4 21.1s6.9 14.3 10.3 21.6l5.1 10.9 5 11c3.4 7.3 6.6 14.7 9.8 22s6.3 14.7 9.4 22 6 14.6 9 21.8 5.6 14.4 8.4 21.4l7.7 20.8 7 20.1 6.3 19.1 5.5 18c3.3 11.6 6.3 22.3 8.6 31.8s4.1 17.9 5.6 24.8c.8 3.4 1.3 6.6 1.8 9.2l1.2 6.9 1 5.7a2.5 2.5 0 0 1-4.9.9l-1.1-5.6-1.3-6.8c-.5-2.7-1-5.7-1.9-9.1-1.6-6.8-3.3-15.1-5.9-24.5s-5.5-20-8.9-31.5l-5.7-17.8-6.5-18.9-7.3-19.9-8-20.6c-2.8-6.9-5.7-14-8.6-21.1s-6-14.3-9.2-21.5-6.3-14.5-9.7-21.7-6.6-14.5-10.1-21.8l-5.1-10.9-5.2-10.8c-3.4-7.2-7-14.3-10.5-21.3s-7.1-14-10.6-20.9l-10.6-20.3c-7-13.3-13.9-26-20.6-38.1s-13.1-23.4-19-33.8c-12-20.8-22.2-38-29.5-49.9l-8.5-13.8-3-4.8a6 6 0 0 1 10.2-6.4zM2021.1 1150l1.7 20.4c1 13 2.5 31.5 4 53.7s3.3 48.2 4.9 76c.8 13.9 1.6 28.3 2.3 42.9s1.4 29.5 1.9 44.3q.4 11.1.8 22.3c.3 7.4.4 14.8.6 22.1.4 14.6.6 29 .8 43v40.2l-.3 18.6-.5 17.4-.7 16-.9 14.4c-.3 4.5-.7 8.8-1 12.7s-.7 7.5-1 10.8-.6 6.1-1 8.7l-.9 6.4-.7 5.3a2.5 2.5 0 0 1-5-.6l.7-5.3.8-6.3c.3-2.5.5-5.4.8-8.6s.7-6.8.9-10.7.6-8.1.8-12.6l.7-14.4.5-15.9.3-17.3v-18.6l-.2-19.6-.4-20.5c-.4-13.9-.8-28.3-1.4-42.9-.3-7.3-.6-14.6-1-22s-.7-14.8-1.1-22.2c-.8-14.8-1.7-29.6-2.6-44.2s-1.9-28.9-2.9-42.8c-2-27.8-4.1-53.6-6-75.8s-3.6-40.6-4.8-53.6l-2-20.3a6 6 0 1 1 11.9-1.2z" fill="#31323d"></path><g clip-path="url(#wildClipPath2)"><path d="M1084.6 1261.6l-156.8-89c-12.6-7.1-25.4-14.5-34.9-25.3s-15.5-26-11.7-39.9c-248.7 178.3-473.3 390.9-620.9 670.6 58.4-60.1 118-112.9 199.4-119.2s160.8 10 199.4 80.6c23.5-37.5 75.8-74.6 118.3-73.7s92.3 41 100.4 82.7c16.4-65.8 72.4-120 138.7-134.4z" fill="#afb4d5"></path><path d="M1065 1298c-136.3-40.9-200.8-88.2-221.9-106.3a15.1 15.1 0 0 0-18.2-1.2c-49.8 32.6-275.5 188.9-442.6 448.5l-65.8 122.9 674.8 161.5 112.2-615.9z" fill="#dad6e1"></path><path d="M1151.1 1320.2l13.7-89.1-247-97.8s16 49.2 31.2 122.5" opacity=".4" fill="url(#wildLinearGradient6)" style="mix-blend-mode:multiply"></path><path d="M967.3 1263.4c27.8 133.8 52.8 347.7-27.6 488.1l172-48.6 57.6-375" opacity=".4" fill="url(#wildLinearGradient7)" style="mix-blend-mode:multiply"></path><path d="M382.3 1639s168.4-193.7 305.7-317.8c19.2-17.4 48.8 2.5 40.1 26.8-32.7 91.2-57.5 187.5-65.8 326.7-4.2-59.9 49.9-249.1 105.2-361.6 24.7-17.5 58.1-.1 59.3 30.2 4.3 106 14.7 291.7 48.5 327-18.7-42-24.9-242.9-27-348a48.3 48.3 0 0 1 60.3-47.7c57.1 14.7 137.8 32.7 167.2 26 0 0-160.8-48.7-241.8-110.3l-44.4 24.5S514.5 1413.6 382.3 1639z" opacity=".4" fill="url(#wildLinearGradient8)" style="mix-blend-mode:multiply"></path><path d="M875.2 1672.3a5 5 0 0 0 5.4-5.3l-17.5-306c-2.2-3.9-5-3.8-5-1.8 1.1 90.7 2.8 271.9 17.1 313.1z" opacity=".2" fill="url(#wildLinearGradient9)" style="mix-blend-mode:overlay"></path><path d="M661.6 1676.4c2.9 1 5.9-.8.9-4.1l92-307.8c1.3-7.5-3.2-3.6-3.9-1.8-35.5 84.9-101.4 268.2-89 313.7z" opacity=".2" fill="url(#wildLinearGradient10)" style="mix-blend-mode:overlay"></path></g><path d="M1084.6 1261.6l-156.8-89c-12.6-7.1-25.4-14.5-34.9-25.3s-15.5-26-11.7-39.9c-248.7 178.3-473.3 390.9-620.9 670.6 58.4-60.1 118-112.9 199.4-119.2s160.8 10 199.4 80.6c23.5-37.5 75.8-74.6 118.3-73.7s92.3 41 100.4 82.7c16.4-65.8 72.4-120 138.7-134.4z" fill="none" stroke="#31323d" stroke-linecap="round" stroke-miterlimit="10" stroke-width="12.5"></path><path d="M1063.2 1303.7l-10.4-3.2-12.5-3.9-16.9-5.6-10-3.4-10.9-3.9-5.8-2.1-6-2.3-12.5-4.9c-17.2-7-36.5-15.3-57-25.6-5.1-2.7-10.3-5.3-15.5-8.2s-10.6-5.8-15.9-9c-10.7-6.2-21.5-13.2-32.3-20.9-2.7-1.9-5.3-4-8-6s-5.3-4.1-7.9-6.4l-2-1.7-.2-.2h-.1l-.5-.4-.5-.4h-.4l-.3-.2-.7-.3-1.4-.5a9.1 9.1 0 0 0-6 .5l-.7.3-.7.4-2.1 1.4-4.3 2.8-8.6 5.7-17.3 11.9q-17.3 12.2-34.8 25.3t-34.9 27c-23.2 18.5-46.3 37.9-68.9 58s-44.6 40.7-65.7 61.6-41.4 42-60.4 62.9-36.9 41.7-53.3 61.8-31.4 39.6-45 57.6l-9.8 13.4c-3.2 4.4-6.3 8.6-9.3 12.9l-8.6 12.4-4.1 5.9-3.9 5.8-7.4 11.1-3.5 5.3-.9 1.3-.4.6-.4.6-1.6 2.6-11.6 18.6-21.9 35.4a2.5 2.5 0 0 1-4.3-2.6l21.5-35.6 11.3-18.8 1.6-2.6.4-.7.4-.6.8-1.3 3.5-5.3 7.3-11.2 3.8-5.9 4.1-6 8.5-12.5c2.9-4.3 6-8.6 9.1-13.1l9.7-13.6c13.4-18.4 28.2-38.1 44.6-58.4s34-41.4 53-62.6 39.1-42.6 60.2-63.8 43-42.2 65.5-62.5 45.6-40.1 68.8-59q17.4-14.1 34.9-27.5T789 1208l17.3-12.2 8.7-5.9 4.3-2.9 2.1-1.4 1.5-.9 1.6-.8a21.2 21.2 0 0 1 13.9-1.2 20.1 20.1 0 0 1 3.3 1.2l1.6.8.8.4.8.5.8.6.5.4.5.4.7.5 1.9 1.6c2.5 2.1 5.1 4 7.6 6l7.8 5.7c10.4 7.4 20.9 14.1 31.4 20.1 5.2 3.1 10.4 5.9 15.5 8.7 2.5 1.4 5.1 2.7 7.7 4l7.6 3.9c20.1 10.1 39 18.3 56 25.2l12.4 4.9 5.9 2.2 5.7 2.1 10.7 4 9.8 3.4 16.6 5.6 12.5 3.9 10.4 3.3a6 6 0 0 1-3.7 11.6z" fill="#31323d"></path><path d="M830.3 1193.2l-2.6 5.1-7.3 14.5c-6.2 12.5-14.9 30.5-25 52.3-5 10.9-10.4 22.7-16 35.3s-11.3 25.9-17.2 39.7c-2.9 6.9-5.8 14-8.8 21.1s-5.9 14.4-8.7 21.7-5.8 14.7-8.6 22.2l-4.3 11.2-4.2 11.3c-2.8 7.5-5.5 15-8.1 22.6s-5.2 15-7.8 22.5-4.9 14.9-7.3 22.2-4.5 14.7-6.8 21.8l-6.2 21.2-5.5 20.4-4.8 19.4-4.1 18.2c-2.4 11.7-4.6 22.5-6.1 32.1s-2.7 18-3.7 24.9c-.5 3.5-.8 6.6-1.1 9.3l-.7 6.9-.6 5.7a2.5 2.5 0 0 1-5-.5l.5-5.8.6-6.9c.3-2.7.5-5.9.9-9.4.9-7 1.8-15.5 3.4-25.2s3.5-20.6 5.8-32.5l3.9-18.4 4.6-19.6 5.3-20.6 5.9-21.4c2.1-7.2 4.3-14.6 6.5-22s4.6-14.9 7-22.5 4.9-15.1 7.5-22.7 5.2-15.2 7.9-22.8l4-11.4 4.1-11.3c2.7-7.5 5.6-15 8.4-22.4s5.7-14.7 8.5-21.9 5.7-14.3 8.5-21.3c5.7-14 11.3-27.4 16.7-40.1s10.7-24.7 15.6-35.7c9.9-22 18.4-40.2 24.5-52.9l7.1-14.5 2.6-5.2a6 6 0 1 1 10.7 5.3h-.1zM853.2 1196.6l-.2 20.4c-.1 13-.2 31.5-.1 53.8s.2 48.2.7 76c.2 13.9.5 28.3.9 42.9s.8 29.4 1.3 44.3l.8 22.2c.3 7.4.6 14.7 1 22 .7 14.6 1.5 28.9 2.4 42.8l1.4 20.4 1.5 19.5 1.7 18.5 1.8 17.2 1.8 15.8 1.9 14.2c.6 4.5 1.3 8.6 1.9 12.5s1.2 7.4 1.8 10.6 1.1 6 1.6 8.5l1.3 6.2 1.1 5.2a2.5 2.5 0 0 1-4.9 1.1l-1.2-5.2-1.4-6.3c-.6-2.5-1.1-5.3-1.7-8.6s-1.4-6.8-2-10.6-1.4-8.1-2.1-12.6l-2.1-14.3-2.1-15.9-2-17.3-1.9-18.5-1.8-19.6-1.7-20.5c-1.1-13.9-2.1-28.3-3-42.9-.4-7.3-.9-14.7-1.3-22.1l-1.2-22.2c-.8-14.9-1.4-29.7-2-44.3s-1.1-29-1.5-42.9c-.8-27.9-1.4-53.9-1.8-76.2s-.6-40.9-.7-53.9v-20.5a6 6 0 0 1 12 0z" fill="#31323d"></path></g></g></g><g clip-path="url(#kittyClipPath)"><g id="bodyFur" style="isolation:isolate"><clipPath id="furClipPath"><path d="M2200.5 2195.7c-43-29.4-132.4-61.7-179.8-75.5l-.8-.3a248.1 248.1 0 0 0 6.4-155.9l-134.5-437.7a121.2 121.2 0 0 0 41.2-22.3c-16.2 7.6-39.1-8.1-54.9-21.9l-2.2-7.2c54.7 26.7 104.5-45.6 104.5-45.6-45.4 5.5-101.9-31.2-136.4-58.1l-3.7-12.1c36.3 6.8 73.8-24.6 73.8-24.6-21.6.7-45-17.8-65.7-40.9a298 298 0 0 1-62.5-111.5l-54.8-178.1a240.5 240.5 0 0 0-47.2-89.2l64.4-104.2a15 15 0 0 0-12.1-22.9c-40-2-104.9 47-129.3 66.3a240.4 240.4 0 0 0-57.8-20.2 371.6 371.6 0 0 1 21.9-38.4 10.2 10.2 0 0 0-11.2-15.4c-26.7 7.1-55.7 28.1-64.7 34.9a1.2 1.2 0 0 1-1.9-1.3c4.1-16.7 21.1-88.9 7.5-95.5s-36.2 52.6-44.6 74.7a1.2 1.2 0 0 1-2.4-.5c1.7-24.4 4.8-91.4-13-88-19.7 3.7-56.2 87.7-63.1 104.1a1.2 1.2 0 0 1-2.2 0c-4.6-11.7-22.9-55.8-29.2-40.3s.6 43.4 3.4 54.3a1.2 1.2 0 0 1-2 1.2c-19-17-51.5-17.4-73.9-15.2a10.2 10.2 0 0 0-6.3 17.4 106.3 106.3 0 0 1 9.7 11.3 240.3 240.3 0 0 0-65.7 29.2l-5.2-3.5c-41.5-34.1-105.9-77.5-130.8-42.6a15 15 0 0 0-.9 16l60.5 108.1a240.3 240.3 0 0 0-33 93.8l-30.5 160.3a272.3 272.3 0 0 1-49.4 112.8c-17.8 23.7-38.8 43.5-60.1 45.7 0 0 41.5 26.2 76.6 14.4l-2.4 12.7c-30.6 31.2-81.6 75-127.2 75.7 0 0 56.6 62.3 106.5 33.2l-1.8 9.7c-13.6 14.7-32 29.7-47.6 24.8a121.7 121.7 0 0 0 39.9 15.9l-86.8 456.2a248.9 248.9 0 0 0 12.6 117.6l-.6.2c-38.1 9.1-130.4 43.4-184.5 78.3-26.5 17.1-10.1 55.9 23.2 55.3l266.9-5.2q6.8 4.2 13.9 7.9v3.3c.4 23.3-6.7 42.4-29.9 43.6-15.6.8-28.2 9.9-30.6 21.1-4.7 21.5 5.8 38.9 27.2 40.4l84.3 5c26.4 1.6 51.9-11.3 65.3-34.1a71.4 71.4 0 0 0 8.8-23.9l5-26.6h533.6l3.5 20.7a71.6 71.6 0 0 0 43.1 54.3 53.5 53.5 0 0 0 22.3 4l91.8-3c22-2.2 30.1-15.7 27.9-36.9-.7-6.9-6.2-24.5-24.5-25.5-15.8-.9-25.2-8.6-28.1-21.9a246.8 246.8 0 0 0 65.3-28l261.6 5c33.3.5 49.3-37.6 23.2-55.4z" fill="none"></path></clipPath><g clip-path="url(#furClipPath)"><defs><linearGradient id="furLinearGradient" x1="1713.27" y1="794.55" x2="1713.27" y2="927.94" gradientUnits="userSpaceOnUse"><stop offset="0" stop-color="gray"></stop><stop offset=".14" stop-color="#797979"></stop><stop offset=".35" stop-color="#646464"></stop><stop offset=".6" stop-color="#434343"></stop><stop offset=".89" stop-color="#141414"></stop><stop offset="1"></stop></linearGradient><linearGradient id="furLinearGradient2" x1="1041.15" y1="888.73" x2="1175.15" y2="888.73" href="#furLinearGradient" xlink:href="#furLinearGradient"></linearGradient></defs><g style="isolation:isolate"><path fill="#afb4d5" d="M724.1 562.8h1509.4v1824.09H724.1z"></path><path d="M1781.2 799.5s-38-26-102 41.5l-33.7 40.5 56.1 46.5z" opacity=".4" fill="url(#furLinearGradient)" style="mix-blend-mode:multiply"></path><path d="M1041.2 839.5s27.5-18.9 71.6-.8a122.7 122.7 0 0 1 47.5 35.2l14.9 17.9-37.7 54.9z" opacity=".4" fill="url(#furLinearGradient2)" style="mix-blend-mode:multiply"></path><path d="M1181.5 2294.7c-5.6-14.6 3.2-56.8 20.7-141.2 10.5-50.5 18.8-83.4 24-105 38.8-161.9 16.1-179.6 50-276 23.1-65.9 47.1-131.2 111-162 7.6-3.7 65.9-30.7 125-7s81.2 80.6 105.3 141.9c29.1 74.1 20 99.7 53 285.3 6.9 38.6 13.7 77.2 20.6 115.8 4.1 22.7 8 45.3 12 68 9.4 53.2 9.6 54.1 9.4 56.2-9.7 78.5-486.6 140.6-531 24z" fill="#dad6e1"></path><path d="M1961.8 1478.2s-63.5 117.2-161.6 129.2c-55.1 6.8-53.6 31.2-41.8 51.3a75.5 75.5 0 0 0 48.6 34.9c44.6 10 139.1 22.8 173.1-38.3 45.3-80.9-18.3-177.1-18.3-177.1zM881.1 1516.9c45.9-14.3 88.2 123 196 134 47.6 4.9 85.3-17.2 96 0s-12.2 49.3-34 68c-33 28.4-73.5 29.7-90 30-76 1.3-182.5-44.2-198-130-7.1-38.8 3-93.7 30-102zM1868.5 1758c7.8-14.8 34.4-9.4 137.3-4 42.6 2.2 55.4 2.2 57.4 8.9 4.1 13-35.3 41.2-75.9 51.6-9.3 2.4-79.9 19.5-109.2-19.7-1.6-2.2-17-22.8-9.6-36.8zM1271.8 837.6a34.2 34.2 0 0 1 13.7 11.7c-1.1 21.7-.1 47.7 13.5 73.3 4.8 9.1 16 27 9.2 36.8-4.5 6.5-14.7 6.5-17 6.5-26.1 0-45.6-32.3-52.4-43.7-11.1-18.4-18-39.3-20.2-58.2.3-5.9 22-18.6 22-18.6s26.3-10.8 31.2-7.8zM1848.6 1846.8c2-10.8-13.9-18.9-69.3-58-22.9-16.2-29.5-21.4-33.3-18.8-7.4 5.1 1.5 35.7 18.2 57.6 3.8 5 33.3 42.6 64.4 34.4 1.7-.6 18.1-5 20-15.2zM1157.5 1894.7c-9.9-9.5.9-26.8 10.7-81.9 6-33.7 5.1-45.5 10.7-46.7 9.4-1.9 26.5 29.1 30.9 59.6 2 13.4 7.6 51.7-15.6 67.1-10.6 7-28.3 10-36.7 1.9zM1772.9 1428c-2.7 13.5-23.1 13.6-74.9 34.9-31.7 13-41.2 20-45.1 16-6.7-6.9 10.4-37.9 33.8-58 10.3-8.8 39.6-34.1 65-22.8 11.5 5.1 23.5 18.5 21.2 29.9zM1554.2 823.8c-13.5 6.1-9.9 15.2-20.6 78.8-4.6 27.5-6.8 34-2.2 38.2 11.6 10.5 37.3-6.8 56.7-37.3 10.7-16.8 20.5-46.8 6.7-67.3-7.1-10.6-18.6-15.8-22-17.3-6.4-3-7.1-.3-18.6 4.9zM1896.4 2209.1c10.8 2 18.9-13.9 58-69.3 16.2-22.9 21.4-29.5 18.8-33.3-5.1-7.4-35.7 1.5-57.6 18.2-5 3.8-42.6 33.3-34.4 64.4.6 1.8 5 18.2 15.2 20zM1151.2 1477.7c8.7-32.7-51.8-84.8-114-100a197.2 197.2 0 0 0-64.2-4.4c-55.9 9.6-63 15.4-63.8 26.4-1 13.4 38 13.2 92 54 40.4 30.5 45.3 50.8 74 56 30.7 5.6 70-9.5 76-32zM1118.8 1833.1c-15.5-12.2-45.8 35.4-114 48-78.3 14.5-128-31.7-146-10-15.7 18.9 5.7 73.8 44 98 36 22.7 77 12.1 108 4 19.9-5.2 49.1-12.8 74-38 33.9-34.3 49.1-90.1 34-102zM2044.2 1845.5c-17.2-15.4-63 49.4-156 60-74.6 8.5-124.5-24.1-137-4-9.8 15.9 12.8 49.6 34.3 67.4 32.7 27.1 72.4 25.6 98.7 24.6 23.9-.9 71.3-3.2 112-38s63-96.5 48-110zM1126.2 1563.5c1.1-23.9 35.6-39.7 62-38 5.2.3 27.4 1.7 32 14 7.6 20.2-32.8 69-66 60-15.3-4.2-28.8-20.5-28-36zM875 1307.9c12.2-20.5 50-18.3 72.6-4.4 4.4 2.7 23.4 14.4 21.7 27.4-2.8 21.4-61.4 45.5-86.5 21.9-11.6-10.8-15.8-31.6-7.8-44.9z" fill="#756650"></path><path d="M1052.8 1596c-20.2 12.8-52.9-6.4-66.7-29.1-2.7-4.4-19.2-38.6-6.9-34.2 37.4 13.1 50.9 13.1 75.7 4.4a35.3 35.3 0 0 1 11.3 15.4c5.4 14.8-.3 35.2-13.4 43.5zM1897.2 1460.3c-20.2 12.8-52.9-6.4-66.7-29.1-2.7-4.4-14.3-23.5-6.9-34.2 12.2-17.8 75.4-12.7 87 19.7 5.4 14.9-.2 35.3-13.4 43.6zM1344.2 820.8c8.1 27.8-24.1 47.1-20.7 95.3 1 13.7 4.4 23.3 8.7 35.3 6.2 17.4 26.7 75.1 59.3 79.3 34.2 4.5 68.6-51.7 82.7-87.3s6.5-47.9 16-105.3c14.3-86.4 37.4-93.8 32.7-131.3-8.3-65.5-91.9-147.8-166.7-124-77.8 24.7-99.8 149.8-64.7 194.7 17.8 22.7 45.6 19 52.7 43.3zM1832.7 1517.9a36.6 36.6 0 0 1-36.6 36.6c-20.2 0-55.6-25.4-55.6-45.6s35.3-27.7 55.6-27.7a36.6 36.6 0 0 1 36.6 36.7zM1701.9 1578.2a15.2 15.2 0 0 1-15.2 15.2c-8.4 0-24.2-10.8-24.2-19.2s15.8-11.2 24.2-11.2a15.2 15.2 0 0 1 15.2 15.2zM1115.2 1793.4a15.2 15.2 0 0 1-15.2 15.2c-8.4 0-24.2-10.8-24.2-19.2s15.8-11.2 24.2-11.2a15.2 15.2 0 0 1 15.2 15.2zM1326 1020.6a15.2 15.2 0 1 1-30.4 0c0-8.4-.7-21.4 7.7-21.4s22.7 13 22.7 21.4z" fill="#756650"></path><circle cx="1714.9" cy="1704.5" r="27" fill="#756650"></circle><path d="M1228.7 1444.4a16.3 16.3 0 0 1-32.6 0c0-9 13.3-22 22.3-22s10.3 13 10.3 22zM1033.2 1810.5c0 25.3-40.4 44.8-65.7 44.8a45.8 45.8 0 1 1 0-91.5c25.3 0 65.7 21.4 65.7 46.7zM1145.4 2023a25.2 25.2 0 0 1-25.2 25.2c-13.9 0-39-25.9-39-39.8s25-10.7 39-10.7a25.2 25.2 0 0 1 25.2 25.3zM1588.9 971.4c0 12.7-3.4 31.7-16.1 31.7s-29.9-19-29.9-31.7a23 23 0 0 1 46 0zM1855.3 859.2c0 74.1-109.7 176.7-183.8 176.7s-65.4-88.3-59.3-162.1S1647 725 1721.1 725a134.2 134.2 0 0 1 134.2 134.2zM1206.3 875.9c20.1 119.5-63 174.1-140.7 174.1S925 972.1 925 875.9s63-174.1 140.7-174.1 124.6 79.3 140.6 174.1z" fill="#756650"></path><path d="M1147.2 1164.5c0 95.3 56 165-39.4 165s-184.3-78-184.3-173.3-13.7-156.7 81.7-156.7 142 69.6 142 165zM2027.5 1976.5s-61.4-1.1-44.4 70.9-20.5 109.9-9.3 124.5l11.3 14.5s69.8-103.8 42.4-209.9zM917.1 2023s46.7-39.6 70.4 23.4 20.9 96.9 57.3 130l5.6 77S921 2203.6 917.1 2023zM1945.4 1140.5c87.5 13.7 167.2 76.5 195.3 160.5 8.9 26.5 12.3 57.2-2.4 81-11.1 18-31.3 29.1-52.1 33.3s-42.3 2.2-63.3-1c-52.2-8-102.9-23.6-153.4-39.1l-155.1-47.7c-16.1-5-33.7-10.9-42.6-25.3-27-43.1 26.3-78.4 54.1-100.5 39-30.8 85.4-52.1 134.4-60.5a264.6 264.6 0 0 1 85.1-.7zM1603.3 850.4l50.8 36.4 49.3 52.7 49.3 76.7 38.9 63.3c5.2-8.1 1193.7-742.5 1192.4-747.9-2-8.7 0-319.9 0-319.9H1959.8z" fill="#756650"></path><path fill="#756650" d="M1222.2 859.5L818 11.6H18.2v903.2l1046 176.5 38.8-90 28.2-56.9 24.8-29.6 38.3-35.3 27.9-20z"></path></g></g></g><g id="shadow" style="mix-blend-mode:multiply"><defs><clipPath id="shadowClipPath"><path d="M2200.5 2195.7c-43-29.4-132.4-61.7-179.8-75.5l-.8-.3a248.1 248.1 0 0 0 6.4-155.9l-134.5-437.7a121.2 121.2 0 0 0 41.2-22.3c-16.2 7.6-39.1-8.1-54.9-21.9l-2.2-7.2c54.7 26.7 104.5-45.6 104.5-45.6-45.4 5.5-101.9-31.2-136.4-58.1l-3.7-12.1c36.3 6.8 73.8-24.6 73.8-24.6-43.1 1.4-93.7-74.1-115-109.3l-68-221.2a240.5 240.5 0 0 0-47.2-89.2l73.3-118.6c-32.4-31.9-120.8 34.6-150.3 57.8a240.4 240.4 0 0 0-57.8-20.2 371.4 371.4 0 0 1 21.9-38.3c5.1-7.8-2.2-17.9-11.2-15.5-26.7 7.1-55.7 28.1-64.7 34.9a1.2 1.2 0 0 1-1.9-1.3c4.1-16.7 21-88.9 7.5-95.5s-36.2 52.6-44.6 74.7a1.2 1.2 0 0 1-2.4-.5c1.7-24.4 4.8-91.4-13-88-19.7 3.7-56.1 87.7-63.1 104.1a1.2 1.2 0 0 1-2.3 0c-4.7-11.7-22.9-55.7-29.2-40.3s.6 43.3 3.4 54.3a1.2 1.2 0 0 1-2 1.2c-19-17-51.5-17.4-73.9-15.2a10.2 10.2 0 0 0-6.3 17.4 106.3 106.3 0 0 1 9.7 11.3 240.3 240.3 0 0 0-65.7 29.2l-5.2-3.5c-44.5-36.6-115.4-83.9-135.6-33.6l64.5 115.2a240.3 240.3 0 0 0-33 93.8l-38.8 204c-17.3 35.5-58.5 110.3-101.2 114.7 0 0 41.5 26.2 76.6 14.4l-2.4 12.7c-30.6 31.2-81.6 75-127.2 75.7 0 0 56.6 62.3 106.5 33.2l-1.8 9.7c-13.6 14.7-32 29.7-47.6 24.8a121.7 121.7 0 0 0 39.9 15.9l-86.8 456.2a248.9 248.9 0 0 0 12.6 117.6l-.6.2c-38.1 9.1-130.4 43.4-184.5 78.3-26.5 17.1-10.1 55.9 23.2 55.3l266.9-5.2q6.8 4.2 13.9 7.9v3.3c.4 23.3-6.7 42.4-29.9 43.6-15.6.8-28.2 9.9-30.6 21.1-4.7 21.5 5.8 38.9 27.2 40.4l84.3 5c26.4 1.6 51.9-11.3 65.3-34.1a71.4 71.4 0 0 0 8.8-23.9l5-26.6h533.6l3.5 20.7a71.6 71.6 0 0 0 43.1 54.3 53.5 53.5 0 0 0 22.3 4l91.8-3c22-2.2 30.1-15.7 27.9-36.9-.7-6.9-6.2-24.5-24.5-25.5-15.8-.9-25.2-8.6-28.1-21.9a246.8 246.8 0 0 0 65.3-28l261.6 5c33.3.5 49.3-37.6 23.2-55.4z" fill="none"></path></clipPath><linearGradient id="shadowGradient" x1="1713.27" y1="794.55" x2="1713.27" y2="927.94" gradientUnits="userSpaceOnUse"><stop offset="0" stop-color="gray"></stop><stop offset=".14" stop-color="#797979"></stop><stop offset=".35" stop-color="#646464"></stop><stop offset=".6" stop-color="#434343"></stop><stop offset=".89" stop-color="#141414"></stop><stop offset="1"></stop></linearGradient><linearGradient id="shadowGradient2" x1="1041.15" y1="888.73" x2="1175.15" y2="888.73" href="#shadowGradient" xlink:href="#shadowGradient"></linearGradient></defs><g clip-path="url(#shadowClipPath)"><path d="M1066.8 1533.3c-21.1 33.1-27.3 41.8-33.7 78.2-20.4 117.1-20.8 257.1-28 315.4a910.2 910.2 0 0 0-6.8 98.4v3.4c23.5 26 47.6 88.8 52.6 176.8l1.3 49s-31.3-.8-81-.8c-62 0-110.8-111.7-79.2-278.2 17.8-93.4 67.3-328.4 114-432.1 41.5 2.5 60.8-10.1 60.8-10.1zM1226.5 2040.4c-24.3 147.7 54.3 178.3 68.5 181.6 86.5 15.5 223.8 8.8 268.5-7 41.8-14.8 129.9-58.5 108-189.5l43 256.8h-533.6zM1854.3 2157.4s29.9-91.4 66.3-124.9c-39.4 75 14.1 92.7 28.1 87.7 53.7-19.2 75-66.7 79.2-150l65.3 116.3s-55 256-204 214l-38.7-18.1z" fill="#7f7f7f" opacity=".2"></path><path d="M1781.2 799.5s-38-26-102 41.5l-33.7 40.5 56.1 46.5z" opacity=".4" fill="url(#shadowGradient)" style="mix-blend-mode:multiply"></path><path d="M1041.2 839.5s27.5-18.9 71.6-.8a122.7 122.7 0 0 1 47.5 35.2l14.9 17.9-37.7 54.9z" opacity=".4" fill="url(#shadowGradient2)" style="mix-blend-mode:multiply"></path><path d="M1047.6 1520.5c14.1-5.3 28.5-11.5 40.2-20.8a2.5 2.5 0 0 1 3.8 3.2c-3.7 7.1-7.9 13.9-13.5 19.5-9.2 9.4-21.6 15.2-34.3 18.4-7.2 1.8-63.7 5.5-59.5-5.6 2.5-6.6 22.8-3.9 28.1-4.7 12-1.8 23.7-5.7 35.2-10zM912 1457.7c14.9 9.3 33.6 10.5 51.1 8.8a188.3 188.3 0 0 0 105.1-45 2.5 2.5 0 0 1 3.9 3.1c-12.2 22.8-28 43.6-47.7 60.3-16.8 14.3-37.4 25.7-59.5 26.3s-45.5-12-52.2-33.1M968.2 1355.4c48.8.1 96.6-25.6 124.5-65.5a2.5 2.5 0 0 1 4.4 2.3c-8.9 24.9-23.8 47.7-41.3 67.6-10.1 11.5-22.2 22.7-37.3 24.6-7.1.9-14.3-.3-21.4-1.6l-24.1-4.3M1293.2 863.8c-81.5 23.6-133.7 93.8-162 217.6-15.3 136.6-101.3 213.1-101.3 213.1 54.3-91.1 76.3-278.9 76.3-278.9s23.5-135.7 171-178.5z" fill="#7f7f7f" opacity=".2"></path><path d="M1308.9 846.5c11.3 12.8 19.7 27.6 27.4 42.9a3.2 3.2 0 0 1-4.8 3.9c-19.8-15.4-39.2-31.5-54.7-51.1a58.9 58.9 0 0 0-5.7-6.6c-3.1-2.9-6.9-5-9.3-8.5-1.2-1.7-2.6-3.7-3.8-5.8a3.2 3.2 0 0 1 3.1-4.8c18.2 2.2 36.5 17.2 47.8 30zM1441.1 703.4c-10 55.7-32.8 109-39 165a3.2 3.2 0 0 1-6.2.7l-8.5-25.3c-2.9-8.6-5.8-17.3-7.3-26.3-3.4-20.3.8-41.1 7.5-60.6a234.1 234.1 0 0 1 28.2-56M1498.1 722.5c-8.6 28.1-17.2 56.2-24.9 84.6a285 285 0 0 0-6.8 30.3 3.2 3.2 0 0 1-6.3 0c-5.4-32.9-.1-67.4 5.4-100.7M1564.4 782.2c-15.8 13.8-27.3 31.7-38.7 49.3-6.9 10.8-13.9 21.6-19.2 33.2a3.2 3.2 0 0 1-6-.7c-3.2-15.2-5.6-30.7-3.1-46a74.4 74.4 0 0 1 34.1-50.7M1340.4 818.6a281.8 281.8 0 0 0 20.9 39.4 3.2 3.2 0 0 0 5.7-2.6 425.6 425.6 0 0 1-15.7-70.3c-.4-2.7-.7-5.4-2-7.8a8.9 8.9 0 0 0-1.8-2.3 3.2 3.2 0 0 0-5.2 1.9" fill="#7f7f7f" opacity=".2"></path></g></g><g id="highlight" style="isolation:isolate"><defs><clipPath id="highlightClipPath"><path d="M2201.8 2194.3c-43.1-29.3-132.5-61.4-180-75.1l-.8-.3a248.1 248.1 0 0 0 6-155.9l-135.4-437.4a121.2 121.2 0 0 0 41.2-22.5c-16.2 7.7-39.2-8-54.9-21.8l-2.2-7.2c54.8 26.6 104.4-45.8 104.4-45.8-45.4 5.6-101.9-31-136.5-57.8l-3.7-12.1c36.3 6.8 73.7-24.7 73.7-24.7-43.1 1.4-93.9-73.9-115.2-109.1l-68.4-221.1a240.5 240.5 0 0 0-47.4-89.1l73.1-118.8c-32.5-31.8-120.7 34.9-150.2 58.1a240.4 240.4 0 0 0-57.8-20.1 371.4 371.4 0 0 1 21.8-38.4c5-7.8-2.2-17.8-11.2-15.4-26.7 7.1-55.6 28.2-64.6 35a1.2 1.2 0 0 1-1.9-1.3c4.1-16.7 20.9-88.9 7.3-95.5s-36.1 52.7-44.5 74.8a1.2 1.2 0 0 1-2.4-.5c1.7-24.4 4.6-91.4-13.2-87.9-19.6 3.8-56 87.8-62.9 104.2a1.2 1.2 0 0 1-2.3 0c-4.7-11.7-23-55.7-29.3-40.3s.7 43.3 3.5 54.3a1.2 1.2 0 0 1-2 1.2c-19-16.9-51.5-17.3-74-15a10.2 10.2 0 0 0-6.2 17.4 106.3 106.3 0 0 1 9.8 11.3 240.3 240.3 0 0 0-65.6 29.3l-5.2-3.5c-44.6-36.5-115.6-83.7-135.7-33.4l64.7 115.1a240.3 240.3 0 0 0-32.8 93.8l-38.3 204.2c-17.2 35.5-58.3 110.4-101 114.9 0 0 41.5 26.1 76.6 14.2l-2.3 12.9c-30.6 31.3-81.4 75.2-127 75.9 0 0 56.7 62.2 106.6 33l-1.8 9.7c-13.5 14.7-32 29.8-47.6 24.9a121.7 121.7 0 0 0 39.9 15.9l-85.9 456.3a248.9 248.9 0 0 0 12.8 117.5l-.6.2c-38.1 9.2-130.4 43.7-184.3 78.7-26.5 17.2-10 55.9 23.3 55.2l266.9-5.7q6.8 4.1 13.9 7.9v3.3c.4 23.3-6.6 42.4-29.8 43.6-15.6.8-28.2 10-30.6 21.1-4.7 21.5 5.9 38.9 27.3 40.4l84.3 4.8c26.4 1.5 51.9-11.4 65.3-34.2a71.4 71.4 0 0 0 8.8-23.9l5-26.6 533.5-1.1 3.5 20.7a71.6 71.6 0 0 0 43.3 54.2 53.5 53.5 0 0 0 22.3 3.9l91.8-3.2c22-2.2 30.1-15.8 27.8-37-.8-6.9-6.3-24.5-24.5-25.5-15.8-.8-25.3-8.6-28.1-21.9a246.8 246.8 0 0 0 65.2-28.1l261.6 4.5c33.1.6 49-37.5 22.9-55.2z" fill="none"></path></clipPath><linearGradient id="highlightGradient" x1="1937.21" y1="2255.56" x2="1937.21" y2="1522.67" gradientUnits="userSpaceOnUse"><stop offset="0" stop-color="#fff" stop-opacity="0"></stop><stop offset=".72" stop-color="#fff"></stop></linearGradient><linearGradient id="highlightGradient2" x1="2116.32" y1="2248.97" x2="2116.32" y2="2113.28" href="#highlightGradient" xlink:href="#highlightGradient"></linearGradient><linearGradient id="highlightGradient3" x1="1044.74" y1="2253.08" x2="1044.74" y2="2117.39" gradientTransform="matrix(-1 0 0 1 1878.82 0)" href="#highlightGradient" xlink:href="#highlightGradient"></linearGradient><linearGradient id="highlightGradient4" x1="984.56" y1="2254.49" x2="984.56" y2="1542.14" href="#highlightGradient" xlink:href="#highlightGradient"></linearGradient><linearGradient id="highlightGradient5" x1="1875.41" y1="1443.95" x2="1875.41" y2="1512.52" href="#highlightGradient" xlink:href="#highlightGradient"></linearGradient><linearGradient id="highlightGradient6" x1="1889.74" y1="1331.47" x2="1889.74" y2="1433.59" href="#highlightGradient" xlink:href="#highlightGradient"></linearGradient><linearGradient id="highlightGradient7" x1="1750.79" y1="1277.61" x2="1750.79" y2="835.81" href="#highlightGradient" xlink:href="#highlightGradient"></linearGradient><linearGradient id="highlightGradient8" x1="1859.63" y1="1268.58" x2="1859.63" y2="1352.94" href="#highlightGradient" xlink:href="#highlightGradient"></linearGradient></defs><g clip-path="url(#highlightClipPath)" opacity=".3"><path d="M1834.6 1522.7c60.7 163.8 89.7 242.1 136.2 446.7s-80.7 286.2-80.7 286.2l61-35.6s62.9-74.9 72.3-107.8c20.6-71.9 22.7-66.1.7-180.7-32-166.4-122.5-394.8-132.5-405.9-20.9 10.1-57-2.9-57-2.9z" fill="url(#highlightGradient)" style="mix-blend-mode:overlay"></path><path d="M1999.2 2162.4s113.2 21.1 98.4 83.6l92.6 3 43.3-6.5-4.3-68.5-206.8-60.7z" fill="url(#highlightGradient2)"></path><path d="M951.2 2166.5s-113.2 21.1-98.4 83.6l-92.6 3-43.3-6.5 4.3-68.5 206.8-60.7z" fill="url(#highlightGradient3)"></path><path d="M983.9 1542.1l43 2.6s-111.5 487.6-73.8 555.7c47.6 85.9 95 122.5 95 122.5l4 31.6s-139.2-70-135.1-209 66.9-503.4 66.9-503.4z" fill="url(#highlightGradient4)"></path><path d="M1943.3 1501c-15.2 4.7-30.6 9.5-46.5 11s-32.5-.3-46.4-8.1-26-23.4-34.7-38.7c-3.3-5.8-6.5-11.9-8-18.4a2.4 2.4 0 0 1 3.5-2.7l57 31.1c8.1 4.5 16.4 9 25.3 11.4s18.8 2.7 27.3-1.1l2.1 3.1" fill="url(#highlightGradient5)" style="mix-blend-mode:overlay"></path><path d="M2000.2 1418.3a166.8 166.8 0 0 1-131.9 3.3c-39.3-16-71.8-47.9-88.8-86.8a2.4 2.4 0 0 1 3.6-2.9c36.3 24.5 81.2 33.3 122.7 48.2" fill="url(#highlightGradient6)" style="mix-blend-mode:overlay"></path><path d="M1546.4 836.5s59.1 33.4 81.1 64.7 67.7 70.3 87.6 165.3c60.2 287 240 198.1 240 198.1l-211-222.1s-22.8-75.2-62.7-127c-25.8-33.4-73.3-64.5-124.3-79.7z" fill="url(#highlightGradient7)" style="mix-blend-mode:overlay"></path><path d="M1905.7 1339.4c.5-.7 1.6.5 1 1.2s-1.6.5-2.4.3l-29-6.9c-11.1-2.7-22.3-5.3-32.8-9.8a104.5 104.5 0 0 1-55.1-55.6c37.3 17.6 75.4 35.4 116.2 40.8 5.9.8 12 1.3 17.5 3.8s10.3 7.3 10.7 13.3-2.6 10.3-6.6 13.7-9 5.4-13.9 7.3l5.4 5.5" fill="url(#highlightGradient8)" style="mix-blend-mode:overlay"></path></g></g><g id="bodyMask"><path d="M2200.5 2195.7c-43-29.4-132.4-61.7-179.8-75.5l-.8-.3a248.1 248.1 0 0 0 6.4-155.9l-134.5-437.7a121.2 121.2 0 0 0 41.2-22.3c-16.2 7.6-39.1-8.1-54.9-21.9l-2.2-7.2c54.7 26.7 104.5-45.6 104.5-45.6-45.4 5.5-101.9-31.2-136.4-58.1l-3.7-12.1c36.3 6.8 73.8-24.6 73.8-24.6-21.6.7-45-17.8-65.7-40.9a298 298 0 0 1-62.5-111.5l-54.8-178.1a240.5 240.5 0 0 0-47.2-89.2l64.4-104.2a15 15 0 0 0-12.1-22.9c-40-2-104.9 47-129.3 66.3a240.4 240.4 0 0 0-57.8-20.2 371.6 371.6 0 0 1 21.9-38.4 10.2 10.2 0 0 0-11.2-15.4c-26.7 7.1-55.7 28.1-64.7 34.9a1.2 1.2 0 0 1-1.9-1.3c4.1-16.7 21.1-88.9 7.5-95.5s-36.2 52.6-44.6 74.7a1.2 1.2 0 0 1-2.4-.5c1.7-24.4 4.8-91.4-13-88-19.7 3.7-56.2 87.7-63.1 104.1a1.2 1.2 0 0 1-2.2 0c-4.6-11.7-22.9-55.8-29.2-40.3s.6 43.4 3.4 54.3a1.2 1.2 0 0 1-2 1.2c-19-17-51.5-17.4-73.9-15.2a10.2 10.2 0 0 0-6.3 17.4 106.3 106.3 0 0 1 9.7 11.3 240.3 240.3 0 0 0-65.7 29.2l-5.2-3.5c-41.5-34.1-105.9-77.5-130.8-42.6a15 15 0 0 0-.9 16l60.5 108.1a240.3 240.3 0 0 0-33 93.8l-30.5 160.3a272.3 272.3 0 0 1-49.4 112.8c-17.8 23.7-38.8 43.5-60.1 45.7 0 0 41.5 26.2 76.6 14.4l-2.4 12.7c-30.6 31.2-81.6 75-127.2 75.7 0 0 56.6 62.3 106.5 33.2l-1.8 9.7c-13.6 14.7-32 29.7-47.6 24.8a121.7 121.7 0 0 0 39.9 15.9l-86.8 456.2a248.9 248.9 0 0 0 12.6 117.6l-.6.2c-38.1 9.1-130.4 43.4-184.5 78.3-26.5 17.1-10.1 55.9 23.2 55.3l266.9-5.2q6.8 4.2 13.9 7.9v3.3c.4 23.3-6.7 42.4-29.9 43.6-15.6.8-28.2 9.9-30.6 21.1-4.7 21.5 5.8 38.9 27.2 40.4l84.3 5c26.4 1.6 51.9-11.3 65.3-34.1a71.4 71.4 0 0 0 8.8-23.9l5-26.6h533.6l3.5 20.7a71.6 71.6 0 0 0 43.1 54.3 53.5 53.5 0 0 0 22.3 4l91.8-3c22-2.2 30.1-15.7 27.9-36.9-.7-6.9-6.2-24.5-24.5-25.5-15.8-.9-25.2-8.6-28.1-21.9a246.8 246.8 0 0 0 65.3-28l261.6 5c33.3.5 49.3-37.6 23.2-55.4z" fill="none"></path></g><g id="body"><path fill="none" stroke="#31323d" stroke-width="12.5" stroke-miterlimit="10" d="M1714.5 2282.4h-533.6m711.7-753.2l133.7 434.9c39 137.9-45.2 275-175.8 309.9m-799.8-20.3c-89.2-47.1-145.7-146.2-131.5-254.1l86.3-453.7" stroke-linecap="round"></path><path fill="#31323d" d="M1228.6 2040.8c-1.7 15.3-3.8 30.4-6 45.6l-3.5 22.7-3.8 22.6c-2.6 15.1-5.4 30.1-8.1 45.2l-8.3 45.1-16.6 90.3a76.3 76.3 0 0 1-3.5 12.1 77.5 77.5 0 0 1-5.4 11.4 75.5 75.5 0 0 1-16 19.4 78.7 78.7 0 0 1-45.9 18.8l-6.3.2h-6.1l-11.5-.7-22.9-1.3-45.8-2.8h-4.7l-1.8-.3a44.1 44.1 0 0 1-6.7-1.7 35.7 35.7 0 0 1-12.3-7.3 34.7 34.7 0 0 1-8.3-11.7 40.4 40.4 0 0 1-3.1-13.5 50.7 50.7 0 0 1 1-13.2l.2-.8v-1.7l.3-1.1a26.9 26.9 0 0 1 1.5-3.6 30.2 30.2 0 0 1 4.1-6.2 37.9 37.9 0 0 1 11-8.8 45.9 45.9 0 0 1 12.7-4.5 49 49 0 0 1 6.6-.9l2.7-.2 2.1-.3a22 22 0 0 0 4.3-1.2 18.5 18.5 0 0 0 3.8-1.9c4.6-3 7.7-8.4 9.4-14.8a70.5 70.5 0 0 0 1.8-20.8l-.9-22.9-1.9-45.9c-.6-15.3-1.3-30.6-1.8-45.9v.5c-.6-5-1.3-9.9-2-14.9-.4-2.5-.8-4.9-1.2-7.4s-.9-4.9-1.4-7.3-1-4.9-1.6-7.3l-1.8-7.2q-1.9-7.2-4.4-14.2c-.8-2.3-1.7-4.6-2.6-6.9s-1.8-4.6-2.9-6.8l-1.5-3.4-1.6-3.3-1.7-3.3-1.8-3.3-1.8-3.2-1.9-3.2-4-6.3c-1.4-2.1-2.8-4.1-4.3-6.2l-2.2-3-2.3-3a2.2 2.2 0 0 1 3.4-2.9l5.4 5.6q2.6 2.9 5.1 5.9c1.7 2 3.3 4 4.8 6.1l2.3 3.2 2.2 3.2c1.5 2.2 2.9 4.3 4.2 6.6l2 3.4 1.9 3.4q1.9 3.4 3.5 7c1.1 2.4 2.2 4.7 3.2 7.2q3 7.2 5.4 14.7c1.6 5 3 10 4.2 15q.9 3.8 1.7 7.6c.5 2.5 1.1 5.1 1.5 7.6.9 5.1 1.7 10.2 2.4 15.3v.5c.9 15.3 1.6 30.6 2.4 45.8l2.3 45.8 1.1 22.9a94.4 94.4 0 0 1-.1 12.3 71.8 71.8 0 0 1-1.9 12.5 54.5 54.5 0 0 1-2 6.3 42.8 42.8 0 0 1-3.1 6.2 33.3 33.3 0 0 1-9.8 10.4 35.1 35.1 0 0 1-13.2 5.3l-3.5.5-3 .2a35 35 0 0 0-4.7.6 31.9 31.9 0 0 0-8.8 3.2 23.9 23.9 0 0 0-6.9 5.5 16.1 16.1 0 0 0-2.2 3.3 13 13 0 0 0-1.2 3.7 36.6 36.6 0 0 0-.7 9.6 26.2 26.2 0 0 0 2 8.7 20.4 20.4 0 0 0 4.9 6.9 21.4 21.4 0 0 0 7.3 4.3 30.1 30.1 0 0 0 4.4 1.1l1 .2h3.9l45.8 2.7 22.9 1.4 11.5.7h10.5a64.5 64.5 0 0 0 37.6-15.2 61.4 61.4 0 0 0 13.1-15.7 65 65 0 0 0 7.4-19.2l17.4-90.1 8.7-45.1c2.9-15 5.8-30 8.8-45l4.7-22.5 5-22.4c3.4-14.9 7-29.8 11-44.6a2.2 2.2 0 0 1 4.9.6z"></path><path fill="#31323d" d="M1095.2 2319.6h-.5l-1.7.2a18.6 18.6 0 0 0-5.8 2 22.5 22.5 0 0 0-6.7 5.5 30.2 30.2 0 0 0-2.9 4 38.9 38.9 0 0 0-2.4 4.6l-.5 1.2-.5 1.2-.5 1.2-.4 1.3c-.5 1.7-.9 3.4-1.3 5l-.5 2.4c-.2.8-.3 1.6-.4 2.4s-.4 3-.6 4.4-.2 2.6-.3 3.7-.1 2.1-.2 2.9v2.7a6.3 6.3 0 1 1-12.5-.6 6.9 6.9 0 0 1 .1-.8l.5-2.7c.2-.9.3-1.9.6-3.1s.5-2.6.9-4.1.8-3.1 1.3-4.8l.8-2.6.9-2.7c.7-1.8 1.4-3.7 2.3-5.5l.6-1.4.7-1.4.7-1.4.8-1.4a46.9 46.9 0 0 1 3.6-5.2 37.5 37.5 0 0 1 4.2-4.5 28.8 28.8 0 0 1 9.4-5.8 23.9 23.9 0 0 1 7.7-1.5h3.1a2.2 2.2 0 1 1-.5 4.8zm-42.5-4.7h-.6l-1.6.4-2.5.9-.7.3-.8.4-1.6.9-1.7 1.1-1.7 1.3-.9.7-.8.8-1.6 1.7-1.5 2-.7 1-.6 1.1-1.3 2.2-1.1 2.4c-.3.8-.7 1.6-1 2.4l-.8 2.5-.8 2.4-.6 2.5a42.3 42.3 0 0 0-1 4.7l-.6 4.3a35.4 35.4 0 0 0-.3 3.7l-.2 2.8-.2 2.5v.4a6.3 6.3 0 1 1-12.5-.8 6.9 6.9 0 0 1 .1-.8l.5-2.7.6-3.1c.3-1.2.4-2.5.9-4l1.3-4.7a51.3 51.3 0 0 1 1.8-5.2l1-2.7 1.3-2.7 1.3-2.7c.5-.9 1.1-1.8 1.6-2.7l1.7-2.6 1.9-2.4.9-1.2 1.1-1.1 2.1-2.1 2.2-1.8 1.1-.9 1.2-.7 2.2-1.4 2.2-1.1 2.1-.8 1-.4 1-.3a26.5 26.5 0 0 1 3.2-.7l2.2-.2h.8a2.2 2.2 0 1 1 .4 4.4zm621-289.7l2.2 9.4c1.4 6.1 3.4 15.1 5.8 26.6 1.2 5.7 2.5 12.1 3.9 19l4.4 22.5 4.8 25.6 5 28.4 23.3 135.3c1.1 6.1 2 12.8 3.6 17.8a63.3 63.3 0 0 0 7.2 15.7 65.1 65.1 0 0 0 25.9 23.4l4.1 1.9 1.1.4 1 .4 2 .7a45.4 45.4 0 0 0 8.4 1.7l4.3.3h4.6l10-.3 40.1-1.4 39.4-1.2 2.5-.3 1.2-.2.9-.2 1.9-.4 1.9-.6a21.7 21.7 0 0 0 6.5-3.5 17 17 0 0 0 4.3-5.4c.2-.6.6-1.1.7-1.7l.6-1.8a30.4 30.4 0 0 0 .8-3.9 37.8 37.8 0 0 0 .4-4.1v-2.1s0-1.4-.1-2.2l-.2-2.2v-.3a.3.3 0 1 1 0-.1v-1.6l-.2-.8-.2-.9c-.1-.6-.4-1.3-.6-1.9-1.7-5-4.7-9.3-8.4-11.7a17.3 17.3 0 0 0-6.4-2.3l-1.8-.2-2.6-.2h-1.2l-1.5-.2-2.9-.5a39.5 39.5 0 0 1-10.9-4.2 30.1 30.1 0 0 1-9.1-8 34 34 0 0 1-5.3-10.4 47.2 47.2 0 0 1-1.9-10.7c-.1-.9-.1-1.7-.1-2.6v-7.2l.2-9.1.8-35.4.2-8.6v-4.6l.3-4.2.3-4.2c.1-1.4.2-2.7.4-4.2l1-8.4a250.4 250.4 0 0 1 6.4-31.5 277 277 0 0 1 9.1-28l2.7-6.4c.9-2.1 1.7-4.2 2.7-6.2l2.8-5.9c.9-1.9 1.8-3.9 2.8-5.7l2.9-5.4 1.4-2.6 1.5-2.5 2.9-4.9c.9-1.6 1.8-3.2 2.8-4.7l5.6-8.7 5.4-7.7 2.6-3.5 2.5-3.2c1.6-2.1 3.1-4.1 4.6-5.8l4.1-4.9 3.5-4 6.6-7.1a2.2 2.2 0 0 1 3.4 2.8l-5.6 7.8c-3.6 5.1-8.8 12.6-14.9 22.5l-4.7 7.8-4.8 8.8c-.9 1.5-1.7 3.1-2.5 4.7l-2.5 4.9-1.3 2.5-1.2 2.6-2.5 5.4a290.9 290.9 0 0 0-17.7 50.6l-.9 3.6-.4 1.8-.4 1.8-1.5 7.4-.4 1.9-.3 1.9-.6 3.8-.6 3.9-.3 1.9-.2 1.9-.9 7.8c-.2 1.3-.2 2.7-.3 4.1l-.3 4.2-.3 4.2v12.5l-.5 35.4v15.8s0 1.4.1 2a33.7 33.7 0 0 0 1.4 7.5 20.3 20.3 0 0 0 3.2 6.2c2.7 3.6 6.9 5.8 12 6.9l1.8.3.9.2h1.2l2.2.2 3 .3a31.3 31.3 0 0 1 11.7 4.2 31.8 31.8 0 0 1 9 8.5 40.3 40.3 0 0 1 5.4 10.5c.3.9.6 1.8.8 2.8l.4 1.4.3 1.6v2.9l.2 2.7c.1.9.1 1.8.1 2.8s.1 1.8 0 2.8a52 52 0 0 1-.5 5.7 44.4 44.4 0 0 1-1.2 5.8l-1 2.9c-.3 1-.8 1.9-1.3 2.9a31.3 31.3 0 0 1-7.9 10.1 35.8 35.8 0 0 1-10.9 6l-2.8.9-3 .7-1.5.3-1.3.2-2.5.3h-5.7l-5 .2-10 .4-20.1.7-40.1 1.3-10 .3h-5.4l-5.6-.4a59.7 59.7 0 0 1-11-2.3l-2.7-.9-1.4-.5-1.2-.5-4.9-2.3a79.2 79.2 0 0 1-31.4-28.6 77.2 77.2 0 0 1-8.7-19.2l-.7-2.6-.3-1.3c-.1-.4-.2-.9-.3-1.3l-.5-2.3-.2-1.2v-1.4l-1.5-9.3-22-135.6-4.5-28.5-3.8-25.7-3.2-22.7c-1-7-1.8-13.4-2.5-19.3-1.5-11.6-2.5-20.8-3.2-27.1l-1-9.6a2.2 2.2 0 0 1 3.8-.6z"></path><path fill="#31323d" d="M1783.2 2307.4h3.2a34.8 34.8 0 0 1 8 1.7 33.5 33.5 0 0 1 5.1 2.1 34.2 34.2 0 0 1 5.3 3.3 37.9 37.9 0 0 1 5 4.5c.7.9 1.5 1.7 2.2 2.7l1 1.4 1 1.5a46.8 46.8 0 0 1 3.3 6.1 56.5 56.5 0 0 1 2.4 6.2c.4 1 .6 2 .9 3s.5 2 .7 2.9l.6 2.8.4 2.6c.3 1.7.4 3.2.6 4.6s.3 2.5.3 3.5l.2 3.1a6.3 6.3 0 0 1-12.5.8 6.4 6.4 0 0 1 0-.7v-.3l.2-2.7c.1-.9.1-1.9.1-3.1s.1-2.6 0-4v-2.3l-.2-2.4c-.1-.8-.2-1.7-.3-2.5s-.2-1.8-.4-2.6a47.1 47.1 0 0 0-1.3-5.3 38.1 38.1 0 0 0-2.1-5.2l-.6-1.3-.7-1.2c-.4-.8-1-1.6-1.5-2.3a30.5 30.5 0 0 0-3.5-4.1 29.3 29.3 0 0 0-8-5.5 29.5 29.5 0 0 0-6.6-2.2l-1.9-.3h-.7a2.2 2.2 0 0 1-.2-4.8zm50.6-3.2h3.2a34.8 34.8 0 0 1 8 1.7 33.5 33.5 0 0 1 5.1 2.1 34.2 34.2 0 0 1 5.3 3.3 37.9 37.9 0 0 1 5 4.5c.7.9 1.5 1.7 2.2 2.7l1 1.4 1 1.5a46.8 46.8 0 0 1 3.3 6.1 56.6 56.6 0 0 1 2.4 6.2c.4 1 .6 2 .9 3s.5 2 .7 2.9l.6 2.8.4 2.6c.3 1.7.4 3.2.6 4.6s.3 2.5.3 3.5l.2 3.1a6.3 6.3 0 1 1-12.5.1v-.3l.2-2.7c.1-.9.1-1.9.1-3.1s.1-2.6 0-4v-2.3l-.2-2.4c-.1-.8-.2-1.7-.3-2.5s-.2-1.8-.4-2.6a47.1 47.1 0 0 0-1.3-5.3 38 38 0 0 0-2.1-5.2l-.6-1.3-.7-1.2c-.4-.8-1-1.6-1.5-2.3a30.5 30.5 0 0 0-3.5-4.1 29.3 29.3 0 0 0-8-5.5 29.5 29.5 0 0 0-6.6-2.2l-1.9-.3h-.7a2.2 2.2 0 0 1-.2-4.8z"></path><path fill="none" stroke="#31323d" stroke-width="12" stroke-miterlimit="10" d="M1206.2 862.9c-41.5-34.1-105.9-77.5-130.8-42.6a15 15 0 0 0-.9 16l60.5 108.1m472-90.4c24.5-19.2 89.4-68.2 129.3-66.3a15 15 0 0 1 12.1 22.9L1684 914.8" stroke-linecap="round"></path><path fill="#31323d" d="M1067.4 1534.9l-2.7 1.9-1.4.9-1.5.9-3 1.8-3.1 1.5-1.5.8-1.6.7-3.2 1.3c-2.2.7-4.4 1.5-6.6 2.1s-4.5 1.1-6.8 1.6-4.6.7-6.9.9-4.6.3-6.9.4h-3.5l-3.5-.2-3.5-.3-3.4-.4-3.4-.5-3.4-.6-6.8-1.5-6.7-1.9-6.5-2.3-6.4-2.6-6.3-2.9-3.1-1.6-1.6-.9-1.7-1a6.6 6.6 0 0 1 4.9-12l.8.2 1.8.4 1.9.2h1.9l2-.3 2.1-.5 2.1-.7 2.1-.8 2.1-1c1.4-.7 2.8-1.5 4.2-2.4l2.1-1.3 2-1.5 2-1.5 2-1.6 3.9-3.4a162.3 162.3 0 0 0 14.4-15.1q3.4-4 6.6-8.2l3.1-4.2 3-4.2 10.4 8a92.3 92.3 0 0 1-6.8 6.8 74.5 74.5 0 0 1-7.7 6 68.2 68.2 0 0 1-8.5 5 62.7 62.7 0 0 1-9.3 3.7 63.4 63.4 0 0 1-19.6 2.7 77.4 77.4 0 0 1-19.2-2.9 103.2 103.2 0 0 1-17.8-6.8 138.8 138.8 0 0 1-16.2-9.4 171.9 171.9 0 0 1-14.8-11.2c-2.4-2-4.7-4-6.9-6.1l-3.4-3.2-1.7-1.7-1.7-1.8a6.5 6.5 0 0 1 4.4-10.9h.4l5.5-.3 5.5-.7 1.4-.2 1.4-.3 2.7-.6 2.7-.6 2.7-.8 2.7-.8 2.7-.9 2.7-1 2.7-1 5.3-2.2 5.2-2.5 1.3-.6 1.3-.7 2.6-1.4 2.6-1.4 2.5-1.5 5-3 4.9-3.1c3.2-2.2 6.5-4.3 9.7-6.7s6.3-4.7 9.4-7.1 6.2-4.9 9.2-7.5 6-5.1 9-7.7l4.4-4 4.3-4.1 8.5-8.3 4.2-4.2 4.1-4.3 8.1-8.7 7.9-8.9c2.6-3 5.2-6 7.6-9l.2-.2a6.5 6.5 0 1 1 10.1 8.1v.2l-2.5 2.9-1.3 1.5-1.4 1.4-2.8 2.7-3 2.5a34 34 0 0 1-3.2 2.3 35.7 35.7 0 0 1-3.3 2.1l-3.4 1.9-3.6 1.6-.9.4-.9.3-1.8.6-1.9.6-1.9.5-1.9.5-1.9.4-3.8.7-3.8.4-3.8.2h-7.6l-3.8-.3-3.7-.4c-2.5-.4-4.9-.8-7.3-1.3l-3.6-.8-3.6-.9-7-2.2a143.6 143.6 0 0 1-13.6-5.4l-6.6-3.2-3.2-1.7-1.6-.9-1.7-1a6.4 6.4 0 0 1 2.7-11.8h.1a40.4 40.4 0 0 0 16.2-5.8 81.9 81.9 0 0 0 14.6-11.4c9.1-8.8 17.1-19.2 24.4-30q2.7-4.1 5.3-8.3l1.3-2.1 1.2-2 2.6-4.3c1.8-2.9 3.2-5.7 4.9-8.6l4.6-8.7a371.5 371.5 0 0 0 16-36 376 376 0 0 0 12.1-37.6c.9-3.2 1.6-6.4 2.4-9.6s1.5-6.4 2.1-9.6c1.3-6.4 2.6-13 3.8-19.6l15-78.9 7.5-39.4.2-1.2v-1.4l.4-2.5.7-5c.6-3.4 1.3-6.8 1.9-10.2s1.5-6.7 2.3-10l1.3-5 .7-2.5.7-2.5a249.6 249.6 0 0 1 15-38.3 242.3 242.3 0 0 1 21.2-35.3A248.6 248.6 0 0 1 1167 894a253.3 253.3 0 0 1 31.5-26.4 241.8 241.8 0 0 1 35.5-20.9 250.4 250.4 0 0 1 38.4-14.7 6.2 6.2 0 1 1 3.5 12 237.9 237.9 0 0 0-36.5 14 229.3 229.3 0 0 0-33.7 19.8 240.8 240.8 0 0 0-29.9 25.1 236 236 0 0 0-25.3 29.7 228.7 228.7 0 0 0-20.1 33.5 237 237 0 0 0-14.2 36.4l-.7 2.3-.6 2.4-1.3 4.7c-.8 3.2-1.5 6.3-2.2 9.5s-1.2 6.3-1.8 9.5l-.7 5-.4 2.5v1.5l-.2 1.2-7.5 39.4-15 78.9c-1.3 6.6-2.5 13.1-3.8 19.8-.7 3.3-1.5 6.6-2.2 10s-1.6 6.6-2.5 9.9a388.7 388.7 0 0 1-12.5 38.9 384.3 384.3 0 0 1-16.6 37.3l-4.8 9c-1.7 3-3.3 6.1-5 8.9l-2.5 4.3-1.4 2.2-1.3 2.2q-2.7 4.3-5.6 8.6c-7.6 11.3-16 22.3-26.2 32.1a94.5 94.5 0 0 1-17 13.2 53.2 53.2 0 0 1-21.4 7.5l2.8-11.8 1.3.8 1.4.8 2.9 1.6 6 2.9a130.8 130.8 0 0 0 12.4 4.9l6.3 2 3.2.8 3.2.7 6.4 1.1 3.2.4 3.2.2h6.4l3.2-.2 3.1-.3 3.1-.6 1.5-.3 1.5-.4 1.5-.4 1.5-.5 1.5-.5.7-.3.7-.3 2.8-1.2 2.7-1.5a25.1 25.1 0 0 0 2.6-1.6 23.8 23.8 0 0 0 2.5-1.8l2.4-1.9 2.2-2.2 1.1-1.1 1-1.2 2-2.4 10.1 8c-2.7 3.3-5.3 6.3-7.9 9.4l-8.1 9.1-8.3 8.9-4.3 4.4-4.3 4.3-8.8 8.5-4.5 4.2-4.5 4.1c-3.1 2.7-6.1 5.4-9.3 8s-6.3 5.2-9.5 7.7-6.5 5-9.9 7.4-6.7 4.7-10.2 7l-5.2 3.3-5.3 3.2-2.7 1.6-2.7 1.5-2.7 1.5-1.4.7-1.4.7-5.6 2.7-5.8 2.5-2.9 1.1-3 1.1-3 1-3.1.9-3.1.9-3.1.7-3.1.7-1.6.3-1.6.2c-2.1.3-4.3.7-6.4.9l-6.5.4 4.7-10.9 1.4 1.4 1.5 1.5 3.1 3c2.1 1.9 4.2 3.8 6.4 5.7a158.8 158.8 0 0 0 13.7 10.3 125.7 125.7 0 0 0 14.7 8.5 90.2 90.2 0 0 0 15.5 6 64.3 64.3 0 0 0 15.9 2.4 50.2 50.2 0 0 0 15.6-2.2 49.5 49.5 0 0 0 7.3-2.9 55.1 55.1 0 0 0 6.9-4 61.4 61.4 0 0 0 6.3-5 79.3 79.3 0 0 0 5.8-5.8h.1a6.6 6.6 0 0 1 10.3 8.2l-3.3 4.7-3.3 4.5q-3.4 4.5-7 8.7a175.3 175.3 0 0 1-15.6 16.4l-4.3 3.8-2.3 1.8-2.3 1.8-2.4 1.7-2.5 1.6c-1.7 1-3.4 2.1-5.3 3l-2.8 1.3-2.9 1.2-3.1 1-3.2.7-3.4.4h-3.5l-3.5-.4-3.5-.8 5.7-11.8 1.1.8 1.3.8 2.6 1.6 5.5 3.1 5.7 2.8 5.8 2.5 5.9 2.2 6 1.9 3.1.8 3.1.7 3.1.6 3.1.5 3.1.4 3.1.3c2.1.1 4.2.2 6.3.1l6.3-.3s4.2-.5 6.2-.9 4.1-.9 6.1-1.4l3-1 1.5-.5 1.5-.6 2.9-1.2 2.8-1.4 1.4-.7 1.4-.8 2.9-1.6a2.5 2.5 0 0 1 2.3 4.5zm488.4-706l4.9 1.2 2.5.6 2.5.7 5.1 1.5 5 1.6c6.6 2.1 13.1 4.6 19.6 7.3a250.6 250.6 0 0 1 36.9 19.4 246.7 246.7 0 0 1 33.1 25.3l3.8 3.5 3.7 3.6c2.5 2.4 4.9 5 7.3 7.5 4.7 5.1 9.3 10.4 13.5 15.9s8.3 11.2 12.2 16.9 7.4 11.8 10.7 17.9 6.3 12.4 9.2 18.8 5.3 12.9 7.5 19.5c.5 1.7 1.1 3.3 1.6 5l1.5 5 2.9 9.7 5.8 19.5 11.7 39 23.3 78 5.8 19.4 1.5 4.9.8 2.4.8 2.3 1.6 4.7 1.7 4.7c2.2 6.3 4.8 12.4 7.4 18.6s5.5 12.2 8.5 18.1a328.1 328.1 0 0 0 44.2 66.2c8.7 10 18 19.4 28.3 27.1a81.3 81.3 0 0 0 16.2 9.5 40.5 40.5 0 0 0 17 3.6 6.6 6.6 0 0 1 4.5 11.8l-1.5 1.2-1.5 1.1-3 2.2-6.1 4.1a143.9 143.9 0 0 1-12.7 7.2l-6.7 3.1-3.4 1.4-3.5 1.3c-2.3.9-4.7 1.6-7.1 2.3l-3.6.9-3.7.8-3.7.6-1.9.3-1.9.2-3.8.3h-3.9l-3.9-.2-1.9-.2-1.9-.2-1.9-.2-1.9-.4-1.9-.4-1-.2-.9-.3-3.8-1.1-3.7-1.4a35.9 35.9 0 0 1-3.6-1.6 34.2 34.2 0 0 1-3.5-1.9l-3.4-2.1-3.2-2.3-1.6-1.2-1.5-1.3-2.9-2.6a6.7 6.7 0 0 1 8.9-10.1h.1l.3.2c2.8 2.6 5.8 5.3 8.7 7.9l9 7.7 9.2 7.5 4.7 3.7 4.7 3.6 9.6 7 4.8 3.4 4.9 3.3c3.3 2.2 6.6 4.4 9.9 6.5s6.7 4.1 10.1 6.2 6.8 3.9 10.3 5.7 7 3.6 10.5 5.3l5.3 2.4 5.4 2.3 2.7 1.1 2.7 1 2.7 1 1.4.5 1.4.4 5.5 1.8 5.5 1.5 2.8.7 2.8.6 2.8.6 2.8.4 2.8.4 2.8.3 2.8.2h8.3l5.5-.4h.4a6.6 6.6 0 0 1 5.9 10.4l-1.4 2-1.4 1.9-2.9 3.6c-2 2.4-4 4.7-6.1 7a172 172 0 0 1-13.2 13 138.7 138.7 0 0 1-14.9 12.4 103.2 103.2 0 0 1-16.7 9.1 77.3 77.3 0 0 1-18.7 5.4 63.2 63.2 0 0 1-19.8-.1 62.4 62.4 0 0 1-9.6-2.4 68 68 0 0 1-9.1-3.8 74.2 74.2 0 0 1-8.4-5 92.1 92.1 0 0 1-7.6-5.8l8.8-8.9 3.5 3.8 3.7 3.8q3.7 3.7 7.6 7.3a163.8 163.8 0 0 0 16.2 13.2l4.3 2.9 2.2 1.3 2.2 1.3 2.2 1.2 2.2 1.1c1.5.7 3 1.4 4.5 1.9l2.3.8 2.2.6 2.2.4 2.2.2h2.1l2-.2 1.9-.4 1.8-.7.7-.2a5.6 5.6 0 0 1 5.4 9.5l-2.8 2.3-2.8 2.1c-1.9 1.4-3.8 2.6-5.7 3.8l-5.9 3.5-6.1 3.2-6.3 2.9-6.4 2.5-3.3 1.1-3.3 1-3.4.9-3.4.8-3.4.7-3.4.5c-2.3.3-4.6.5-6.9.6s-4.6.1-7 .1-4.6-.2-6.9-.6-4.6-.8-6.8-1.2l-3.4-.9-1.7-.4-1.6-.6-3.3-1.1-3.2-1.3-1.6-.7-1.5-.8-3.1-1.6a2.5 2.5 0 0 1 2-4.6h.2l3 1.2 1.5.6 1.5.5 3 1 3.1.8 1.5.4 1.6.3 3.1.6c2.1.2 4.2.5 6.3.6s4.2.1 6.3.1 4.2-.2 6.3-.5 4.2-.6 6.2-.9l3.1-.7 3.1-.8 3-.9 3-1 3-1.1 2.9-1.2 2.9-1.3 2.9-1.3 5.6-2.9 5.5-3.2 5.3-3.5 5.1-3.7 2.5-1.9 2.3-1.9 6.1 9.3-3.2 1.3-3.3.9-3.4.4h-3.3l-3.2-.3-3.1-.5-3-.7-2.9-.9a57.6 57.6 0 0 1-5.6-2.2l-2.7-1.3-2.6-1.4-2.5-1.4-2.5-1.5-4.8-3.1a174.2 174.2 0 0 1-17.7-14q-4.2-3.7-8.1-7.7l-3.9-4-3.9-4.2a6.3 6.3 0 0 1 8.7-9.1h.1a79.4 79.4 0 0 0 6.6 5 61.6 61.6 0 0 0 7 4.1 55.3 55.3 0 0 0 7.4 3.1 49.7 49.7 0 0 0 7.7 1.9 50.4 50.4 0 0 0 15.8 0 64.5 64.5 0 0 0 15.5-4.6 90.3 90.3 0 0 0 14.5-8 125.8 125.8 0 0 0 13.4-10.4 158.9 158.9 0 0 0 12.1-12.1c1.9-2.1 3.8-4.3 5.6-6.5l2.6-3.3 1.3-1.7 1.2-1.6 6.3 10.3-6.5.5h-9.7l-3.2-.3-3.2-.3-3.2-.5-3.2-.5-3.1-.6-3.1-.7-3.1-.7-6.1-1.6-6-1.9-1.5-.5-1.5-.5-2.9-1.1-2.9-1.1-2.9-1.2-5.7-2.4-5.6-2.6c-3.7-1.8-7.4-3.6-11-5.6l-10.8-6s-7-4.2-10.5-6.4-6.9-4.4-10.3-6.7l-5.1-3.5-5-3.5-9.8-7.3-4.9-3.7-4.8-3.8-9.5-7.7-9.3-7.9c-3.1-2.7-6.1-5.4-9.1-8.3l9.3-9.7 2.3 2.1 1.2 1 1.2.9 2.5 1.8 2.6 1.6a23.5 23.5 0 0 0 2.7 1.4 24.9 24.9 0 0 0 2.8 1.3l2.8 1.1 2.9.8.7.2.7.2 1.5.3 1.5.3 1.5.2 1.5.2h7.8l3.1-.2h1.6l1.6-.2 3.1-.5 3.1-.7 3.1-.8 6.2-2 3.1-1.2 3-1.2 6-2.8a130.5 130.5 0 0 0 11.6-6.5l5.5-3.7 2.7-1.9 1.3-1 1.2-.9 4.5 11.8a53.7 53.7 0 0 1-22.6-4.7 94.3 94.3 0 0 1-18.8-11.1c-11.5-8.6-21.3-18.6-30.4-29.1a341.4 341.4 0 0 1-45.8-69c-3.1-6.2-6-12.5-8.8-18.8s-5.3-12.8-7.6-19.3l-1.8-4.9-1.7-5-.8-2.5-.8-2.4-1.5-4.9-5.2-19.4-23.2-78-11.6-39-5.8-19.5-2.9-9.8-1.4-4.7c-.5-1.6-1-3.1-1.6-4.7-2.1-6.3-4.5-12.4-7.1-18.5s-5.5-12-8.7-17.8-6.6-11.5-10.1-17-7.5-10.9-11.6-16.1-8.4-10.2-12.9-15.1c-2.3-2.4-4.5-4.8-6.9-7.1l-3.5-3.5-3.7-3.4a234.2 234.2 0 0 0-31.5-24.1 238.1 238.1 0 0 0-35.1-18.4c-6.1-2.5-12.3-4.9-18.6-6.9l-4.7-1.5-4.7-1.4-2.4-.7-2.5-.6-4.9-1.2a6.2 6.2 0 0 1 3.2-12.1z"></path><path fill="#31323d" d="M1291 865l-5.4-7.8c-1.7-2.5-3.9-5.5-6.6-9s-5.7-7.4-9.4-11.5c-1.8-2-3.8-4.1-6-6.2l-.4-.4-.7-.8-.4-.4-.2-.2h-.1l-.2-.2-1.3-1.9c-.4-.6-.6-1.2-.9-1.8a16.1 16.1 0 0 1-1.1-8.1 16.7 16.7 0 0 1 3.1-7.8 16.3 16.3 0 0 1 7-5.4l2.2-.7 2.2-.4 3-.3 6.1-.5a163.1 163.1 0 0 1 26.7.5 116.9 116.9 0 0 1 14.5 2.5 85.7 85.7 0 0 1 14.9 5.2l3.7 1.9a34.8 34.8 0 0 1 3.6 2.2 34.2 34.2 0 0 1 3.5 2.5l1.7 1.4.9.7.4.3-.2-.2a5.5 5.5 0 0 0-1.1-.7 5.4 5.4 0 0 0-7.1 2.9 5.5 5.5 0 0 0-.4 2.2 5.4 5.4 0 0 0 .1 1l-.2-.9-.9-3.9c-.6-2.6-1.2-5.3-1.7-8-1.1-5.4-1.9-11-2.5-16.7q-.4-4.3-.6-8.8v-4.6s.1-3.1.3-4.7a43.5 43.5 0 0 1 .8-4.9c.2-.8.3-1.7.6-2.5l.9-2.6v-.3l.2-.5.2-.5.2-.5.3-.5.6-1 .3-.5.4-.5.4-.5.5-.5.6-.5.7-.5 1.6-.9a9.4 9.4 0 0 1 3.8-.8h1.8l1.5.4a13.2 13.2 0 0 1 3.9 2.1 25.6 25.6 0 0 1 4.2 4.2c1.1 1.4 2.1 2.7 3 4.1s3.4 5.4 4.9 8.2c3 5.5 5.6 11.1 8.1 16.7q1.9 4.3 3.7 8.6l.9 2.2.4 1.1-.3-.6a6 6 0 0 0-1.1-1.4 5.8 5.8 0 0 0-9.3 1.8v-.3l.9-2.2q7.4-17.2 15.7-34.6c5.6-11.6 11.5-23.2 18.2-34.7 3.3-5.7 6.9-11.5 10.9-17.1a105.1 105.1 0 0 1 6.5-8.3 46.1 46.1 0 0 1 8.6-7.9 20.1 20.1 0 0 1 7.1-3.1h3.8l1.4.2a13.7 13.7 0 0 1 4.9 2 18 18 0 0 1 5.5 6.1 32.7 32.7 0 0 1 2.6 5.8 67 67 0 0 1 2.6 10.8c.6 3.5 1 7 1.3 10.4a336.2 336.2 0 0 1 .6 40.4q-.4 10-1.1 19.9v-.3s.1.4-.1-.8a5.9 5.9 0 0 0-.6-1.8 6 6 0 0 0-.9-1.3 5.8 5.8 0 0 0-5.2-1.8 6 6 0 0 0-2.8 1.2 5.9 5.9 0 0 0-1.8 2.3l.3-.9 1.8-4.6 3.7-9.2c5-12.2 10.3-24.1 16.4-35.7a139.7 139.7 0 0 1 10.4-17.1c1-1.4 2.1-2.8 3.4-4.2a33.1 33.1 0 0 1 4.3-4.1 19.3 19.3 0 0 1 3.1-2 13.6 13.6 0 0 1 4.5-1.4 11.5 11.5 0 0 1 5.9.8l1.1.5h.3l.8.5 1.3 1.1.9.9a15.4 15.4 0 0 1 2.3 3.5 21.9 21.9 0 0 1 1.3 3.2 35.2 35.2 0 0 1 1.2 5.7 72.1 72.1 0 0 1 .5 10.1 174.6 174.6 0 0 1-1.5 18.8c-1.5 12.1-3.7 23.7-6.1 35q-1.8 8.4-3.7 16.5l-1 4-.5 2-.2 1v.2c-.1.3 0 0 .1-.8a5.1 5.1 0 0 0-.2-1.3 5.3 5.3 0 0 0-.4-1.1 5.4 5.4 0 0 0-5.5-2.9 5.5 5.5 0 0 0-2.1.7l-.3.2.2-.2.8-.6 3.3-2.4a286.8 286.8 0 0 1 26.6-17.1c4.5-2.5 8.9-4.8 13.3-6.9l6.7-3 3.4-1.3 3.4-1.3 3.4-1.2 3.4-1 1.7-.5.8-.2h5.1l1.3.2a16.2 16.2 0 0 1 9.1 4.4 16.8 16.8 0 0 1 4.7 8.4 15.8 15.8 0 0 1-.8 9.4 12.7 12.7 0 0 1-1 2.1l-.5.9-.4.6-1.6 2.4-5.8 9c-3.7 5.8-7 11.2-9.9 16-5.8 9.8-9.9 17.7-12.6 23.2l-1.7 3.6-1.2 2.7-1 2.2a2.5 2.5 0 0 1-4.7-1.6l.5-2.4c.3-1.6.9-4 1.8-7 .5-1.5.9-3.2 1.6-5l1-2.9 1.2-3.1c1.7-4.3 3.7-9.1 6.2-14.4s5.5-11.1 9-17.2c1.7-3.1 3.6-6.2 5.6-9.5l1.5-2.4.4-.6v-.3a2.1 2.1 0 0 0 .2-.6 3.8 3.8 0 0 0 .1-2.2 4.3 4.3 0 0 0-1.3-2.1 3.8 3.8 0 0 0-2.1-1h-1.6l-.7.2-1.5.4-3 .9-3 1.1-3 1.2-3 1.2-6.1 2.8c-4.1 1.9-8.3 4.2-12.5 6.6a273.9 273.9 0 0 0-25.2 16.5l-3.1 2.3-.8.6-.2.2-.7.5a7.8 7.8 0 0 1-11.1-3.2 7.9 7.9 0 0 1-.6-1.6 7.7 7.7 0 0 1-.2-1.8 7.8 7.8 0 0 1 .1-1.3l.2-.8v-.5l.2-1 .5-2 .9-4q1.8-8 3.5-16.2c2.2-11 4.3-22.4 5.6-33.9a161.5 161.5 0 0 0 1.2-17.3 58.8 58.8 0 0 0-.4-8.1 21.6 21.6 0 0 0-.7-3.4 5.5 5.5 0 0 0-.7-1.5h.1l.4.3h-.4l.6.3a2.7 2.7 0 0 0 1.3.2c.6-.1-.1 0-.8.6a29.7 29.7 0 0 0-4.9 5.5 126.8 126.8 0 0 0-9.2 15.4c-5.7 11-10.8 22.7-15.7 34.6l-3.6 9-1.7 4.5-.2.6v.3l-.2.5a8.4 8.4 0 0 1-13.8 2.4 8.3 8.3 0 0 1-1.3-1.8 8.2 8.2 0 0 1-.8-2.4 6.9 6.9 0 0 1-.1-1.4 6.7 6.7 0 0 1 0-1q.7-9.7 1-19.4a322.8 322.8 0 0 0-.7-38.6c-.3-3.1-.7-6.3-1.2-9.3a55.3 55.3 0 0 0-2-8.4 18.6 18.6 0 0 0-1.4-3.2 5 5 0 0 0-1-1.3h.9c.8-.1-1 .1-.2 0a6.7 6.7 0 0 0-1.9.9 32.7 32.7 0 0 0-5.8 5.4 91 91 0 0 0-5.6 7.2c-3.6 5-7 10.4-10.2 15.9-6.4 11-12.2 22.3-17.8 33.7s-10.7 22.7-15.6 34l-.9 2.1-.3.7a8.3 8.3 0 0 1-13.2 2.5 8.1 8.1 0 0 1-1.5-1.9l-.5-1.1-.4-1-.8-2.1-3.5-8.3c-2.4-5.5-4.8-10.8-7.5-15.8-1.3-2.5-2.7-4.9-4.2-7.1s-1.5-2.1-2.2-3a13 13 0 0 0-1.9-2c-.2-.2-.3-.2.2 0h1.1a4.4 4.4 0 0 0 1.7-.4l.6-.4.2-.2h.2l.2-.2h.1l-.2.5c-.1.1.1-.2 0 0v.2l-.5 1.5a15.4 15.4 0 0 0-.4 1.6 30.1 30.1 0 0 0-.6 3.5c-.2 1.2-.2 2.5-.3 3.7s-.1 2.6 0 3.8.2 5.2.4 7.8c.5 5.2 1.3 10.4 2.2 15.5.5 2.5 1 5.1 1.5 7.6l.9 3.7.2.9v-.7a7.8 7.8 0 0 1-.4 4.6 7.8 7.8 0 0 1-10.4 4.2 10.5 10.5 0 0 1-1.6-.9l-.6-.5-.3-.3-.6-.5-1.3-1a23.4 23.4 0 0 0-2.7-1.9 24.3 24.3 0 0 0-2.8-1.7l-2.9-1.6a72.9 72.9 0 0 0-12.5-4.4 104.1 104.1 0 0 0-12.8-2.3 150.5 150.5 0 0 0-24.5-.6l-5.7.4-2.7.2h-.6l-.5.2a4.1 4.1 0 0 0-2.5 3.2 4.3 4.3 0 0 0 .1 2l.2.4a.1.1 0 0 1 0 .2h.1l.2.2.4.5.2.2h.1l-.2-.2.4.5a87.6 87.6 0 0 1 6.2 7.4 114.8 114.8 0 0 1 13.7 24.1c1.2 2.9 2.1 5.2 2.6 6.8l.8 2.3a2.5 2.5 0 0 1-4.5 2.5z"></path><path fill="none" d="M1313.1 1432.7s-18.7 17.7-10.7 47.6c13.5-24.7 42-27.5 42-27.5s-43.9 66.7.9 112c-4.2-25.7 28-44.8 28-44.8s-13.4 65.6 42.5 91c41.1 18.7 15.9 74.2 15.9 74.2s148.4-101.7 112-168.9c0 0 45.7 11.7 44.3 48.5 0 0 59.7-79.8 13.1-146"></path><path fill="none" stroke="#31323d" stroke-width="12.5" stroke-miterlimit="10" d="M931.3 2117.4c-38.1 9.1-130.4 43.4-184.5 78.3-26.5 17.1-10.1 55.9 23.2 55.3l280.4-5.5" stroke-linecap="round"></path><path fill="#31323d" d="M840.5 2200.1l-.7.2-2 .6-3.1 1-4 1.5-4.5 2.1a49.4 49.4 0 0 0-4.7 2.8 36 36 0 0 0-4.4 3.5 26.3 26.3 0 0 0-3.7 4.2l-.8 1.1-.7 1.2a21.4 21.4 0 0 0-1.1 2.4c-.2.4-.3.8-.4 1.2a8.9 8.9 0 0 0-.3 1.2 18.1 18.1 0 0 0-.4 2.4v3.6c0 .4.1.8.1 1.2a15.6 15.6 0 0 0 .3 2.2c.2.7.3 1.4.5 2.1a36.6 36.6 0 0 0 1.2 3.6 29.8 29.8 0 0 0 1.2 2.8l1.2 2.4.2.3a6.3 6.3 0 0 1-11.3 5.5l-.3-.7-1.1-3.1c-.4-1-.7-2.2-1.1-3.7a48 48 0 0 1-1-4.9c-.1-.9-.2-1.9-.3-2.9a24.9 24.9 0 0 1-.1-3.2v-1.7l.2-1.7c.1-.6.1-1.2.2-1.7l.4-1.8a27.7 27.7 0 0 1 1-3.5 16.1 16.1 0 0 1 .7-1.7l.8-1.7a30.5 30.5 0 0 1 2-3.2l1.1-1.5 1.2-1.4a34.5 34.5 0 0 1 5.4-4.9 43.4 43.4 0 0 1 5.8-3.6 56.1 56.1 0 0 1 5.7-2.6l5.2-1.8 4.4-1.2 3.5-.7 2.3-.3h.8a2.2 2.2 0 0 1 .8 4.4h-.1zm-47.5 2h-.6l-1.7.5a38.1 38.1 0 0 0-5.9 2.5 32.6 32.6 0 0 0-3.6 2.2 29.2 29.2 0 0 0-3.5 2.9 23.5 23.5 0 0 0-2.9 3.7 18.7 18.7 0 0 0-2 4.2 21.2 21.2 0 0 0-.6 2.2c-.1.8-.3 1.5-.3 2.3a24.7 24.7 0 0 0 .1 4.6 34.5 34.5 0 0 0 .8 4.3c.4 1.4.7 2.7 1.2 3.9l.6 1.7.7 1.5.6 1.3.6 1.1 1.1 2.1v.2a6.3 6.3 0 0 1-11.2 5.6l-.3-.8-.9-2.7-.5-1.4-.5-1.7-.5-1.9c-.2-.7-.3-1.4-.5-2.2s-.6-3.3-.8-5.1a44.7 44.7 0 0 1-.2-5.9 34.2 34.2 0 0 1 .8-6.3c.2-1.1.6-2.1.9-3.2a29.7 29.7 0 0 1 1.3-3.1 26.9 26.9 0 0 1 3.6-5.6 31 31 0 0 1 4.5-4.3 35.8 35.8 0 0 1 4.8-3 38.6 38.6 0 0 1 4.6-2 43.3 43.3 0 0 1 7.1-2l2-.3h.8a2.2 2.2 0 0 1 .8 4.4h-.4z"></path><path fill="none" stroke="#31323d" stroke-width="12.5" stroke-miterlimit="10" d="M2020.7 2120.2c47.5 13.8 136.8 46.1 179.8 75.5 26.1 17.8 10.1 55.9-23.2 55.3l-261.6-5.1" stroke-linecap="round"></path><path fill="#31323d" d="M2107.6 2193.7h.8l2.3.4 3.5.8 4.5 1.4 5.2 2a58.4 58.4 0 0 1 5.6 2.8 45.8 45.8 0 0 1 5.7 3.8 36.7 36.7 0 0 1 5.3 5.1l1.2 1.5 1.1 1.6a31 31 0 0 1 1.9 3.3c.3.6.5 1.2.8 1.7s.5 1.2.7 1.8l.6 1.8.3.9.2.9a26.4 26.4 0 0 1 .6 3.5 25.1 25.1 0 0 1 .2 3.4 42.1 42.1 0 0 1-.4 6.2 50.3 50.3 0 0 1-1 5c-.4 1.5-.7 2.8-1.1 3.7l-1.1 3.2a6.3 6.3 0 0 1-11.8-4.1l.3-.7.2-.3 1.2-2.4c.4-.8.7-1.7 1.2-2.8s.8-2.3 1.2-3.7a31.5 31.5 0 0 0 .8-4.4 15.7 15.7 0 0 0 .1-2.4 16.7 16.7 0 0 0-.1-2.5v-1.2l-.2-1.3c-.1-.4-.2-.8-.4-1.3a12.8 12.8 0 0 0-.4-1.3 21.8 21.8 0 0 0-1.1-2.5l-.7-1.2-.8-1.2a28.5 28.5 0 0 0-3.7-4.4 38.4 38.4 0 0 0-4.4-3.8 51.5 51.5 0 0 0-4.7-3l-4.5-2.3a66.6 66.6 0 0 0-7.1-2.9l-2-.6-.7-.2h-.1a2.2 2.2 0 0 1 .8-4.3zm47.5 2h.8l2.1.4a44.7 44.7 0 0 1 7.1 2.4 40.4 40.4 0 0 1 4.5 2.3 38.2 38.2 0 0 1 4.7 3.3 33.1 33.1 0 0 1 4.4 4.5 30 30 0 0 1 4.8 8.8c.4 1.1.6 2.2.9 3.2s.4 2.2.6 3.3.3 2.2.2 3.2.1 2.1 0 3.1l-.2 2.9c-.3 1.8-.5 3.6-.8 5.2l-.5 2.3-.6 2-.5 1.8-.5 1.4-.9 2.7a6.3 6.3 0 0 1-11.8-4.1l.3-.7v-.3l1.1-2.2.6-1.2.6-1.4.7-1.6.6-1.7c.5-1.2.8-2.6 1.2-4l.4-2.2c.2-.7.2-1.5.3-2.3s.1-1.5.1-2.3-.1-1.6-.1-2.4-.2-1.6-.3-2.4a20.2 20.2 0 0 0-.6-2.3 20.6 20.6 0 0 0-2-4.4 25.7 25.7 0 0 0-2.9-3.9 31.5 31.5 0 0 0-3.5-3.2 34.4 34.4 0 0 0-3.6-2.4 39.4 39.4 0 0 0-5.9-2.9l-1.7-.6-.6-.2h-.1a2.2 2.2 0 0 1 1.1-4.1z"></path></g></g><g id="eye"><defs><linearGradient id="eyeColor1" x2="0%" y2="100%"><stop offset="0%" stop-color="#828282"></stop></linearGradient><linearGradient id="eyeColor2" x2="0%" y2="100%"><stop offset="0%" stop-color="#828282"></stop></linearGradient></defs><defs><clipPath id="eyeClipPath"><circle cx="1696" cy="1101.3" r="129.7" transform="rotate(-82.5 1695.15228554 1101.41325556)" fill="#fff" stroke="#31323d" stroke-linecap="round" stroke-miterlimit="10" stroke-width="10"></circle></clipPath><clipPath id="eyeClipPath2"><circle cx="1168.9" cy="1127" r="129.7" transform="rotate(-7.5 1174.5997126 1131.94800874)" fill="#fff" stroke="#31323d" stroke-linecap="round" stroke-miterlimit="10" stroke-width="10"></circle></clipPath></defs><circle cx="1696" cy="1101.3" r="129.7" transform="rotate(-82.5 1695.15228554 1101.41325556)" fill="#fff"></circle><g clip-path="url(#eyeClipPath)"><circle cx="1663.5" cy="1122.6" r="105.2" transform="rotate(-7.5 1671.3781873 1126.9682321)" fill="url(#eyeColor1)"></circle><circle cx="1667.8" cy="1124.1" r="77.6" transform="rotate(-7.5 1675.09245022 1128.74393727)" fill="#31323d"></circle><circle cx="1694.3" cy="1057.6" r="42.2" transform="matrix(.99 -.13 .13 .99 -124.02 231.23)" fill="#fff"></circle></g><circle cx="1696" cy="1101.3" r="129.7" transform="rotate(-82.5 1695.15228554 1101.41325556)" fill="none" stroke="#31323d" stroke-linecap="round" stroke-miterlimit="10" stroke-width="10"></circle><path d="M1728.2 951.5c-62.3 16.7-116 45.1-158.5 90.1" fill="none" stroke="#31323d" stroke-linecap="round" stroke-miterlimit="10" stroke-width="30"></path><circle cx="1168.9" cy="1127" r="129.7" transform="rotate(-7.5 1174.5997126 1131.94800874)" fill="#fff"></circle><g clip-path="url(#eyeClipPath2)"><circle cx="1207.4" cy="1154.2" r="87.6" transform="rotate(-7.5 1212.66804698 1158.95929144)" fill="url(#eyeColor2)"></circle><circle cx="1211" cy="1155.4" r="64.7" transform="rotate(-7.5 1216.4323099 1159.97214402)" fill="#31323d"></circle><circle cx="1233.1" cy="1100" r="35.2" transform="rotate(-7.5 1238.44077193 1104.72105278)" fill="#fff"></circle></g><circle cx="1168.9" cy="1127" r="129.7" transform="rotate(-7.5 1174.5997126 1131.94800874)" fill="none" stroke="#31323d" stroke-linecap="round" stroke-miterlimit="10" stroke-width="10"></circle><path d="M1819.9 1139.5a129.8 129.8 0 0 1-234.8 29.5 522.5 522.5 0 0 0 234.8-29.5z" fill="#afb4d5"></path><path d="M1819.9 1139.5a129.8 129.8 0 0 1-117.4 91.4c-49.2 2.5-92.4-22.7-116.4-62a513.2 513.2 0 0 0 107.2 0 523.4 523.4 0 0 0 126.6-29.4z" fill="none" stroke="#31323d" stroke-linecap="round" stroke-miterlimit="10" stroke-width="10"></path><path d="M1044.2 1165.2a129.8 129.8 0 0 0 234.8 29.5 522.5 522.5 0 0 1-234.8-29.5z" fill="#afb4d5"></path><path d="M1044.2 1165.2a129.8 129.8 0 0 0 234.8 29.5 522.5 522.5 0 0 1-234.8-29.5z" fill="none" stroke="#31323d" stroke-linecap="round" stroke-miterlimit="10" stroke-width="10"></path><path d="M1109.5 988.5c56.7 0 143.7 34 184.9 70.4" fill="none" stroke="#31323d" stroke-linecap="round" stroke-miterlimit="10" stroke-width="30"></path></g><g id="mouth"><path d="M1447.7,1246.4l1.6,2.5c1.1,1.7,2.8,4.1,4.9,7.2,4.4,6.2,10.9,14.9,19.4,24.8,4.2,4.9,9,10.2,14.2,15.5s10.9,10.8,17.1,16a204.3,204.3,0,0,0,19.8,15.1,151.6,151.6,0,0,0,22.3,12.5,115.9,115.9,0,0,0,11.9,4.6,100.2,100.2,0,0,0,12.2,3.2,86.4,86.4,0,0,0,24.4,1.2,85.4,85.4,0,0,0,22.4-5.2,98,98,0,0,0,18.5-9.5,121.3,121.3,0,0,0,14.2-10.7l2.9-2.5,2.6-2.5,2.4-2.3,2.1-2.2,3.5-3.7,2.5-2.8,2.1-2.4h0a1.8,1.8,0,0,1,2.7,2.3l-2,2.5-2.4,3-3.4,3.9-2.1,2.3-2.4,2.4-2.6,2.7-2.9,2.7a126.2,126.2,0,0,1-14.3,11.7,103.7,103.7,0,0,1-19.2,10.8,92.1,92.1,0,0,1-23.9,6.6,94,94,0,0,1-26.6-.3,108.6,108.6,0,0,1-13.4-2.9,124.9,124.9,0,0,1-13-4.4,161.3,161.3,0,0,1-24.3-12.3,215.1,215.1,0,0,1-21.5-15c-6.7-5.3-12.8-10.7-18.5-16s-10.8-10.6-15.4-15.5c-9.2-9.9-16.3-18.7-21.2-25-2.4-3.1-4.3-5.7-5.5-7.4l-1.4-2-0.5-.7a7.5,7.5,0,0,1,12.4-8.5v0.2h0.1Z" fill="#31323d"></path><path d="M1236.3,1330.2l2.4,1.9c1.6,1.2,3.9,2.9,7.1,4.9s7,4.4,11.5,6.8a137.3,137.3,0,0,0,15.7,7.1,116,116,0,0,0,19.4,5.5,98.3,98.3,0,0,0,22.2,1.8,88.9,88.9,0,0,0,11.6-1.2l2.9-.6,2.9-.7,2.9-.7,2.9-.9a86.8,86.8,0,0,0,11.2-4.5c1.9-.8,3.6-1.8,5.4-2.8l2.6-1.5,2.6-1.6a123.8,123.8,0,0,0,19-15.3,156.9,156.9,0,0,0,15.7-18c4.7-6.2,8.8-12.5,12.6-18.6s7-12.1,9.8-17.7l2.1-4.1,1.9-4,1.8-3.8,1.6-3.6c2.1-4.7,3.8-8.8,5.2-12.2,0.8-1.7,1.2-3.3,1.9-4.5a14.5,14.5,0,0,1,2.1-3.1,11.5,11.5,0,0,1,1.9-1.7l0.8-.5h0.1a6.5,6.5,0,0,1,8.8,2.8l0.4,0.9a6.2,6.2,0,0,1,.2.9,11.5,11.5,0,0,1,.1,2.6,15.2,15.2,0,0,1-.7,3.8,42.7,42.7,0,0,1-1.9,4.7c-1.6,3.5-3.5,7.7-5.8,12.5l-1.8,3.7-2,3.9-2.1,4.1-2.3,4.2c-3.1,5.8-6.8,11.9-10.9,18.2a231.4,231.4,0,0,1-14.1,19.2,168.8,168.8,0,0,1-17.6,18.6,127.7,127.7,0,0,1-21.5,15.8l-2.9,1.6-3,1.6c-2,.9-4,2-6.1,2.8a96.3,96.3,0,0,1-12.6,4.3,93.8,93.8,0,0,1-25.7,3.2,101.7,101.7,0,0,1-23.7-3.2,122,122,0,0,1-20-7.1,141.9,141.9,0,0,1-15.7-8.4,134.8,134.8,0,0,1-11.3-7.8c-3-2.3-5.3-4.2-6.8-5.6l-2.3-2.1h0A1.2,1.2,0,0,1,1236.3,1330.2Z" fill="#31323d"></path><path d="M1372.4,1221.7a15,15,0,0,1,3.6-15.9c8.9-8.8,28.1-21.7,63.7-21.9s52.5,12.1,60.6,20.8a14.9,14.9,0,0,1,2.5,16.1h0a20.8,20.8,0,0,1-18.2,12.3c-10,.3-23.9,3.4-32.7,15.9a13.2,13.2,0,0,1-1.9,2.2l-0.3.3a17.7,17.7,0,0,1-25.3-1.4h0s-7.3-12.5-34.2-14.5a20.7,20.7,0,0,1-17.7-13.5v-0.3Z" fill="#31323d"></path><path d="M1516.8,1407.9l-0.5,1.8c-0.2.6-.3,1.2-0.7,2.1l-1.1,3-1.6,3.5c-0.7,1.2-1.4,2.6-2.3,4a56.1,56.1,0,0,1-6.8,8.8,63,63,0,0,1-10,8.7l-3,2-3.2,1.9c-2.2,1.2-4.5,2.3-6.9,3.3s-4.9,1.8-7.4,2.6l-3.9,1-4,.8a77.5,77.5,0,0,1-16.3,1.1,81.8,81.8,0,0,1-16.1-2.3,83.6,83.6,0,0,1-14.8-5.2l-0.9-.4-0.4-.2h-0.5l-1.5-.8-3.2-1.8c-2.2-1.2-4.2-2.5-6.1-3.8a76.6,76.6,0,0,1-10-8.3,75.3,75.3,0,0,1-7.2-8.2,71.2,71.2,0,0,1-4.6-7c-0.6-1-1.1-1.9-1.5-2.7l-1-2-0.8-1.7a2.5,2.5,0,0,1,4.2-2.7h0.1l1.2,1.3,3.3,3.6c1.4,1.5,3.3,3.3,5.5,5.2s4.7,3.9,7.6,6a91,91,0,0,0,9.7,5.9l2.7,1.4,2.8,1.3,2.9,1.2,1.6,0.7,1.4,0.5a85.9,85.9,0,0,0,12.8,3.6,81.6,81.6,0,0,0,13.5,1.5,80.6,80.6,0,0,0,13.5-.7l3.3-.5,3.2-.7c2.1-.5,4.2-1.1,6.2-1.7s4-1.4,5.8-2.2l2.8-1.2,2.6-1.3a65.7,65.7,0,0,0,9.3-5.9,60.7,60.7,0,0,0,7.1-6.3,72.3,72.3,0,0,0,4.9-5.6l1.6-2.2c0.5-.6.9-1.3,1.2-1.8l1-1.5A2.5,2.5,0,0,1,1516.8,1407.9Z" fill="#31323d"></path><path d="M1383.9,1408.7s2.4,72.6,63.4,71.3c58.9-1.3,66.7-69.1,66.7-69.1s-21.7,29.9-59.8,29.7S1383.9,1408.7,1383.9,1408.7Z" fill="#595959" opacity=".2" style="mix-blend-mode:multiply"></path><path d="M1532.7,1267.1l4-.8,11.4-2.1c9.9-1.7,24-3.8,41-5.4a545,545,0,0,1,58.3-2.4c10.7,0.1,21.7.6,32.9,1.5s22.5,2.3,33.7,4.2,22.4,4.2,33.2,7.1a301.1,301.1,0,0,1,31.3,10.2,259.9,259.9,0,0,1,27.9,12.9,220.6,220.6,0,0,1,23.4,14.5,202.9,202.9,0,0,1,18.1,14.5l3.7,3.4,3.3,3.2,3,3,2.7,2.9c1.7,1.8,3.1,3.5,4.4,4.9l3.1,3.7,2.6,3.2-2.7-3.1-3.2-3.6c-1.3-1.4-2.8-3.1-4.5-4.8l-2.7-2.8-3.1-3-3.4-3.1-3.8-3.3a201.6,201.6,0,0,0-18.4-13.9,218.7,218.7,0,0,0-23.5-13.8,257.3,257.3,0,0,0-27.9-12,297.5,297.5,0,0,0-31.2-9.2c-10.8-2.6-21.8-4.6-33-6.1s-22.3-2.6-33.4-3.2-21.9-.8-32.5-0.6a537.3,537.3,0,0,0-57.4,4c-16.7,2-30.5,4.5-40.1,6.4l-11.1,2.4-3.9.9h0a5,5,0,0,1-2.3-9.7h0.1Z" fill="#31323D"></path><path d="M1705.6,1217.8l-6.6.3-7.6.4-9.9.7-11.7,1-13,1.5c-4.5.6-9.1,1.2-13.8,2l-7.1,1.1-7.1,1.3-7.1,1.4-7,1.4-6.9,1.5-6.7,1.6-6.4,1.6-6.1,1.6-11.2,3.1-9.4,2.8-7.2,2.3-6.2,2.1h-0.1a5,5,0,0,1-3.2-9.5h0.3l6.5-1.7,7.5-1.9,9.7-2.3,11.6-2.5,6.3-1.2,6.6-1.2,6.9-1.2,7-1.1,7.2-1,7.2-.9,7.2-.8,7.2-.7c4.8-.5,9.5-0.7,14-1.1l13.1-.6,11.7-.3H1699Z" fill="#31323D"></path><path d="M1546.6,1290.2l7.7-1.2,4.3-.4,5.1-.4c3.6,0,7.7-.2,12.1.3l3.4,0.2,3.5,0.5,3.6,0.5,3.7,0.7,3.8,0.7,3.8,0.9,3.9,1,3.9,1.2,3.9,1.3,3.9,1.5,3.9,1.6,3.9,1.7,2,0.9,1.9,1,3.9,1.9,7.6,4.2c4.9,3,9.8,6,14.4,9.3s9,6.7,13.1,10.1,8,6.9,11.6,10.2,6.8,6.7,9.8,9.7,5.6,6,7.8,8.6,4.2,4.9,5.8,6.9c3.1,3.9,4.8,6.2,4.8,6.2s-1.8-2.2-5.1-5.9c-1.7-1.8-3.7-4.1-6.1-6.5s-5.2-5.2-8.3-8.1-6.5-6-10.2-9.1-7.7-6.3-12-9.5-8.7-6.3-13.4-9.2-9.6-5.7-14.5-8.3l-7.6-3.6-3.8-1.7-1.9-.8-1.9-.7-3.8-1.4-3.8-1.3-3.8-1.2-3.8-1-3.7-1-3.7-.8-3.6-.7-3.6-.5-3.5-.4-3.4-.3-3.3-.3h-3.1c-4.1-.2-7.8.2-11.2,0.4l-4.5.6-3.8.5-7.6,1.6a5,5,0,1,1-2-9.8h0.3Z" fill="#31323D"></path><path d="M1355.9,1292.2l-15.5-3c-9.8-1.9-23.8-4.7-40.7-7.4-8.4-1.4-17.6-2.7-27.3-4s-20-2.3-30.6-3.2-21.6-1.4-32.8-1.6-22.6.1-33.9,0.8a334.9,334.9,0,0,0-33.7,3.9c-5.5.9-11,2-16.3,3.2s-10.6,2.6-15.7,4.2a200.6,200.6,0,0,0-52.8,24.1,165.1,165.1,0,0,0-18.6,14.1c-1.3,1.1-2.5,2.3-3.7,3.4l-3.4,3.2-3.1,3.1-2.7,2.9c-1.7,1.8-3.1,3.5-4.4,5l-1.7,2.1-1.4,1.8-2.5,3.2,2.5-3.3,1.3-1.8,1.7-2.1c1.2-1.5,2.6-3.3,4.3-5.1l2.6-3,3-3.2,3.3-3.4c1.2-1.1,2.3-2.4,3.7-3.5a166.3,166.3,0,0,1,18.3-14.7,202.9,202.9,0,0,1,52.8-25.9c5.1-1.7,10.4-3.2,15.8-4.6s10.9-2.7,16.4-3.7a339.4,339.4,0,0,1,34-4.9c11.5-1.1,23-1.6,34.3-1.8s22.5,0.1,33.3.7,21.2,1.4,31,2.4,19.1,2.1,27.7,3.3c17.1,2.3,31.2,4.7,41.1,6.4l15.5,2.6h0a5,5,0,1,1-1.7,9.9h-0.1Z" fill="#31323D"></path><path d="M1181.2,1233.5l1.8-.3,5-.8,7.8-1.1,10.1-1.1c7.4-.7,16.2-1.1,25.6-1,4.7,0.1,9.5.2,14.5,0.5l7.4,0.6,7.4,0.8,7.5,1,7.4,1.2c4.9,0.8,9.6,1.9,14.2,2.9l6.8,1.7,6.4,1.8c4.2,1.2,8.1,2.4,11.7,3.6l9.7,3.5,7.4,2.9,4.7,2,1.7,0.7a5,5,0,1,1-4,9.2h-0.3l-1.6-.8-4.4-2.2-7-3.3-9.2-3.9c-3.4-1.4-7.1-2.8-11.1-4.2l-6.1-2.1-6.5-2c-4.4-1.3-9-2.6-13.7-3.7l-7.1-1.6-7.2-1.4-7.3-1.2-7.2-1c-4.8-.6-9.6-1.1-14.2-1.4-9.2-.7-17.9-0.8-25.3-0.6l-10.1.4-7.8.6-5,.5Z" fill="#31323D"></path><path d="M1343.2,1316l-7.6-1.9-3.8-.6-2.1-.3-1.1-.2h-1.2l-5.3-.4h-9l-3.3.3c-2.2.1-4.5,0.6-6.8,0.9s-4.7,1-7.1,1.5l-1.8.4-1.8.5-3.7,1.1-3.7,1.3-3.8,1.4-7.5,3.2a163.1,163.1,0,0,0-14.8,7.9l-3.6,2.2-3.5,2.3c-2.4,1.5-4.6,3.2-6.9,4.8l-6.6,5c-2.1,1.7-4.3,3.4-6.3,5.1l-3,2.6-2.9,2.6-5.5,5.1-5.1,5-4.7,4.8c-3,3.1-5.6,6-7.9,8.6l-5.8,6.9c-3.2,3.9-4.9,6.2-4.9,6.2s1.6-2.4,4.5-6.4c1.5-2,3.3-4.5,5.5-7.2s4.6-5.8,7.4-9.1l4.4-5.1,4.9-5.3,5.3-5.4,2.8-2.8,2.9-2.8c1.9-1.9,4-3.7,6.1-5.5l6.4-5.4c2.2-1.7,4.4-3.6,6.8-5.3l3.5-2.6,3.6-2.5a168.4,168.4,0,0,1,14.8-9l7.7-3.8,3.9-1.7,3.9-1.6,3.9-1.4,1.9-.7,1.9-.6c2.6-.7,5-1.6,7.5-2s4.9-1.2,7.3-1.4l3.5-.5,1.7-.2h1.7l6.4-.4h8.5l2.5,0.3,4.5,0.5,7.7,1.4a5,5,0,0,1-1.8,9.8h-0.3Z" fill="#31323D"></path></g></svg>