<?xml version="1.0" encoding="UTF-8" standalone="no"?>
<!DOCTYPE svg PUBLIC "-//W3C//DTD SVG 1.1//EN" "http://www.w3.org/Graphics/SVG/1.1/DTD/svg11.dtd">
<svg width="100%" height="100%" viewBox="0 0 200 200" version="1.1" xmlns="http://www.w3.org/2000/svg" xmlns:xlink="http://www.w3.org/1999/xlink" xml:space="preserve" xmlns:serif="http://www.serif.com/" style="fill-rule:evenodd;clip-rule:evenodd;stroke-linecap:round;stroke-miterlimit:10;">
    <g transform="matrix(1,0,0,1,-67.7894,-4509.98)">
        <g transform="matrix(1,0,0,1,0,2000)">
            <g id="_637653" serif:id="637653" transform="matrix(0.0666667,0,0,0.0666667,167.789,2609.98)">
                <g transform="matrix(1,0,0,1,-1500,-1500)">
                    <clipPath id="_clip1">
                        <rect x="0" y="0" width="3000" height="3000"/>
                    </clipPath>
                    <g clip-path="url(#_clip1)">
                        <g id="tailFur">
                            <clipPath id="_clip2">
                                <path d="M2518.1,1775.9C2585.7,1746.9 2650.6,1815.8 2664.7,1849.6C2712.7,1964.7 2615.3,2044.5 2615.3,2044.5C2578.7,2079.3 2526.8,2112.2 2458,2133.3C2282.7,2187.1 2118.8,2094.9 2035.8,2034.3L2001.1,2009.4L1965,2149.5L2185.6,2226C2261.06,2240.2 2338.09,2244.13 2414.6,2237.7C2512.7,2229.3 2601.5,2208.6 2680.6,2133.1C2774.2,2043.9 2829.5,1893.6 2763.4,1759.5C2718.9,1669.2 2611.4,1568 2489.8,1587.6C2400.8,1602 2298.9,1682 2307.1,1774.1C2312.9,1838.1 2371.7,1906.2 2440.2,1908C2488.5,1909.2 2552.3,1877.8 2552.3,1834.6C2552.2,1800.1 2511.5,1761.5 2451.4,1755.2"/>
                            </clipPath>
                            <g clip-path="url(#_clip2)">
                                <rect x="1904" y="1577.4" width="939" height="668.54" style="fill:rgb(74,72,85);fill-rule:nonzero;"/>
                                <path d="M2388.4,2147.5C2347.2,2170.5 2384.2,2246 2432.2,2246C2336.9,2251 2134.7,2293.9 2044.2,2263.6C2008.6,2251.7 1972.5,2236.2 1947.9,2207.9C1926.5,2183.3 1915.7,2151 1912,2118.6C1906.6,2070.5 1918.3,2017.1 1955.7,1986.3C1999,1950.6 2064.5,1955.2 2114.6,1980.5" style="fill:rgb(252,218,134);fill-rule:nonzero;"/>
                                <path d="M2307.1,1774.1C2307.1,1774.1 2384.2,1585.2 2584.2,1659.5C2784.2,1733.8 2787.9,1935.2 2787.9,1935.2L2922.2,1671.5L2688.2,1459L2344.2,1441.6L2236.2,1565.5L2307.1,1774.1Z" style="fill:url(#_Linear3);fill-rule:nonzero;"/>
                                <g>
                                    <path d="M2135.9,2084.1C2242.9,2136.1 2207.5,2188.1 2335.1,2197.9C2543.4,2230.5 2664.6,2156 2725.9,2076.9L2826.1,2032.5L2730.1,2291.5L1902.1,2282.4L1956.1,2013.5C1956.1,2013.5 2078.6,2056.2 2135.9,2084.1Z" style="fill:url(#_Linear4);fill-rule:nonzero;"/>
                                    <path d="M2519.6,1734.3C2528,1732 2628.7,1690.9 2684.1,1826.5C2741.6,1967.1 2657.8,2050.9 2483,2124.9L2579.1,1807.5C2579.1,1807.5 2559,1796.3 2518.1,1775.9C2477.2,1755.5 2465.4,1757 2465.4,1757C2465.4,1757 2485.9,1746.6 2519.6,1734.3Z" style="fill:url(#_Linear5);fill-rule:nonzero;"/>
                                </g>
                            </g>
                        </g>
                        <path id="tail" d="M2515.9,1770L2521.7,1767.8L2523.3,1767.3L2524.9,1766.8L2528.2,1765.8L2531.5,1765L2534.7,1764.3L2538,1763.7L2541.3,1763.2C2550.09,1762.2 2558.98,1762.47 2567.7,1764C2576.31,1765.53 2584.7,1768.08 2592.7,1771.6C2600.61,1775.05 2608.17,1779.24 2615.3,1784.1C2622.36,1788.92 2629.05,1794.27 2635.3,1800.1C2641.57,1805.91 2647.41,1812.16 2652.8,1818.8C2658.28,1825.47 2663.14,1832.63 2667.3,1840.2L2668.8,1843.2L2670.2,1846.3L2670.5,1847.1L2670.5,1848L2671.1,1849.4L2674.4,1858.1L2677.4,1867.4C2677.7,1868.4 2678.1,1869.5 2678.3,1870.5L2679.8,1876.7L2680.6,1879.8L2681.2,1883L2682.3,1889.3C2682.7,1891.4 2682.8,1893.5 2683.1,1895.7L2683.7,1900.5L2683.7,1902.1L2684,1908.5L2684,1914.9C2683.95,1923.48 2683.18,1932.05 2681.7,1940.5L2680.5,1946.8C2680,1948.9 2679.5,1951 2679,1953C2678.5,1955 2678.5,1955.1 2678.2,1956.1L2677.3,1959.2L2676.4,1962.3L2675.9,1963.8L2675.4,1965.3L2673.3,1971.3L2670.9,1977.2C2670.1,1979.2 2669.2,1981.1 2668.3,1983L2667,1985.9L2665.6,1988.8C2661.79,1996.41 2657.48,2003.76 2652.7,2010.8C2647.94,2017.84 2642.76,2024.58 2637.2,2031C2634.4,2034.2 2631.6,2037.3 2628.6,2040.4L2624,2044.9L2621.6,2047.1L2619,2049.3L2619.3,2049C2598.44,2068.63 2575.35,2085.75 2550.5,2100C2538.15,2107.13 2525.43,2113.61 2512.4,2119.4C2499.4,2125.2 2486.13,2130.4 2472.6,2135L2462.4,2138.3L2459.9,2139.1L2459.1,2139.1L2458.5,2139.3L2457.2,2139.7L2452.1,2141.1L2441.9,2143.9L2431.4,2146.4L2426.1,2147.6L2420.8,2148.6L2410.3,2150.6L2399.7,2152.1L2394.4,2152.8L2389.1,2153.4L2378.4,2154.4L2367.7,2155C2360.6,2155.5 2353.4,2155.4 2346.3,2155.5L2335.6,2155.2L2330.2,2155L2324.9,2154.7L2314.2,2154L2303.6,2152.9L2298.3,2152.3L2293,2151.6L2282.4,2150.1C2275.4,2148.8 2268.3,2147.7 2261.4,2146.1C2247.4,2143.3 2233.7,2139.6 2220,2135.5L2209.8,2132.3L2199.7,2128.9C2196.3,2127.8 2193,2126.5 2189.7,2125.3C2186.4,2124.1 2183,2122.9 2179.7,2121.5L2169.8,2117.5L2160,2113.3L2150.3,2108.9L2140.6,2104.4C2127.8,2098.3 2115.2,2091.7 2102.8,2084.8C2090.4,2077.9 2078.3,2070.5 2066.3,2062.9C2054.3,2055.3 2042.7,2047.2 2031.3,2038.9L1997.1,2014.3L2006.8,2010.8L1971,2151.1L1967,2143.6L2187.6,2220.1L2186.7,2219.9C2228.4,2227.65 2270.61,2232.33 2313,2233.9C2334.2,2234.63 2355.4,2234.6 2376.6,2233.8C2397.8,2233 2418.9,2231.3 2440,2228.9C2460.99,2226.62 2481.85,2223.28 2502.5,2218.9C2523.06,2214.45 2543.26,2208.43 2562.9,2200.9C2582.48,2193.33 2601.32,2183.99 2619.2,2173C2637.06,2161.98 2653.84,2149.29 2669.3,2135.1L2675.1,2129.8L2675.8,2129.1L2676.2,2128.8L2676.5,2128.5L2677.9,2127.1L2680.7,2124.3C2684.6,2120.6 2688.1,2116.8 2691.7,2113L2693,2111.6L2694.3,2110.1L2696.9,2107.2C2698.6,2105.2 2700.4,2103.3 2702.1,2101.3C2705.4,2097.2 2708.9,2093.3 2712,2089.1L2716.8,2082.9L2721.4,2076.5L2723.7,2073.3L2725.9,2070L2730.3,2063.5C2735.9,2054.6 2741.4,2045.7 2746.3,2036.4C2748.8,2031.8 2751.1,2027.1 2753.4,2022.4C2754.6,2020.1 2755.6,2017.6 2756.7,2015.3C2757.8,2013 2758.9,2010.5 2759.9,2008.1L2762.9,2000.8L2764.4,1997.2L2765.8,1993.5L2768.5,1986.1L2770.9,1978.6C2772.6,1973.6 2773.9,1968.6 2775.4,1963.5C2775.8,1962.2 2776.1,1961 2776.4,1959.7L2777.3,1955.9C2777.9,1953.4 2778.6,1950.8 2779.1,1948.3L2780.7,1940.6C2780.9,1939.3 2781.3,1938 2781.4,1936.7L2782,1932.8L2783.2,1925.1L2784.1,1917.3C2786.51,1896.54 2786.61,1875.58 2784.4,1854.8L2784,1850.9C2783.9,1849.6 2783.6,1848.3 2783.5,1847L2782.4,1839.3L2782.1,1837.4L2781.7,1835.5L2780.9,1831.7C2780.4,1829.1 2780,1826.6 2779.4,1824L2777.5,1816.4L2776.6,1812.6L2775.5,1808.8L2773.3,1801.3C2773,1800 2772.5,1798.8 2772.1,1797.6L2770.8,1793.9C2757.1,1754.5 2734.1,1718.4 2706.3,1687C2699.3,1679.2 2691.9,1671.7 2684.3,1664.5C2676.7,1657.3 2668.6,1650.6 2660.4,1644.1C2652.2,1637.6 2643.5,1631.8 2634.6,1626.3L2627.9,1622.3L2624.5,1620.3L2621,1618.5C2618.7,1617.3 2616.4,1616 2614.1,1614.9L2607.1,1611.5L2603.5,1609.9L2599.9,1608.4L2596.3,1606.9L2592.7,1605.5L2585.4,1602.8L2578,1600.4C2575.5,1599.6 2573,1599 2570.5,1598.3C2568,1597.6 2565.5,1596.9 2563,1596.4L2555.4,1594.8L2547.7,1593.6C2537.47,1592.1 2527.14,1591.46 2516.8,1591.7L2512.9,1591.7L2509,1592L2501.3,1592.6L2493.6,1593.6L2491.7,1593.9L2490.9,1593.9L2489.9,1594.1L2486,1594.8L2482.1,1595.5L2478.4,1596.4L2474.7,1597.2L2470.9,1598.2C2468.4,1598.9 2465.9,1599.5 2463.4,1600.3C2460.9,1601.1 2458.4,1601.8 2456,1602.7C2446.15,1606.07 2436.53,1610.08 2427.2,1614.7C2417.84,1619.29 2408.76,1624.44 2400,1630.1L2393.5,1634.4L2387.1,1638.9L2380.9,1643.7C2378.8,1645.3 2376.9,1647 2374.9,1648.7C2366.97,1655.41 2359.52,1662.66 2352.6,1670.4C2345.69,1678.08 2339.47,1686.34 2334,1695.1C2323.1,1712.5 2315.6,1732 2313.6,1752.2C2313.4,1754.7 2313,1757.2 2313.1,1759.8L2313.1,1767.4L2313.3,1771.2L2313.3,1774.9L2313.8,1778.9C2314,1780.2 2314.2,1781.4 2314.4,1782.6C2314.6,1783.8 2315.4,1787.5 2315.9,1790C2316.4,1792.5 2316.5,1792.5 2316.8,1793.7C2317.1,1794.9 2317.4,1796.2 2317.8,1797.4C2318.2,1798.6 2319.3,1802.3 2320.2,1804.7L2321.5,1808.3L2323,1811.9C2326.96,1821.36 2331.85,1830.41 2337.6,1838.9C2343.34,1847.42 2349.91,1855.36 2357.2,1862.6C2360.8,1866.3 2364.6,1869.6 2368.6,1872.9C2372.57,1876.11 2376.71,1879.12 2381,1881.9C2385.26,1884.67 2389.66,1887.21 2394.2,1889.5C2398.74,1891.75 2403.42,1893.72 2408.2,1895.4C2412.94,1897.04 2417.79,1898.38 2422.7,1899.4C2427.62,1900.39 2432.59,1901.02 2437.6,1901.3L2448.9,1901.3L2452.7,1901C2457.77,1900.55 2462.81,1899.81 2467.8,1898.8C2472.8,1897.8 2477.74,1896.53 2482.6,1895C2487.49,1893.5 2492.3,1891.74 2497,1889.7C2506.35,1885.74 2515.16,1880.6 2523.2,1874.4C2531.1,1868.3 2537.9,1860.8 2542.2,1852.3C2544.32,1848.13 2545.74,1843.63 2546.4,1839L2546.4,1831.9C2546.38,1831.6 2546.35,1831.3 2546.3,1831L2546.3,1830.2C2546.2,1829.6 2546.2,1829.1 2546.1,1828.5C2546,1827.9 2545.8,1826.2 2545.5,1825C2544.41,1820.26 2542.69,1815.69 2540.4,1811.4C2538.07,1806.99 2535.29,1802.83 2532.1,1799C2525.52,1791.19 2517.8,1784.42 2509.2,1778.9C2500.5,1773.26 2491.17,1768.66 2481.4,1765.2C2476.47,1763.47 2471.47,1761.97 2466.4,1760.7C2461.3,1759.5 2456.2,1758.5 2451,1757.7C2449.74,1757.55 2448.78,1756.47 2448.78,1755.2C2448.78,1753.82 2449.92,1752.68 2451.3,1752.68C2451.4,1752.68 2451.5,1752.69 2451.6,1752.7C2473.2,1754.2 2494.8,1760.3 2513.9,1771.6C2523.58,1777.2 2532.32,1784.29 2539.8,1792.6C2543.6,1796.84 2546.96,1801.47 2549.8,1806.4C2552.67,1811.45 2554.86,1816.87 2556.3,1822.5C2556.7,1823.9 2556.9,1825.4 2557.2,1826.8C2557.5,1828.2 2557.6,1830 2557.8,1831.4L2557.8,1840.2C2557.17,1846.17 2555.51,1851.99 2552.9,1857.4C2550.34,1862.69 2547.12,1867.63 2543.3,1872.1C2539.59,1876.45 2535.47,1880.43 2531,1884C2522.23,1891.03 2512.59,1896.88 2502.3,1901.4C2492.14,1905.97 2481.51,1909.42 2470.6,1911.7C2465.12,1912.84 2459.58,1913.67 2454,1914.2L2449.8,1914.5L2445.5,1914.7L2437.1,1914.7C2431.46,1914.4 2425.84,1913.7 2420.3,1912.6C2414.77,1911.44 2409.32,1909.9 2404,1908C2398.7,1906.12 2393.53,1903.91 2388.5,1901.4C2383.51,1898.88 2378.67,1896.07 2374,1893C2369.37,1889.93 2364.89,1886.63 2360.6,1883.1C2356.4,1879.5 2352.2,1875.8 2348.3,1871.8C2340.49,1863.93 2333.45,1855.33 2327.3,1846.1C2321.11,1836.88 2315.85,1827.06 2311.6,1816.8L2310,1812.9L2308.6,1809C2307.6,1806.4 2306.9,1803.7 2306,1801.1C2305.1,1798.5 2305.3,1798.4 2304.9,1797.1C2304.5,1795.8 2304.2,1794.4 2303.9,1793C2303.6,1791.6 2302.7,1787.6 2302.3,1784.7C2301.9,1781.8 2301.8,1781.8 2301.6,1780.5L2301.1,1776.5L2301.1,1772L2300.9,1767.8L2300.9,1759.4C2300.9,1756.6 2301.2,1753.8 2301.5,1751C2302.67,1739.86 2305.22,1728.91 2309.1,1718.4C2312.96,1707.95 2317.88,1697.93 2323.8,1688.5C2329.65,1679.14 2336.31,1670.31 2343.7,1662.1C2351.03,1653.93 2358.91,1646.28 2367.3,1639.2C2369.4,1637.5 2371.5,1635.7 2373.6,1634L2380.1,1629L2386.8,1624.2L2393.6,1619.6C2402.77,1613.64 2412.29,1608.23 2422.1,1603.4C2431.91,1598.54 2442.04,1594.33 2452.4,1590.8C2455,1589.8 2457.6,1589.1 2460.2,1588.3C2462.8,1587.5 2465.5,1586.8 2468.1,1586L2472.1,1584.9L2476.2,1584L2480.3,1583.1L2484.3,1582.4L2488.2,1581.7L2489.2,1581.5L2490.4,1581.5L2492.4,1581.2L2500.6,1580.1L2508.8,1579.5L2512.9,1579.2L2517,1579.2C2528,1578.94 2539.01,1579.61 2549.9,1581.2L2558.1,1582.5L2566.2,1584.2C2568.9,1584.7 2571.5,1585.5 2574.2,1586.2C2576.9,1586.9 2579.5,1587.5 2582.1,1588.4L2589.9,1590.9L2597.6,1593.7L2601.4,1595.2L2609,1598.4L2612.7,1600.1L2620.1,1603.6C2622.6,1604.8 2624.9,1606.1 2627.4,1607.4L2631,1609.3L2634.5,1611.4L2641.6,1615.5C2650.9,1621.2 2659.8,1627.5 2668.5,1634.1C2677.2,1640.7 2685.4,1647.8 2693.3,1655.3C2701.2,1662.8 2708.8,1670.5 2716,1678.6C2723.2,1686.7 2730.1,1695.1 2736.6,1703.8C2743.1,1712.5 2749.2,1721.5 2754.9,1730.8C2757.7,1735.5 2760.5,1740.1 2763.1,1745L2765.1,1748.6L2768.7,1755.8L2769.2,1756.7L2769.5,1757.2L2769.7,1757.7L2770.6,1759.6L2774,1767C2774.6,1768.2 2775.2,1769.5 2775.7,1770.7L2777.2,1774.5L2780.3,1782.1C2781.3,1784.6 2782.1,1787.2 2783,1789.8L2784.4,1793.7C2784.9,1795 2785.3,1796.3 2785.7,1797.6L2788,1805.4L2789.2,1809.3L2790.2,1813.3L2792.1,1821.3C2792.7,1824 2793.2,1826.7 2793.7,1829.3L2794.9,1835.3L2795.2,1837.3L2796.4,1845.4C2796.6,1846.8 2796.8,1848.1 2797,1849.5L2797.4,1853.6C2799.72,1875.31 2799.62,1897.21 2797.1,1918.9L2796.1,1927L2794.8,1935.1L2794.2,1939.1C2794,1940.4 2793.7,1941.8 2793.4,1943.1L2791.8,1951.1C2791.3,1953.8 2790.5,1956.4 2789.9,1959L2788.9,1963C2788.6,1964.3 2788.3,1965.6 2787.9,1966.9C2786.4,1972.1 2785,1977.4 2783.3,1982.5L2780.8,1990.2L2778,1997.9L2776.6,2001.7L2775.1,2005.5L2772,2013C2770.9,2015.5 2769.8,2018 2768.7,2020.4C2767.6,2022.8 2766.5,2025.4 2765.3,2027.8C2762.9,2032.7 2760.6,2037.6 2757.9,2042.3C2752.9,2051.9 2747.2,2061.2 2741.4,2070.4L2736.9,2077.2L2734.6,2080.6L2732.2,2083.9L2727.4,2090.5L2722.4,2097C2719.1,2101.3 2715.6,2105.5 2712.2,2109.7C2710.5,2111.8 2708.6,2113.8 2706.8,2115.8L2704.1,2118.8L2702.7,2120.3L2701.3,2121.8C2697.5,2125.8 2693.8,2129.8 2690,2133.5L2687.2,2136.3L2685.8,2137.7L2685.4,2138.1L2685,2138.4L2684.2,2139.1L2678.2,2144.6C2662.18,2159.31 2644.8,2172.47 2626.3,2183.9C2607.79,2195.29 2588.27,2204.96 2568,2212.8C2547.77,2220.58 2526.98,2226.8 2505.8,2231.4C2484.69,2235.91 2463.36,2239.35 2441.9,2241.7C2420.6,2244.1 2399.1,2245.8 2377.6,2246.7C2356.1,2247.6 2334.6,2247.6 2313.1,2246.8C2270.11,2245.21 2227.3,2240.46 2185,2232.6L2184.5,2232.6L2184.1,2232.4L1963.5,2155.9L1958.1,2154L1959.5,2148.4L1995.7,2008.2L1998,1999.4L2005.4,2004.7L2039.6,2029.3C2050.9,2037.6 2062.4,2045.4 2074.1,2053C2085.8,2060.6 2097.8,2067.7 2109.9,2074.5C2122,2081.3 2134.4,2087.8 2146.9,2093.8L2156.4,2098.2L2165.9,2102.5L2175.5,2106.6L2185.2,2110.5C2188.4,2111.8 2191.7,2113 2194.9,2114.2C2198.1,2115.4 2201.4,2116.7 2204.7,2117.7L2214.6,2121.1L2224.5,2124.2C2237.8,2128.2 2251.2,2131.8 2264.8,2134.6C2271.6,2136.1 2278.4,2137.2 2285.2,2138.5L2295.5,2140L2300.6,2140.7L2305.8,2141.2L2316.1,2142.3L2326.5,2143L2331.7,2143.3L2336.9,2143.5L2347.3,2143.8C2354.2,2143.7 2361.1,2143.8 2368,2143.3L2378.4,2142.7L2388.7,2141.7L2393.9,2141.2L2399,2140.5L2409.3,2139L2419.5,2137.1L2424.6,2136.2L2429.6,2135L2439.6,2132.7L2449.7,2129.9L2454.8,2128.5L2456.1,2128.1L2456.7,2127.9L2457.2,2127.9L2459.7,2127.1L2469.6,2123.9C2482.73,2119.43 2495.63,2114.37 2508.3,2108.7C2520.96,2103.09 2533.31,2096.82 2545.3,2089.9C2569.07,2075.88 2591.12,2059.14 2611,2040L2611.1,2040L2611.3,2039.8L2613.4,2038L2615.6,2036L2619.8,2031.8C2622.6,2029 2625.3,2026 2627.9,2023C2633.11,2016.96 2637.95,2010.62 2642.4,2004C2646.88,1997.41 2650.92,1990.53 2654.5,1983.4L2655.8,1980.7L2657,1978C2657.8,1976.2 2658.7,1974.4 2659.4,1972.5L2661.6,1967L2663.6,1961.4L2664.1,1960L2664.5,1958.6L2665.4,1955.8L2666.3,1953C2666.6,1952.1 2666.8,1951.1 2667,1950.1C2667.2,1949.1 2668,1946.3 2668.4,1944.3L2669.5,1938.5C2670.86,1930.71 2671.56,1922.81 2671.6,1914.9L2671.6,1908.9L2671.3,1903L2671.3,1901.5L2671.1,1900L2670.8,1897.1C2670.6,1895.1 2670.4,1893.2 2670.1,1891.2L2669.1,1885.4L2668.6,1882.5L2667.9,1879.6L2666.5,1873.8C2666.3,1872.8 2666,1871.9 2665.7,1871L2664.8,1868.2L2663.1,1862.6L2660.9,1856.8L2659.8,1853.9L2659.2,1852.5L2659.2,1851.8L2658.9,1851.2L2657.7,1848.6L2656.4,1846.1C2652.61,1839.24 2648.19,1832.75 2643.2,1826.7C2633.22,1814.34 2621.5,1803.49 2608.4,1794.5C2595.4,1785.7 2580.8,1779 2565.7,1776.4C2558.17,1775.08 2550.49,1774.84 2542.9,1775.7L2540.1,1776.1L2537.3,1776.6L2534.5,1777.2L2531.8,1777.9L2529.2,1778.7L2527.9,1779.1L2526.5,1779.6L2520.7,1781.8C2519.94,1782.11 2519.12,1782.27 2518.3,1782.27C2514.81,1782.27 2511.93,1779.39 2511.93,1775.9C2511.93,1773.31 2513.51,1770.97 2515.9,1770L2515.9,1770Z" style="fill:rgb(49,50,61);fill-rule:nonzero;"/>
                        <g id="bodyFur">
                            <clipPath id="_clip6">
                                <path d="M2200.5,2195.7C2157.5,2166.3 2068.1,2134 2020.7,2120.2L2019.9,2119.9C2038.72,2070.01 2040.96,2015.36 2026.3,1964.1L1838.7,1353.7C1856.3,1318.8 1899.7,1242.8 1951.9,1227.8C1951.9,1227.8 1863.2,1171.3 1827.6,1242.1C1827.6,1242.1 1849.3,1176.2 1879.2,1177.4C1879.2,1177.4 1825.5,1163.9 1785.2,1179.2L1731.1,1004C1721.85,971.264 1705.76,940.86 1683.9,914.8L1757.2,796.2C1740.3,787.7 1636.4,830.8 1606.9,854C1597.5,849.3 1563.1,837.7 1553.1,834.2C1576.9,757.7 1535.5,706.8 1535.5,706.8C1541.3,752.3 1505.1,772.2 1505.1,772.2C1543.1,685 1366.4,598.2 1366.4,598.2C1366.4,598.2 1382.7,655.2 1331.3,698.7C1272.6,748.3 1296.6,791.7 1296.6,791.7C1296.6,791.7 1262.8,782.3 1265.2,750.1C1246.7,783.2 1258.3,814.5 1273.6,836.3C1259.5,842.1 1221.4,859.7 1208.8,868L1206.1,862.9C1161.6,826.3 1081.5,813.7 1070.5,829.3L1135,944.5C1117.58,973.123 1106.34,1005.08 1102,1038.3L1070.2,1205.3C1026.6,1194.1 975.4,1223.6 975.4,1223.6C1003.9,1214.6 1042.1,1272.4 1042.1,1272.4C989.1,1213.4 918.4,1291.3 918.4,1291.3C972.7,1292.1 1017.1,1358.9 1035.1,1390.3L919.2,1999.6C913.907,2039.21 918.229,2079.51 931.8,2117.1L931.2,2117.4C893.1,2126.5 800.8,2160.8 746.7,2195.7C720.2,2212.8 736.6,2251.6 769.9,2251L1036.8,2245.8C1041.33,2248.53 1045.93,2251.17 1050.6,2253.7L1050.8,2257.1C1051.2,2280.4 1044.1,2299.5 1020.9,2300.7C1005.3,2301.5 992.7,2310.6 990.3,2321.8C985.6,2343.3 996.1,2360.7 1017.5,2362.2L1101.8,2367.2C1128.2,2368.8 1153.7,2355.9 1167.1,2333.1C1171.44,2325.72 1174.42,2317.63 1175.9,2309.2L1180.9,2282.6L1714.5,2282.6L1718,2303.3C1722.06,2327.59 1738.37,2348.14 1761.1,2357.6C1768.16,2360.51 1775.77,2361.87 1783.4,2361.6L1875.2,2358.6C1897.2,2356.4 1905.3,2342.9 1903.1,2321.7C1902.4,2314.8 1896.9,2297.2 1878.6,2296.2C1862.8,2295.3 1853.4,2287.6 1850.5,2274.3C1873.54,2268.14 1895.57,2258.68 1915.9,2246.2L2177.4,2251.3C2210.6,2251.6 2226.6,2213.5 2200.5,2195.7Z"/>
                            </clipPath>
                            <g clip-path="url(#_clip6)">
                                <rect x="683.1" y="583.8" width="1554.1" height="1824.09" style="fill:rgb(252,218,134);fill-rule:nonzero;"/>
                                <path d="M1156.9,2405.5L1226.4,2025.6C1261.9,1857.9 1343.5,1820.4 1426.9,1818.9L1449.3,1818.9C1536.2,1817.4 1621.9,1839.9 1671.4,2015.4L1735.2,2383.7L1156.9,2405.5Z" style="fill:rgb(218,214,225);fill-rule:nonzero;"/>
                                <path d="M2468.6,1238.1C2471.8,1238.1 2471.8,1233.1 2468.6,1233.1C2465.4,1233.1 2465.4,1238.1 2468.6,1238.1Z" style="fill:rgb(252,218,134);fill-rule:nonzero;"/>
                                <path d="M1580.2,843.5C1523.4,961.5 1481.2,1143.7 1820,1139.2L1791.8,1079.5L1736,580.8L1580.2,843.5Z" style="fill:rgb(218,214,225);fill-rule:nonzero;"/>
                                <path d="M918.1,2055C918.1,2055 912.3,2154 1050.4,2253.4L707.2,2257.3L708.4,2192.5L918.1,2055ZM2030.6,2083.4C2030.6,2083.4 2001.4,2206.5 1896.8,2256.5L2230.2,2260.5L2230.2,2180.5L2030.6,2083.4Z" style="fill:rgb(74,72,85);fill-rule:nonzero;"/>
                                <path d="M1167.1,2332.9L1139.1,2360.8L1095,2366.6L989.1,2356L989.1,2312.6C1003.7,2305.8 1020.9,2300.5 1043.1,2288.4C1056.8,2269.1 1050.3,2198.2 1050.3,2198.2C1070,2190.3 1074.5,2187.2 1110.7,2187.1C1146.9,2187 1177.3,2197.9 1192.2,2207.4C1196.3,2224.5 1167.1,2332.9 1167.1,2332.9ZM1728.1,2331.6L1755.7,2359.9L1799.7,2366.5L1896.7,2351.4L1902.6,2306.3C1888.1,2299.3 1874.7,2301.6 1852.7,2289.2C1839.3,2269.7 1847,2198.9 1847,2198.9C1827.4,2190.6 1822.9,2187.5 1786.8,2186.8C1750.7,2186.1 1720,2196.4 1705,2205.7C1700.6,2222.8 1728.1,2331.6 1728.1,2331.6Z" style="fill:rgb(74,72,85);fill-rule:nonzero;"/>
                                <path d="M1236.6,849.5C1293.4,967.5 1385.5,1155.6 1007.8,1153.1L1025,1085.4L1080.7,586.8L1236.6,849.5Z" style="fill:rgb(218,214,225);fill-rule:nonzero;"/>
                                <path d="M1603.3,850.4L1654.1,886.8L1703.4,939.5L1752.7,1016.2L1791.6,1079.5C1796.8,1071.4 2985.3,337 2984,331.6C2982,322.9 2984,11.7 2984,11.7L1959.8,11.7L1603.3,850.4ZM1222.2,859.5L818,11.6L18.2,11.6L18.2,914.8L1064.2,1091.3L1103,1001.3L1131.2,944.4L1156,914.8L1194.3,879.5L1222.2,859.5Z" style="fill:rgb(74,72,85);fill-rule:nonzero;"/>
                            </g>
                        </g>
                        <g id="shadow">
                            <clipPath id="_clip7">
                                <path d="M2200.5,2195.7C2157.5,2166.3 2068.1,2134 2020.7,2120.2L2019.9,2119.9C2038.72,2070.01 2040.96,2015.36 2026.3,1964.1L1838.7,1353.7C1856.3,1318.8 1899.7,1242.8 1951.9,1227.8C1951.9,1227.8 1863.2,1171.3 1827.6,1242.1C1827.6,1242.1 1849.3,1176.2 1879.2,1177.4C1879.2,1177.4 1825.5,1163.9 1785.2,1179.2L1731.1,1004C1721.85,971.264 1705.76,940.86 1683.9,914.8L1757.2,796.2C1740.3,787.7 1636.4,830.8 1606.9,854C1597.5,849.3 1563.1,837.7 1553.1,834.2C1576.9,757.7 1535.5,706.8 1535.5,706.8C1541.3,752.3 1505.1,772.2 1505.1,772.2C1543.1,685 1366.4,598.2 1366.4,598.2C1366.4,598.2 1382.7,655.2 1331.3,698.7C1272.6,748.3 1296.6,791.7 1296.6,791.7C1296.6,791.7 1262.8,782.3 1265.2,750.1C1234.9,786.4 1250.9,818 1266.2,839.8C1252.1,845.6 1221.5,859.7 1208.8,868L1206.1,862.9C1161.6,826.3 1081.5,813.7 1070.5,829.3L1135,944.5C1117.58,973.123 1106.34,1005.08 1102,1038.3L1070.2,1205.3C1026.6,1194.1 975.4,1223.6 975.4,1223.6C1003.9,1214.6 1042.1,1272.4 1042.1,1272.4C989.1,1213.4 918.4,1291.3 918.4,1291.3C972.7,1292.1 1017.1,1358.9 1035.1,1390.3L919.2,1999.6C913.907,2039.21 918.229,2079.51 931.8,2117.1L931.2,2117.4C893.1,2126.5 800.8,2160.8 746.7,2195.7C720.2,2212.8 736.6,2251.6 769.9,2251L1036.8,2245.8C1041.33,2248.53 1045.93,2251.17 1050.6,2253.7L1050.8,2257.1C1051.2,2280.4 1044.1,2299.5 1020.9,2300.7C1005.3,2301.5 992.7,2310.6 990.3,2321.8C985.6,2343.3 996.1,2360.7 1017.5,2362.2L1101.8,2367.2C1128.2,2368.8 1153.7,2355.9 1167.1,2333.1C1171.44,2325.72 1174.42,2317.63 1175.9,2309.2L1180.9,2282.6L1714.5,2282.6L1718,2303.3C1722.06,2327.59 1738.37,2348.14 1761.1,2357.6C1768.16,2360.51 1775.77,2361.87 1783.4,2361.6L1875.2,2358.6C1897.2,2356.4 1905.3,2342.9 1903.1,2321.7C1902.4,2314.8 1896.9,2297.2 1878.6,2296.2C1862.8,2295.3 1853.4,2287.6 1850.5,2274.3C1873.54,2268.14 1895.57,2258.68 1915.9,2246.2L2177.4,2251.3C2210.6,2251.6 2226.6,2213.5 2200.5,2195.7Z"/>
                            </clipPath>
                            <g clip-path="url(#_clip7)">
                                <path d="M968.2,1406.2C968.2,1406.2 920.5,1826 892,1975.5C860.3,2142 909.2,2253.7 971.2,2253.7C1020.9,2253.7 1052.2,2254.5 1052.2,2254.5L1050.9,2205.5C1045.9,2117.5 1021.8,2054.7 998.3,2028.7L998.3,2025.3C998.786,1992.4 1001.06,1959.55 1005.1,1926.9C1011.4,1876.1 1037.6,1656 1057.7,1522.8L1057.9,1521.5C1062,1495.3 1078,1439.5 1072.1,1389.3C1068.4,1357.7 1045.1,1321.4 1019.8,1302.1C996.4,1284.2 961.8,1271.2 917,1290.9M979.5,1223.4C1006.5,1214 1037.6,1222.2 1059.8,1240.1C1075.1,1252.4 1086.6,1268.8 1094.8,1286.8C1097.9,1293.7 1090.2,1300.4 1083.8,1296.4C1068.3,1286.9 1051,1279.6 1036.7,1268.2C1029.7,1262.6 1022.1,1255.5 1013.1,1256.6M1263,761.6C1263.6,762 1263.5,760.4 1262.8,760.7C1262.1,761 1262.1,761.9 1262.2,762.6C1267.7,800.1 1290.3,834.7 1322,855.3C1323.28,856.105 1324.05,857.513 1324.05,859.023C1324.05,861.269 1322.34,863.173 1320.1,863.4L1315.2,864C1310.3,864.6 1305.3,865.2 1300.6,863.8C1292.4,861.5 1286.9,854 1282.1,846.9C1277.3,839.8 1243.2,776.6 1238.8,770.1M1296.3,781.7C1305.95,800.868 1321,816.794 1339.6,827.5C1340.3,827.934 1341.1,828.164 1341.92,828.164C1344.34,828.164 1346.32,826.178 1346.32,823.764C1346.32,822.844 1346.04,821.947 1345.5,821.2C1342.26,816.215 1339.32,811.039 1336.7,805.7C1330.4,793.4 1324.3,780.2 1326,766.5C1327,758.5 1330.6,751.1 1334.8,744.3C1342.8,731.3 1353.2,719.9 1362.4,707.7C1371.6,695.5 1379.6,681.8 1381.8,666.7C1383.5,655 1381.7,643.1 1378.5,631.7C1375.78,621.925 1372.1,612.445 1367.5,603.4C1366.7,601.8 1365.7,600.1 1364.1,599.5C1362.8,599.115 1361.42,599.08 1360.1,599.4L1336.4,602.9M1507.8,766.2C1502.21,781.744 1494.76,796.553 1485.6,810.3C1485.08,811.041 1484.8,811.926 1484.8,812.832C1484.8,815.246 1486.79,817.232 1489.2,817.232C1489.86,817.232 1490.51,817.084 1491.1,816.8C1506.2,810 1519.1,798.3 1529.9,785.5C1537.4,776.6 1544.3,766.7 1546.8,755.4C1549.3,744.1 1547.1,730.4 1541.6,719.4M1226.5,2040.4C1202.2,2188.1 1280.8,2218.7 1295,2222C1381.5,2237.5 1518.8,2230.8 1563.5,2215C1605.3,2200.2 1693.4,2156.5 1671.5,2025.5L1714.5,2282.3L1180.9,2282.3L1226.5,2040.4ZM1854.3,2157.4C1854.3,2157.4 1884.2,2066 1920.6,2032.5C1881.2,2107.5 1934.7,2125.2 1948.7,2120.2C2002.4,2101 2023.7,2053.5 2027.9,1970.2L2093.2,2086.5C2093.2,2086.5 2038.2,2342.5 1889.2,2300.5L1850.5,2282.4L1854.3,2157.4Z" style="fill:rgb(127,127,127);fill-opacity:0.2;fill-rule:nonzero;"/>
                                <path d="M1781.2,799.5C1781.2,799.5 1743.2,773.5 1679.2,841L1645.5,881.5L1701.6,928L1781.2,799.5Z" style="fill:url(#_Linear8);fill-rule:nonzero;"/>
                                <path d="M1041.2,839.5C1041.2,839.5 1068.7,820.6 1112.8,838.7C1131.27,846.386 1147.57,858.471 1160.3,873.9L1175.2,891.8L1137.5,946.7L1041.2,839.5Z" style="fill:url(#_Linear9);fill-rule:nonzero;"/>
                                <path d="M1064.2,1202.7L1106.2,1015.7C1106.2,1015.7 1133.2,888.4 1275.3,837.8L1293.2,863.9C1211.7,887.5 1153.8,936.7 1125.5,1060.5C1118.9,1089.4 1091,1214.5 1091,1214.5M1052.2,2254.4C1052.2,2254.4 1020.9,2253.6 971.2,2253.6" style="fill:rgb(127,127,127);fill-opacity:0.2;fill-rule:nonzero;"/>
                            </g>
                        </g>
                        <g id="highlight">
                            <clipPath id="_clip10">
                                <path d="M2200.5,2195.7C2157.5,2166.3 2068.1,2134 2020.7,2120.2L2019.9,2119.9C2038.72,2070.01 2040.96,2015.36 2026.3,1964.1L1838.7,1353.7C1856.3,1318.8 1899.7,1242.8 1951.9,1227.8C1951.9,1227.8 1863.2,1171.3 1827.6,1242.1C1827.6,1242.1 1849.3,1176.2 1879.2,1177.4C1879.2,1177.4 1825.5,1163.9 1785.2,1179.2L1731.1,1004C1721.85,971.264 1705.76,940.86 1683.9,914.8L1757.2,796.2C1740.3,787.7 1636.4,830.8 1606.9,854C1597.5,849.3 1563.1,837.7 1553.1,834.2C1576.9,757.7 1535.5,706.8 1535.5,706.8C1541.3,752.3 1505.1,772.2 1505.1,772.2C1543.1,685 1366.4,598.2 1366.4,598.2C1366.4,598.2 1382.7,655.2 1331.3,698.7C1272.6,748.3 1296.6,791.7 1296.6,791.7C1296.6,791.7 1262.8,782.3 1265.2,750.1C1234.9,786.4 1250.9,818 1266.2,839.8C1252.1,845.6 1221.5,859.7 1208.8,868L1206.1,862.9C1161.6,826.3 1081.5,813.7 1070.5,829.3L1135,944.5C1117.58,973.123 1106.34,1005.08 1102,1038.3L1070.2,1205.3C1026.6,1194.1 975.4,1223.6 975.4,1223.6C1003.9,1214.6 1042.1,1272.4 1042.1,1272.4C989.1,1213.4 918.4,1291.3 918.4,1291.3C972.7,1292.1 1017.1,1358.9 1035.1,1390.3L919.2,1999.6C913.907,2039.21 918.229,2079.51 931.8,2117.1L931.2,2117.4C893.1,2126.5 800.8,2160.8 746.7,2195.7C720.2,2212.8 736.6,2251.6 769.9,2251L1036.8,2245.8C1041.33,2248.53 1045.93,2251.17 1050.6,2253.7L1050.8,2257.1C1051.2,2280.4 1044.1,2299.5 1020.9,2300.7C1005.3,2301.5 992.7,2310.6 990.3,2321.8C985.6,2343.3 996.1,2360.7 1017.5,2362.2L1101.8,2367.2C1128.2,2368.8 1153.7,2355.9 1167.1,2333.1C1171.44,2325.72 1174.42,2317.63 1175.9,2309.2L1180.9,2282.6L1714.5,2282.6L1718,2303.3C1722.06,2327.59 1738.37,2348.14 1761.1,2357.6C1768.16,2360.51 1775.77,2361.87 1783.4,2361.6L1875.2,2358.6C1897.2,2356.4 1905.3,2342.9 1903.1,2321.7C1902.4,2314.8 1896.9,2297.2 1878.6,2296.2C1862.8,2295.3 1853.4,2287.6 1850.5,2274.3C1873.54,2268.14 1895.57,2258.68 1915.9,2246.2L2177.4,2251.3C2210.6,2251.6 2226.6,2213.5 2200.5,2195.7Z"/>
                            </clipPath>
                            <g clip-path="url(#_clip10)">
                                <g opacity="0.3">
                                    <path d="M1826.8,1487.5C1892.1,1683.8 1942.5,1848.6 1970,1970.4C2016.1,2175.1 1888.8,2256.4 1888.8,2256.4L1949.9,2220.9C1949.9,2220.9 2012.9,2146.1 2022.4,2113.3C2043.2,2041.4 2161.4,2080.3 2139.6,1965.6L1859.3,1316.8C1859.3,1316.8 1798,1400.8 1826.8,1487.5Z" style="fill:url(#_Linear11);fill-rule:nonzero;"/>
                                    <path d="M1999.2,2162.4C1999.2,2162.4 2112.4,2183.5 2097.6,2246L2190.2,2249L2233.5,2242.5L2229.2,2174L2022.4,2113.3L1999.2,2162.4Z" style="fill:url(#_Linear12);fill-rule:nonzero;"/>
                                    <path d="M951.2,2166.5C951.2,2166.5 838,2187.6 852.8,2250.1L760.2,2253.1L716.9,2246.6L721.2,2178.1L928,2117.4L951.2,2166.5Z" style="fill:url(#_Linear13);fill-rule:nonzero;"/>
                                    <path d="M1033.3,1497.2L948.1,1954.5C948.1,1954.5 894.6,2129.5 1050.3,2233.5L1050.6,2253.7C1050.6,2253.7 926.1,2196.5 917.1,2038.5C908.1,1880.5 1014.1,1385.5 1014.1,1385.5L1044.3,1406.2C1042.55,1436.73 1038.87,1467.13 1033.3,1497.2Z" style="fill:url(#_Linear14);fill-rule:nonzero;"/>
                                    <path d="M1966,1233.5C1943.51,1225.2 1918.9,1224.53 1896,1231.6C1880.7,1236.4 1866.7,1244.4 1853.1,1252.9C1844.2,1258.4 1835.3,1264.3 1827.3,1271.1C1826.26,1272.03 1824.91,1272.54 1823.52,1272.54C1820.39,1272.54 1817.82,1269.96 1817.82,1266.84C1817.82,1266.35 1817.88,1265.87 1818,1265.4L1818,1265.2C1822.4,1247.7 1833.2,1232.3 1846.7,1220.4C1860.2,1208.5 1876.3,1199.9 1892.9,1192.9" style="fill:url(#_Linear15);fill-rule:nonzero;"/>
                                    <path d="M1910.2,1175.9C1850.99,1176.49 1793.27,1194.66 1744.4,1228.1C1739,1231.8 1732.7,1225 1736.7,1219.8C1740.7,1214.6 1742.6,1212.6 1745.6,1209C1752.2,1201 1759.1,1192.9 1768,1187.7C1773,1184.8 1778.5,1182.8 1783.5,1179.7" style="fill:url(#_Linear16);fill-rule:nonzero;"/>
                                    <path d="M1797.5,1175.5C1797.5,1175.5 1734.2,971.5 1682.7,915.9C1662,879.1 1604.1,849.5 1553.2,834.2L1544.2,849.1C1544.2,849.1 1600.4,875.8 1628.8,901.4C1682.1,949.4 1735.7,1103.2 1757.2,1197.8L1797.4,1175.3" style="fill:url(#_Linear17);fill-rule:nonzero;"/>
                                </g>
                            </g>
                        </g>
                        <g id="bodyMask">
                            <path d="M0.5,3.094L3000.49,-2.142L3005.73,2997.85L5.736,3003.09L0.5,3.094Z" style="fill:none;"/>
                            <path d="M2200.5,2195.7C2157.5,2166.3 2068.1,2134 2020.7,2120.2L2019.9,2119.9C2038.72,2070.01 2040.96,2015.36 2026.3,1964.1L1838.7,1353.7C1856.3,1318.8 1899.7,1242.8 1951.9,1227.8C1951.9,1227.8 1863.2,1171.3 1827.6,1242.1C1827.6,1242.1 1849.3,1176.2 1879.2,1177.4C1879.2,1177.4 1825.5,1163.9 1785.2,1179.2L1731.1,1004C1721.85,971.264 1705.76,940.86 1683.9,914.8L1757.2,796.2C1740.3,787.7 1636.4,830.8 1606.9,854C1597.5,849.3 1563.1,837.7 1553.1,834.2C1576.9,757.7 1535.5,706.8 1535.5,706.8C1541.3,752.3 1505.1,772.2 1505.1,772.2C1543.1,685 1366.4,598.2 1366.4,598.2C1366.4,598.2 1382.7,655.2 1331.3,698.7C1272.6,748.3 1296.6,791.7 1296.6,791.7C1296.6,791.7 1262.8,782.3 1265.2,750.1C1246.7,783.2 1258.3,814.5 1273.6,836.3C1259.5,842.1 1221.4,859.7 1208.8,868L1206.1,862.9C1161.6,826.3 1081.5,813.7 1070.5,829.3L1135,944.5C1117.58,973.123 1106.34,1005.08 1102,1038.3L1070.2,1205.3C1026.6,1194.1 975.4,1223.6 975.4,1223.6C1003.9,1214.6 1042.1,1272.4 1042.1,1272.4C989.1,1213.4 918.4,1291.3 918.4,1291.3C972.7,1292.1 1017.1,1358.9 1035.1,1390.3L919.2,1999.6C913.907,2039.21 918.229,2079.51 931.8,2117.1L931.2,2117.4C893.1,2126.5 800.8,2160.8 746.7,2195.7C720.2,2212.8 736.6,2251.6 769.9,2251L1036.8,2245.8C1041.33,2248.53 1045.93,2251.17 1050.6,2253.7L1050.8,2257.1C1051.2,2280.4 1044.1,2299.5 1020.9,2300.7C1005.3,2301.5 992.7,2310.6 990.3,2321.8C985.6,2343.3 996.1,2360.7 1017.5,2362.2L1101.8,2367.2C1128.2,2368.8 1153.7,2355.9 1167.1,2333.1C1171.44,2325.72 1174.42,2317.63 1175.9,2309.2L1180.9,2282.6L1714.5,2282.6L1718,2303.3C1722.06,2327.59 1738.37,2348.14 1761.1,2357.6C1768.16,2360.51 1775.77,2361.87 1783.4,2361.6L1875.2,2358.6C1897.2,2356.4 1905.3,2342.9 1903.1,2321.7C1902.4,2314.8 1896.9,2297.2 1878.6,2296.2C1862.8,2295.3 1853.4,2287.6 1850.5,2274.3C1873.54,2268.14 1895.57,2258.68 1915.9,2246.2L2177.4,2251.3C2210.6,2251.6 2226.6,2213.5 2200.5,2195.7Z" style="fill:none;"/>
                        </g>
                        <g id="body">
                            <path d="M1714.5,2282.4L1180.9,2282.4" style="fill:white;fill-rule:nonzero;stroke:rgb(49,50,61);stroke-width:12.5px;"/>
                            <path d="M1851.5,1395.4L2026.3,1964C2065.3,2101.9 1981.1,2239 1850.5,2273.9M1050.7,2253.7C961.5,2206.6 905,2107.5 919.2,1999.6L1026,1438.4" style="fill:none;stroke:rgb(49,50,61);stroke-width:12.5px;"/>
                            <path d="M1228.6,2040.8C1226.9,2056.1 1224.8,2071.2 1222.6,2086.4L1219.1,2109.1L1215.3,2131.7C1212.7,2146.8 1209.9,2161.8 1207.2,2176.9L1198.9,2222L1182.3,2312.3C1181.47,2316.42 1180.3,2320.47 1178.8,2324.4C1177.31,2328.34 1175.51,2332.15 1173.4,2335.8C1169.19,2343.12 1163.78,2349.67 1157.4,2355.2C1144.53,2366.25 1128.42,2372.85 1111.5,2374L1105.2,2374.2L1099.1,2374.2L1087.6,2373.5L1064.7,2372.2L1018.9,2369.4L1014.2,2369.4L1012.4,2369.1C1010.13,2368.71 1007.88,2368.14 1005.7,2367.4C1001.15,2365.82 996.965,2363.34 993.4,2360.1C989.849,2356.82 987.021,2352.84 985.1,2348.4C983.297,2344.11 982.248,2339.55 982,2334.9C981.755,2330.47 982.091,2326.04 983,2321.7L983.2,2320.9L983.2,2319.2L983.5,2318.1C983.912,2316.87 984.414,2315.66 985,2314.5C986.106,2312.27 987.483,2310.19 989.1,2308.3C992.184,2304.7 995.916,2301.72 1000.1,2299.5C1004.09,2297.38 1008.37,2295.87 1012.8,2295C1014.98,2294.55 1017.18,2294.25 1019.4,2294.1L1022.1,2293.9L1024.2,2293.6C1025.67,2293.35 1027.11,2292.95 1028.5,2292.4C1029.84,2291.91 1031.11,2291.28 1032.3,2290.5C1036.9,2287.5 1040,2282.1 1041.7,2275.7C1043.33,2268.89 1043.94,2261.88 1043.5,2254.9L1042.6,2232L1040.7,2186.1C1040.1,2170.8 1039.4,2155.5 1038.9,2140.2L1038.9,2140.7C1038.3,2135.7 1037.6,2130.8 1036.9,2125.8C1036.5,2123.3 1036.1,2120.9 1035.7,2118.4C1035.3,2115.9 1034.8,2113.5 1034.3,2111.1C1033.8,2108.7 1033.3,2106.2 1032.7,2103.8L1030.9,2096.6C1029.63,2091.8 1028.17,2087.07 1026.5,2082.4C1025.7,2080.1 1024.8,2077.8 1023.9,2075.5C1023,2073.2 1022.1,2070.9 1021,2068.7L1019.5,2065.3L1017.9,2062L1016.2,2058.7L1014.4,2055.4L1012.6,2052.2L1010.7,2049L1006.7,2042.7C1005.3,2040.6 1003.9,2038.6 1002.4,2036.5L1000.2,2033.5L997.9,2030.5C997.555,2030.1 997.366,2029.58 997.366,2029.05C997.366,2027.82 998.374,2026.82 999.6,2026.82C1000.25,2026.82 1000.88,2027.1 1001.3,2027.6L1006.7,2033.2C1008.43,2035.13 1010.13,2037.1 1011.8,2039.1C1013.5,2041.1 1015.1,2043.1 1016.6,2045.2L1018.9,2048.4L1021.1,2051.6C1022.6,2053.8 1024,2055.9 1025.3,2058.2L1027.3,2061.6L1029.2,2065C1030.47,2067.27 1031.63,2069.6 1032.7,2072C1033.8,2074.4 1034.9,2076.7 1035.9,2079.2C1037.9,2084 1039.7,2088.9 1041.3,2093.9C1042.9,2098.9 1044.3,2103.9 1045.5,2108.9C1046.1,2111.43 1046.67,2113.97 1047.2,2116.5C1047.7,2119 1048.3,2121.6 1048.7,2124.1C1049.6,2129.2 1050.4,2134.3 1051.1,2139.4L1051.1,2139.9C1052,2155.2 1052.7,2170.5 1053.5,2185.7L1055.8,2231.5L1056.9,2254.4C1057.13,2258.5 1057.1,2262.61 1056.8,2266.7C1056.54,2270.91 1055.9,2275.1 1054.9,2279.2C1054.36,2281.34 1053.69,2283.44 1052.9,2285.5C1052.04,2287.65 1051,2289.72 1049.8,2291.7C1047.32,2295.84 1043.98,2299.38 1040,2302.1C1036.01,2304.75 1031.52,2306.55 1026.8,2307.4L1023.3,2307.9L1020.3,2308.1C1018.72,2308.19 1017.15,2308.39 1015.6,2308.7C1012.52,2309.33 1009.56,2310.41 1006.8,2311.9C1004.18,2313.29 1001.84,2315.15 999.9,2317.4C999.033,2318.41 998.295,2319.51 997.7,2320.7C997.117,2321.87 996.712,2323.11 996.5,2324.4C995.845,2327.55 995.61,2330.78 995.8,2334C995.964,2336.99 996.641,2339.94 997.8,2342.7C998.933,2345.32 1000.6,2347.67 1002.7,2349.6C1004.82,2351.51 1007.3,2352.97 1010,2353.9C1011.44,2354.38 1012.91,2354.74 1014.4,2355L1015.4,2355.2L1019.3,2355.2L1065.1,2357.9L1088,2359.3L1099.5,2360L1110,2360C1123.84,2359.11 1137.03,2353.78 1147.6,2344.8C1152.81,2340.34 1157.24,2335.03 1160.7,2329.1C1164.17,2323.13 1166.67,2316.65 1168.1,2309.9L1185.5,2219.8L1194.2,2174.7C1197.1,2159.7 1200,2144.7 1203,2129.7L1207.7,2107.2L1212.7,2084.8C1216.1,2069.9 1219.7,2055 1223.7,2040.2C1223.85,2038.97 1224.91,2038.03 1226.15,2038.03C1227.5,2038.03 1228.62,2039.15 1228.62,2040.5C1228.62,2040.6 1228.61,2040.7 1228.6,2040.8L1228.6,2040.8Z" style="fill:rgb(49,50,61);fill-rule:nonzero;"/>
                            <path d="M1095.2,2319.6L1094.7,2319.6L1093,2319.8C1090.97,2320.14 1089.01,2320.82 1087.2,2321.8C1084.63,2323.18 1082.36,2325.05 1080.5,2327.3C1079.43,2328.55 1078.46,2329.89 1077.6,2331.3C1076.7,2332.78 1075.9,2334.32 1075.2,2335.9L1074.7,2337.1L1074.2,2338.3L1073.7,2339.5L1073.3,2340.8C1072.8,2342.5 1072.4,2344.2 1072,2345.8L1071.5,2348.2C1071.3,2349 1071.2,2349.8 1071.1,2350.6C1071,2351.4 1070.7,2353.6 1070.5,2355C1070.3,2356.4 1070.3,2357.6 1070.2,2358.7C1070.1,2359.8 1070.1,2360.8 1070,2361.6L1070,2364.3C1070.01,2364.44 1070.02,2364.59 1070.02,2364.73C1070.02,2368.19 1067.17,2371.03 1063.71,2371.03C1060.26,2371.03 1057.41,2368.19 1057.41,2364.73C1057.41,2364.39 1057.44,2364.04 1057.5,2363.7C1057.52,2363.43 1057.55,2363.16 1057.6,2362.9L1058.1,2360.2C1058.3,2359.3 1058.4,2358.3 1058.7,2357.1C1059,2355.9 1059.2,2354.5 1059.6,2353C1060,2351.5 1060.4,2349.9 1060.9,2348.2L1061.7,2345.6L1062.6,2342.9C1063.3,2341.1 1064,2339.2 1064.9,2337.4L1065.5,2336L1066.2,2334.6L1066.9,2333.2L1067.7,2331.8C1068.78,2329.99 1069.98,2328.25 1071.3,2326.6C1072.57,2324.99 1073.98,2323.48 1075.5,2322.1C1078.23,2319.58 1081.42,2317.61 1084.9,2316.3C1087.37,2315.38 1089.97,2314.87 1092.6,2314.8L1095.7,2314.8C1096.92,2314.93 1097.86,2315.97 1097.86,2317.2C1097.86,2318.52 1096.77,2319.61 1095.45,2319.61C1095.37,2319.61 1095.28,2319.61 1095.2,2319.6ZM1052.7,2314.9L1052.1,2314.9L1050.5,2315.3L1048,2316.2L1047.3,2316.5L1046.5,2316.9L1044.9,2317.8L1043.2,2318.9L1041.5,2320.2L1040.6,2320.9L1039.8,2321.7L1038.2,2323.4L1036.7,2325.4L1036,2326.4L1035.4,2327.5L1034.1,2329.7L1033,2332.1C1032.7,2332.9 1032.3,2333.7 1032,2334.5L1031.2,2337L1030.4,2339.4L1029.8,2341.9C1029.38,2343.45 1029.04,2345.02 1028.8,2346.6L1028.2,2350.9C1028.04,2352.13 1027.93,2353.36 1027.9,2354.6L1027.7,2357.4L1027.5,2359.9L1027.5,2360.3C1027.5,2360.39 1027.51,2360.49 1027.51,2360.58C1027.51,2364.04 1024.66,2366.88 1021.21,2366.88C1017.75,2366.88 1014.91,2364.04 1014.91,2360.58C1014.91,2360.22 1014.94,2359.86 1015,2359.5C1015.02,2359.23 1015.05,2358.96 1015.1,2358.7L1015.6,2356L1016.2,2352.9C1016.5,2351.7 1016.6,2350.4 1017.1,2348.9L1018.4,2344.2C1018.91,2342.44 1019.51,2340.7 1020.2,2339L1021.2,2336.3L1022.5,2333.6L1023.8,2330.9C1024.3,2330 1024.9,2329.1 1025.4,2328.2L1027.1,2325.6L1029,2323.2L1029.9,2322L1031,2320.9L1033.1,2318.8L1035.3,2317L1036.4,2316.1L1037.6,2315.4L1039.8,2314L1042,2312.9L1044.1,2312.1L1045.1,2311.7L1046.1,2311.4C1047.15,2311.1 1048.22,2310.87 1049.3,2310.7L1051.5,2310.5L1052.3,2310.5C1052.37,2310.49 1052.43,2310.49 1052.5,2310.49C1053.71,2310.49 1054.71,2311.49 1054.71,2312.7C1054.71,2313.84 1053.83,2314.8 1052.7,2314.9L1052.7,2314.9ZM1673.7,2025.2L1675.9,2034.6C1677.3,2040.7 1679.3,2049.7 1681.7,2061.2C1682.9,2066.9 1684.2,2073.3 1685.6,2080.2L1690,2102.7L1694.8,2128.3L1699.8,2156.7L1723.1,2292C1724.2,2298.1 1725.1,2304.8 1726.7,2309.8C1728.37,2315.34 1730.79,2320.62 1733.9,2325.5C1740.24,2335.51 1749.2,2343.6 1759.8,2348.9L1763.9,2350.8L1765,2351.2L1766,2351.6L1768,2352.3C1770.74,2353.13 1773.55,2353.7 1776.4,2354L1780.7,2354.3L1785.3,2354.3L1795.3,2354L1835.4,2352.6L1874.8,2351.4L1877.3,2351.1L1878.5,2350.9L1879.4,2350.7L1881.3,2350.3L1883.2,2349.7C1885.55,2348.91 1887.75,2347.73 1889.7,2346.2C1891.49,2344.71 1892.95,2342.88 1894,2340.8C1894.2,2340.2 1894.6,2339.7 1894.7,2339.1L1895.3,2337.3C1895.65,2336.02 1895.92,2334.72 1896.1,2333.4C1896.31,2332.04 1896.44,2330.67 1896.5,2329.3L1896.5,2327.2C1896.5,2327.2 1896.5,2325.8 1896.4,2325L1896.2,2322.8L1896.2,2322.5C1896.18,2322.64 1896.05,2322.75 1895.9,2322.75C1895.74,2322.75 1895.6,2322.62 1895.6,2322.45C1895.6,2322.28 1895.74,2322.15 1895.9,2322.15C1896.05,2322.15 1896.18,2322.26 1896.2,2322.4L1896.2,2320.8L1896,2320L1895.8,2319.1C1895.7,2318.5 1895.4,2317.8 1895.2,2317.2C1893.5,2312.2 1890.5,2307.9 1886.8,2305.5C1884.84,2304.32 1882.66,2303.54 1880.4,2303.2L1878.6,2303L1876,2302.8L1874.8,2302.8L1873.3,2302.6L1870.4,2302.1C1866.58,2301.25 1862.9,2299.83 1859.5,2297.9C1855.96,2295.88 1852.86,2293.16 1850.4,2289.9C1848.05,2286.76 1846.25,2283.25 1845.1,2279.5C1844.06,2276.02 1843.42,2272.43 1843.2,2268.8C1843.1,2267.9 1843.1,2267.1 1843.1,2266.2L1843.1,2259L1843.3,2249.9L1844.1,2214.5L1844.3,2205.9L1844.3,2201.3L1844.6,2197.1L1844.9,2192.9C1845,2191.5 1845.1,2190.2 1845.3,2188.7L1846.3,2180.3C1847.76,2169.67 1849.89,2159.15 1852.7,2148.8C1855.24,2139.31 1858.27,2129.97 1861.8,2120.8L1864.5,2114.4C1865.4,2112.3 1866.2,2110.2 1867.2,2108.2L1870,2102.3C1870.9,2100.4 1871.8,2098.4 1872.8,2096.6L1875.7,2091.2L1877.1,2088.6L1878.6,2086.1L1881.5,2081.2C1882.4,2079.6 1883.3,2078 1884.3,2076.5L1889.9,2067.8L1895.3,2060.1L1897.9,2056.6L1900.4,2053.4C1902,2051.3 1903.5,2049.3 1905,2047.6L1909.1,2042.7L1912.6,2038.7L1919.2,2031.6C1919.62,2031.09 1920.24,2030.8 1920.9,2030.8C1922.11,2030.8 1923.1,2031.79 1923.1,2033C1923.1,2033.51 1922.92,2034.01 1922.6,2034.4L1917,2042.2C1913.4,2047.3 1908.2,2054.8 1902.1,2064.7L1897.4,2072.5L1892.6,2081.3C1891.7,2082.8 1890.9,2084.4 1890.1,2086L1887.6,2090.9L1886.3,2093.4L1885.1,2096L1882.6,2101.4C1875.15,2117.69 1869.23,2134.63 1864.9,2152L1864,2155.6L1863.6,2157.4L1863.2,2159.2L1861.7,2166.6L1861.3,2168.5L1861,2170.4L1860.4,2174.2L1859.8,2178.1L1859.5,2180L1859.3,2181.9L1858.4,2189.7C1858.2,2191 1858.2,2192.4 1858.1,2193.8L1857.8,2198L1857.5,2202.2L1857.5,2214.7L1857,2250.1L1857,2265.9C1857,2265.9 1857,2267.3 1857.1,2267.9C1857.28,2270.45 1857.75,2272.96 1858.5,2275.4C1859.2,2277.64 1860.28,2279.73 1861.7,2281.6C1864.4,2285.2 1868.6,2287.4 1873.7,2288.5L1875.5,2288.8L1876.4,2289L1877.6,2289L1879.8,2289.2L1882.8,2289.5C1886.94,2290.1 1890.92,2291.53 1894.5,2293.7C1898.03,2295.92 1901.09,2298.8 1903.5,2302.2C1905.81,2305.42 1907.63,2308.95 1908.9,2312.7C1909.2,2313.6 1909.5,2314.5 1909.7,2315.5L1910.1,2316.9L1910.4,2318.5L1910.4,2321.4L1910.6,2324.1C1910.7,2325 1910.7,2325.9 1910.7,2326.9C1910.7,2327.9 1910.8,2328.7 1910.7,2329.7C1910.64,2331.61 1910.47,2333.51 1910.2,2335.4C1909.93,2337.36 1909.53,2339.3 1909,2341.2L1908,2344.1C1907.7,2345.1 1907.2,2346 1906.7,2347C1904.79,2350.88 1902.1,2354.32 1898.8,2357.1C1895.55,2359.72 1891.86,2361.75 1887.9,2363.1L1885.1,2364L1882.1,2364.7L1880.6,2365L1879.3,2365.2L1876.8,2365.5L1871.1,2365.5L1866.1,2365.7L1856.1,2366.1L1836,2366.8L1795.9,2368.1L1785.9,2368.4L1780.5,2368.4L1774.9,2368C1771.17,2367.58 1767.49,2366.81 1763.9,2365.7L1761.2,2364.8L1759.8,2364.3L1758.6,2363.8L1753.7,2361.5C1740.83,2355 1729.97,2345.11 1722.3,2332.9C1718.54,2326.93 1715.61,2320.47 1713.6,2313.7L1712.9,2311.1L1712.6,2309.8C1712.5,2309.4 1712.4,2308.9 1712.3,2308.5L1711.8,2306.2L1711.6,2305L1711.6,2303.6L1710.1,2294.3L1688.1,2158.7L1683.6,2130.2L1679.8,2104.5L1676.6,2081.8C1675.6,2074.8 1674.8,2068.4 1674.1,2062.5C1672.6,2050.9 1671.6,2041.7 1670.9,2035.4L1669.9,2025.8C1670.22,2024.93 1671.05,2024.36 1671.97,2024.36C1672.64,2024.36 1673.28,2024.67 1673.7,2025.2L1673.7,2025.2Z" style="fill:rgb(49,50,61);fill-rule:nonzero;"/>
                            <path d="M1783.2,2307.4L1786.4,2307.4C1789.12,2307.65 1791.81,2308.22 1794.4,2309.1C1796.15,2309.66 1797.86,2310.36 1799.5,2311.2C1801.36,2312.14 1803.14,2313.24 1804.8,2314.5C1806.6,2315.85 1808.27,2317.36 1809.8,2319C1810.5,2319.9 1811.3,2320.7 1812,2321.7L1813,2323.1L1814,2324.6C1815.25,2326.55 1816.35,2328.59 1817.3,2330.7C1818.22,2332.72 1819.02,2334.79 1819.7,2336.9C1820.1,2337.9 1820.3,2338.9 1820.6,2339.9C1820.9,2340.9 1821.1,2341.9 1821.3,2342.8L1821.9,2345.6L1822.3,2348.2C1822.6,2349.9 1822.7,2351.4 1822.9,2352.8C1823.1,2354.2 1823.2,2355.3 1823.2,2356.3L1823.4,2359.4C1823.25,2362.75 1820.46,2365.42 1817.11,2365.42C1814.06,2365.42 1811.42,2363.2 1810.9,2360.2C1810.89,2359.97 1810.89,2359.73 1810.9,2359.5L1810.9,2359.2L1811.1,2356.5C1811.2,2355.6 1811.2,2354.6 1811.2,2353.4C1811.2,2352.2 1811.3,2350.8 1811.2,2349.4L1811.2,2347.1L1811,2344.7C1810.9,2343.9 1810.8,2343 1810.7,2342.2C1810.6,2341.4 1810.5,2340.4 1810.3,2339.6C1809.97,2337.81 1809.54,2336.04 1809,2334.3C1808.43,2332.52 1807.73,2330.78 1806.9,2329.1L1806.3,2327.8L1805.6,2326.6C1805.2,2325.8 1804.6,2325 1804.1,2324.3C1803.06,2322.83 1801.88,2321.46 1800.6,2320.2C1798.26,2317.93 1795.55,2316.08 1792.6,2314.7C1790.49,2313.71 1788.28,2312.97 1786,2312.5L1784.1,2312.2L1783.4,2312.2C1783.37,2312.2 1783.33,2312.2 1783.3,2312.2C1781.98,2312.2 1780.9,2311.12 1780.9,2309.8C1780.9,2308.52 1781.92,2307.45 1783.2,2307.4ZM1833.8,2304.2L1837,2304.2C1839.72,2304.45 1842.41,2305.02 1845,2305.9C1846.76,2306.46 1848.46,2307.16 1850.1,2308C1851.96,2308.94 1853.74,2310.04 1855.4,2311.3C1857.2,2312.65 1858.87,2314.16 1860.4,2315.8C1861.1,2316.7 1861.9,2317.5 1862.6,2318.5L1863.6,2319.9L1864.6,2321.4C1865.85,2323.35 1866.95,2325.39 1867.9,2327.5C1868.82,2329.52 1869.62,2331.59 1870.3,2333.7C1870.7,2334.7 1870.9,2335.7 1871.2,2336.7C1871.5,2337.7 1871.7,2338.7 1871.9,2339.6L1872.5,2342.4L1872.9,2345C1873.2,2346.7 1873.3,2348.2 1873.5,2349.6C1873.7,2351 1873.8,2352.1 1873.8,2353.1L1874,2356.2C1874.04,2356.48 1874.06,2356.76 1874.06,2357.04C1874.06,2360.5 1871.21,2363.34 1867.76,2363.34C1864.3,2363.34 1861.46,2360.5 1861.46,2357.04C1861.46,2356.79 1861.47,2356.55 1861.5,2356.3L1861.5,2356L1861.7,2353.3C1861.8,2352.4 1861.8,2351.4 1861.8,2350.2C1861.8,2349 1861.9,2347.6 1861.8,2346.2L1861.8,2343.9L1861.6,2341.5C1861.5,2340.7 1861.4,2339.8 1861.3,2339C1861.2,2338.2 1861.1,2337.2 1860.9,2336.4C1860.57,2334.61 1860.13,2332.84 1859.6,2331.1C1859.03,2329.32 1858.33,2327.58 1857.5,2325.9L1856.9,2324.6L1856.2,2323.4C1855.8,2322.6 1855.2,2321.8 1854.7,2321.1C1853.66,2319.63 1852.49,2318.26 1851.2,2317C1848.86,2314.74 1846.15,2312.88 1843.2,2311.5C1841.09,2310.51 1838.88,2309.77 1836.6,2309.3L1834.7,2309L1834,2309C1833.97,2309 1833.93,2309 1833.9,2309C1832.58,2309 1831.5,2307.92 1831.5,2306.6C1831.5,2305.32 1832.52,2304.25 1833.8,2304.2Z" style="fill:rgb(49,50,61);fill-rule:nonzero;"/>
                            <path d="M931.3,2117.4C893.2,2126.5 800.9,2160.8 746.8,2195.7C720.3,2212.8 736.7,2251.6 770,2251L1050.4,2245.5" style="fill:none;stroke:rgb(49,50,61);stroke-width:12.5px;"/>
                            <path d="M840.5,2200.1L839.8,2200.3L837.8,2200.9L834.7,2201.9L830.7,2203.4L826.2,2205.5C824.583,2206.35 823.014,2207.28 821.5,2208.3C819.944,2209.35 818.473,2210.52 817.1,2211.8C815.721,2213.06 814.48,2214.47 813.4,2216L812.6,2217.1L811.9,2218.3C811.484,2219.08 811.117,2219.88 810.8,2220.7C810.6,2221.1 810.5,2221.5 810.4,2221.9C810.272,2222.29 810.172,2222.69 810.1,2223.1C809.913,2223.89 809.779,2224.69 809.7,2225.5L809.7,2229.1C809.7,2229.5 809.8,2229.9 809.8,2230.3C809.848,2231.04 809.948,2231.78 810.1,2232.5C810.3,2233.2 810.4,2233.9 810.6,2234.6C810.937,2235.82 811.338,2237.02 811.8,2238.2C812.152,2239.15 812.553,2240.09 813,2241L814.2,2243.4L814.4,2243.7C814.698,2244.45 814.852,2245.24 814.852,2246.04C814.852,2249.5 812.008,2252.34 808.552,2252.34C806.307,2252.34 804.225,2251.14 803.1,2249.2L802.8,2248.5L801.7,2245.4C801.3,2244.4 801,2243.2 800.6,2241.7C800.182,2240.09 799.848,2238.45 799.6,2236.8C799.5,2235.9 799.4,2234.9 799.3,2233.9C799.198,2232.84 799.165,2231.77 799.2,2230.7L799.2,2229L799.4,2227.3C799.5,2226.7 799.5,2226.1 799.6,2225.6L800,2223.8C800.256,2222.61 800.59,2221.44 801,2220.3C801.201,2219.72 801.434,2219.15 801.7,2218.6L802.5,2216.9C803.1,2215.79 803.768,2214.72 804.5,2213.7L805.6,2212.2L806.8,2210.8C808.422,2208.98 810.232,2207.34 812.2,2205.9C814.036,2204.55 815.975,2203.35 818,2202.3C819.85,2201.33 821.753,2200.46 823.7,2199.7L828.9,2197.9L833.3,2196.7L836.8,2196L839.1,2195.7L839.9,2195.7C840.032,2195.68 840.166,2195.66 840.3,2195.66C841.527,2195.66 842.536,2196.67 842.536,2197.9C842.536,2198.98 841.759,2199.91 840.7,2200.1L840.6,2200.1L840.5,2200.1ZM793,2202.1L792.4,2202.1L790.7,2202.6C788.667,2203.27 786.693,2204.1 784.8,2205.1C783.554,2205.76 782.351,2206.49 781.2,2207.3C779.96,2208.17 778.79,2209.14 777.7,2210.2C776.612,2211.33 775.641,2212.57 774.8,2213.9C773.961,2215.21 773.289,2216.62 772.8,2218.1C772.561,2218.82 772.36,2219.56 772.2,2220.3C772.1,2221.1 771.9,2221.8 771.9,2222.6C771.79,2224.13 771.824,2225.67 772,2227.2C772.175,2228.65 772.443,2230.09 772.8,2231.5C773.2,2232.9 773.5,2234.2 774,2235.4L774.6,2237.1L775.3,2238.6L775.9,2239.9L776.5,2241L777.6,2243.1L777.6,2243.3C777.856,2244 777.987,2244.73 777.987,2245.47C777.987,2248.93 775.143,2251.77 771.687,2251.77C769.554,2251.77 767.56,2250.69 766.4,2248.9L766.1,2248.1L765.2,2245.4L764.7,2244L764.2,2242.3L763.7,2240.4C763.5,2239.7 763.4,2239 763.2,2238.2C763,2237.4 762.6,2234.9 762.4,2233.1C762.203,2231.14 762.137,2229.17 762.2,2227.2C762.271,2225.08 762.539,2222.97 763,2220.9C763.2,2219.8 763.6,2218.8 763.9,2217.7C764.274,2216.64 764.708,2215.61 765.2,2214.6C766.163,2212.59 767.373,2210.71 768.8,2209C770.152,2207.42 771.66,2205.98 773.3,2204.7C774.818,2203.58 776.423,2202.57 778.1,2201.7C779.588,2200.93 781.125,2200.27 782.7,2199.7C785.005,2198.83 787.381,2198.16 789.8,2197.7L791.8,2197.4L792.6,2197.4C792.732,2197.38 792.866,2197.36 793,2197.36C794.227,2197.36 795.236,2198.37 795.236,2199.6C795.236,2200.68 794.459,2201.61 793.4,2201.8L793,2201.8L793,2202.1Z" style="fill:rgb(49,50,61);fill-rule:nonzero;"/>
                            <path d="M2020.7,2120.2C2068.2,2134 2157.5,2166.3 2200.5,2195.7C2226.6,2213.5 2210.6,2251.6 2177.3,2251L1915.7,2245.9" style="fill:none;stroke:rgb(49,50,61);stroke-width:12.5px;"/>
                            <path d="M2107.6,2193.7L2108.4,2193.7L2110.7,2194.1L2114.2,2194.9L2118.7,2196.3L2123.9,2198.3C2125.82,2199.13 2127.68,2200.07 2129.5,2201.1C2131.49,2202.22 2133.4,2203.49 2135.2,2204.9C2137.13,2206.42 2138.91,2208.13 2140.5,2210L2141.7,2211.5L2142.8,2213.1C2143.5,2214.16 2144.14,2215.26 2144.7,2216.4C2145,2217 2145.2,2217.6 2145.5,2218.1C2145.8,2218.6 2146,2219.3 2146.2,2219.9L2147.1,2222.6L2147.3,2223.5C2147.58,2224.65 2147.78,2225.82 2147.9,2227C2148.04,2228.13 2148.11,2229.26 2148.1,2230.4C2148.12,2232.47 2147.99,2234.55 2147.7,2236.6C2147.45,2238.28 2147.12,2239.95 2146.7,2241.6C2146.3,2243.1 2146,2244.4 2145.6,2245.3L2144.5,2248.5C2143.43,2250.63 2141.25,2251.97 2138.87,2251.97C2135.41,2251.97 2132.57,2249.13 2132.57,2245.67C2132.57,2245.24 2132.61,2244.82 2132.7,2244.4L2133,2243.7L2133.2,2243.4L2134.4,2241C2134.8,2240.2 2135.1,2239.3 2135.6,2238.2C2136.1,2237.1 2136.4,2235.9 2136.8,2234.5C2137.17,2233.05 2137.44,2231.58 2137.6,2230.1C2137.7,2229.3 2137.73,2228.5 2137.7,2227.7C2137.73,2226.87 2137.7,2226.03 2137.6,2225.2L2137.6,2224L2137.4,2222.7C2137.3,2222.3 2137.2,2221.9 2137,2221.4C2136.89,2220.96 2136.76,2220.53 2136.6,2220.1C2136.29,2219.24 2135.92,2218.41 2135.5,2217.6L2134.8,2216.4L2134,2215.2C2132.92,2213.61 2131.68,2212.14 2130.3,2210.8C2128.93,2209.42 2127.46,2208.15 2125.9,2207C2124.39,2205.92 2122.82,2204.91 2121.2,2204L2116.7,2201.7C2114.39,2200.6 2112.02,2199.63 2109.6,2198.8L2107.6,2198.2L2106.9,2198L2106.8,2198C2105.87,2197.72 2105.24,2196.86 2105.24,2195.89C2105.24,2194.69 2106.23,2193.69 2107.44,2193.69C2107.49,2193.69 2107.55,2193.7 2107.6,2193.7ZM2155.1,2195.7L2155.9,2195.7L2158,2196.1C2160.43,2196.7 2162.8,2197.5 2165.1,2198.5C2166.65,2199.17 2168.15,2199.94 2169.6,2200.8C2171.25,2201.78 2172.82,2202.88 2174.3,2204.1C2175.91,2205.46 2177.38,2206.96 2178.7,2208.6C2180.78,2211.24 2182.41,2214.22 2183.5,2217.4C2183.9,2218.5 2184.1,2219.6 2184.4,2220.6C2184.7,2221.6 2184.8,2222.8 2185,2223.9C2185.2,2225 2185.3,2226.1 2185.2,2227.1C2185.1,2228.1 2185.3,2229.2 2185.2,2230.2L2185,2233.1C2184.7,2234.9 2184.5,2236.7 2184.2,2238.3L2183.7,2240.6L2183.1,2242.6L2182.6,2244.4L2182.1,2245.8L2181.2,2248.5C2180.13,2250.63 2177.95,2251.97 2175.57,2251.97C2172.11,2251.97 2169.27,2249.13 2169.27,2245.67C2169.27,2245.24 2169.31,2244.82 2169.4,2244.4L2169.7,2243.7L2169.7,2243.4L2170.8,2241.2L2171.4,2240L2172,2238.6L2172.7,2237L2173.3,2235.3C2173.8,2234.1 2174.1,2232.7 2174.5,2231.3L2174.9,2229.1C2175.1,2228.4 2175.1,2227.6 2175.2,2226.8C2175.3,2226 2175.3,2225.3 2175.3,2224.5C2175.3,2223.7 2175.2,2222.9 2175.2,2222.1C2175.2,2221.3 2175,2220.5 2174.9,2219.7C2174.74,2218.92 2174.55,2218.15 2174.3,2217.4C2173.81,2215.86 2173.14,2214.38 2172.3,2213C2171.46,2211.61 2170.49,2210.3 2169.4,2209.1C2168.32,2207.95 2167.14,2206.88 2165.9,2205.9C2164.75,2205.03 2163.55,2204.22 2162.3,2203.5C2160.42,2202.37 2158.44,2201.4 2156.4,2200.6L2154.7,2200L2154.1,2199.8L2154,2199.8C2153.32,2199.41 2152.91,2198.68 2152.91,2197.9C2152.91,2196.7 2153.9,2195.7 2155.1,2195.7L2155.1,2195.7Z" style="fill:rgb(49,50,61);fill-rule:nonzero;"/>
                            <path d="M1839.7,1357.2L1899.4,1551.3M1783.8,1175.5L1731.1,1004C1710.04,929.517 1654.34,869.567 1581.6,843.1L1555.1,834.2M1071.3,1200.2L1102.1,1038.2C1113.16,953.819 1168.13,881.325 1246.4,847.9L1264.5,840.8L1272.4,837.7M1011.8,1513L1034.2,1395" style="fill:none;stroke:rgb(49,50,61);stroke-width:12.5px;"/>
                            <path d="M1040.5,1407.7C1038.9,1404.5 1037.1,1401.3 1035.3,1398.1C1033.5,1394.9 1031.7,1391.8 1029.8,1388.6C1026,1382.33 1022.03,1376.2 1017.9,1370.2C1009.65,1358.21 1000.49,1346.88 990.5,1336.3C980.5,1325.9 969.5,1316.4 957.4,1309.2C954.384,1307.41 951.281,1305.78 948.1,1304.3C944.943,1302.87 941.704,1301.64 938.4,1300.6C931.935,1298.52 925.191,1297.44 918.4,1297.4C918.387,1297.4 918.374,1297.4 918.361,1297.4C914.959,1297.4 912.161,1294.6 912.161,1291.2C912.161,1289.64 912.746,1288.14 913.8,1287L913.9,1287L915.6,1285.2L917.3,1283.5L920.6,1280.3C922.9,1278.2 925.2,1276.2 927.5,1274.2C932.23,1270.24 937.171,1266.53 942.3,1263.1C947.482,1259.61 952.894,1256.46 958.5,1253.7C964.178,1250.89 970.103,1248.62 976.2,1246.9C982.452,1245.13 988.903,1244.15 995.4,1244C1002,1243.87 1008.58,1244.79 1014.9,1246.7C1018.06,1247.65 1021.13,1248.86 1024.1,1250.3C1027.05,1251.76 1029.89,1253.43 1032.6,1255.3C1035.26,1257.13 1037.8,1259.14 1040.2,1261.3C1042.58,1263.45 1044.85,1265.72 1047,1268.1L1037.1,1275.7L1034.1,1271.5L1030.9,1267.3C1028.77,1264.5 1026.57,1261.73 1024.3,1259C1019.83,1253.63 1015.02,1248.55 1009.9,1243.8C1005.03,1239.21 999.586,1235.28 993.7,1232.1C991.024,1230.7 988.161,1229.69 985.2,1229.1C982.615,1228.56 979.935,1228.66 977.4,1229.4C976.612,1229.75 975.761,1229.92 974.9,1229.92C971.486,1229.92 968.676,1227.11 968.676,1223.7C968.676,1221.23 970.142,1218.99 972.4,1218L976,1216.2L979.6,1214.5L986.8,1211.4C991.6,1209.47 996.5,1207.7 1001.5,1206.1C1011.43,1202.9 1021.64,1200.66 1032,1199.4C1042.44,1198.08 1053.03,1198.32 1063.4,1200.1C1066,1200.6 1068.6,1201.2 1071.1,1201.9C1073.6,1202.6 1076.1,1203.5 1078.6,1204.5C1081.02,1205.51 1083.39,1206.64 1085.7,1207.9C1088.01,1209.18 1090.24,1210.58 1092.4,1212.1C1093.1,1212.57 1093.52,1213.36 1093.52,1214.2C1093.52,1215.59 1092.38,1216.72 1091,1216.72C1090.5,1216.72 1090.02,1216.58 1089.6,1216.3C1081.31,1211.18 1071.99,1207.97 1062.3,1206.9C1052.6,1205.83 1042.79,1206.2 1033.2,1208C1023.53,1209.8 1014.06,1212.51 1004.9,1216.1C1000.3,1217.83 995.8,1219.77 991.4,1221.9L984.8,1225.2L981.6,1226.9L978.6,1228.7L973.6,1217.3C975.87,1216.59 978.224,1216.19 980.6,1216.1C982.878,1216.01 985.159,1216.18 987.4,1216.6C991.582,1217.41 995.624,1218.83 999.4,1220.8C1002.93,1222.62 1006.31,1224.73 1009.5,1227.1C1012.59,1229.38 1015.56,1231.81 1018.4,1234.4C1023.92,1239.53 1029.09,1245 1033.9,1250.8C1036.3,1253.67 1038.63,1256.57 1040.9,1259.5L1044.2,1264L1047.5,1268.7C1048.36,1269.8 1048.83,1271.15 1048.83,1272.55C1048.83,1275.97 1046.02,1278.78 1042.6,1278.78C1040.69,1278.78 1038.88,1277.9 1037.7,1276.4L1037.6,1276.4C1035.77,1274.37 1033.83,1272.43 1031.8,1270.6C1029.78,1268.8 1027.64,1267.12 1025.4,1265.6C1023.2,1264.07 1020.9,1262.7 1018.5,1261.5C1016.12,1260.34 1013.64,1259.37 1011.1,1258.6C1006.01,1257.05 1000.72,1256.3 995.4,1256.4C989.987,1256.53 984.612,1257.33 979.4,1258.8C974.06,1260.32 968.872,1262.33 963.9,1264.8C958.814,1267.3 953.903,1270.14 949.2,1273.3C944.452,1276.49 939.878,1279.92 935.5,1283.6C933.3,1285.4 931.2,1287.3 929.1,1289.3L926,1292.3L924.5,1293.8L923.1,1295.3L918.6,1284.8C926.611,1285.06 934.536,1286.55 942.1,1289.2C945.827,1290.58 949.467,1292.18 953,1294C956.494,1295.73 959.899,1297.63 963.2,1299.7C976.3,1308 987.5,1318.5 997.7,1329.7C1007.68,1340.95 1016.77,1352.95 1024.9,1365.6C1028.97,1371.87 1032.83,1378.27 1036.5,1384.8C1038.37,1388.07 1040.17,1391.33 1041.9,1394.6C1043.6,1397.9 1045.3,1401.2 1046.9,1404.7C1047.14,1405.18 1047.26,1405.71 1047.26,1406.25C1047.26,1408.18 1045.68,1409.76 1043.75,1409.76C1042.41,1409.76 1041.19,1409 1040.6,1407.8L1040.5,1407.7ZM1827,1370C1828.4,1366.1 1829.9,1362.4 1831.5,1358.6C1833.1,1354.8 1834.8,1351.2 1836.5,1347.5C1838.2,1343.8 1840,1340.2 1841.8,1336.5C1843.6,1332.8 1845.5,1329.3 1847.5,1325.7C1851.4,1318.5 1855.5,1311.5 1859.8,1304.6C1861.9,1301.1 1864.2,1297.7 1866.5,1294.4C1868.8,1291.1 1871.1,1287.7 1873.6,1284.4C1878.47,1277.8 1883.6,1271.4 1889,1265.2C1894.45,1258.96 1900.26,1253.06 1906.4,1247.5C1912.64,1241.83 1919.37,1236.71 1926.5,1232.2C1933.82,1227.6 1941.72,1224 1950,1221.5L1948.3,1233.5L1946.6,1232.5L1944.8,1231.5L1941,1229.5L1933.3,1225.7C1928.12,1223.32 1922.81,1221.21 1917.4,1219.4C1912.06,1217.63 1906.62,1216.19 1901.1,1215.1C1895.66,1214.03 1890.14,1213.46 1884.6,1213.4C1879.21,1213.33 1873.84,1213.93 1868.6,1215.2C1863.51,1216.46 1858.65,1218.52 1854.2,1221.3C1851.98,1222.7 1849.87,1224.27 1847.9,1226C1845.93,1227.77 1844.09,1229.67 1842.4,1231.7C1840.66,1233.76 1839.06,1235.93 1837.6,1238.2C1836.11,1240.49 1834.74,1242.86 1833.5,1245.3L1833.5,1245.5C1832.28,1247.57 1830.05,1248.84 1827.65,1248.84C1823.92,1248.84 1820.85,1245.77 1820.85,1242.04C1820.85,1241.42 1820.93,1240.8 1821.1,1240.2C1821.7,1238.3 1822.4,1236.6 1823,1234.8L1825.1,1229.6C1826.5,1226.13 1828,1222.7 1829.6,1219.3C1832.77,1212.47 1836.38,1205.86 1840.4,1199.5C1842.47,1196.25 1844.7,1193.11 1847.1,1190.1C1849.56,1186.99 1852.27,1184.08 1855.2,1181.4C1858.34,1178.54 1861.88,1176.15 1865.7,1174.3C1867.78,1173.33 1869.96,1172.59 1872.2,1172.1C1874.5,1171.6 1876.85,1171.39 1879.2,1171.5L1877.4,1183.8L1873.7,1182.9L1869.9,1182L1862.2,1180.5C1857.07,1179.57 1851.87,1178.8 1846.6,1178.2C1836.18,1177 1825.67,1176.7 1815.2,1177.3C1804.8,1177.84 1794.53,1179.86 1784.7,1183.3C1774.92,1186.68 1766.1,1192.38 1759,1199.9C1758.52,1200.45 1757.83,1200.77 1757.1,1200.77C1755.72,1200.77 1754.58,1199.63 1754.58,1198.25C1754.58,1197.64 1754.8,1197.06 1755.2,1196.6C1758.78,1192.24 1762.91,1188.38 1767.5,1185.1C1772.06,1181.85 1776.95,1179.1 1782.1,1176.9C1792.38,1172.62 1803.23,1169.82 1814.3,1168.6C1825.28,1167.32 1836.36,1166.98 1847.4,1167.6C1852.93,1167.87 1858.43,1168.33 1863.9,1169L1872.1,1170.1L1876.2,1170.8L1880.4,1171.6C1883.48,1172 1885.8,1174.65 1885.8,1177.75C1885.8,1181.15 1883,1183.95 1879.6,1183.95C1879.33,1183.95 1879.07,1183.93 1878.8,1183.9L1878.7,1183.9C1876.09,1183.88 1873.52,1184.5 1871.2,1185.7C1868.54,1187.08 1866.08,1188.83 1863.9,1190.9C1859.11,1195.54 1854.94,1200.78 1851.5,1206.5C1847.84,1212.42 1844.57,1218.56 1841.7,1224.9C1840.23,1228.1 1838.83,1231.33 1837.5,1234.6L1835.6,1239.5L1833.9,1244.4L1821.4,1239.2C1822.85,1236.32 1824.45,1233.51 1826.2,1230.8C1827.96,1228.04 1829.9,1225.4 1832,1222.9C1834.13,1220.37 1836.43,1218 1838.9,1215.8C1841.4,1213.59 1844.08,1211.59 1846.9,1209.8C1852.55,1206.26 1858.73,1203.62 1865.2,1202C1871.54,1200.42 1878.06,1199.65 1884.6,1199.7C1890.98,1199.75 1897.34,1200.38 1903.6,1201.6C1909.74,1202.77 1915.79,1204.37 1921.7,1206.4C1927.56,1208.42 1933.3,1210.76 1938.9,1213.4L1947.2,1217.5L1951.3,1219.7L1953.3,1220.9L1955.4,1222.2C1957.36,1223.4 1958.56,1225.54 1958.56,1227.83C1958.56,1230.8 1956.56,1233.42 1953.7,1234.2C1946.56,1236.32 1939.73,1239.38 1933.4,1243.3C1926.88,1247.36 1920.72,1251.97 1915,1257.1C1903.4,1267.4 1893.1,1279.3 1883.6,1291.9C1881.2,1295.03 1878.87,1298.2 1876.6,1301.4C1874.3,1304.6 1872.1,1307.9 1869.9,1311.2C1867.7,1314.5 1865.5,1317.8 1863.4,1321.1L1857.1,1331.2C1855,1334.6 1853,1338 1851,1341.4L1845,1351.8C1843,1355.3 1841.1,1358.8 1839.2,1362.3C1837.3,1365.8 1835.4,1369.3 1833.6,1372.8C1833.04,1374.12 1831.74,1374.99 1830.3,1374.99C1828.33,1374.99 1826.72,1373.37 1826.72,1371.4C1826.72,1370.92 1826.81,1370.44 1827,1370Z" style="fill:rgb(49,50,61);fill-rule:nonzero;"/>
                            <path d="M1206.2,862.9C1161.7,826.3 1081.6,813.7 1070.6,829.3L1135.1,944.5M1607,854C1636.5,830.8 1740.4,787.7 1757.3,796.2L1684,914.8" style="fill:none;stroke:rgb(49,50,61);stroke-width:12.5px;"/>
                            <path d="M1292.2,863.7C1290.2,861.8 1288.4,859.9 1286.6,857.9L1281.4,851.9C1278,847.833 1274.77,843.633 1271.7,839.3C1265.49,830.544 1260.36,821.076 1256.4,811.1C1254.43,806.011 1252.93,800.757 1251.9,795.4C1250.85,789.933 1250.45,784.361 1250.7,778.8C1250.86,775.982 1251.19,773.176 1251.7,770.4C1252.72,764.847 1254.5,759.463 1257,754.4C1258.25,751.885 1259.65,749.447 1261.2,747.1C1262.12,745.672 1263.71,744.807 1265.4,744.807C1268.15,744.807 1270.4,747.064 1270.4,749.807C1270.4,749.871 1270.4,749.936 1270.4,750L1270.4,750.3C1270.09,754.343 1270.67,758.407 1272.1,762.2C1273.61,765.9 1275.97,769.19 1279,771.8C1282.19,774.553 1285.81,776.781 1289.7,778.4C1291.69,779.248 1293.73,779.983 1295.8,780.6L1299,781.5L1300.6,781.8L1302,781.8L1296.6,790.6L1296.2,790L1295.9,789.5L1295.4,788.6L1294.5,786.9C1293.9,785.8 1293.4,784.6 1292.9,783.5C1291.93,781.193 1291.13,778.82 1290.5,776.4C1289.22,771.571 1288.58,766.595 1288.6,761.6C1288.68,751.764 1290.94,742.066 1295.2,733.2C1297.23,728.852 1299.61,724.672 1302.3,720.7C1304.97,716.792 1307.87,713.051 1311,709.5C1314.1,706 1317.3,702.6 1320.7,699.4L1325.9,694.7L1328.4,692.5L1329.7,691.4L1330.9,690.3C1334.01,687.44 1336.94,684.401 1339.7,681.2C1342.44,677.991 1344.98,674.618 1347.3,671.1C1349.61,667.609 1351.68,663.967 1353.5,660.2C1355.34,656.413 1356.91,652.504 1358.2,648.5C1360.79,640.502 1362.3,632.196 1362.7,623.8C1362.9,619.6 1362.84,615.391 1362.5,611.2C1362.3,609.1 1362.1,607 1361.8,605C1361.5,603 1361.5,603 1361.3,602L1361,600.5L1360.8,599.8L1360.8,599C1360.66,598.474 1360.59,597.932 1360.59,597.388C1360.59,593.932 1363.43,591.088 1366.89,591.088C1367.9,591.088 1368.9,591.332 1369.8,591.8C1374.5,594.1 1378.9,596.5 1383.4,599L1396.7,606.6C1405.5,611.8 1414.1,617.233 1422.5,622.9C1439.59,634.217 1455.71,646.927 1470.7,660.9C1478.25,668.001 1485.3,675.619 1491.8,683.7C1498.45,691.897 1504.15,700.821 1508.8,710.3C1511.12,715.167 1513.02,720.217 1514.5,725.4C1516.01,730.685 1516.94,736.116 1517.3,741.6C1517.68,747.149 1517.38,752.724 1516.4,758.2C1515.38,763.638 1513.74,768.939 1511.5,774L1502.5,765.8L1503.2,765.4L1504.1,764.8L1505.8,763.6L1509.2,760.9L1512.4,758L1515.4,754.9L1518.2,751.6L1519.5,749.9L1520.7,748.1C1521.5,746.9 1522.3,745.7 1522.9,744.4L1523.9,742.5L1524.9,740.6L1525.8,738.6L1526.6,736.6C1526.9,735.9 1527.1,735.2 1527.3,734.6C1527.5,734 1527.8,733.2 1527.9,732.6L1528.5,730.5L1529,728.4C1529.2,727.7 1529.3,727 1529.4,726.3C1529.5,725.6 1529.7,724.9 1529.7,724.2C1529.7,723.5 1530.1,721.3 1530.1,719.9C1530.1,718.5 1530.2,718.5 1530.2,717.7L1530.2,715.5C1530.3,714.1 1530.1,712.6 1530.1,711.1C1530.1,709.6 1529.8,708.2 1529.7,706.7L1529.7,706.3C1529.69,706.128 1529.68,705.955 1529.68,705.782C1529.68,702.56 1532.19,699.848 1535.4,699.6C1537.49,699.454 1539.51,700.355 1540.8,702L1541.7,703.2L1542.5,704.3L1544,706.5L1546.8,711C1548.6,714 1550.2,717.2 1551.6,720.3C1560.43,739.252 1564.75,759.998 1564.2,780.9C1563.79,794.671 1561.4,808.312 1557.1,821.4C1556.6,823 1556,824.6 1555.4,826.3L1553.6,831.1C1552.3,834.3 1551,837.4 1549.5,840.5C1548,843.6 1546.5,846.6 1544.9,849.6L1542.4,854.1L1539.8,858.5C1539.15,859.491 1538.05,860.091 1536.87,860.091C1534.95,860.091 1533.37,858.511 1533.37,856.591C1533.37,856.075 1533.48,855.566 1533.7,855.1L1536,850.8L1538.2,846.4C1539.6,843.5 1541,840.5 1542.3,837.5C1543.6,834.5 1544.8,831.5 1545.9,828.4L1547.5,823.8C1548,822.2 1548.5,820.7 1548.9,819.1C1552.5,806.689 1554.28,793.822 1554.2,780.9C1554.04,761.671 1549.42,742.739 1540.7,725.6C1539.3,722.8 1537.7,720 1536,717.3L1533.4,713.4L1532.1,711.5L1531.4,710.6L1530.8,709.8L1541.8,705.1C1542,706.8 1542.2,708.5 1542.3,710.2C1542.4,711.9 1542.5,713.6 1542.5,715.4L1542.5,718C1542.5,718.9 1542.4,719.7 1542.4,720.6C1542.4,721.5 1542.1,724.1 1541.9,725.8C1541.7,727.5 1541.6,727.5 1541.5,728.4C1541.4,729.3 1541.2,730.1 1541,731L1540.4,733.6L1539.7,736.1C1539.5,736.9 1539.2,737.8 1538.9,738.6C1538.6,739.4 1538.4,740.3 1538,741.1L1537,743.5L1535.9,745.9L1534.7,748.3L1533.5,750.6C1532.7,752.1 1531.7,753.6 1530.8,755.1L1529.3,757.3L1527.7,759.4L1524.4,763.4L1520.8,767.2L1517,770.7L1512.9,774L1510.7,775.5L1509.6,776.2L1508.3,777C1507.36,777.51 1506.31,777.778 1505.24,777.778C1501.73,777.778 1498.84,774.889 1498.84,771.378C1498.84,770.563 1499,769.756 1499.3,769L1499.4,769C1501.19,764.831 1502.5,760.469 1503.3,756C1504.07,751.544 1504.3,747.012 1504,742.5C1503.25,733.243 1500.74,724.213 1496.6,715.9C1492.39,707.314 1487.22,699.229 1481.2,691.8C1475.07,684.18 1468.42,676.996 1461.3,670.3C1454.2,663.5 1446.6,657.1 1438.9,651C1431.2,644.9 1423.1,639.1 1414.9,633.5C1406.7,627.9 1398.3,622.6 1389.7,617.5L1376.8,610.1C1372.5,607.7 1368,605.3 1363.7,603.2L1372.6,595.8L1372.9,596.8L1373.5,599.5L1374.1,603.1C1374.1,603.1 1374.7,607.8 1374.9,610.2C1375.27,614.924 1375.34,619.667 1375.1,624.4C1374.65,633.918 1372.93,643.333 1370,652.4C1368.54,656.916 1366.77,661.327 1364.7,665.6C1362.61,669.888 1360.24,674.03 1357.6,678C1354.97,681.943 1352.1,685.717 1349,689.3C1345.9,692.856 1342.59,696.229 1339.1,699.4L1337.8,700.6L1336.5,701.7L1333.9,703.9L1329,709C1325.9,711.9 1322.8,715 1320,718.2C1317.2,721.37 1314.59,724.71 1312.2,728.2C1309.82,731.627 1307.71,735.239 1305.9,739C1304.13,742.688 1302.73,746.54 1301.7,750.5C1300.69,754.389 1300.16,758.384 1300.1,762.4C1300.02,766.373 1300.45,770.34 1301.4,774.2C1301.87,776.107 1302.47,777.978 1303.2,779.8L1304.4,782.4L1305.1,783.6L1305.8,785C1306.36,785.889 1306.65,786.917 1306.65,787.965C1306.65,791.037 1304.12,793.565 1301.05,793.565C1300.77,793.565 1300.48,793.543 1300.2,793.5L1299.1,793.3L1298.1,793.1L1296.2,792.6L1292.4,791.5C1289.91,790.719 1287.47,789.784 1285.1,788.7C1280.16,786.508 1275.6,783.537 1271.6,779.9C1269.54,778.008 1267.7,775.895 1266.1,773.6C1264.5,771.269 1263.19,768.75 1262.2,766.1C1261.21,763.456 1260.54,760.703 1260.2,757.9C1259.9,755.176 1259.87,752.43 1260.1,749.7L1269.3,752.9C1267.95,754.858 1266.71,756.895 1265.6,759C1264.49,761.099 1263.52,763.27 1262.7,765.5C1261.92,767.722 1261.28,769.994 1260.8,772.3C1260.32,774.643 1259.99,777.015 1259.8,779.4C1259.1,789 1260.9,798.8 1264.3,808.1C1267.78,817.547 1272.38,826.544 1278,834.9C1280.8,839.1 1283.8,843.2 1287,847.2L1291.9,853.1C1293.6,855 1295.3,856.9 1297,858.6C1297.7,859.261 1298.1,860.185 1298.1,861.15C1298.1,863.071 1296.52,864.652 1294.6,864.652C1293.71,864.652 1292.85,864.311 1292.2,863.7Z" style="fill:rgb(49,50,61);fill-rule:nonzero;"/>
                        </g>
                        <g id="eye">
                            <g transform="matrix(0.130526,-0.991445,0.991445,0.130526,381.9,2638.3)">
                                <circle cx="1696" cy="1101.3" r="129.7" style="fill:white;"/>
                            </g>
                            <g>
                                <g transform="matrix(0.991445,-0.130526,0.130526,0.991445,-132.8,227.8)">
                                    <circle cx="1663.5" cy="1122.6" r="105.2" style="fill:rgb(76,122,239);"/>
                                </g>
                                <g transform="matrix(0.991445,-0.130526,0.130526,0.991445,-133,228.3)">
                                    <circle cx="1667.8" cy="1124.1" r="77.6" style="fill:rgb(49,50,61);"/>
                                </g>
                                <g transform="matrix(0.99,-0.13,0.13,0.99,-124.02,231.23)">
                                    <circle cx="1694.3" cy="1057.6" r="42.2" style="fill:white;"/>
                                </g>
                            </g>
                            <g transform="matrix(0.130526,-0.991445,0.991445,0.130526,381.9,2638.3)">
                                <circle cx="1696" cy="1101.3" r="129.7" style="fill:none;stroke:rgb(49,50,61);stroke-width:10px;"/>
                            </g>
                            <path d="M1728.2,951.5C1665.9,968.2 1612.2,996.6 1569.7,1041.6" style="fill:none;stroke:rgb(49,50,61);stroke-width:30px;"/>
                            <g transform="matrix(0.991445,-0.130526,0.130526,0.991445,-137.7,163)">
                                <circle cx="1168.9" cy="1127" r="129.7" style="fill:white;"/>
                            </g>
                            <g>
                                <g transform="matrix(0.991445,-0.130526,0.130526,0.991445,-140.9,168.2)">
                                    <circle cx="1207.4" cy="1154.2" r="87.6" style="fill:rgb(76,122,239);"/>
                                </g>
                                <g transform="matrix(0.991445,-0.130526,0.130526,0.991445,-141,168.7)">
                                    <circle cx="1211" cy="1155.4" r="64.7" style="fill:rgb(49,50,61);"/>
                                </g>
                                <g transform="matrix(0.991445,-0.130526,0.130526,0.991445,-133.6,171.1)">
                                    <circle cx="1233.1" cy="1100" r="35.2" style="fill:white;"/>
                                </g>
                            </g>
                            <g transform="matrix(0.991445,-0.130526,0.130526,0.991445,-137.7,163)">
                                <circle cx="1168.9" cy="1127" r="129.7" style="fill:none;stroke:rgb(49,50,61);stroke-width:10px;"/>
                            </g>
                            <path d="M1819.9,1139.5C1803.18,1193.8 1752.66,1231.1 1695.85,1231.1C1650.69,1231.1 1608.65,1207.53 1585.1,1169C1664.59,1177.25 1744.92,1167.16 1819.9,1139.5Z" style="fill:rgb(252,218,134);fill-rule:nonzero;"/>
                            <path d="M1819.9,1139.5C1803.88,1191.48 1756.82,1228.12 1702.5,1230.9C1653.3,1233.4 1610.1,1208.2 1586.1,1168.9C1621.74,1172.64 1657.66,1172.64 1693.3,1168.9C1736.56,1164.4 1779.09,1154.52 1819.9,1139.5Z" style="fill:none;stroke:rgb(49,50,61);stroke-width:10px;"/>
                            <path d="M1044.2,1165.2C1060.92,1219.5 1111.44,1256.8 1168.25,1256.8C1213.41,1256.8 1255.45,1233.23 1279,1194.7C1199.51,1202.95 1119.18,1192.86 1044.2,1165.2Z" style="fill:rgb(252,218,134);fill-rule:nonzero;"/>
                            <path d="M1044.2,1165.2C1060.92,1219.5 1111.44,1256.8 1168.25,1256.8C1213.41,1256.8 1255.45,1233.23 1279,1194.7C1199.51,1202.95 1119.18,1192.86 1044.2,1165.2Z" style="fill:none;stroke:rgb(49,50,61);stroke-width:10px;"/>
                            <path d="M1109.5,988.5C1166.2,988.5 1253.2,1022.5 1294.4,1058.9" style="fill:none;stroke:rgb(49,50,61);stroke-width:30px;"/>
                        </g>
                        <g id="mouth">
                            <path d="M1387.6,1449.1C1387.6,1449.1 1395.5,1521.3 1456.1,1515.5C1514.8,1509.8 1517.5,1441.6 1517.5,1441.6C1517.5,1441.6 1498.1,1473 1460.1,1475.7C1422.1,1478.4 1387.6,1449.1 1387.6,1449.1Z" style="fill:rgb(89,89,89);fill-opacity:0.2;fill-rule:nonzero;"/>
                            <path d="M1371.7,1227.7C1369.24,1222.36 1370.14,1216.04 1374,1211.6C1382.2,1202.2 1400.4,1187.8 1435.9,1184.8C1471.4,1181.8 1489.2,1192.8 1497.9,1200.9C1502.21,1204.96 1503.71,1211.23 1501.7,1216.8C1499.05,1224.26 1492.36,1229.59 1484.5,1230.5C1474.5,1231.6 1460.9,1235.7 1453.1,1248.9C1452.62,1249.73 1452.05,1250.5 1451.4,1251.2L1451.1,1251.5C1447.75,1255.09 1443.06,1257.13 1438.16,1257.13C1433.54,1257.13 1429.1,1255.32 1425.8,1252.1C1422.5,1248.88 1417.6,1240.2 1390.6,1240.2C1382.56,1240.15 1375.24,1235.42 1371.9,1228.1L1371.7,1227.7Z" style="fill:rgb(49,50,61);fill-rule:nonzero;"/>
                            <path d="M1447.5,1255.1L1447.5,1255.6L1448,1257.3C1448.4,1258.8 1449.1,1261.1 1450.1,1263.9C1452.82,1271.87 1456.07,1279.65 1459.8,1287.2C1462.1,1291.9 1464.8,1296.9 1468,1302C1471.27,1307.36 1474.85,1312.54 1478.7,1317.5C1482.82,1322.77 1487.3,1327.75 1492.1,1332.4C1497.06,1337.21 1502.41,1341.59 1508.1,1345.5C1510.9,1347.5 1513.9,1349.3 1516.9,1351C1519.9,1352.7 1523,1354.2 1526.1,1355.6C1532.26,1358.34 1538.65,1360.51 1545.2,1362.1C1551.35,1363.57 1557.6,1364.54 1563.9,1365C1569.59,1365.41 1575.3,1365.48 1581,1365.2L1588.6,1364.6L1592.1,1364.2L1595.4,1363.7L1601.4,1362.7L1606.5,1361.7L1613.6,1360.1L1616.1,1359.5L1616.2,1359.5C1616.23,1359.5 1616.25,1359.5 1616.28,1359.5C1617.27,1359.5 1618.08,1360.31 1618.08,1361.3C1618.08,1361.97 1617.7,1362.59 1617.1,1362.9L1614.6,1363.7L1607.5,1365.7L1602.4,1367L1596.3,1368.3L1592.9,1368.9L1589.3,1369.5C1586.8,1369.9 1584.2,1370.2 1581.5,1370.5C1575.59,1371.09 1569.64,1371.33 1563.7,1371.2C1557.02,1371.04 1550.37,1370.34 1543.8,1369.1C1536.74,1367.76 1529.81,1365.78 1523.1,1363.2C1519.7,1361.9 1516.3,1360.4 1512.9,1358.7C1509.5,1357 1506.3,1355.2 1503.1,1353.3C1496.78,1349.41 1490.79,1344.99 1485.2,1340.1C1479.79,1335.36 1474.71,1330.25 1470,1324.8C1465.6,1319.7 1461.5,1314.36 1457.7,1308.8C1454.1,1303.5 1450.9,1298.3 1448.2,1293.5C1443.78,1285.63 1439.87,1277.48 1436.5,1269.1C1435.3,1266 1434.4,1263.6 1433.8,1261.9L1433.1,1259.9L1432.9,1259.2C1432.56,1258.34 1432.39,1257.41 1432.39,1256.49C1432.39,1252.37 1435.78,1248.99 1439.89,1248.99C1443.37,1248.99 1446.42,1251.41 1447.2,1254.8L1447.2,1255.1L1447.5,1255.1Z" style="fill:rgb(49,50,61);fill-rule:nonzero;"/>
                            <path d="M1318.9,1385.5L1321.3,1385.5L1328,1385.2C1330.9,1385 1334.4,1384.6 1338.3,1384C1342.2,1383.4 1346.7,1382.5 1351.4,1381.2C1356.51,1379.88 1361.52,1378.21 1366.4,1376.2L1368.4,1375.4L1370.3,1374.5L1374.2,1372.7C1376.8,1371.3 1379.4,1370 1382,1368.4L1383.9,1367.2L1385.8,1365.9L1389.6,1363.2L1391.4,1361.8L1393.2,1360.3C1394.45,1359.36 1395.65,1358.36 1396.8,1357.3L1400.2,1354.1L1403.4,1350.6C1405.6,1348.3 1407.4,1345.7 1409.4,1343.3C1409.9,1342.69 1410.37,1342.06 1410.8,1341.4L1412.1,1339.4L1413.4,1337.4C1413.84,1336.76 1414.24,1336.09 1414.6,1335.4L1416.9,1331.3L1418,1329.3L1419,1327.2C1420.38,1324.43 1421.61,1321.6 1422.7,1318.7C1423.81,1315.88 1424.78,1313.01 1425.6,1310.1C1427.22,1304.57 1428.56,1298.96 1429.6,1293.3L1430.8,1285.3L1431.1,1283.4C1431.2,1282.8 1431.2,1282.1 1431.3,1281.5L1431.6,1277.8C1431.8,1275.4 1432,1273.1 1432.1,1270.9L1432.3,1264.6L1432.3,1259C1432.24,1257.43 1432.28,1255.86 1432.4,1254.3C1432.56,1252.06 1433,1249.84 1433.7,1247.7C1433.97,1246.88 1434.31,1246.07 1434.7,1245.3L1434.7,1245C1435.68,1243.19 1437.57,1242.06 1439.63,1242.06C1441.64,1242.06 1443.51,1243.15 1444.5,1244.9C1444.89,1245.67 1445.23,1246.48 1445.5,1247.3C1446.24,1249.54 1446.71,1251.85 1446.9,1254.2C1447.04,1255.86 1447.07,1257.53 1447,1259.2L1446.6,1265.1L1446.2,1271.8C1446,1274.2 1445.6,1276.6 1445.3,1279.2L1444.8,1283.1C1444.7,1283.8 1444.6,1284.4 1444.5,1285.1L1444.1,1287.2L1442.5,1295.7C1441.8,1298.6 1441,1301.6 1440.2,1304.6L1439.6,1306.9C1439.4,1307.7 1439.1,1308.4 1438.8,1309.2L1437.2,1313.8C1436.2,1316.9 1434.8,1320 1433.5,1323.1C1432.15,1326.24 1430.65,1329.31 1429,1332.3L1427.8,1334.6L1426.4,1336.8L1423.6,1341.2C1423.14,1341.96 1422.64,1342.69 1422.1,1343.4L1420.5,1345.5L1418.9,1347.6C1418.4,1348.33 1417.87,1349.03 1417.3,1349.7C1414.9,1352.3 1412.8,1355.1 1410.2,1357.4L1406.4,1361L1402.4,1364.3C1401.1,1365.4 1399.7,1366.4 1398.3,1367.4C1396.9,1368.4 1395.6,1369.4 1394.1,1370.3L1389.8,1372.9L1387.6,1374.1L1385.4,1375.2C1382.6,1376.8 1379.6,1378 1376.7,1379.3L1372.4,1380.9L1370.3,1381.7L1368.2,1382.4C1362.93,1384.1 1357.55,1385.43 1352.1,1386.4C1347.53,1387.21 1342.93,1387.78 1338.3,1388.1C1334.2,1388.3 1330.6,1388.4 1327.6,1388.3L1320.7,1387.9L1318.9,1387.7L1318.3,1387.7C1317.84,1387.52 1317.53,1387.08 1317.53,1386.58C1317.53,1386.01 1317.94,1385.51 1318.5,1385.4L1318.9,1385.5Z" style="fill:rgb(49,50,61);fill-rule:nonzero;"/>
                            <path d="M1520.1,1438.4L1519.7,1440.2C1519.6,1440.8 1519.5,1441.5 1519.2,1442.4L1518.3,1445.5C1517.9,1446.6 1517.5,1447.8 1516.9,1449.1C1516.3,1450.4 1515.7,1451.8 1514.9,1453.3C1513.18,1456.59 1511.14,1459.71 1508.8,1462.6C1506.04,1466.05 1502.92,1469.2 1499.5,1472L1496.6,1474.2L1493.6,1476.3C1491.5,1477.6 1489.3,1478.9 1487,1480.1C1484.7,1481.3 1482.3,1482.3 1479.8,1483.2L1476,1484.5L1472.1,1485.6C1466.8,1486.94 1461.37,1487.71 1455.9,1487.9C1450.48,1488.11 1445.05,1487.77 1439.7,1486.9C1434.55,1486.04 1429.5,1484.7 1424.6,1482.9L1423.7,1482.6L1423.3,1482.4L1422.8,1482.4L1421.2,1481.7L1417.8,1480.2C1415.5,1479.1 1413.5,1478 1411.5,1476.8C1407.76,1474.61 1404.21,1472.1 1400.9,1469.3C1398.12,1466.96 1395.51,1464.42 1393.1,1461.7C1391.27,1459.6 1389.57,1457.4 1388,1455.1C1387.3,1454.2 1386.8,1453.3 1386.3,1452.5L1385.1,1450.5L1384.2,1448.8C1383.88,1448.37 1383.7,1447.84 1383.7,1447.3C1383.7,1445.93 1384.83,1444.8 1386.2,1444.8C1386.99,1444.8 1387.73,1445.17 1388.2,1445.8L1388.3,1445.8L1389.6,1447L1393.2,1450.3C1394.7,1451.7 1396.8,1453.3 1399.1,1455.1C1401.4,1456.9 1404.1,1458.7 1407.1,1460.5C1410.36,1462.44 1413.73,1464.18 1417.2,1465.7L1420,1466.9L1422.9,1468L1425.9,1469L1427.6,1469.5L1429.1,1469.9C1433.36,1471.1 1437.71,1471.97 1442.1,1472.5C1446.61,1473.05 1451.16,1473.21 1455.7,1473C1460.21,1472.78 1464.69,1472.17 1469.1,1471.2L1472.3,1470.4L1475.5,1469.5C1477.6,1468.9 1479.6,1468.1 1481.6,1467.3C1483.6,1466.5 1485.5,1465.6 1487.3,1464.7L1490,1463.3L1492.5,1461.8C1495.61,1459.85 1498.56,1457.64 1501.3,1455.2C1503.67,1453.11 1505.88,1450.84 1507.9,1448.4C1509.5,1446.51 1511,1444.54 1512.4,1442.5L1513.9,1440.2C1514.3,1439.6 1514.7,1438.8 1515,1438.3L1515.9,1436.7C1516.36,1436.27 1516.97,1436.03 1517.6,1436.03C1518.93,1436.03 1520.03,1437.08 1520.1,1438.4Z" style="fill:rgb(49,50,61);fill-rule:nonzero;"/>
                            <path d="M1542.7,1278.1L1546.7,1277.3L1558.1,1275.2C1568,1273.5 1582.1,1271.4 1599.1,1269.8C1618.48,1267.96 1637.94,1267.16 1657.4,1267.4C1668.1,1267.5 1679.1,1268 1690.3,1268.9C1701.5,1269.8 1712.8,1271.2 1724,1273.1C1735.2,1275 1746.4,1277.3 1757.2,1280.2C1767.81,1283.03 1778.26,1286.43 1788.5,1290.4C1798.05,1294.15 1807.36,1298.45 1816.4,1303.3C1824.49,1307.64 1832.31,1312.48 1839.8,1317.8C1846.11,1322.28 1852.15,1327.13 1857.9,1332.3L1861.6,1335.7L1864.9,1338.9L1867.9,1341.9L1870.6,1344.8C1872.3,1346.6 1873.7,1348.3 1875,1349.7L1878.1,1353.4L1880.7,1356.6L1878,1353.5L1874.8,1349.9C1873.5,1348.5 1872,1346.8 1870.3,1345.1L1867.6,1342.3L1864.5,1339.3L1861.1,1336.2L1857.3,1332.9C1851.44,1327.92 1845.29,1323.28 1838.9,1319C1831.36,1313.92 1823.51,1309.31 1815.4,1305.2C1806.34,1300.65 1797.03,1296.65 1787.5,1293.2C1777.28,1289.57 1766.86,1286.5 1756.3,1284C1745.5,1281.4 1734.5,1279.4 1723.3,1277.9C1712.1,1276.4 1701,1275.3 1689.9,1274.7C1678.8,1274.1 1668,1273.9 1657.4,1274.1C1638.21,1274.41 1619.05,1275.74 1600,1278.1C1583.3,1280.1 1569.5,1282.6 1559.9,1284.5L1548.8,1286.9L1544.9,1287.8C1544.65,1287.84 1544.39,1287.86 1544.13,1287.86C1541.39,1287.86 1539.13,1285.6 1539.13,1282.86C1539.13,1280.69 1540.54,1278.76 1542.6,1278.1L1542.7,1278.1Z" style="fill:rgb(49,50,61);fill-rule:nonzero;"/>
                            <path d="M1715.6,1228.8L1709,1229.1L1701.4,1229.5L1691.5,1230.2L1679.8,1231.2L1666.8,1232.7C1662.3,1233.3 1657.7,1233.9 1653,1234.7L1645.9,1235.8L1638.8,1237.1L1631.7,1238.5L1624.7,1239.9L1617.8,1241.4L1611.1,1243L1604.7,1244.6L1598.6,1246.2L1587.4,1249.3L1578,1252.1L1570.8,1254.4L1564.6,1256.5L1564.5,1256.5C1563.98,1256.67 1563.44,1256.76 1562.9,1256.76C1560.15,1256.76 1557.89,1254.5 1557.89,1251.75C1557.89,1249.6 1559.27,1247.68 1561.3,1247L1561.6,1247L1568.1,1245.3L1575.6,1243.4L1585.3,1241.1L1596.9,1238.6L1603.2,1237.4L1609.8,1236.2L1616.7,1235L1623.7,1233.9L1630.9,1232.9L1638.1,1232L1645.3,1231.2L1652.5,1230.5C1657.3,1230 1662,1229.8 1666.5,1229.4L1679.6,1228.8L1691.3,1228.5L1709,1228.5L1715.6,1228.8Z" style="fill:rgb(49,50,61);fill-rule:nonzero;"/>
                            <path d="M1556.6,1301.2L1564.3,1300L1568.6,1299.6L1573.7,1299.2C1577.3,1299.2 1581.4,1299 1585.8,1299.5L1589.2,1299.7L1592.7,1300.2L1596.3,1300.7L1600,1301.4L1603.8,1302.1L1607.6,1303L1611.5,1304L1615.4,1305.2L1619.3,1306.5L1623.2,1308L1627.1,1309.6L1631,1311.3L1633,1312.2L1634.9,1313.2L1638.8,1315.1L1646.4,1319.3C1651.3,1322.3 1656.2,1325.3 1660.8,1328.6C1665.4,1331.9 1669.8,1335.3 1673.9,1338.7C1678,1342.1 1681.9,1345.6 1685.5,1348.9C1689.1,1352.2 1692.3,1355.6 1695.3,1358.6C1698.3,1361.6 1700.9,1364.6 1703.1,1367.2C1705.3,1369.8 1707.3,1372.1 1708.9,1374.1C1712,1378 1713.7,1380.3 1713.7,1380.3C1713.7,1380.3 1711.9,1378.1 1708.6,1374.4C1706.9,1372.6 1704.9,1370.3 1702.5,1367.9C1700.1,1365.5 1697.3,1362.7 1694.2,1359.8C1691.1,1356.9 1687.7,1353.8 1684,1350.7C1680.3,1347.6 1676.3,1344.4 1672,1341.2C1667.7,1338 1663.3,1334.9 1658.6,1332C1653.9,1329.1 1649,1326.3 1644.1,1323.7L1636.5,1320.1L1632.7,1318.4L1630.8,1317.6L1628.9,1316.9L1625.1,1315.5L1621.3,1314.2L1617.5,1313L1613.7,1312L1610,1311L1606.3,1310.2L1602.7,1309.5L1599.1,1309L1595.6,1308.6L1592.2,1308.3L1588.9,1308L1585.8,1308C1581.7,1307.8 1578,1308.2 1574.6,1308.4L1570.1,1309L1566.3,1309.5L1558.7,1311.1C1558.37,1311.17 1558.04,1311.2 1557.7,1311.2C1554.96,1311.2 1552.7,1308.94 1552.7,1306.2C1552.7,1303.83 1554.38,1301.77 1556.7,1301.3L1557,1301.3L1556.6,1301.2Z" style="fill:rgb(49,50,61);fill-rule:nonzero;"/>
                            <path d="M1345.9,1303.2L1330.4,1300.2C1320.6,1298.3 1306.6,1295.5 1289.7,1292.8C1281.3,1291.4 1272.1,1290.1 1262.4,1288.8C1252.7,1287.5 1242.4,1286.5 1231.8,1285.6C1221.2,1284.7 1210.2,1284.2 1199,1284C1187.8,1283.8 1176.4,1284.1 1165.1,1284.8C1153.81,1285.53 1142.56,1286.83 1131.4,1288.7C1125.9,1289.6 1120.4,1290.7 1115.1,1291.9C1109.8,1293.1 1104.5,1294.5 1099.4,1296.1C1080.72,1301.53 1062.94,1309.65 1046.6,1320.2C1040.08,1324.45 1033.86,1329.17 1028,1334.3C1026.7,1335.4 1025.5,1336.6 1024.3,1337.7L1020.9,1340.9L1017.8,1344L1015.1,1346.9C1013.4,1348.7 1012,1350.4 1010.7,1351.9L1009,1354L1007.6,1355.8L1005.1,1359L1007.6,1355.7L1008.9,1353.9L1010.6,1351.8C1011.8,1350.3 1013.2,1348.5 1014.9,1346.7L1017.5,1343.7L1020.5,1340.5L1023.8,1337.1C1025,1336 1026.1,1334.7 1027.5,1333.6C1033.25,1328.28 1039.36,1323.36 1045.8,1318.9C1062.05,1307.75 1079.84,1299.02 1098.6,1293C1103.7,1291.3 1109,1289.8 1114.4,1288.4C1119.8,1287 1125.3,1285.7 1130.8,1284.7C1142.04,1282.49 1153.39,1280.86 1164.8,1279.8C1176.3,1278.7 1187.8,1278.2 1199.1,1278C1210.4,1277.8 1221.6,1278.1 1232.4,1278.7C1243.2,1279.3 1253.6,1280.1 1263.4,1281.1C1273.2,1282.1 1282.5,1283.2 1291.1,1284.4C1308.2,1286.7 1322.3,1289.1 1332.2,1290.8L1347.7,1293.4C1350.1,1293.81 1351.87,1295.91 1351.87,1298.35C1351.87,1301.11 1349.61,1303.37 1346.85,1303.37C1346.57,1303.37 1346.28,1303.35 1346,1303.3L1345.9,1303.3L1345.9,1303.2Z" style="fill:rgb(49,50,61);fill-rule:nonzero;"/>
                            <path d="M1171.2,1244.5L1173,1244.2L1178,1243.4L1185.8,1242.3L1195.9,1241.2C1203.3,1240.5 1212.1,1240.1 1221.5,1240.2C1226.2,1240.3 1231,1240.4 1236,1240.7L1243.4,1241.3L1250.8,1242.1L1258.3,1243.1L1265.7,1244.3C1270.6,1245.1 1275.3,1246.2 1279.9,1247.2L1286.7,1248.9L1293.1,1250.7C1297.3,1251.9 1301.2,1253.1 1304.8,1254.3L1314.5,1257.8L1321.9,1260.7L1326.6,1262.7L1328.3,1263.4C1330.13,1264.19 1331.32,1266.01 1331.32,1268C1331.32,1270.75 1329.05,1273.02 1326.3,1273.02C1325.61,1273.02 1324.93,1272.87 1324.3,1272.6L1324,1272.6L1322.4,1271.8L1318,1269.6L1311,1266.3L1301.8,1262.4C1298.4,1261 1294.7,1259.6 1290.7,1258.2L1284.6,1256.1L1278.1,1254.1C1273.7,1252.8 1269.1,1251.5 1264.4,1250.4L1257.3,1248.8L1250.1,1247.4L1242.8,1246.2L1235.6,1245.2C1230.8,1244.6 1226,1244.1 1221.4,1243.8C1212.2,1243.1 1203.5,1243 1196.1,1243.2L1186,1243.6L1178.2,1244.2L1173.2,1244.7L1171.2,1244.5Z" style="fill:rgb(49,50,61);fill-rule:nonzero;"/>
                            <path d="M1333.2,1327L1325.6,1325.1L1321.8,1324.5L1319.7,1324.2L1318.6,1324L1317.4,1324L1312.1,1323.6L1303.1,1323.6L1299.8,1323.9C1297.6,1324 1295.3,1324.5 1293,1324.8C1290.7,1325.1 1288.3,1325.8 1285.9,1326.3L1284.1,1326.7L1282.3,1327.2L1278.6,1328.3L1274.9,1329.6L1271.1,1331L1263.6,1334.2C1258.53,1336.58 1253.6,1339.21 1248.8,1342.1L1245.2,1344.3L1241.7,1346.6C1239.3,1348.1 1237.1,1349.8 1234.8,1351.4L1228.2,1356.4C1226.1,1358.1 1223.9,1359.8 1221.9,1361.5L1218.9,1364.1L1216,1366.7L1210.5,1371.8L1205.4,1376.8L1200.7,1381.6C1197.7,1384.7 1195.1,1387.6 1192.8,1390.2L1187,1397.1C1183.8,1401 1182.1,1403.3 1182.1,1403.3C1182.1,1403.3 1183.7,1400.9 1186.6,1396.9C1188.1,1394.9 1189.9,1392.4 1192.1,1389.7C1194.3,1387 1196.7,1383.9 1199.5,1380.6L1203.9,1375.5L1208.8,1370.2L1214.1,1364.8L1216.9,1362L1219.8,1359.2C1221.7,1357.3 1223.8,1355.5 1225.9,1353.7L1232.3,1348.3C1234.5,1346.6 1236.7,1344.7 1239.1,1343L1242.6,1340.4L1246.2,1337.9C1250.98,1334.65 1255.92,1331.64 1261,1328.9L1268.7,1325.1L1272.6,1323.4L1276.5,1321.8L1280.4,1320.4L1282.3,1319.7L1284.2,1319.1C1286.8,1318.4 1289.2,1317.5 1291.7,1317.1C1294.2,1316.7 1296.6,1315.9 1299,1315.7L1302.5,1315.2L1304.2,1315L1305.9,1315L1312.3,1314.6L1320.8,1314.6L1323.3,1314.9L1327.8,1315.4L1335.5,1316.8C1337.67,1317.39 1339.18,1319.38 1339.18,1321.62C1339.18,1324.37 1336.93,1326.62 1334.18,1326.62C1334.02,1326.62 1333.86,1326.62 1333.7,1326.6L1333.4,1326.6L1333.2,1327Z" style="fill:rgb(49,50,61);fill-rule:nonzero;"/>
                            <path d="M1366.9,1380.2C1366.9,1380.2 1377.5,1395.2 1385.6,1400.4C1386.19,1400.79 1386.92,1400.9 1387.6,1400.7C1388.5,1400.38 1389.13,1399.56 1389.2,1398.6C1389.7,1392.6 1391.6,1371.5 1395.6,1367.3C1399.6,1363.1 1366.9,1380.2 1366.9,1380.2Z" style="fill:white;fill-rule:nonzero;stroke:rgb(48,49,60);stroke-width:7px;stroke-linecap:butt;"/>
                            <path d="M1522,1358.2C1522,1358.2 1524.9,1379.3 1524.5,1386.2C1524.5,1386.2 1524.2,1389.8 1526.2,1390.4C1528.2,1391 1538.7,1382.9 1542.7,1367.1L1522,1358.2Z" style="fill:white;fill-rule:nonzero;stroke:rgb(48,49,60);stroke-width:7px;stroke-linecap:butt;"/>
                        </g>
                    </g>
                </g>
            </g>
        </g>
    </g>
    <defs>
        <linearGradient id="_Linear3" x1="0" y1="0" x2="1" y2="0" gradientUnits="userSpaceOnUse" gradientTransform="matrix(3.02243e-14,-493.6,493.6,3.02243e-14,2579.15,1935.2)"><stop offset="0" style="stop-color:white;stop-opacity:0"/><stop offset="0.72" style="stop-color:white;stop-opacity:0.35"/><stop offset="1" style="stop-color:white;stop-opacity:0.35"/></linearGradient>
        <linearGradient id="_Linear4" x1="0" y1="0" x2="1" y2="0" gradientUnits="userSpaceOnUse" gradientTransform="matrix(1.70226e-14,-278,278,1.70226e-14,2364.15,2291.47)"><stop offset="0" style="stop-color:rgb(128,128,128);stop-opacity:0.25"/><stop offset="0.27" style="stop-color:rgb(125,125,125);stop-opacity:0.25"/><stop offset="0.46" style="stop-color:rgb(116,116,116);stop-opacity:0.25"/><stop offset="0.64" style="stop-color:rgb(100,100,100);stop-opacity:0.25"/><stop offset="0.8" style="stop-color:rgb(77,77,77);stop-opacity:0.25"/><stop offset="0.95" style="stop-color:rgb(48,48,48);stop-opacity:0.25"/><stop offset="1" style="stop-color:rgb(36,36,36);stop-opacity:0.25"/></linearGradient>
        <linearGradient id="_Linear5" x1="0" y1="0" x2="1" y2="0" gradientUnits="userSpaceOnUse" gradientTransform="matrix(2.43815e-14,-398.18,398.18,2.43815e-14,2583.8,2124.84)"><stop offset="0" style="stop-color:rgb(128,128,128);stop-opacity:0.25"/><stop offset="0.27" style="stop-color:rgb(125,125,125);stop-opacity:0.25"/><stop offset="0.46" style="stop-color:rgb(116,116,116);stop-opacity:0.25"/><stop offset="0.64" style="stop-color:rgb(100,100,100);stop-opacity:0.25"/><stop offset="0.8" style="stop-color:rgb(77,77,77);stop-opacity:0.25"/><stop offset="0.95" style="stop-color:rgb(48,48,48);stop-opacity:0.25"/><stop offset="1" style="stop-color:rgb(36,36,36);stop-opacity:0.25"/></linearGradient>
        <linearGradient id="_Linear8" x1="0" y1="0" x2="1" y2="0" gradientUnits="userSpaceOnUse" gradientTransform="matrix(8.16778e-15,133.39,-133.39,8.16778e-15,1713.27,794.55)"><stop offset="0" style="stop-color:rgb(128,128,128);stop-opacity:0.4"/><stop offset="0.14" style="stop-color:rgb(121,121,121);stop-opacity:0.4"/><stop offset="0.35" style="stop-color:rgb(100,100,100);stop-opacity:0.4"/><stop offset="0.6" style="stop-color:rgb(67,67,67);stop-opacity:0.4"/><stop offset="0.89" style="stop-color:rgb(20,20,20);stop-opacity:0.4"/><stop offset="1" style="stop-color:black;stop-opacity:0.4"/></linearGradient>
        <linearGradient id="_Linear9" x1="0" y1="0" x2="1" y2="0" gradientUnits="userSpaceOnUse" gradientTransform="matrix(134,0,0,134,1041.15,888.73)"><stop offset="0" style="stop-color:rgb(128,128,128);stop-opacity:0.4"/><stop offset="0.14" style="stop-color:rgb(121,121,121);stop-opacity:0.4"/><stop offset="0.35" style="stop-color:rgb(100,100,100);stop-opacity:0.4"/><stop offset="0.6" style="stop-color:rgb(67,67,67);stop-opacity:0.4"/><stop offset="0.89" style="stop-color:rgb(20,20,20);stop-opacity:0.4"/><stop offset="1" style="stop-color:black;stop-opacity:0.4"/></linearGradient>
        <linearGradient id="_Linear11" x1="0" y1="0" x2="1" y2="0" gradientUnits="userSpaceOnUse" gradientTransform="matrix(5.75327e-14,-939.58,939.58,5.75327e-14,1980.63,2256.39)"><stop offset="0" style="stop-color:white;stop-opacity:0"/><stop offset="0.72" style="stop-color:white;stop-opacity:1"/><stop offset="1" style="stop-color:white;stop-opacity:1"/></linearGradient>
        <linearGradient id="_Linear12" x1="0" y1="0" x2="1" y2="0" gradientUnits="userSpaceOnUse" gradientTransform="matrix(8.30862e-15,-135.69,135.69,8.30862e-15,2116.32,2248.97)"><stop offset="0" style="stop-color:white;stop-opacity:0"/><stop offset="0.72" style="stop-color:white;stop-opacity:1"/><stop offset="1" style="stop-color:white;stop-opacity:1"/></linearGradient>
        <linearGradient id="_Linear13" x1="0" y1="0" x2="1" y2="0" gradientUnits="userSpaceOnUse" gradientTransform="matrix(8.30862e-15,-135.69,135.69,8.30862e-15,834.08,2253.08)"><stop offset="0" style="stop-color:white;stop-opacity:0"/><stop offset="0.72" style="stop-color:white;stop-opacity:0.7"/><stop offset="1" style="stop-color:white;stop-opacity:0.7"/></linearGradient>
        <linearGradient id="_Linear14" x1="0" y1="0" x2="1" y2="0" gradientUnits="userSpaceOnUse" gradientTransform="matrix(134.07,0,0,134.07,916.6,1819.55)"><stop offset="0" style="stop-color:white;stop-opacity:0"/><stop offset="0.72" style="stop-color:white;stop-opacity:1"/><stop offset="1" style="stop-color:white;stop-opacity:1"/></linearGradient>
        <linearGradient id="_Linear15" x1="0" y1="0" x2="1" y2="0" gradientUnits="userSpaceOnUse" gradientTransform="matrix(148.11,0,0,148.11,1817.86,1232.71)"><stop offset="0" style="stop-color:white;stop-opacity:0"/><stop offset="0.72" style="stop-color:white;stop-opacity:1"/><stop offset="1" style="stop-color:white;stop-opacity:1"/></linearGradient>
        <linearGradient id="_Linear16" x1="0" y1="0" x2="1" y2="0" gradientUnits="userSpaceOnUse" gradientTransform="matrix(174.81,0,0,174.81,1735.34,1202.52)"><stop offset="0" style="stop-color:white;stop-opacity:0"/><stop offset="0.72" style="stop-color:white;stop-opacity:1"/><stop offset="1" style="stop-color:white;stop-opacity:1"/></linearGradient>
        <linearGradient id="_Linear17" x1="0" y1="0" x2="1" y2="0" gradientUnits="userSpaceOnUse" gradientTransform="matrix(2.22702e-14,-363.7,363.7,2.22702e-14,1670.82,1197.92)"><stop offset="0" style="stop-color:white;stop-opacity:0"/><stop offset="0.72" style="stop-color:white;stop-opacity:1"/><stop offset="1" style="stop-color:white;stop-opacity:1"/></linearGradient>
    </defs>
</svg>
