<?xml version="1.0" encoding="UTF-8" standalone="no"?>
<!DOCTYPE svg PUBLIC "-//W3C//DTD SVG 1.1//EN" "http://www.w3.org/Graphics/SVG/1.1/DTD/svg11.dtd">
<svg width="100%" height="100%" viewBox="0 0 479 47" version="1.1" xmlns="http://www.w3.org/2000/svg" xmlns:xlink="http://www.w3.org/1999/xlink" xml:space="preserve" xmlns:serif="http://www.serif.com/" style="fill-rule:evenodd;clip-rule:evenodd;stroke-linejoin:round;stroke-miterlimit:1.41421;">
    <g transform="matrix(1,0,0,1,-384.974,-9293.37)">
        <g>
            <g transform="matrix(1.32177,0,0,0.996993,360.445,9042.5)">
                <path d="M366,266.007L356.043,252.807L42.623,252.807L32.667,266.007L32.667,283.607L42.623,296.807L356.043,296.807L366,283.607L366,266.007Z" style="fill:white;stroke:rgb(162,67,63);stroke-width:2.01px;"/>
            </g>
            <g transform="matrix(1.25,0,0,1.25,179.494,-2045.2)">
                <g transform="matrix(1.28571,0,0,1.02985,166.952,397.438)">
                    <path d="M285.5,8428.8L294.833,8439.97L285.5,8451.14L276.167,8439.97L285.5,8428.8Z" style="fill:white;stroke:rgb(162,67,63);stroke-width:1.44px;stroke-linecap:round;stroke-miterlimit:1.5;"/>
                </g>
                <g transform="matrix(0.25,0,0,0.26087,355.875,6886.66)">
                    <ellipse cx="712.5" cy="8443.64" rx="12" ry="11.5" style="fill:rgb(162,67,63);stroke:rgb(162,67,63);stroke-width:7.51px;stroke-linecap:round;stroke-miterlimit:1.5;"/>
                </g>
            </g>
            <g transform="matrix(1.25,0,0,1.25,-266.506,-2045.2)">
                <g transform="matrix(1.28571,0,0,1.02985,166.952,397.438)">
                    <path d="M285.5,8428.8L294.833,8439.97L285.5,8451.14L276.167,8439.97L285.5,8428.8Z" style="fill:white;stroke:rgb(162,67,63);stroke-width:1.44px;stroke-linecap:round;stroke-miterlimit:1.5;"/>
                </g>
                <g transform="matrix(0.25,0,0,0.26087,355.875,6886.66)">
                    <ellipse cx="712.5" cy="8443.64" rx="12" ry="11.5" style="fill:rgb(162,67,63);stroke:rgb(162,67,63);stroke-width:7.51px;stroke-linecap:round;stroke-miterlimit:1.5;"/>
                </g>
            </g>
        </g>
    </g>
</svg>
